<svg xmlns="http://www.w3.org/2000/svg" viewBox="0 0 500 500"><g id="freepik--background-complete--inject-2"><path d="M87.59,258.56l-13.12.27-6.66.12c-2.23,0-4.47,0-6.7.05h-.44v-.44l-.06-11.19v-.51h.5l13.24.06c4.42,0,8.83.11,13.24.16h.28v.27c0,1.89-.09,3.78-.13,5.65Zm0,0-.14-5.66c0-1.86-.11-3.7-.13-5.53l.27.27c-4.41.05-8.82.16-13.24.16l-13.24.07.5-.5,0,11.19-.45-.45c2.18,0,4.36,0,6.55.05l6.58.12Z" style="fill:#ebebeb"></path><path d="M72.82,272.67l-13.12.27-6.66.12c-2.23,0-4.47,0-6.7.05H45.9v-.44l-.06-11.19V261h.5l13.24.06c4.41,0,8.83.11,13.24.16h.28v.27c0,1.89-.08,3.78-.13,5.65Zm0,0L72.68,267c-.05-1.86-.11-3.7-.13-5.53l.27.27c-4.41.05-8.83.16-13.24.16L46.34,262l.5-.49-.05,11.19-.45-.45c2.18,0,4.36,0,6.55,0l6.58.12Z" style="fill:#ebebeb"></path><path d="M289.86,129.59l-13.12.28-6.66.11c-2.23.05-4.47,0-6.7.06h-.44v-.45l-.06-11.19v-.5h.5l13.24.06c4.42,0,8.83.12,13.24.17h.28v.27c0,1.9-.09,3.79-.13,5.65Zm0,0-.14-5.65c0-1.87-.11-3.71-.13-5.54l.27.27c-4.41,0-8.82.16-13.24.17l-13.24.06.5-.5-.05,11.19-.45-.45c2.18,0,4.36,0,6.55.06l6.58.11Z" style="fill:#ebebeb"></path><path d="M275.09,143.7,262,144l-6.66.11c-2.23,0-4.47,0-6.7.06h-.44v-.45l-.06-11.19V132h.5l13.24.06c4.42,0,8.83.12,13.24.17h.28v.27c0,1.9-.08,3.79-.13,5.65Zm0,0-.14-5.65c-.05-1.87-.11-3.71-.13-5.54l.27.27c-4.41.05-8.82.16-13.24.17l-13.24.06.5-.5-.05,11.19-.45-.45c2.18,0,4.36,0,6.55.06l6.58.11Z" style="fill:#ebebeb"></path><path d="M304.86,143.7l-13.12.28-6.67.11c-2.22,0-4.46,0-6.69.06h-.44v-.45l-.05-11.19V132h.5l13.24.06c4.41,0,8.83.12,13.24.17h.28v.27c0,1.9-.08,3.79-.13,5.65Zm0,0-.14-5.65c-.05-1.87-.11-3.71-.13-5.54l.27.27c-4.41.05-8.83.16-13.24.17l-13.24.06.5-.5-.05,11.19-.45-.45c2.18,0,4.36,0,6.55.06l6.57.11Z" style="fill:#ebebeb"></path><path d="M453.66,272.67l-13.13.27-6.66.12c-2.22,0-4.46,0-6.69.05h-.45v-.44l-.05-11.19V261h.5l13.24.06c4.41,0,8.83.11,13.24.16h.27v.27c0,1.89-.08,3.78-.13,5.65Zm0,0-.14-5.66c0-1.86-.12-3.7-.13-5.53l.27.27c-4.41.05-8.83.16-13.24.16l-13.24.06.5-.49-.06,11.19-.44-.45c2.18,0,4.36,0,6.54,0l6.58.12Z" style="fill:#ebebeb"></path><path d="M438.89,54.2l-13.13.28-6.66.11c-2.22,0-4.46,0-6.69.06H412V54.2l0-11.19v-.5h.51l13.24.06c4.41,0,8.82.12,13.24.17h.27V43c0,1.9-.09,3.79-.13,5.65Zm0,0-.14-5.65c-.05-1.87-.12-3.71-.14-5.54l.28.27c-4.42,0-8.83.16-13.24.17l-13.24.06.5-.5-.06,11.19-.44-.45c2.18,0,4.35,0,6.54.06l6.58.11Z" style="fill:#ebebeb"></path><path d="M453.66,68.31l-13.13.28-6.66.11c-2.22,0-4.46,0-6.69.06h-.45v-.45l-.05-11.19v-.5h.5l13.24.06c4.41,0,8.83.12,13.24.17h.27v.27c0,1.9-.08,3.79-.13,5.65Zm0,0-.14-5.65c0-1.87-.12-3.71-.13-5.54l.27.27c-4.41,0-8.83.16-13.24.17l-13.24.06.5-.5-.06,11.19-.44-.45c2.18,0,4.36,0,6.54.06l6.58.11Z" style="fill:#ebebeb"></path><path d="M87.59,54.2l-13.12.28-6.66.11c-2.23,0-4.47,0-6.7.06h-.44V54.2L60.61,43v-.5h.5l13.24.06c4.42,0,8.83.12,13.24.17h.28V43c0,1.9-.09,3.79-.13,5.65Zm0,0-.14-5.65c0-1.87-.11-3.71-.13-5.54l.27.27c-4.41,0-8.82.16-13.24.17l-13.24.06.5-.5,0,11.19-.45-.45c2.18,0,4.36,0,6.55.06l6.58.11Z" style="fill:#ebebeb"></path><circle cx="381.26" cy="98.28" r="44.02" transform="translate(177.86 435.39) rotate(-73.35)" style="fill:#ebebeb"></circle><circle cx="383.28" cy="99.26" r="42" transform="translate(-9.09 152.17) rotate(-22.2)" style="fill:#dbdbdb"></circle><circle cx="383.28" cy="99.26" r="39.35" transform="translate(-10.41 57.25) rotate(-8.43)" style="fill:#fff"></circle><path d="M421.74,90.91c-17.92,10.85-47.37,28.66-63.83,38.42a39.28,39.28,0,0,1-10.75-14.45L401.6,64.42A39.44,39.44,0,0,1,421.74,90.91Z" style="fill:#ebebeb;opacity:0.5"></path><path d="M422.6,100.63a39.11,39.11,0,0,1-2.6,12.79l-49.08,23.21a40.09,40.09,0,0,1-6.2-2.67C379.55,125.4,406.64,109.81,422.6,100.63Z" style="fill:#ebebeb;opacity:0.5"></path><rect x="382.9" y="62.76" width="0.76" height="5.96" style="fill:#c7c7c7"></rect><rect x="366.14" y="67.25" width="0.76" height="5.96" transform="translate(13.98 192.66) rotate(-30)" style="fill:#c7c7c7"></rect><rect x="353.88" y="79.52" width="0.76" height="5.96" transform="translate(105.66 348.03) rotate(-60)" style="fill:#c7c7c7"></rect><rect x="346.79" y="98.88" width="5.96" height="0.76" style="fill:#c7c7c7"></rect><rect x="351.28" y="115.63" width="5.96" height="0.76" transform="translate(-10.54 192.68) rotate(-30)" style="fill:#c7c7c7"></rect><rect x="363.54" y="127.9" width="5.96" height="0.76" transform="translate(72.34 381.76) rotate(-60.04)" style="fill:#c7c7c7"></rect><rect x="382.9" y="129.78" width="0.76" height="5.96" style="fill:#c7c7c7"></rect><rect x="399.65" y="125.3" width="0.76" height="5.96" transform="translate(-10.54 217.21) rotate(-30)" style="fill:#c7c7c7"></rect><rect x="411.92" y="113.03" width="0.76" height="5.96" transform="translate(105.67 415.05) rotate(-60)" style="fill:#c7c7c7"></rect><rect x="413.81" y="98.88" width="5.96" height="0.76" style="fill:#c7c7c7"></rect><rect x="409.32" y="82.12" width="5.96" height="0.76" transform="translate(13.99 217.22) rotate(-30)" style="fill:#c7c7c7"></rect><rect x="397.05" y="69.85" width="5.96" height="0.76" transform="translate(139.34 381.68) rotate(-60.03)" style="fill:#c7c7c7"></rect><polygon points="383.85 65.47 385.14 101.91 381.41 101.87 382.84 65.45 383.85 65.47" style="fill:#c7c7c7"></polygon><polygon points="406.55 86.55 382.03 102.2 380.25 98.92 406.07 85.66 406.55 86.55" style="fill:#a6a6a6"></polygon><path d="M384.55,99.26A1.27,1.27,0,1,1,383.28,98,1.27,1.27,0,0,1,384.55,99.26Z" style="fill:#c7c7c7"></path><path d="M288.7,204.73a70.13,70.13,0,0,0-3.32-6.67,35.19,35.19,0,0,0,4.89-3.12,1.59,1.59,0,1,0-2-2.5,36.07,36.07,0,0,1-4.52,2.84c-1.18-1.95-2.57-4.08-4.16-6.26-7.85-10.71-16.87-17.23-26.1-18.85-8.4-1.48-16.68,1.74-24.73,5.43-1.2-2.92-2.29-5.89-3.36-8.78-2.73-7.44-5.21-14.15-8.73-18.36a12.94,12.94,0,0,0-4.78-3.74,19,19,0,0,0-5.42-1.41h0l-.33,0h-.07c-6.2-.57-12.58,1.67-18.83,4.09,0-.15,0-.3,0-.46,1.49-14.61,3-29.71-11.05-37.57-6.12-3.42-13-4.14-21.15-2.2a82.07,82.07,0,0,0-15.09,5.6c-.14-14.68-.59-29.71-16.65-39.07-10.8-6.29-27-2.83-48.28,10.29-1.39.85-2.75,1.73-4.08,2.61-.24-1.15-.46-2.29-.69-3.42-3-15.26-5.64-28.45-14.65-31.34a1.6,1.6,0,0,0-1,3.05c7.21,2.31,9.78,15.23,12.49,28.92.31,1.56.62,3.13.94,4.72A217.68,217.68,0,0,0,46.72,105.2a1.6,1.6,0,0,0,2.16,2.36A214.23,214.23,0,0,1,68.81,91.89c3.52,16.29,8.72,32.39,23.53,36.33l.06,0h0c14.59,3.82,28.74-3,42.42-9.56l2-1c.23,12.74,1.56,25.42,14.1,33.93,11.28,7.65,22.49,4.4,32.61.55-1,12-.73,23.66,9.46,30.87a20.06,20.06,0,0,0,8.2,3.48c8.41,1.48,17.16-2.6,25.68-6.58l.23-.1c4.33,9.8,10.14,18.68,20.21,22a46.27,46.27,0,0,0,24.48,1.24h0l.3-.07h0a46.77,46.77,0,0,0,5.67-1.63c1.71-.6,3.27-1.25,4.66-1.9a69.88,69.88,0,0,1,3.25,6.45,1.58,1.58,0,0,0,1.2,1,1.61,1.61,0,0,0,.89-.1A1.59,1.59,0,0,0,288.7,204.73ZM71.67,90C82,83,94.41,76.25,105.39,74.35L80.82,115.84C76.2,109,73.68,99.46,71.67,90Zm20.46,34.87a20.3,20.3,0,0,1-9.22-6.24l26.48-44.71a21.55,21.55,0,0,1,12.34,2.55c.64.37,1.25.75,1.83,1.15Zm16.35.58a34.94,34.94,0,0,1-13,.23l30.7-46.15a25.69,25.69,0,0,1,6.52,8,1.51,1.51,0,0,0-.68.6l-23.25,36.61A1.73,1.73,0,0,0,108.48,125.4Zm25-9.59c-6.83,3.28-13.78,6.62-20.77,8.58l21.38-33.66c2.56,6.88,2.63,14.76,2.71,22.9v.59Zm9.69,21.75c-2.71-6.36-3-13.69-3.15-21.33,8.54-4,16.75-7.26,24.52-6.94ZM151.31,148a25.35,25.35,0,0,1-6.53-7.27,1.07,1.07,0,0,0,.14-.16l23.18-30.66.11-.16a22,22,0,0,1,6.46,2.39,21.28,21.28,0,0,1,2.51,1.63Zm10.58,3.27a1.58,1.58,0,0,0-.29,1.48,22.58,22.58,0,0,1-7.65-2.94l25.62-33.89a18.82,18.82,0,0,1,4.45,8.36Zm2.64,1.82,20.24-24.67c.61,5.55,0,11.78-.67,18.17l-.21,2.1C177.53,151.13,171.06,153.44,164.53,153.07ZM188.18,172c-2.33-6-2-13.29-1.3-21,5.75-2.24,11.27-4.37,16.51-4.55Zm6.69,8.53a18.51,18.51,0,0,1-5-5.18,1.19,1.19,0,0,0,.16-.23L207,146.6a15.8,15.8,0,0,1,3.67,1.06,9,9,0,0,1,2.89,2.08L197.41,182A18.64,18.64,0,0,1,194.87,180.48Zm23.9-21.58-6.92,23.74a21.78,21.78,0,0,1-11.43.47l15.29-30.55a44.93,44.93,0,0,1,3.13,6.14A1.18,1.18,0,0,0,218.77,158.9Zm6.78,18.19c-3.41,1.59-6.75,3.16-10,4.36l5.23-18c.56,1.45,1.11,2.94,1.67,4.45,1.09,3,2.21,6,3.44,9Zm4.48,1.45a78,78,0,0,1,11-4.27l2.57,22.33C237.43,192.73,233.31,185.94,230,178.54Zm18.3,20.3c-.48-.16-1-.33-1.41-.52a1.51,1.51,0,0,0,0-.52l-2.78-24.28a26.92,26.92,0,0,1,5.49-.51l5.92,27.56A43.52,43.52,0,0,1,248.33,198.84Zm10.45,2.09a1.63,1.63,0,0,0,0-.66l-5.79-27a27,27,0,0,1,6.68,2.15,1.25,1.25,0,0,0,.09.37l9.72,24.51A42.73,42.73,0,0,1,258.78,200.93Zm17.88-2.49c-1.34.47-2.68.87-4,1.21L264,178c7.42,5,13.15,12.7,16.85,18.78C279.61,197.32,278.2,197.9,276.66,198.44Z" style="fill:#ebebeb"></path><rect x="45.9" y="214.48" width="134.3" height="202.28" style="fill:#c7c7c7"></rect><rect x="57.56" y="228.1" width="110.98" height="63.88" style="fill:#fff"></rect><rect x="57.56" y="304.29" width="110.98" height="63.88" style="fill:#fff"></rect><rect x="57.56" y="380.48" width="110.98" height="36.28" style="fill:#fff"></rect><path d="M97.66,290.88H59s13.89-27.59,13.89-28.11V240.1H83.73v22.67C83.73,263.32,97.66,290.88,97.66,290.88Z" style="fill:#ebebeb"></path><rect x="71.8" y="237.8" width="13.08" height="2.29" style="fill:#ebebeb"></rect><path d="M129.91,290.88H91.27s13.89-27.59,13.89-28.11V240.1H116v22.67C116,263.32,129.91,290.88,129.91,290.88Z" style="fill:#ebebeb"></path><rect x="104.05" y="237.8" width="13.08" height="2.29" style="fill:#ebebeb"></rect><path d="M162.16,290.88H123.52s13.88-27.59,13.88-28.11V240.1h10.83v22.67C148.23,263.32,162.16,290.88,162.16,290.88Z" style="fill:#ebebeb"></path><rect x="136.3" y="237.8" width="13.08" height="2.29" style="fill:#ebebeb"></rect><rect x="62.3" y="327.97" width="19.84" height="39.26" style="fill:#ebebeb"></rect><rect x="60.38" y="322.97" width="23.68" height="5" style="fill:#dbdbdb"></rect><rect x="64.29" y="337.94" width="12.65" height="19.95" style="fill:#fff"></rect><rect x="88.71" y="327.97" width="19.84" height="39.26" style="fill:#ebebeb"></rect><rect x="86.78" y="322.97" width="23.68" height="5" style="fill:#dbdbdb"></rect><rect x="94.47" y="337.94" width="12.65" height="19.95" style="fill:#fff"></rect><rect x="115.11" y="327.97" width="19.84" height="39.26" style="fill:#ebebeb"></rect><rect x="113.19" y="322.97" width="23.68" height="5" style="fill:#dbdbdb"></rect><rect x="117.98" y="337.94" width="12.65" height="19.95" style="fill:#fff"></rect><rect x="141.51" y="327.97" width="19.84" height="39.26" style="fill:#ebebeb"></rect><rect x="139.59" y="322.97" width="23.68" height="5" style="fill:#dbdbdb"></rect><rect x="143.5" y="337.94" width="12.65" height="19.95" style="fill:#fff"></rect></g><g id="freepik--Character--inject-2"><path d="M292.4,416.76H210.6c-.26-1.47-.53-2.92-.78-4.37s-.58-3.14-.87-4.7c-.22-1.24-.44-2.48-.67-3.71-.1-.61-.22-1.22-.33-1.83-.45-2.42-.87-4.81-1.3-7.12-.11-.58-.21-1.16-.31-1.73a1.36,1.36,0,0,0-.06-.29c-.2-1.22-.43-2.41-.65-3.59,0-.26-.09-.51-.14-.77q-.69-3.76-1.32-7.27c0-.38-.13-.75-.2-1.13-.29-1.61-.57-3.16-.86-4.69-.15-.77-.27-1.54-.41-2.31-.42-2.26-.81-4.41-1.17-6.43h0c-.06-.27-.09-.53-.15-.77,0,0,0,0,0,0-.07-.4-.14-.8-.22-1.2s-.16-.75-.22-1.13h0c-.27-1.46-.51-2.84-.74-4.14a.37.37,0,0,0,0-.09c-.1-.58-.2-1.14-.31-1.68s-.19-1.08-.28-1.58c-.06-.34-.12-.68-.18-1v0c-.1-.46-.17-.91-.25-1.33s-.14-.78-.2-1.14-.1-.55-.15-.79c-.16-.88-.3-1.64-.43-2.33-.07-.45-.15-.86-.22-1.22s-.08-.44-.11-.63,0-.18-.05-.27a3.58,3.58,0,0,0-.06-.37,1,1,0,0,1,0-.17c0-.11,0-.19,0-.26s0-.06,0-.09l0-.13h77.28S282.88,377.32,292.4,416.76Z" style="fill:#263238"></path><path d="M222.73,416.76h-1.1q-5.74-30.42-11.39-60.86c0-.18.24-.26.28-.08Q216.66,386.29,222.73,416.76Z" style="fill:#37474f"></path><path d="M260.28,346.42l-2.67,27.39v.06L257,379.6h0l-.65,6.61h0l-.13,1.3-.11,1.19-2.74,28H210.6c-.26-1.47-.53-2.92-.78-4.37s-.58-3.14-.87-4.7c-.22-1.24-.44-2.48-.67-3.71-.1-.61-.22-1.22-.33-1.83-.45-2.42-.87-4.81-1.3-7.12-.11-.58-.21-1.16-.31-1.73a1.36,1.36,0,0,0-.06-.29c-.2-1.22-.43-2.41-.65-3.59,0-.26-.09-.51-.14-.77-.45-2.5-.88-4.92-1.32-7.27,0-.38-.13-.75-.2-1.13-.29-1.61-.57-3.16-.86-4.69-.15-.77-.27-1.54-.41-2.31-.42-2.26-.81-4.41-1.17-6.43h0c-.06-.27-.09-.53-.15-.77,0,0,0,0,0,0-.07-.4-.14-.8-.22-1.2s-.13-.76-.21-1.15h0c-.27-1.46-.51-2.82-.75-4.12a.37.37,0,0,0,0-.09c-.1-.58-.2-1.14-.31-1.68s-.19-1.08-.28-1.58c-.06-.34-.12-.68-.18-1v0c-.1-.46-.17-.91-.25-1.33s-.14-.78-.2-1.14-.1-.55-.15-.79c-.16-.88-.3-1.64-.43-2.33-.07-.45-.15-.86-.22-1.22s-.08-.44-.11-.63,0-.18-.05-.27a3.58,3.58,0,0,0-.06-.37,1,1,0,0,1,0-.17c0-.11,0-.19,0-.26s0-.06,0-.09a1.11,1.11,0,0,0,0-.13Z" style="fill:#37474f"></path><path d="M273.43,346.42c-7.4,16.45-11,33.94-14.55,38.49h0v0a20.1,20.1,0,0,1-2.62,2.59c-5.57,4.81-15.93,10.93-15.93,10.93,0,.19,0,.37,0,.55h0c-.15,5.68-.28,11.61-.4,17.74H150.28c-1.54-15.05-.13-38.81,9.86-70.34Z" style="fill:#263238"></path><path d="M261.43,383.77c-5.28,2.16-10,5.48-14.71,8.68-4.87,3.33-9.33,7.17-14,10.74-.18.14,0,.44.19.31,4.93-3.15,10.1-5.92,15-9.17s9.67-6.21,13.78-10.18A.23.23,0,0,0,261.43,383.77Z" style="fill:#37474f"></path><path d="M262.09,353.25c-.62,3.38-1.44,6.73-2.17,10.08-.69,3.15-1.19,6.37-2,9.48a16.2,16.2,0,0,1-4.42,7.95c-1.23,1.14-2.6,2.16-3.91,3.21-.71.57-1.48,1.12-2.22,1.69.1-.45.17-.9.25-1.36q.35-1.92.66-3.84c.48-2.85.93-5.7,1.37-8.55.86-5.61,1.65-11.27,2.81-16.82a.18.18,0,0,0-.34-.09c-1.4,5.5-2.94,10.94-4.16,16.49-.6,2.72-2.72,16.15-2.82,17.1s-.18,2-.21,3a11.24,11.24,0,0,0,0,3c.05.25.35.21.45,0h0a12,12,0,0,0,.85-2.92c.25-.95.46-1.93.64-2.9.06-.35.11-.71.16-1.07,1.32-.81,2.55-1.87,3.79-2.76s2.69-1.91,4-3a15.12,15.12,0,0,0,4.82-7.54,55,55,0,0,0,1.58-9.65c.43-3.81.74-7.65,1.27-11.45C262.47,353.12,262.14,353,262.09,353.25Z" style="fill:#37474f"></path><path d="M171.83,376.78c1.41-.74,6.9.57,16.88-1.14a11.38,11.38,0,0,0,5.39-2.19c2.6-2.12,4.57-5.53,6.15-8.46a43.61,43.61,0,0,0,4.3-10.44c0-.22.37-.12.33.1-.37,2.07-.58,4.13-1.12,6.17a38.92,38.92,0,0,1-2.07,5.61c-1.51,3.39-3.27,7-6.31,9.31-3.19,2.41-7.63,2.85-11.49,3.12-2.24.16-11-.08-12.18-1.33A.48.48,0,0,1,171.83,376.78Z" style="fill:#37474f"></path><path d="M230.29,221.94C250.22,240,287,266.85,302.14,270.78c16.77,4.37,48.88-36.81,70-62,4.21-5-32.7-40.09-36.91-34.5-11,14.59-33,47.41-37.11,47.73-3.36.26-35.82-10.51-54.06-16.8C215,195.16,216.27,209.23,230.29,221.94Z" style="fill:#eb9481"></path><path d="M326.75,183.45l37,41.9s-39.73,46.78-56.21,47.4S245.16,237.9,230.37,223s-13.28-26.14,8.74-19.74,56.14,17,59.16,16.18S326.75,183.45,326.75,183.45Z" style="fill:#ebebeb"></path><path d="M351.53,235.3c-12.62-18.85-28.74-36.75-31.33-40.07-.12-.16-.36.06-.23.21,2.71,3.13,18.91,25.58,31.3,40.09C351.42,235.7,351.65,235.48,351.53,235.3Z" style="fill:#263238"></path><path d="M321.78,266.35c-5.32,3.75-10.32,6.25-14.24,6.4-16.48.61-62.39-34.85-77.17-49.72-6.32-6.37-9.67-12.07-9.7-16C244.86,221.3,301.36,254.4,321.78,266.35Z" style="fill:#c7c7c7"></path><path d="M360.42,222.86l-33-37.85c.44-1.12,2.92-3.82,5.07-7.5,0,0,4.63-13,4.33-25.63-.24-10.57-1.79-26.24,3.89-26.58,8.28-.52,12.63,19.06,14.44,30.45,4.91-3.89,9.51-6.79,12.8-7.49,10.94-2.34,27.6,45.17,20.4,54C381.38,210.74,366.59,222,360.42,222.86Z" style="fill:#455a64"></path><rect x="361.69" y="112.91" width="14.9" height="37.93" transform="translate(28.45 -61.98) rotate(9.98)" style="fill:#FFC727"></rect><polygon points="354.29 225.24 351.21 224.69 360.48 149.62 371.21 151.5 354.29 225.24" style="fill:#fff"></polygon><path d="M354.39,225.38l-3.32-.58,0-.12,9.28-75.21,11,1.94,0,.12Zm-3-.79,2.85.5,16.86-73.48-10.47-1.85Z" style="fill:#263238"></path><path d="M351.79,155.23c-.82,5.76,6.44,3.43,6.44,3.43s-9.64,5.87-8.19,12.13c1.42,6,10.08,2.91,10.7,2.69-.5.32-9.22,5.94-7.11,12.08,2.19,6.38,10.35,1.76,10.87,1.46-.38.44-5.37,6.45-2.71,10.75,4.57,7.39,17.76-7.61,24.8-7.76,0,0,1.62,11.89,1.74,12.23,0,0,12.84-14,12.11-23.49a6.07,6.07,0,0,0-5.13-5.62s4.64-4.06,3.14-8.95c-.78-2.51-5.48-3.49-5.48-3.49s3.58-3.41,2-7.67c-1.28-3.41-5.8-3.87-5.8-3.87s1.92-4.87-.51-7.92C383.74,135.05,353.56,142.91,351.79,155.23Z" style="fill:#455a64"></path><path d="M388.44,149a.09.09,0,0,0,0-.17c-10.56.17-22.1,3.58-30.61,9.94-.28.21-.06.76.29.58C368.13,154.44,377.41,150.91,388.44,149Z" style="fill:#263238"></path><path d="M393.1,160.59c.12,0,.09-.22,0-.22-10.88.23-23.78,4.43-32.72,12.92-.31.29-.29.86.09.55C366.8,168.65,383.16,162.28,393.1,160.59Z" style="fill:#263238"></path><path d="M364.09,187.82c8.88-7.8,19.38-12,30.77-14.71.15,0,.08-.25-.05-.25-5.94-.18-13,2.32-18.36,4.73a31.33,31.33,0,0,0-12.64,9.92C363.68,187.69,363.9,188,364.09,187.82Z" style="fill:#263238"></path><path d="M358,158.6c-.34.25.4.46.07.72-1.37,1.1-9.07,8.43-7.39,11.83,1.35,2.72,5.95,2.79,7.72,2.12l4.46-1.68-3.61,3.13a19.61,19.61,0,0,0-4.08,4.82,7,7,0,0,0-1,5.61,4,4,0,0,0,4,3,12.22,12.22,0,0,0,5.74-1.9l4.84-2.9-3.61,4.3a18.26,18.26,0,0,0-2.53,3.94,7.59,7.59,0,0,0-.83,4.27,3.61,3.61,0,0,0,2.44,2.9,8,8,0,0,0,4.41-.52,61.73,61.73,0,0,0,8.76-4.38c1.45-.8,2.9-1.61,4.39-2.34a11.6,11.6,0,0,1,4.73-1.49,12.63,12.63,0,0,0-4.51,1.89c-1.42.84-2.79,1.75-4.17,2.66a53.07,53.07,0,0,1-8.72,4.94,9.34,9.34,0,0,1-5.27.78,5.08,5.08,0,0,1-3.76-4.12,9.23,9.23,0,0,1,.88-5.34,20,20,0,0,1,2.75-4.42l1.23,1.4a13.85,13.85,0,0,1-6.75,2.32,5.79,5.79,0,0,1-3.73-1.17,6.53,6.53,0,0,1-2.15-3.21,8.79,8.79,0,0,1,1.26-7.11,21,21,0,0,1,4.58-5.23l.85,1.45c-2.29.77-7.43,1.25-10.06-2.7C346.36,166.48,356.16,159.71,358,158.6Z" style="fill:#263238"></path><path d="M358.23,158.66a12,12,0,0,1-3.57-.13,2.71,2.71,0,0,1-2.1-1.76,5.45,5.45,0,0,1,.27-3.11c.37-1.11.81-2.26,1.32-3.43a9.28,9.28,0,0,0-2.49,2.93,5.46,5.46,0,0,0-.65,4.12,3.9,3.9,0,0,0,1.39,1.85,4,4,0,0,0,2.09.65A6.31,6.31,0,0,0,358.23,158.66Z" style="fill:#263238"></path><path d="M280.54,360.71l-130.78,7.81s12.26-118.42,55-164.08c5.28-5.64,18.39-5.7,27.26-2.29,3.17,1.22,14.61,16.33,19.06,30.41S280.84,360.25,280.54,360.71Z" style="fill:#FFC727"></path><path d="M204.76,204.44S222.09,256.38,223,264.1s20.82,152.65,20.82,152.65H142.12s7.64-109.31,31.18-162.64C195.91,202.92,204.76,204.44,204.76,204.44Z" style="fill:#ebebeb"></path><path d="M204,205.15c-.66,3.4-1.28,6.82-1.89,10.23l-1.83,10.24q-1.78,10.26-3.46,20.52l-.1.62.58.29q5.92,2.88,11.87,5.69l-.46-1.26L202.06,266l-.22.48.29.44q6.38,9.46,12.91,18.82c2.18,3.11,4.37,6.23,6.59,9.32s4.42,6.19,6.69,9.25c-2-3.27-4-6.48-6-9.71s-4.07-6.44-6.12-9.64c-4.13-6.39-8.28-12.76-12.51-19.09l.08.92,6.64-14.56.4-.86-.86-.4q-6-2.79-11.95-5.51l.48.91q1.5-10.31,2.88-20.61l1.35-10.32C203.14,212,203.58,208.6,204,205.15Z" style="fill:#dbdbdb"></path><path d="M172.8,366.58c-.39,12.47.18,26.57,2.83,29.16,5,4.86,18.2,4.45,22.34,4.41s19,0,22.45-7.68c1.54-3.37,1.94-20.77,1.9-26.93,0-2.5-.58-14.81-.76-16.18-.05-.33-.93-.29-1-.08-.21,1.41-.08,6.52-.15,7.49-23.85,3.07-38.61.5-46.27-1,0-2.3,0-4.09,0-6.39,3.28.82,14.31,2.14,22.59,2.14a247.75,247.75,0,0,0,24.77-1.76c.19,0,.05-1-.24-.94-3.1,0-13.88,1.1-24.73,1.1a197,197,0,0,1-23.2-1.81C173,348.25,173,360.61,172.8,366.58Zm4.28,27.74c-2.63-3-3-11.73-3-16.93,0-7.17,0-12.9.05-20.07,18.36,4.27,38.57,2.17,46.23.62,0,.3.14,15.43,0,20.25-.18,6.16-.38,11.72-2.74,14.92-2,2.74-7.74,5.49-20.88,5.48C187.29,398.58,179.28,396.85,177.08,394.32Z" style="fill:#dbdbdb"></path><path d="M233.45,202.53s14.6,49.63,15.49,56.92,28.88,157.3,28.88,157.3h18.8S256.89,247.7,252,231.64,233.45,202.53,233.45,202.53Z" style="fill:#ebebeb"></path><path d="M234.58,205.15c1.43,2.55,2.9,5.08,4.37,7.61s2.93,5.07,4.43,7.58q4.45,7.56,9,15l.06-1q-3,3.64-6,7.35l-.48.59.46.64,7.82,11-.19-.57q.3,10.42.79,20.84c.16,3.47.33,6.94.54,10.41s.41,6.95.68,10.42c.09-3.47.08-6.95.12-10.42s0-6.95,0-10.42c-.06-6.95-.15-13.89-.32-20.84V253l-.18-.25-7.8-11,0,1.23q3-3.72,5.87-7.49l.4-.52-.35-.54q-4.69-7.38-9.47-14.71c-1.59-2.45-3.21-4.88-4.82-7.31S236.23,207.55,234.58,205.15Z" style="fill:#dbdbdb"></path><polygon points="227.35 233.49 230.6 223.69 239.52 230.51 238.58 237.64 231.57 239.47 227.35 233.49" style="fill:#263238"></polygon><polygon points="231.57 239.47 238.37 320.05 251.13 344.11 258.06 316.13 238.58 237.64 231.57 239.47" style="fill:#263238"></polygon><g style="opacity:0.8"><path d="M352,291.5h0a7.37,7.37,0,0,1-7.37-7.37V219.94h14.73v64.19A7.36,7.36,0,0,1,352,291.5Z" style="fill:#fff"></path><path d="M352,291.62a7.5,7.5,0,0,1-7.49-7.49V219.82h15v64.31A7.5,7.5,0,0,1,352,291.62Zm-7.24-71.55v64.06a7.24,7.24,0,0,0,14.48,0V220.07Z" style="fill:#263238"></path></g><path d="M346.09,235.06v49.1a5.93,5.93,0,0,0,11.86,0v-49.1Z" style="fill:#FFC727"></path><path d="M356.56,285.09h0a.63.63,0,0,1-.62-.63V229a.62.62,0,0,1,.62-.62h0a.63.63,0,0,1,.63.62v55.48A.63.63,0,0,1,356.56,285.09Z" style="fill:#fff;opacity:0.4"></path><path d="M354.78,267.47h0a.38.38,0,0,1-.37-.37v-33a.37.37,0,0,1,.37-.37h0a.36.36,0,0,1,.37.37v33A.37.37,0,0,1,354.78,267.47Z" style="fill:#fff;opacity:0.4"></path><rect x="346.85" y="247.7" width="10.34" height="31.92" style="fill:#fff"></rect><rect x="346.85" y="247.7" width="3.43" height="31.92" style="fill:#455a64"></rect><path d="M349.08,271.36a.46.46,0,0,1,.21.05.42.42,0,0,1,.16.13.72.72,0,0,1,.09.2.67.67,0,0,1,0,.24v.93h-1.93v-1a.34.34,0,0,1,0-.18.41.41,0,0,1,.12-.14.38.38,0,0,1,.15-.09.57.57,0,0,1,.18,0,.54.54,0,0,1,.27.07.46.46,0,0,1,.18.21.48.48,0,0,1,.17-.26A.49.49,0,0,1,349.08,271.36ZM348,272.54h.49V272a.22.22,0,0,0-.07-.16.21.21,0,0,0-.18-.07.28.28,0,0,0-.18.06.2.2,0,0,0-.06.15Zm1-.8h-.1l-.08.05s0,.05-.06.07a.29.29,0,0,0,0,.09v.58h.51V272a.36.36,0,0,0,0-.1.18.18,0,0,0-.05-.07l-.08-.05A.18.18,0,0,0,349,271.74Z" style="fill:#fff"></path><path d="M349.58,270.82h-1.93v-.37h1.6v-1h.33Z" style="fill:#fff"></path><path d="M349.59,268.29a1,1,0,0,1-.08.39,1.06,1.06,0,0,1-.22.29.94.94,0,0,1-.32.19.86.86,0,0,1-.36.07.94.94,0,0,1-.37-.07,1,1,0,0,1-.31-.2.81.81,0,0,1-.21-.3.79.79,0,0,1-.08-.38.81.81,0,0,1,.08-.38.92.92,0,0,1,.23-.29.89.89,0,0,1,.31-.19.92.92,0,0,1,.36-.07.94.94,0,0,1,.37.07,1,1,0,0,1,.31.2,1,1,0,0,1,.21.3A.91.91,0,0,1,349.59,268.29Zm-1,.56a.61.61,0,0,0,.24,0,.53.53,0,0,0,.21-.11.39.39,0,0,0,.14-.17.51.51,0,0,0,0-.48.49.49,0,0,0-.14-.18l-.21-.11-.24,0a.67.67,0,0,0-.24,0,.53.53,0,0,0-.21.11,1.15,1.15,0,0,0-.14.17.6.6,0,0,0,0,.24.48.48,0,0,0,.06.24.49.49,0,0,0,.14.18.68.68,0,0,0,.21.1A.59.59,0,0,0,348.61,268.85Z" style="fill:#fff"></path><path d="M349.59,266a.92.92,0,0,1-.08.38,1.11,1.11,0,0,1-.22.3,1.13,1.13,0,0,1-.32.19,1,1,0,0,1-.36.07,1,1,0,0,1-.37-.08,1,1,0,0,1-.31-.19,1,1,0,0,1-.21-.3.84.84,0,0,1-.08-.38.79.79,0,0,1,.08-.38.86.86,0,0,1,.23-.3,1.08,1.08,0,0,1,.31-.19,1.15,1.15,0,0,1,.36-.07,1,1,0,0,1,.37.08,1,1,0,0,1,.31.19,1,1,0,0,1,.21.3A.92.92,0,0,1,349.59,266Zm-1,.56a.86.86,0,0,0,.24,0,.7.7,0,0,0,.21-.11.49.49,0,0,0,.14-.18.51.51,0,0,0,0-.48.39.39,0,0,0-.14-.17.71.71,0,0,0-.21-.11.74.74,0,0,0-.48,0,.7.7,0,0,0-.21.11.86.86,0,0,0-.14.18.59.59,0,0,0,0,.23.54.54,0,0,0,.06.25.46.46,0,0,0,.14.17.7.7,0,0,0,.21.11A.85.85,0,0,0,348.61,266.56Z" style="fill:#fff"></path><path d="M349.58,264.52h-1.93v-.7a.88.88,0,0,1,.08-.41.79.79,0,0,1,.2-.3.87.87,0,0,1,.31-.18,1.1,1.1,0,0,1,.37-.06,1,1,0,0,1,.4.07.77.77,0,0,1,.3.19.79.79,0,0,1,.2.3,1.23,1.23,0,0,1,.07.39Zm-1-1.27a.75.75,0,0,0-.26,0,.56.56,0,0,0-.2.11.59.59,0,0,0-.13.18.61.61,0,0,0,0,.24v.33h1.27v-.33a.6.6,0,0,0-.05-.24.49.49,0,0,0-.14-.18.43.43,0,0,0-.2-.11A.69.69,0,0,0,348.61,263.25Z" style="fill:#fff"></path><path d="M348,260.07v.62h1.6v.37H348v.62h-.33v-1.61Z" style="fill:#fff"></path><path d="M349.25,258.25h.33v1.34h-1.93v-1.31H348v.94h.46v-.81h.31v.81h.5Z" style="fill:#fff"></path><path d="M348.15,256.61a.25.25,0,0,0,0,.07.67.67,0,0,0-.06.12.75.75,0,0,0-.05.16.47.47,0,0,0,0,.17.37.37,0,0,0,.06.23.19.19,0,0,0,.16.07l.1,0a.22.22,0,0,0,.07-.09.39.39,0,0,0,0-.13c0-.06,0-.12.06-.2a1.47,1.47,0,0,1,.08-.25.64.64,0,0,1,.11-.2.44.44,0,0,1,.15-.12.69.69,0,0,1,.49,0,.55.55,0,0,1,.18.16.8.8,0,0,1,.1.23,1.12,1.12,0,0,1,0,.27,1.29,1.29,0,0,1-.07.43,1.21,1.21,0,0,1-.18.38l-.32-.17.06-.09a1,1,0,0,0,.08-.15.85.85,0,0,0,.06-.19.78.78,0,0,0,0-.22c0-.2-.06-.31-.2-.31a.18.18,0,0,0-.1,0,.27.27,0,0,0-.08.1,1.38,1.38,0,0,0-.06.16l-.06.2a1,1,0,0,1-.08.24.56.56,0,0,1-.11.17.28.28,0,0,1-.14.1.36.36,0,0,1-.19,0,.55.55,0,0,1-.26-.06.4.4,0,0,1-.19-.15.51.51,0,0,1-.11-.22.8.8,0,0,1,0-.27,1.16,1.16,0,0,1,.06-.38,1.4,1.4,0,0,1,.15-.3Z" style="fill:#fff"></path><path d="M348,254.42V255h1.6v.37H348V256h-.33v-1.6Z" style="fill:#fff"></path><rect x="351.05" y="278.14" width="5.36" height="0.32" style="fill:#263238"></rect><rect x="351.05" y="277.53" width="5.36" height="0.32" style="fill:#263238"></rect><rect x="351.05" y="275.68" width="5.36" height="0.32" style="fill:#263238"></rect><rect x="351.05" y="273.23" width="5.36" height="0.32" style="fill:#263238"></rect><rect x="351.05" y="272.16" width="5.36" height="0.32" style="fill:#263238"></rect><rect x="351.05" y="270.77" width="5.36" height="0.32" style="fill:#263238"></rect><rect x="351.05" y="269.57" width="5.36" height="0.32" style="fill:#263238"></rect><rect x="351.05" y="267.21" width="5.36" height="0.32" style="fill:#263238"></rect><rect x="351.05" y="266.56" width="5.36" height="0.32" style="fill:#263238"></rect><rect x="351.05" y="264.2" width="5.36" height="0.32" style="fill:#263238"></rect><rect x="351.05" y="263.31" width="5.36" height="0.54" style="fill:#263238"></rect><rect x="351.05" y="264.91" width="5.36" height="0.54" style="fill:#263238"></rect><rect x="351.05" y="268.57" width="5.36" height="0.54" style="fill:#263238"></rect><rect x="351.05" y="274.76" width="5.36" height="0.54" style="fill:#263238"></rect><rect x="351.05" y="273.95" width="5.36" height="0.54" style="fill:#263238"></rect><rect x="351.05" y="271.37" width="5.36" height="0.54" style="fill:#263238"></rect><rect x="351.05" y="262.94" width="5.36" height="0.16" style="fill:#263238"></rect><rect x="351.05" y="265.68" width="5.36" height="0.16" style="fill:#263238"></rect><rect x="351.05" y="266.15" width="5.36" height="0.16" style="fill:#263238"></rect><rect x="351.05" y="267.95" width="5.36" height="0.16" style="fill:#263238"></rect><rect x="351.05" y="270.26" width="5.36" height="0.16" style="fill:#263238"></rect><rect x="351.05" y="272.77" width="5.36" height="0.16" style="fill:#263238"></rect><rect x="351.05" y="276.29" width="5.36" height="0.16" style="fill:#263238"></rect><rect x="351.05" y="276.69" width="5.36" height="0.16" style="fill:#263238"></rect><rect x="351.05" y="277.08" width="5.36" height="0.16" style="fill:#263238"></rect><rect x="351.05" y="262.18" width="5.36" height="0.32" style="fill:#263238"></rect><path d="M355.63,261.1h-3.8a.71.71,0,0,1-.71-.72V249.74a.71.71,0,0,1,.71-.71h3.8a.71.71,0,0,1,.71.71v10.64A.71.71,0,0,1,355.63,261.1Zm-3.8-11.88a.51.51,0,0,0-.51.52v10.64a.51.51,0,0,0,.51.52h3.8a.52.52,0,0,0,.52-.52V249.74a.52.52,0,0,0-.52-.52Z" style="fill:#263238"></path><rect x="351.29" y="254.97" width="4.88" height="0.19" style="fill:#263238"></rect><rect x="352.11" y="249.64" width="0.19" height="1.15" style="fill:#263238"></rect><rect x="351.64" y="250.12" width="1.15" height="0.19" style="fill:#263238"></rect><rect x="351.64" y="255.79" width="1.15" height="0.19" style="fill:#263238"></rect><path d="M210.46,221.72c7.73,8.87,49.81,75.59,49.7,83.21-.17,11.93-5,42.92-31.3,33.18-18.22-6.75-33-72.67-37.12-102.34C189.2,217.38,196.65,205.89,210.46,221.72Z" style="fill:#eb9481"></path><path d="M291.14,279.56c6.64,0,34.92,41.05,26.14,45.33C276,345,241,342,232.31,339.19,221,335.56,217.73,321,221.12,314,226.05,303.85,284.57,279.54,291.14,279.56Z" style="fill:#eb9481"></path><path d="M288.12,280.14s15.82-13.4,26.5-22.31c6-5,16.94-12.58,23-14.23,9-2.46,48.46-7,49.77,2.53,1.18,8.63-33.17,8.23-33.17,8.23s34.7-2.66,34.21,8-39.24,5-39.24,5,35.71-1.93,33.48,9c-1.7,8.24-37.08,5.14-37.08,5.14s30.71-1.45,29.33,7.1c-1.52,9.44-34.36,8.63-34.36,8.63-7.15,21.14-20.77,31.91-32.65,31.9C305.46,329.12,288.12,280.14,288.12,280.14Z" style="fill:#455a64"></path><path d="M342.14,254.51c4.06-.46,8.17-.95,12.26-1s8.19-.05,12.28.23c10,.7,16.17,2.7,15.78,2.62-9.32-1.95-24-1.83-28.07-1.73s-8.17,0-12.26.08C342,254.67,342,254.52,342.14,254.51Z" style="fill:#263238"></path><path d="M342.22,269.29c5.21-.36,10.38-.91,15.61-1.05s10.16.2,15.37.43c.4,0,.26.23-.15.22-5.21,0-10,.37-15.23.41s-10.42-.12-15.6.11C342.14,269.42,342.14,269.3,342.22,269.29Z" style="fill:#263238"></path><path d="M340,282c7.94-1,16.05-.46,24,.22.39,0,.18.29-.23.28-8-.23-14.23-.46-23.74-.22C339.89,282.27,339.84,282,340,282Z" style="fill:#263238"></path><path d="M288.18,279.34l22.39,56.48s-68.28,16.27-85.22,1.83-31.48-68.92-34.89-99.38,12.76-31,25.17-10.88,41.09,62.88,41.09,62.88Z" style="fill:#ebebeb"></path><path d="M292.38,336.12c-5.8-21.92-15.23-44.09-16.6-48.07-.07-.19-.36-.06-.29.13,1.55,3.83,9.58,30.33,16.58,48.08C292.15,336.47,292.44,336.34,292.38,336.12Z" style="fill:#263238"></path><path d="M272.37,342.46c-9.3.92-21.58,1.82-30.06,1a35.1,35.1,0,0,1-12.08-3.15,20.2,20.2,0,0,1-5.07-3.5,28,28,0,0,1-4.22-5.51,174,174,0,0,1-12.57-24.67c-3.59-8.56-6.69-17.32-9.49-26.17s-5.59-17.75-8.16-26.69c-.32-1.1-.64-2.2-.95-3.31a.14.14,0,0,0-.27.06c1.66,6.33,3.19,12.68,4.85,19-1.64-3.4-3.27-6.79-4.77-10.26-.06-.15-.28,0-.22.11a105.14,105.14,0,0,0,5.52,12.14c.59,2.18,1.19,4.36,1.83,6.53A277.83,277.83,0,0,0,206,304.8,179.23,179.23,0,0,0,218.54,330c2.35,3.88,4.84,7.59,8.75,10.05a31,31,0,0,0,11.79,4.07,71.69,71.69,0,0,0,14,.67c5-.2,18.07-1.82,19.29-2.17A.08.08,0,0,0,272.37,342.46Z" style="fill:#263238"></path><path d="M263.68,287.62c-1.15.32-2.25.82-3.37,1.23s-2.23.83-3.33,1.28c-2.28.94-4.54,1.91-6.8,2.88-4.53,2-8.83,4.33-13.14,6.72-.35.2-.1.75.26.57,4.35-2.19,8.82-4.17,13.18-6.33,2.17-1.08,4.35-2.11,6.55-3.11,1.09-.49,2.16-1,3.23-1.49s2.36-1,3.47-1.59C263.81,287.74,263.78,287.59,263.68,287.62Z" style="fill:#263238"></path><path d="M257.08,290.3q-1.41-2.25-2.95-4.41c-1-1.45-2-2.95-3.23-4.29a.09.09,0,0,0-.15.1,29.54,29.54,0,0,0,2.79,4.52,36.78,36.78,0,0,0,3.43,4.16C257,290.43,257.13,290.37,257.08,290.3Z" style="fill:#263238"></path><path d="M229.38,225.07c-7.5.73-18.45-12.06-22.15-21.72-.25-.67,1.58-7,3.44-14.88,1.11-4.77,2.23-10.1,2.9-15,.13-1,30,11.74,30,11.74s-4.45,9.94-5.57,18.56a10.26,10.26,0,0,0-.06,2.06c0,.09,0,.21,0,.34C238,210.06,236.62,224.36,229.38,225.07Z" style="fill:#eb9481"></path><path d="M212.3,180.92c8.89,18.15,23.07,18.81,26.38,18.7a88.7,88.7,0,0,1,4.84-14.45s-29.82-12.75-30-11.73C213.23,175.87,212.79,178.42,212.3,180.92Z" style="fill:#263238"></path><path d="M208.9,134.16c-3.82,10.94.78,43.17,8.38,50.61,11,10.79,29.68,12.51,39-.88,9-13,2.3-54.86-6.24-61.69C237.45,112.14,214.53,118,208.9,134.16Z" style="fill:#eb9481"></path><path d="M239.26,156.63c0-.08-.16.13-.14.22.37,2.16.42,4.7-1.44,5.69-.06,0,0,.14,0,.12C240.06,162,240,158.62,239.26,156.63Z" style="fill:#263238"></path><path d="M237,154.63c-3.53.22-2.84,7.26.43,7.06S240,154.45,237,154.63Z" style="fill:#263238"></path><path d="M252,154.92c0-.08.18.09.18.18.15,2.19.68,4.67,2.73,5.2.06,0,.07.13,0,.13C252.47,160.32,251.79,157,252,154.92Z" style="fill:#263238"></path><path d="M253.73,152.45c3.49-.61,4.45,6.4,1.22,7S250.81,153,253.73,152.45Z" style="fill:#263238"></path><path d="M233.94,153a28,28,0,0,0,2.9,0,4.65,4.65,0,0,0,3-.59,1.5,1.5,0,0,0,.36-1.79,3.7,3.7,0,0,0-3.42-1.57,5.48,5.48,0,0,0-3.73,1.21A1.6,1.6,0,0,0,233.94,153Z" style="fill:#a6a6a6"></path><path d="M256.11,148.64a27.63,27.63,0,0,1-2.87-.45,4.71,4.71,0,0,1-2.84-1,1.49,1.49,0,0,1-.09-1.83,3.71,3.71,0,0,1,3.6-1.05,5.4,5.4,0,0,1,3.52,1.75A1.59,1.59,0,0,1,256.11,148.64Z" style="fill:#a6a6a6"></path><path d="M238.72,176.25c.57.46,1.16,1.11,2,1.1a5.78,5.78,0,0,0,2.29-.78.08.08,0,0,1,.11.11,3,3,0,0,1-2.66,1.45,2.33,2.33,0,0,1-1.9-1.76C238.47,176.25,238.63,176.18,238.72,176.25Z" style="fill:#263238"></path><path d="M240.37,169.49a7.42,7.42,0,0,0,5.28,2.82,9.36,9.36,0,0,0,2.69-.14,2.61,2.61,0,0,0,.5-.11,3,3,0,0,0,.47-.12.54.54,0,0,0,.39-.53h0a1.85,1.85,0,0,0,0-.23h0l0-.19c-.11-1.69-.53-4.23-.53-4.23.65.25,3.91,1.35,3.78.48-1.15-7.23-2.43-15.26-5.09-22.2a.21.21,0,0,0-.4.09c.83,7,2.88,13.78,3.83,20.78a13.33,13.33,0,0,0-3.62-.72c-.23.1.89,4.9.89,5.66a.45.45,0,0,1,0,.08c-2.79.64-5,0-7.93-1.63C240.38,169.17,240.22,169.33,240.37,169.49Z" style="fill:#263238"></path><g style="opacity:0.2"><path d="M242.56,141.56a26.64,26.64,0,0,0,3.68.13c1.25-.09,2.46-.43,3.71-.49a20.08,20.08,0,0,1,6.91,1.23c.2.06.17.19,0,.13a17.47,17.47,0,0,0-7.32-.72,22.14,22.14,0,0,1-6.08.32c-4.64-.51-9.27-.42-13.46,1.9,0,0-.05,0,0,0C233.73,141.81,238.25,141.27,242.56,141.56Z"></path><path d="M242.37,138.27a23.91,23.91,0,0,0,3.49.12c1.18-.08,2.33-.4,3.51-.46a19,19,0,0,1,6.56,1.17c.19.05.16.18,0,.12a16.51,16.51,0,0,0-6.94-.69,21,21,0,0,1-5.76.32c-4.41-.49-8.79-.41-12.77,1.8,0,0-.05,0,0,0A20.89,20.89,0,0,1,242.37,138.27Z"></path></g><path d="M217.56,152c2.55-6.11-.33-16.82,3-19.41,7.17-5.62,20.21,7,29.7,7.67,9.2.67,12.68-5,11.52-12.61s-7.16-13-17.38-15.27c-10.58-2.32-20.61,1.33-26.13,4.36,0,0,2.57-3.57,1.78-4.79s-5.54,2.07-7,3.5a14,14,0,0,0-2.55,4.28,15.06,15.06,0,0,0-4.17-.72c-2.35-.09-5.42,1.54-5.62,2.08s3.11,1.19,5.45,1.47c0,0-4.77,5.52-5,10.5s5.9,29.13,7.74,29.52C211.22,163,216.53,154.45,217.56,152Z" style="fill:#a6a6a6"></path><path d="M207.07,122c.09,0,.19.07.11.14a15.7,15.7,0,0,0-5.45,6.7,19.58,19.58,0,0,0-.8,10.24c1,6.64,3.81,12.78,6.18,19,.06.18-.24.3-.32.13-2.93-6.43-5.88-13.4-6.67-20.47C199.44,131.7,201.29,124.94,207.07,122Z" style="fill:#a6a6a6"></path><path d="M220.34,130.12a22.73,22.73,0,0,1,8.31,1.11c2.56.84,4.67,2.6,6.92,4,5,3.19,10.62,5.78,16.68,5.82a.06.06,0,1,1,0,.12c-5.57.32-10.86-1.69-15.59-4.46-2.39-1.4-4.61-3.32-7.15-4.42-2.89-1.26-6.09-1.43-9.18-1.7A.25.25,0,0,1,220.34,130.12Z" style="fill:#a6a6a6"></path><path d="M224.1,114.48a43.69,43.69,0,0,1,12.07-3.1,34.65,34.65,0,0,1,11.93.39c6.74,1.57,12.72,6.34,13.84,13.45a15,15,0,0,1-2.11,10.54.2.2,0,0,1-.33-.21c3.22-5.94,2.62-13.44-2.27-18.31-5.26-5.23-13.09-6.14-20.14-5.5a63.14,63.14,0,0,0-13,2.79S224.07,114.49,224.1,114.48Z" style="fill:#a6a6a6"></path><path d="M225.36,151.59s-18,3.22-21.47,6.1c-1.4,1.18.08,7.73,1.21,8.54.71.52,10.54-3.76,21.07-5.06C226.17,161.17,224.3,155.69,225.36,151.59Z" style="fill:#37474f"></path><path d="M261.55,161.49a9.32,9.32,0,0,1-.87.9c-1.24,1.1-2.75,1.51-5.13.61-1.56-.59-2.63-2.3-5.28-2.31a8.9,8.9,0,0,0-4.7,1.14,24.21,24.21,0,0,0-2.71,1.71,6.87,6.87,0,0,0-.65.45c-.2.14-.41.27-.63.4a7.81,7.81,0,0,1-1.05.49c-4.11,1.64-10.55,1-12.81-1.12-2.06-1.92-3.23-7-2.43-11.69a15.38,15.38,0,0,1,.8-2.94,11.6,11.6,0,0,1,1.43-2.64l.32-.42a6.85,6.85,0,0,1,1-1c2.62-2.15,7.35-3.59,12.39-4.2l1.54-.16c1.12-.1,2.24-.15,3.35-.17,1.28,0,2.55,0,3.77.11,4.32.32,8,1.36,9.85,3.18a10.36,10.36,0,0,1,2.52,4.89,18.08,18.08,0,0,1,.49,2.66,24.43,24.43,0,0,1-.57,8.58A5,5,0,0,1,261.55,161.49Z" style="fill:#fff;opacity:0.2"></path><g style="opacity:0.2"><path d="M261.55,161.49a9.32,9.32,0,0,1-.87.9l-9.52-6.21a1.44,1.44,0,0,1-.42-2,1.47,1.47,0,0,1,1.74-.57,1.38,1.38,0,0,1,.27.14l9.48,6.18A5,5,0,0,1,261.55,161.49Z" style="fill:#fff"></path><path d="M245.57,161.83a24.21,24.21,0,0,0-2.71,1.71l-17.57-11.47a15.38,15.38,0,0,1,.8-2.94Z" style="fill:#fff"></path><path d="M240.57,153.83a1,1,0,0,1-1.17.38.61.61,0,0,1-.18-.09l-11.7-7.63.32-.42a6.85,6.85,0,0,1,1-1l11.4,7.43A1,1,0,0,1,240.57,153.83Z" style="fill:#fff"></path><path d="M262.8,151.35l-16.63-10.84c1.28,0,2.55,0,3.77.11l12.37,8.07A18.08,18.08,0,0,1,262.8,151.35Z" style="fill:#fff"></path><path d="M259.24,152a.51.51,0,0,1-.59.19l-.09,0-17.28-11.27,1.54-.16,16.28,10.61A.49.49,0,0,1,259.24,152Z" style="fill:#fff"></path><path d="M241.58,164.39a7.81,7.81,0,0,1-1.05.49l-8.91-5.81a.49.49,0,0,1-.14-.68.47.47,0,0,1,.58-.19.2.2,0,0,1,.09.05Z" style="fill:#fff"></path></g><path d="M230.12,165.86a7.18,7.18,0,0,1-2.75-1.77c-3.11-3.36-4.47-12.75.09-18.33h0c3.07-3.75,11.2-5.41,17.22-5.7,5.59-.26,12.58.49,15.46,3.39,4.75,4.8,3.59,15.18,1.84,18.28-1.2,2.11-3.8,2.79-6.61,1.73a9.76,9.76,0,0,1-1.67-.92,6.77,6.77,0,0,0-3.46-1.37c-2.45-.15-3.9.66-7.76,3.22A14.68,14.68,0,0,1,230.12,165.86Zm-1.9-19.48c-4.12,5-3,13.92-.14,17.05,2.66,2.87,9.65,2.94,13.86.15,3.73-2.48,5.5-3.56,8.36-3.38a7.75,7.75,0,0,1,3.93,1.52,7.86,7.86,0,0,0,1.48.82c1.87.71,4.26.73,5.42-1.3,1.6-2.82,2.67-12.7-1.69-17.1-2.21-2.24-7.85-3.43-14.71-3.1-7.67.36-14.15,2.46-16.51,5.34Z" style="fill:#37474f"></path><path d="M216.92,164s-7-10.5-11.79-8,.42,17.6,5.89,19.76a5.6,5.6,0,0,0,7.57-2.87Z" style="fill:#eb9481"></path><path d="M206.72,160.33a.08.08,0,0,0,0,.15c3.84,1.64,5.8,5.26,7.16,9-1.12-1.45-2.68-2.27-4.62-.94-.1.07,0,.23.1.21a3.46,3.46,0,0,1,3.78,1.28,17,17,0,0,1,1.76,3.11c.17.34.8.17.67-.23a.32.32,0,0,0,0-.09C215.71,167.9,212,160.93,206.72,160.33Z" style="fill:#263238"></path><path d="M237.9,204.3l-7.13,17.1-23-21.22L203,208.36s22,32.12,22.06,30.63l6.5-14.37,10.52,9.43-1.76-24.6Z" style="fill:#FFC727"></path><path d="M242,221.84c-.43-4.05-.75-8.15-1.38-12.17,0-.15-.26-.2-.29,0-.7,4,1,19.44,1.16,23.17,0,0,0,0,0,0-.44-.41-9.74-8.29-9.82-8.15-1.44,2.29-6.22,12.76-6.53,13.71-3.48-5.11-18.18-25.18-22.25-30-.12-.13-.34,0-.25.15,3.11,5.41,22.12,31.92,22.37,31.84a154.71,154.71,0,0,0,6.79-15.19c1.59,1.73,11,10.66,11,10A124.37,124.37,0,0,0,242,221.84Z" style="fill:#263238"></path></g><g id="freepik--Table--inject-2"><polygon points="34.58 416.76 88.44 416.51 142.29 416.43 250 416.26 357.71 416.43 411.56 416.51 465.42 416.76 411.56 417 357.71 417.09 250 417.26 142.29 417.09 88.44 417 34.58 416.76" style="fill:#263238"></polygon></g><g id="freepik--Microscope--inject-2"><path d="M54,416.58h7.67s1.83-28.2,18.9-29.62c9-.74,17.36,5.69,23.84,12.92-6.42-7.29-17.8-16.7-28.65-16.7C59.45,383.18,54,416.58,54,416.58Z" style="fill:#263238"></path><polygon points="104.63 329.22 92.87 305.26 88.89 310.64 98.97 329.22 104.63 329.22" style="fill:#263238"></polygon><rect x="77.36" y="317.71" width="28.74" height="6.9" transform="translate(-149.53 552.14) rotate(-117.81)" style="fill:#455a64"></rect><polygon points="95.38 335.48 91.73 334.49 80.69 314.04 81.97 310.06 95.38 335.48" style="fill:#37474f"></polygon><path d="M132.36,348.44h0a2.49,2.49,0,0,0,1.27-3.28l-5.37-12.1A2.49,2.49,0,0,0,125,331.8h0a2.49,2.49,0,0,0-1.26,3.28l5.37,12.09A2.48,2.48,0,0,0,132.36,348.44Z" style="fill:#37474f"></path><path d="M118.39,356.83h0a2.48,2.48,0,0,0,1.26-3.27l-5.37-12.1A2.46,2.46,0,0,0,111,340.2h0a2.48,2.48,0,0,0-1.27,3.27l5.37,12.1A2.48,2.48,0,0,0,118.39,356.83Z" style="fill:#37474f"></path><path d="M128.19,358.63h0a3.43,3.43,0,0,0,1.75-4.54L123.23,339a3.44,3.44,0,0,0-4.54-1.75h0a3.45,3.45,0,0,0-1.76,4.55l6.71,15.12A3.44,3.44,0,0,0,128.19,358.63Z" style="fill:#37474f"></path><path d="M101.51,288.89h0a3.43,3.43,0,0,0,1.75-4.54l-6.71-15.13A3.44,3.44,0,0,0,92,267.47h0A3.45,3.45,0,0,0,90.25,272L97,287.14A3.44,3.44,0,0,0,101.51,288.89Z" style="fill:#37474f"></path><path d="M91.2,293.47h0A3.44,3.44,0,0,0,93,288.92L86.24,273.8A3.44,3.44,0,0,0,81.7,272h0a3.46,3.46,0,0,0-1.76,4.55l6.71,15.13A3.45,3.45,0,0,0,91.2,293.47Z" style="fill:#37474f"></path><path d="M128.08,332.23,103.4,280.84s-7.05.24-19.25,8.7l26.22,51.26A49.17,49.17,0,0,0,128.08,332.23Z" style="fill:#37474f"></path><path d="M105.46,345.1s23.26-6.86,29.65-13.15l-2-4.59a62.57,62.57,0,0,0-29.64,13.15Z" style="fill:#455a64"></path><path d="M83.27,291A52,52,0,0,1,105,280.8l-2.14-4.54c-13.2-.23-21.7,10.21-21.7,10.21Z" style="fill:#455a64"></path><path d="M100.41,321.91s10.17-6.73,18.93-8.9a1,1,0,0,0,.49-1.34l-2.4-5.08a1.07,1.07,0,0,0-1.33-.48A52.18,52.18,0,0,0,97.16,315a1,1,0,0,0-.48,1.34l2.39,5.08A1,1,0,0,0,100.41,321.91Z" style="fill:#455a64"></path><path d="M84,315.65l-1.84-.82s-25.66,11.38-24.33,42c.88,20.27,15.67,34.29,15.67,34.29s-18-23.21-11.26-44.69S84,315.65,84,315.65Z" style="fill:#455a64"></path><path d="M59.91,358.92c1.48,18.7,13.6,32.18,13.6,32.18h18.4c8.44-11.1,21.87-17.59,21.87-17.59l-14.71,2.57-1.31-.67-2.59-1.32s-3.73,5.7-9.33,5.57a8.56,8.56,0,0,1-3.32-.74c-6.56-2.83-9.86-20.22-6.8-30.61s16.48-16.8,16.48-16.8L84,315.65C69.37,322.22,58.44,340.23,59.91,358.92Z" style="fill:#37474f"></path><path d="M85.83,379.67s4.82,1.63,11.93-4.26l-2.59-1.32s-3.73,5.7-9.33,5.57Z" style="fill:#455a64"></path><path d="M61.71,416.58h54.88c-1.37-2.14-3.74-6-6.89-10.23l-.2-.28-.25-.33-.16-.21-.47-.62-.14-.18-.51-.65c-.27-.36-.58-.74-.92-1.15l-.71-.87-1.21-1.42-.68-.76C98,392.65,89.64,386.22,80.61,387,63.54,388.38,61.71,416.58,61.71,416.58Z" style="fill:#455a64"></path><rect x="101.05" y="367.27" width="54.14" height="6.86" transform="translate(286.64 729.45) rotate(175.23)" style="fill:#263238"></rect><rect x="89.16" y="370.02" width="12" height="6.86" transform="translate(221.07 737.69) rotate(175.23)" style="fill:#37474f"></rect><path d="M105.76,412.06a1.86,1.86,0,1,0,1.86-1.85A1.86,1.86,0,0,0,105.76,412.06Z" style="fill:#263238"></path><path d="M67.18,412.06A1.86,1.86,0,1,0,69,410.21,1.86,1.86,0,0,0,67.18,412.06Z" style="fill:#263238"></path><path d="M82.48,393a1.86,1.86,0,1,0,1.86-1.85A1.86,1.86,0,0,0,82.48,393Z" style="fill:#263238"></path><path d="M96.76,293.28a1.86,1.86,0,1,0,1.86-1.86A1.86,1.86,0,0,0,96.76,293.28Z" style="fill:#263238"></path><path d="M112.84,327.36a1.86,1.86,0,1,0,1.86-1.86A1.86,1.86,0,0,0,112.84,327.36Z" style="fill:#263238"></path><path d="M78.83,328a1.86,1.86,0,1,0,1.86-1.86A1.85,1.85,0,0,0,78.83,328Z" style="fill:#263238"></path><path d="M92.72,381.69a1.86,1.86,0,1,0,1.86-1.85A1.86,1.86,0,0,0,92.72,381.69Z" style="fill:#263238"></path></g><g id="freepik--Supplies--inject-2"><rect x="447.97" y="353.9" width="3.94" height="76.86" transform="translate(899.88 784.65) rotate(180)" style="fill:#263238"></rect><rect x="317.22" y="425.37" width="130.75" height="5.38" transform="translate(765.2 856.13) rotate(180)" style="fill:#263238"></rect><path d="M333.29,420.32h0a7.37,7.37,0,0,1-7.37-7.37V353.44h14.74V413A7.37,7.37,0,0,1,333.29,420.32Z" style="fill:#ebebeb"></path><path d="M327.36,363.88V413a5.93,5.93,0,1,0,11.86,0v-49.1Z" style="fill:#FFC727"></path><path d="M337.84,413.91h0a.63.63,0,0,1-.63-.62V357.81a.63.63,0,0,1,.63-.63h0a.63.63,0,0,1,.62.63v55.48A.62.62,0,0,1,337.84,413.91Z" style="fill:#fff;opacity:0.4"></path><path d="M336.06,396.29h0a.36.36,0,0,1-.37-.37V363a.37.37,0,0,1,.37-.37h0a.37.37,0,0,1,.36.37v33A.36.36,0,0,1,336.06,396.29Z" style="fill:#fff;opacity:0.4"></path><rect x="324.24" y="341.61" width="18.11" height="13.87" style="fill:#37474f"></rect><rect x="324.85" y="342.34" width="0.59" height="12.42" style="fill:#263238"></rect><rect x="326.01" y="342.34" width="0.59" height="12.42" style="fill:#263238"></rect><rect x="327.17" y="342.34" width="0.59" height="12.42" style="fill:#263238"></rect><rect x="328.34" y="342.34" width="0.59" height="12.42" style="fill:#263238"></rect><rect x="329.5" y="342.34" width="0.59" height="12.42" style="fill:#263238"></rect><rect x="330.67" y="342.34" width="0.59" height="12.42" style="fill:#263238"></rect><rect x="331.83" y="342.34" width="0.59" height="12.42" style="fill:#263238"></rect><rect x="333" y="342.34" width="0.59" height="12.42" style="fill:#263238"></rect><rect x="334.16" y="342.34" width="0.59" height="12.42" style="fill:#263238"></rect><rect x="335.32" y="342.34" width="0.59" height="12.42" style="fill:#263238"></rect><rect x="336.49" y="342.34" width="0.59" height="12.42" style="fill:#263238"></rect><rect x="337.65" y="342.34" width="0.59" height="12.42" style="fill:#263238"></rect><rect x="338.82" y="342.34" width="0.59" height="12.42" style="fill:#263238"></rect><rect x="339.98" y="342.34" width="0.59" height="12.42" style="fill:#263238"></rect><rect x="341.15" y="342.34" width="0.59" height="12.42" style="fill:#263238"></rect><rect x="328.12" y="376.53" width="10.34" height="31.92" style="fill:#fff"></rect><rect x="328.12" y="376.53" width="3.43" height="31.92" style="fill:#455a64"></rect><path d="M330.35,400.18a.54.54,0,0,1,.22.05.4.4,0,0,1,.15.14.85.85,0,0,1,.1.19,1,1,0,0,1,0,.24v.94h-1.93v-1a.58.58,0,0,1,0-.18.53.53,0,0,1,.12-.14l.15-.08a.58.58,0,0,1,.18,0,.53.53,0,0,1,.27.08.39.39,0,0,1,.18.2.44.44,0,0,1,.18-.26A.52.52,0,0,1,330.35,400.18Zm-1.11,1.18h.49v-.5a.2.2,0,0,0-.07-.16.25.25,0,0,0-.18-.07.21.21,0,0,0-.17.07.18.18,0,0,0-.07.15Zm1-.8-.1,0-.08.05-.06.07a.2.2,0,0,0,0,.09v.57h.51v-.56a.29.29,0,0,0,0-.09.22.22,0,0,0-.05-.08l-.08-.05Z" style="fill:#fff"></path><path d="M330.85,399.65h-1.93v-.38h1.6v-1h.33Z" style="fill:#fff"></path><path d="M330.86,397.12a.92.92,0,0,1-.08.38,1.11,1.11,0,0,1-.22.3,1.23,1.23,0,0,1-.31.19,1.16,1.16,0,0,1-.37.07.9.9,0,0,1-.36-.08.94.94,0,0,1-.32-.19,1,1,0,0,1-.21-.3.84.84,0,0,1-.08-.38.92.92,0,0,1,.08-.38.86.86,0,0,1,.23-.3,1.08,1.08,0,0,1,.31-.19,1.15,1.15,0,0,1,.36-.07,1,1,0,0,1,.37.08,1,1,0,0,1,.31.19.81.81,0,0,1,.21.3A.79.79,0,0,1,330.86,397.12Zm-1,.56a1,1,0,0,0,.25,0,.78.78,0,0,0,.2-.11.65.65,0,0,0,.15-.18.6.6,0,0,0,0-.48.61.61,0,0,0-.15-.17.53.53,0,0,0-.21-.11.67.67,0,0,0-.24,0,1,1,0,0,0-.24,0,.78.78,0,0,0-.2.11.65.65,0,0,0-.15.18.59.59,0,0,0-.05.23.54.54,0,0,0,.06.25.46.46,0,0,0,.14.17.7.7,0,0,0,.21.11A1,1,0,0,0,329.88,397.68Z" style="fill:#fff"></path><path d="M330.86,394.82a.92.92,0,0,1-.08.38,1,1,0,0,1-.22.3,1,1,0,0,1-.31.19.94.94,0,0,1-.37.07.89.89,0,0,1-.36-.07,1.16,1.16,0,0,1-.32-.2.94.94,0,0,1-.29-.68,1,1,0,0,1,.08-.38.92.92,0,0,1,.23-.29.89.89,0,0,1,.31-.19.92.92,0,0,1,.36-.07.94.94,0,0,1,.37.07,1.23,1.23,0,0,1,.31.19,1,1,0,0,1,.21.3A.81.81,0,0,1,330.86,394.82Zm-1,.56a.69.69,0,0,0,.25,0,.56.56,0,0,0,.2-.11.61.61,0,0,0,.15-.17.6.6,0,0,0,0-.48.65.65,0,0,0-.15-.18.7.7,0,0,0-.21-.11,1,1,0,0,0-.24,0,.67.67,0,0,0-.24,0,.56.56,0,0,0-.2.11.5.5,0,0,0-.15.17.6.6,0,0,0-.05.24.48.48,0,0,0,.06.24.49.49,0,0,0,.14.18.68.68,0,0,0,.21.1A.66.66,0,0,0,329.88,395.38Z" style="fill:#fff"></path><path d="M330.85,393.35h-1.93v-.7a1.08,1.08,0,0,1,.08-.42.79.79,0,0,1,.2-.29.87.87,0,0,1,.31-.18,1.15,1.15,0,0,1,.37-.06,1.25,1.25,0,0,1,.4.06.91.91,0,0,1,.3.19,1,1,0,0,1,.2.3,1,1,0,0,1,.07.4Zm-1-1.28a.93.93,0,0,0-.25,0,.55.55,0,0,0-.2.11.46.46,0,0,0-.13.18.7.7,0,0,0-.05.25V393h1.27v-.32a.62.62,0,0,0,0-.25.59.59,0,0,0-.13-.18.7.7,0,0,0-.21-.11A.93.93,0,0,0,329.88,392.07Z" style="fill:#fff"></path><path d="M329.25,388.9v.61h1.6v.38h-1.6v.61h-.33v-1.6Z" style="fill:#fff"></path><path d="M330.52,387.08h.33v1.34h-1.93V387.1h.33V388h.46v-.81H330V388h.5Z" style="fill:#fff"></path><path d="M329.43,385.43l-.06.07-.06.12a.75.75,0,0,0-.05.16.5.5,0,0,0,0,.17.46.46,0,0,0,.05.23.19.19,0,0,0,.16.08.15.15,0,0,0,.1,0,.27.27,0,0,0,.07-.08l.06-.14a1.8,1.8,0,0,1,.05-.19,1.6,1.6,0,0,1,.08-.26.5.5,0,0,1,.11-.19.37.37,0,0,1,.15-.13.63.63,0,0,1,.49,0,.46.46,0,0,1,.18.16.55.55,0,0,1,.1.22,1.24,1.24,0,0,1,0,.27,1.54,1.54,0,0,1-.06.43,1.5,1.5,0,0,1-.19.38l-.32-.16.06-.09a1,1,0,0,0,.08-.15.93.93,0,0,0,.07-.2,1.49,1.49,0,0,0,0-.21c0-.21-.06-.31-.19-.31a.18.18,0,0,0-.11,0l-.08.1-.06.16a1.15,1.15,0,0,1-.06.21,1.35,1.35,0,0,1-.08.24.69.69,0,0,1-.1.17.49.49,0,0,1-.15.1.5.5,0,0,1-.19,0,.75.75,0,0,1-.26-.05.7.7,0,0,1-.19-.15.61.61,0,0,1-.11-.23.77.77,0,0,1,0-.27,1.06,1.06,0,0,1,.06-.37,1.05,1.05,0,0,1,.15-.3Z" style="fill:#fff"></path><path d="M329.25,383.25v.61h1.6v.37h-1.6v.62h-.33v-1.6Z" style="fill:#fff"></path><rect x="332.32" y="406.96" width="5.36" height="0.32" style="fill:#263238"></rect><rect x="332.32" y="406.35" width="5.36" height="0.32" style="fill:#263238"></rect><rect x="332.32" y="404.51" width="5.36" height="0.32" style="fill:#263238"></rect><rect x="332.32" y="402.05" width="5.36" height="0.32" style="fill:#263238"></rect><rect x="332.32" y="400.99" width="5.36" height="0.32" style="fill:#263238"></rect><rect x="332.32" y="399.6" width="5.36" height="0.32" style="fill:#263238"></rect><rect x="332.32" y="398.4" width="5.36" height="0.32" style="fill:#263238"></rect><rect x="332.32" y="396.03" width="5.36" height="0.32" style="fill:#263238"></rect><rect x="332.32" y="395.39" width="5.36" height="0.32" style="fill:#263238"></rect><rect x="332.32" y="393.02" width="5.36" height="0.32" style="fill:#263238"></rect><rect x="332.32" y="392.14" width="5.36" height="0.54" style="fill:#263238"></rect><rect x="332.32" y="393.74" width="5.36" height="0.54" style="fill:#263238"></rect><rect x="332.32" y="397.4" width="5.36" height="0.54" style="fill:#263238"></rect><rect x="332.32" y="403.59" width="5.36" height="0.54" style="fill:#263238"></rect><rect x="332.32" y="402.78" width="5.36" height="0.54" style="fill:#263238"></rect><rect x="332.32" y="400.19" width="5.36" height="0.54" style="fill:#263238"></rect><rect x="332.32" y="391.76" width="5.36" height="0.16" style="fill:#263238"></rect><rect x="332.32" y="394.51" width="5.36" height="0.16" style="fill:#263238"></rect><rect x="332.32" y="394.98" width="5.36" height="0.16" style="fill:#263238"></rect><rect x="332.32" y="396.77" width="5.36" height="0.16" style="fill:#263238"></rect><rect x="332.32" y="399.08" width="5.36" height="0.16" style="fill:#263238"></rect><rect x="332.32" y="401.6" width="5.36" height="0.16" style="fill:#263238"></rect><rect x="332.32" y="405.11" width="5.36" height="0.16" style="fill:#263238"></rect><rect x="332.32" y="405.51" width="5.36" height="0.16" style="fill:#263238"></rect><rect x="332.32" y="405.91" width="5.36" height="0.16" style="fill:#263238"></rect><rect x="332.32" y="391" width="5.36" height="0.32" style="fill:#263238"></rect><path d="M336.91,389.92h-3.8a.71.71,0,0,1-.71-.71V378.56a.71.71,0,0,1,.71-.71h3.8a.71.71,0,0,1,.71.71v10.65A.71.71,0,0,1,336.91,389.92Zm-3.8-11.87a.51.51,0,0,0-.52.51v10.65a.52.52,0,0,0,.52.52h3.8a.52.52,0,0,0,.51-.52V378.56a.51.51,0,0,0-.51-.51Z" style="fill:#263238"></path><rect x="332.57" y="383.79" width="4.88" height="0.19" style="fill:#263238"></rect><rect x="333.39" y="378.47" width="0.19" height="1.15" style="fill:#263238"></rect><rect x="332.91" y="378.94" width="1.15" height="0.19" style="fill:#263238"></rect><rect x="332.91" y="384.61" width="1.15" height="0.19" style="fill:#263238"></rect><path d="M380.1,420.32h0a7.37,7.37,0,0,1-7.37-7.37V353.44h14.74V413A7.37,7.37,0,0,1,380.1,420.32Z" style="fill:#ebebeb"></path><path d="M374.17,363.88V413A5.93,5.93,0,1,0,386,413v-49.1Z" style="fill:#FFC727"></path><path d="M384.64,413.91h0a.62.62,0,0,1-.62-.62V357.81a.63.63,0,0,1,.62-.63h0a.63.63,0,0,1,.63.63v55.48A.63.63,0,0,1,384.64,413.91Z" style="fill:#fff;opacity:0.4"></path><path d="M382.86,396.29h0a.36.36,0,0,1-.36-.37V363a.37.37,0,0,1,.36-.37h0a.37.37,0,0,1,.37.37v33A.36.36,0,0,1,382.86,396.29Z" style="fill:#fff;opacity:0.4"></path><rect x="371.05" y="341.61" width="18.11" height="13.87" style="fill:#37474f"></rect><rect x="371.65" y="342.34" width="0.59" height="12.42" style="fill:#263238"></rect><rect x="372.82" y="342.34" width="0.59" height="12.42" style="fill:#263238"></rect><rect x="373.98" y="342.34" width="0.59" height="12.42" style="fill:#263238"></rect><rect x="375.15" y="342.34" width="0.59" height="12.42" style="fill:#263238"></rect><rect x="376.31" y="342.34" width="0.59" height="12.42" style="fill:#263238"></rect><rect x="377.48" y="342.34" width="0.59" height="12.42" style="fill:#263238"></rect><rect x="378.64" y="342.34" width="0.59" height="12.42" style="fill:#263238"></rect><rect x="379.81" y="342.34" width="0.59" height="12.42" style="fill:#263238"></rect><rect x="380.97" y="342.34" width="0.59" height="12.42" style="fill:#263238"></rect><rect x="382.13" y="342.34" width="0.59" height="12.42" style="fill:#263238"></rect><rect x="383.3" y="342.34" width="0.59" height="12.42" style="fill:#263238"></rect><rect x="384.46" y="342.34" width="0.59" height="12.42" style="fill:#263238"></rect><rect x="385.63" y="342.34" width="0.59" height="12.42" style="fill:#263238"></rect><rect x="386.79" y="342.34" width="0.59" height="12.42" style="fill:#263238"></rect><rect x="387.96" y="342.34" width="0.59" height="12.42" style="fill:#263238"></rect><rect x="374.93" y="376.53" width="10.34" height="31.92" style="fill:#fff"></rect><rect x="374.93" y="376.53" width="3.43" height="31.92" style="fill:#455a64"></rect><path d="M377.16,400.18a.54.54,0,0,1,.22.05.4.4,0,0,1,.15.14.85.85,0,0,1,.1.19,1,1,0,0,1,0,.24v.94h-1.93v-1a.58.58,0,0,1,0-.18.53.53,0,0,1,.12-.14l.15-.08a.58.58,0,0,1,.18,0,.53.53,0,0,1,.27.08.39.39,0,0,1,.18.2.48.48,0,0,1,.17-.26A.55.55,0,0,1,377.16,400.18Zm-1.11,1.18h.49v-.5a.2.2,0,0,0-.07-.16.25.25,0,0,0-.18-.07.21.21,0,0,0-.17.07.18.18,0,0,0-.07.15Zm1-.8-.1,0-.08.05-.06.07a.2.2,0,0,0,0,.09v.57h.51v-.56a.29.29,0,0,0,0-.09.22.22,0,0,0-.05-.08l-.08-.05Z" style="fill:#fff"></path><path d="M377.66,399.65h-1.93v-.38h1.6v-1h.33Z" style="fill:#fff"></path><path d="M377.67,397.12a.92.92,0,0,1-.08.38,1.11,1.11,0,0,1-.22.3,1.23,1.23,0,0,1-.31.19,1.16,1.16,0,0,1-.37.07.9.9,0,0,1-.36-.08.94.94,0,0,1-.32-.19,1,1,0,0,1-.21-.3.84.84,0,0,1-.08-.38.92.92,0,0,1,.08-.38.86.86,0,0,1,.23-.3,1.08,1.08,0,0,1,.31-.19,1.15,1.15,0,0,1,.36-.07,1,1,0,0,1,.37.08,1,1,0,0,1,.31.19.81.81,0,0,1,.21.3A.92.92,0,0,1,377.67,397.12Zm-1,.56a1,1,0,0,0,.25,0,.78.78,0,0,0,.2-.11.65.65,0,0,0,.15-.18.6.6,0,0,0,0-.24.48.48,0,0,0-.06-.24.46.46,0,0,0-.14-.17.53.53,0,0,0-.21-.11.67.67,0,0,0-.24,0,1,1,0,0,0-.24,0,.64.64,0,0,0-.2.11.65.65,0,0,0-.15.18.59.59,0,0,0-.05.23.54.54,0,0,0,.06.25.46.46,0,0,0,.14.17.7.7,0,0,0,.21.11A.93.93,0,0,0,376.69,397.68Z" style="fill:#fff"></path><path d="M377.67,394.82a.92.92,0,0,1-.08.38,1,1,0,0,1-.22.3,1,1,0,0,1-.31.19.94.94,0,0,1-.37.07.89.89,0,0,1-.36-.07,1.16,1.16,0,0,1-.32-.2.94.94,0,0,1-.29-.68,1,1,0,0,1,.08-.38.92.92,0,0,1,.23-.29.89.89,0,0,1,.31-.19.92.92,0,0,1,.36-.07.94.94,0,0,1,.37.07,1.23,1.23,0,0,1,.31.19,1,1,0,0,1,.21.3A1,1,0,0,1,377.67,394.82Zm-1,.56a.69.69,0,0,0,.25,0,.56.56,0,0,0,.2-.11.61.61,0,0,0,.15-.17.6.6,0,0,0,0-.24.48.48,0,0,0-.06-.24.49.49,0,0,0-.14-.18.7.7,0,0,0-.21-.11,1,1,0,0,0-.24,0,.67.67,0,0,0-.24,0,.49.49,0,0,0-.2.11.5.5,0,0,0-.15.17.6.6,0,0,0-.05.24.48.48,0,0,0,.06.24.49.49,0,0,0,.14.18.68.68,0,0,0,.21.1A.62.62,0,0,0,376.69,395.38Z" style="fill:#fff"></path><path d="M377.66,393.35h-1.93v-.7a1.08,1.08,0,0,1,.08-.42.79.79,0,0,1,.2-.29.87.87,0,0,1,.31-.18,1.1,1.1,0,0,1,.37-.06,1.25,1.25,0,0,1,.4.06.91.91,0,0,1,.3.19,1,1,0,0,1,.2.3,1.24,1.24,0,0,1,.07.4Zm-1-1.28a.93.93,0,0,0-.25,0,.55.55,0,0,0-.2.11.46.46,0,0,0-.13.18.53.53,0,0,0-.05.25V393h1.27v-.32a.62.62,0,0,0-.05-.25.59.59,0,0,0-.13-.18.7.7,0,0,0-.21-.11A.93.93,0,0,0,376.69,392.07Z" style="fill:#fff"></path><path d="M376.06,388.9v.61h1.6v.38h-1.6v.61h-.33v-1.6Z" style="fill:#fff"></path><path d="M377.33,387.08h.33v1.34h-1.93V387.1h.33V388h.46v-.81h.31V388h.5Z" style="fill:#fff"></path><path d="M376.24,385.43l-.06.07-.06.12a.75.75,0,0,0-.05.16.5.5,0,0,0,0,.17.37.37,0,0,0,.05.23.19.19,0,0,0,.16.08.15.15,0,0,0,.1,0,.27.27,0,0,0,.07-.08l.06-.14a1.8,1.8,0,0,1,.05-.19,1.6,1.6,0,0,1,.08-.26.5.5,0,0,1,.11-.19.37.37,0,0,1,.15-.13.63.63,0,0,1,.49,0,.55.55,0,0,1,.18.16.74.74,0,0,1,.1.22,1.3,1.3,0,0,1,0,.7,1.21,1.21,0,0,1-.18.38l-.32-.16.06-.09a1,1,0,0,0,.08-.15.93.93,0,0,0,.07-.2,1.49,1.49,0,0,0,0-.21c0-.21-.06-.31-.2-.31a.17.17,0,0,0-.1,0,.39.39,0,0,0-.08.1l-.06.16a1.15,1.15,0,0,1-.06.21,1.35,1.35,0,0,1-.08.24.5.5,0,0,1-.11.17.36.36,0,0,1-.14.1.5.5,0,0,1-.19,0,.71.71,0,0,1-.26-.05.7.7,0,0,1-.19-.15.61.61,0,0,1-.11-.23.77.77,0,0,1,0-.27,1.06,1.06,0,0,1,.06-.37,1.05,1.05,0,0,1,.15-.3Z" style="fill:#fff"></path><path d="M376.06,383.25v.61h1.6v.37h-1.6v.62h-.33v-1.6Z" style="fill:#fff"></path><rect x="379.13" y="406.96" width="5.36" height="0.32" style="fill:#263238"></rect><rect x="379.13" y="406.35" width="5.36" height="0.32" style="fill:#263238"></rect><rect x="379.13" y="404.51" width="5.36" height="0.32" style="fill:#263238"></rect><rect x="379.13" y="402.05" width="5.36" height="0.32" style="fill:#263238"></rect><rect x="379.13" y="400.99" width="5.36" height="0.32" style="fill:#263238"></rect><rect x="379.13" y="399.6" width="5.36" height="0.32" style="fill:#263238"></rect><rect x="379.13" y="398.4" width="5.36" height="0.32" style="fill:#263238"></rect><rect x="379.13" y="396.03" width="5.36" height="0.32" style="fill:#263238"></rect><rect x="379.13" y="395.39" width="5.36" height="0.32" style="fill:#263238"></rect><rect x="379.13" y="393.02" width="5.36" height="0.32" style="fill:#263238"></rect><rect x="379.13" y="392.14" width="5.36" height="0.54" style="fill:#263238"></rect><rect x="379.13" y="393.74" width="5.36" height="0.54" style="fill:#263238"></rect><rect x="379.13" y="397.4" width="5.36" height="0.54" style="fill:#263238"></rect><rect x="379.13" y="403.59" width="5.36" height="0.54" style="fill:#263238"></rect><rect x="379.13" y="402.78" width="5.36" height="0.54" style="fill:#263238"></rect><rect x="379.13" y="400.19" width="5.36" height="0.54" style="fill:#263238"></rect><rect x="379.13" y="391.76" width="5.36" height="0.16" style="fill:#263238"></rect><rect x="379.13" y="394.51" width="5.36" height="0.16" style="fill:#263238"></rect><rect x="379.13" y="394.98" width="5.36" height="0.16" style="fill:#263238"></rect><rect x="379.13" y="396.77" width="5.36" height="0.16" style="fill:#263238"></rect><rect x="379.13" y="399.08" width="5.36" height="0.16" style="fill:#263238"></rect><rect x="379.13" y="401.6" width="5.36" height="0.16" style="fill:#263238"></rect><rect x="379.13" y="405.11" width="5.36" height="0.16" style="fill:#263238"></rect><rect x="379.13" y="405.51" width="5.36" height="0.16" style="fill:#263238"></rect><rect x="379.13" y="405.91" width="5.36" height="0.16" style="fill:#263238"></rect><rect x="379.13" y="391" width="5.36" height="0.32" style="fill:#263238"></rect><path d="M383.72,389.92h-3.8a.71.71,0,0,1-.72-.71V378.56a.71.71,0,0,1,.72-.71h3.8a.71.71,0,0,1,.71.71v10.65A.71.71,0,0,1,383.72,389.92Zm-3.8-11.87a.51.51,0,0,0-.52.51v10.65a.52.52,0,0,0,.52.52h3.8a.52.52,0,0,0,.51-.52V378.56a.51.51,0,0,0-.51-.51Z" style="fill:#263238"></path><rect x="379.38" y="383.79" width="4.88" height="0.19" style="fill:#263238"></rect><rect x="380.2" y="378.47" width="0.19" height="1.15" style="fill:#263238"></rect><rect x="379.72" y="378.94" width="1.15" height="0.19" style="fill:#263238"></rect><rect x="379.72" y="384.61" width="1.15" height="0.19" style="fill:#263238"></rect><path d="M403.49,420.32h0a7.37,7.37,0,0,1-7.37-7.37V353.44h14.73V413A7.36,7.36,0,0,1,403.49,420.32Z" style="fill:#ebebeb"></path><path d="M397.56,363.88V413a5.93,5.93,0,0,0,11.86,0v-49.1Z" style="fill:#FFC727"></path><path d="M408,413.91h0a.62.62,0,0,1-.62-.62V357.81a.63.63,0,0,1,.62-.63h0a.63.63,0,0,1,.63.63v55.48A.63.63,0,0,1,408,413.91Z" style="fill:#fff;opacity:0.4"></path><path d="M406.25,396.29h0a.37.37,0,0,1-.37-.37V363a.38.38,0,0,1,.37-.37h0a.37.37,0,0,1,.37.37v33A.36.36,0,0,1,406.25,396.29Z" style="fill:#fff;opacity:0.4"></path><rect x="394.43" y="341.61" width="18.11" height="13.87" style="fill:#37474f"></rect><rect x="395.04" y="342.34" width="0.59" height="12.42" style="fill:#263238"></rect><rect x="396.21" y="342.34" width="0.59" height="12.42" style="fill:#263238"></rect><rect x="397.37" y="342.34" width="0.59" height="12.42" style="fill:#263238"></rect><rect x="398.54" y="342.34" width="0.59" height="12.42" style="fill:#263238"></rect><rect x="399.7" y="342.34" width="0.59" height="12.42" style="fill:#263238"></rect><rect x="400.86" y="342.34" width="0.59" height="12.42" style="fill:#263238"></rect><rect x="402.03" y="342.34" width="0.59" height="12.42" style="fill:#263238"></rect><rect x="403.19" y="342.34" width="0.59" height="12.42" style="fill:#263238"></rect><rect x="404.36" y="342.34" width="0.59" height="12.42" style="fill:#263238"></rect><rect x="405.52" y="342.34" width="0.59" height="12.42" style="fill:#263238"></rect><rect x="406.69" y="342.34" width="0.59" height="12.42" style="fill:#263238"></rect><rect x="407.85" y="342.34" width="0.59" height="12.42" style="fill:#263238"></rect><rect x="409.02" y="342.34" width="0.59" height="12.42" style="fill:#263238"></rect><rect x="410.18" y="342.34" width="0.59" height="12.42" style="fill:#263238"></rect><rect x="411.34" y="342.34" width="0.59" height="12.42" style="fill:#263238"></rect><rect x="398.32" y="376.53" width="10.34" height="31.92" style="fill:#fff"></rect><rect x="398.32" y="376.53" width="3.43" height="31.92" style="fill:#455a64"></rect><path d="M400.55,400.18a.46.46,0,0,1,.21.05.36.36,0,0,1,.16.14.56.56,0,0,1,.09.19.67.67,0,0,1,0,.24v.94h-1.93v-1a.39.39,0,0,1,0-.18.48.48,0,0,1,.27-.22.58.58,0,0,1,.18,0,.56.56,0,0,1,.27.08.39.39,0,0,1,.18.2.48.48,0,0,1,.17-.26A.55.55,0,0,1,400.55,400.18Zm-1.11,1.18h.49v-.5a.24.24,0,0,0-.07-.16.25.25,0,0,0-.18-.07.24.24,0,0,0-.18.07.2.2,0,0,0-.06.15Zm1-.8-.1,0-.08.05a.2.2,0,0,0-.06.07.2.2,0,0,0,0,.09v.57h.51v-.56a.29.29,0,0,0,0-.09.22.22,0,0,0,0-.08l-.08-.05Z" style="fill:#fff"></path><path d="M401.05,399.65h-1.93v-.38h1.6v-1h.33Z" style="fill:#fff"></path><path d="M401.06,397.12a.92.92,0,0,1-.08.38,1.11,1.11,0,0,1-.22.3,1.13,1.13,0,0,1-.32.19,1,1,0,0,1-.36.07,1,1,0,0,1-.37-.08,1,1,0,0,1-.31-.19,1,1,0,0,1-.21-.3.84.84,0,0,1-.08-.38.79.79,0,0,1,.08-.38.86.86,0,0,1,.23-.3,1.08,1.08,0,0,1,.31-.19,1.15,1.15,0,0,1,.36-.07,1,1,0,0,1,.37.08,1,1,0,0,1,.31.19,1,1,0,0,1,.21.3A.92.92,0,0,1,401.06,397.12Zm-1,.56a.86.86,0,0,0,.24,0,.7.7,0,0,0,.21-.11.49.49,0,0,0,.14-.18.51.51,0,0,0,0-.48.46.46,0,0,0-.14-.17.71.71,0,0,0-.21-.11.67.67,0,0,0-.24,0,1,1,0,0,0-.24,0,.55.55,0,0,0-.2.11.65.65,0,0,0-.15.18.59.59,0,0,0-.05.23.54.54,0,0,0,.06.25.46.46,0,0,0,.14.17.7.7,0,0,0,.21.11A.85.85,0,0,0,400.08,397.68Z" style="fill:#fff"></path><path d="M401.06,394.82a.92.92,0,0,1-.08.38,1,1,0,0,1-.22.3.94.94,0,0,1-.32.19.86.86,0,0,1-.36.07.94.94,0,0,1-.37-.07,1.27,1.27,0,0,1-.31-.2.94.94,0,0,1-.21-1.06.92.92,0,0,1,.23-.29.89.89,0,0,1,.31-.19.92.92,0,0,1,.36-.07.94.94,0,0,1,.37.07,1.23,1.23,0,0,1,.31.19,1.25,1.25,0,0,1,.21.3A1,1,0,0,1,401.06,394.82Zm-1,.56a.61.61,0,0,0,.24,0,.53.53,0,0,0,.21-.11.46.46,0,0,0,.14-.17.51.51,0,0,0,0-.48.49.49,0,0,0-.14-.18,1.06,1.06,0,0,0-.21-.11,1,1,0,0,0-.24,0,.67.67,0,0,0-.24,0,.43.43,0,0,0-.2.11.5.5,0,0,0-.15.17.6.6,0,0,0-.05.24.48.48,0,0,0,.06.24.49.49,0,0,0,.14.18.68.68,0,0,0,.21.1A.59.59,0,0,0,400.08,395.38Z" style="fill:#fff"></path><path d="M401.05,393.35h-1.93v-.7a.93.93,0,0,1,.08-.42.69.69,0,0,1,.2-.29.87.87,0,0,1,.31-.18,1.1,1.1,0,0,1,.37-.06,1.25,1.25,0,0,1,.4.06.91.91,0,0,1,.3.19,1,1,0,0,1,.2.3,1.24,1.24,0,0,1,.07.4Zm-1-1.28a.93.93,0,0,0-.25,0,.7.7,0,0,0-.21.11.59.59,0,0,0-.13.18.69.69,0,0,0,0,.25V393h1.27v-.32a.62.62,0,0,0-.05-.25.49.49,0,0,0-.14-.18.55.55,0,0,0-.2-.11A1,1,0,0,0,400.08,392.07Z" style="fill:#fff"></path><path d="M399.45,388.9v.61h1.6v.38h-1.6v.61h-.33v-1.6Z" style="fill:#fff"></path><path d="M400.72,387.08h.33v1.34h-1.93V387.1h.33V388h.46v-.81h.31V388h.5Z" style="fill:#fff"></path><path d="M399.62,385.43l-.05.07-.06.12a.75.75,0,0,0-.05.16.51.51,0,0,0,0,.17.37.37,0,0,0,.06.23.19.19,0,0,0,.16.08.17.17,0,0,0,.1,0,.27.27,0,0,0,.07-.08.58.58,0,0,0,.05-.14l.06-.19a1.6,1.6,0,0,1,.08-.26.5.5,0,0,1,.11-.19.37.37,0,0,1,.15-.13.63.63,0,0,1,.49,0,.55.55,0,0,1,.18.16.74.74,0,0,1,.1.22,1.3,1.3,0,0,1,0,.7,1.21,1.21,0,0,1-.18.38l-.32-.16.06-.09a1,1,0,0,0,.08-.15,1,1,0,0,0,.06-.2.76.76,0,0,0,0-.21c0-.21-.06-.31-.2-.31a.17.17,0,0,0-.1,0,.39.39,0,0,0-.08.1l-.06.16q0,.09-.06.21a1.35,1.35,0,0,1-.08.24.71.71,0,0,1-.11.17.36.36,0,0,1-.14.1.5.5,0,0,1-.19,0,.71.71,0,0,1-.26-.05.58.58,0,0,1-.19-.15.61.61,0,0,1-.11-.23.77.77,0,0,1,0-.27,1.06,1.06,0,0,1,.06-.37,1.05,1.05,0,0,1,.15-.3Z" style="fill:#fff"></path><path d="M399.45,383.25v.61h1.6v.37h-1.6v.62h-.33v-1.6Z" style="fill:#fff"></path><rect x="402.52" y="406.96" width="5.36" height="0.32" style="fill:#263238"></rect><rect x="402.52" y="406.35" width="5.36" height="0.32" style="fill:#263238"></rect><rect x="402.52" y="404.51" width="5.36" height="0.32" style="fill:#263238"></rect><rect x="402.52" y="402.05" width="5.36" height="0.32" style="fill:#263238"></rect><rect x="402.52" y="400.99" width="5.36" height="0.32" style="fill:#263238"></rect><rect x="402.52" y="399.6" width="5.36" height="0.32" style="fill:#263238"></rect><rect x="402.52" y="398.4" width="5.36" height="0.32" style="fill:#263238"></rect><rect x="402.52" y="396.03" width="5.36" height="0.32" style="fill:#263238"></rect><rect x="402.52" y="395.39" width="5.36" height="0.32" style="fill:#263238"></rect><rect x="402.52" y="393.02" width="5.36" height="0.32" style="fill:#263238"></rect><rect x="402.52" y="392.14" width="5.36" height="0.54" style="fill:#263238"></rect><rect x="402.52" y="393.74" width="5.36" height="0.54" style="fill:#263238"></rect><rect x="402.52" y="397.4" width="5.36" height="0.54" style="fill:#263238"></rect><rect x="402.52" y="403.59" width="5.36" height="0.54" style="fill:#263238"></rect><rect x="402.52" y="402.78" width="5.36" height="0.54" style="fill:#263238"></rect><rect x="402.52" y="400.19" width="5.36" height="0.54" style="fill:#263238"></rect><rect x="402.52" y="391.76" width="5.36" height="0.16" style="fill:#263238"></rect><rect x="402.52" y="394.51" width="5.36" height="0.16" style="fill:#263238"></rect><rect x="402.52" y="394.98" width="5.36" height="0.16" style="fill:#263238"></rect><rect x="402.52" y="396.77" width="5.36" height="0.16" style="fill:#263238"></rect><rect x="402.52" y="399.08" width="5.36" height="0.16" style="fill:#263238"></rect><rect x="402.52" y="401.6" width="5.36" height="0.16" style="fill:#263238"></rect><rect x="402.52" y="405.11" width="5.36" height="0.16" style="fill:#263238"></rect><rect x="402.52" y="405.51" width="5.36" height="0.16" style="fill:#263238"></rect><rect x="402.52" y="405.91" width="5.36" height="0.16" style="fill:#263238"></rect><rect x="402.52" y="391" width="5.36" height="0.32" style="fill:#263238"></rect><path d="M407.1,389.92h-3.8a.71.71,0,0,1-.71-.71V378.56a.71.71,0,0,1,.71-.71h3.8a.71.71,0,0,1,.72.71v10.65A.71.71,0,0,1,407.1,389.92Zm-3.8-11.87a.51.51,0,0,0-.51.51v10.65a.52.52,0,0,0,.51.52h3.8a.52.52,0,0,0,.52-.52V378.56a.51.51,0,0,0-.52-.51Z" style="fill:#263238"></path><rect x="402.76" y="383.79" width="4.88" height="0.19" style="fill:#263238"></rect><rect x="403.58" y="378.47" width="0.19" height="1.15" style="fill:#263238"></rect><rect x="403.11" y="378.94" width="1.15" height="0.19" style="fill:#263238"></rect><rect x="403.11" y="384.61" width="1.15" height="0.19" style="fill:#263238"></rect><path d="M426.88,420.32h0a7.37,7.37,0,0,1-7.37-7.37V353.44h14.73V413A7.37,7.37,0,0,1,426.88,420.32Z" style="fill:#ebebeb"></path><path d="M421,363.88V413a5.93,5.93,0,1,0,11.85,0v-49.1Z" style="fill:#FFC727"></path><path d="M431.42,413.91h0a.62.62,0,0,1-.62-.62V357.81a.63.63,0,0,1,.62-.63h0a.63.63,0,0,1,.63.63v55.48A.63.63,0,0,1,431.42,413.91Z" style="fill:#fff;opacity:0.4"></path><path d="M429.64,396.29h0a.37.37,0,0,1-.37-.37V363a.38.38,0,0,1,.37-.37h0a.37.37,0,0,1,.37.37v33A.36.36,0,0,1,429.64,396.29Z" style="fill:#fff;opacity:0.4"></path><rect x="417.82" y="341.61" width="18.11" height="13.87" style="fill:#37474f"></rect><rect x="418.43" y="342.34" width="0.59" height="12.42" style="fill:#263238"></rect><rect x="419.6" y="342.34" width="0.59" height="12.42" style="fill:#263238"></rect><rect x="420.76" y="342.34" width="0.59" height="12.42" style="fill:#263238"></rect><rect x="421.92" y="342.34" width="0.59" height="12.42" style="fill:#263238"></rect><rect x="423.09" y="342.34" width="0.59" height="12.42" style="fill:#263238"></rect><rect x="424.25" y="342.34" width="0.59" height="12.42" style="fill:#263238"></rect><rect x="425.42" y="342.34" width="0.59" height="12.42" style="fill:#263238"></rect><rect x="426.58" y="342.34" width="0.59" height="12.42" style="fill:#263238"></rect><rect x="427.75" y="342.34" width="0.59" height="12.42" style="fill:#263238"></rect><rect x="428.91" y="342.34" width="0.59" height="12.42" style="fill:#263238"></rect><rect x="430.08" y="342.34" width="0.59" height="12.42" style="fill:#263238"></rect><rect x="431.24" y="342.34" width="0.59" height="12.42" style="fill:#263238"></rect><rect x="432.4" y="342.34" width="0.59" height="12.42" style="fill:#263238"></rect><rect x="433.57" y="342.34" width="0.59" height="12.42" style="fill:#263238"></rect><rect x="434.73" y="342.34" width="0.59" height="12.42" style="fill:#263238"></rect><rect x="421.71" y="376.53" width="10.34" height="31.92" style="fill:#fff"></rect><rect x="421.71" y="376.53" width="3.43" height="31.92" style="fill:#455a64"></rect><path d="M423.94,400.18a.46.46,0,0,1,.21.05.43.43,0,0,1,.16.14.56.56,0,0,1,.09.19,1,1,0,0,1,0,.24v.94h-1.93v-1a.39.39,0,0,1,0-.18.76.76,0,0,1,.11-.14.8.8,0,0,1,.16-.08.58.58,0,0,1,.18,0,.5.5,0,0,1,.26.08.37.37,0,0,1,.19.2.48.48,0,0,1,.17-.26A.55.55,0,0,1,423.94,400.18Zm-1.11,1.18h.48v-.5a.23.23,0,0,0-.06-.16.25.25,0,0,0-.18-.07.24.24,0,0,0-.18.07.2.2,0,0,0-.06.15Zm1-.8-.1,0-.08.05a.13.13,0,0,0-.06.07.2.2,0,0,0,0,.09v.57h.51v-.56a.29.29,0,0,0,0-.09.22.22,0,0,0-.05-.08l-.08-.05Z" style="fill:#fff"></path><path d="M424.44,399.65h-1.93v-.38h1.6v-1h.33Z" style="fill:#fff"></path><path d="M424.45,397.12a.92.92,0,0,1-.08.38,1.11,1.11,0,0,1-.22.3,1.29,1.29,0,0,1-.32.19,1.15,1.15,0,0,1-.36.07,1,1,0,0,1-.37-.08.89.89,0,0,1-.31-.19,1.29,1.29,0,0,1-.22-.3,1,1,0,0,1-.08-.38.79.79,0,0,1,.09-.38,1,1,0,0,1,.22-.3,1.29,1.29,0,0,1,.32-.19,1.15,1.15,0,0,1,.36-.07.86.86,0,0,1,.36.08.89.89,0,0,1,.31.19.84.84,0,0,1,.22.3A.92.92,0,0,1,424.45,397.12Zm-1,.56a.93.93,0,0,0,.24,0,.7.7,0,0,0,.21-.11.49.49,0,0,0,.14-.18.51.51,0,0,0,0-.48.49.49,0,0,0-.15-.17.56.56,0,0,0-.2-.11.67.67,0,0,0-.24,0,1,1,0,0,0-.24,0,.7.7,0,0,0-.21.11.62.62,0,0,0-.14.18.59.59,0,0,0-.05.23.7.7,0,0,0,.05.25.61.61,0,0,0,.15.17.7.7,0,0,0,.21.11A.85.85,0,0,0,423.47,397.68Z" style="fill:#fff"></path><path d="M424.45,394.82a.92.92,0,0,1-.08.38,1,1,0,0,1-.22.3,1,1,0,0,1-.32.19.92.92,0,0,1-.36.07.94.94,0,0,1-.37-.07,1.1,1.1,0,0,1-.31-.2,1,1,0,0,1-.22-.3,1,1,0,0,1-.08-.38.82.82,0,0,1,.09-.38,1.06,1.06,0,0,1,.22-.29,1,1,0,0,1,.32-.19.92.92,0,0,1,.36-.07.86.86,0,0,1,.36.07,1.08,1.08,0,0,1,.31.19,1.05,1.05,0,0,1,.22.3A1,1,0,0,1,424.45,394.82Zm-1,.56a.64.64,0,0,0,.24,0,.53.53,0,0,0,.21-.11.46.46,0,0,0,.14-.17.51.51,0,0,0,0-.48.52.52,0,0,0-.15-.18.78.78,0,0,0-.2-.11,1,1,0,0,0-.24,0,.67.67,0,0,0-.24,0,.53.53,0,0,0-.21.11.47.47,0,0,0-.14.17.6.6,0,0,0,0,.48.65.65,0,0,0,.15.18.68.68,0,0,0,.21.1A.59.59,0,0,0,423.47,395.38Z" style="fill:#fff"></path><path d="M424.44,393.35h-1.93v-.7a1.09,1.09,0,0,1,.07-.42.7.7,0,0,1,.21-.29.87.87,0,0,1,.31-.18,1.1,1.1,0,0,1,.37-.06,1.25,1.25,0,0,1,.4.06.91.91,0,0,1,.3.19,1.21,1.21,0,0,1,.2.3,1.24,1.24,0,0,1,.07.4Zm-1-1.28a1.09,1.09,0,0,0-.26,0,.78.78,0,0,0-.2.11.59.59,0,0,0-.13.18.69.69,0,0,0,0,.25V393h1.27v-.32a.62.62,0,0,0-.05-.25.49.49,0,0,0-.14-.18.55.55,0,0,0-.2-.11A1,1,0,0,0,423.47,392.07Z" style="fill:#fff"></path><path d="M422.84,388.9v.61h1.6v.38h-1.6v.61h-.33v-1.6Z" style="fill:#fff"></path><path d="M424.11,387.08h.33v1.34h-1.93V387.1h.33V388h.46v-.81h.3V388h.51Z" style="fill:#fff"></path><path d="M423,385.43l-.05.07-.06.12-.06.16a1,1,0,0,0,0,.17.37.37,0,0,0,.06.23.19.19,0,0,0,.16.08.17.17,0,0,0,.1,0,.27.27,0,0,0,.07-.08.58.58,0,0,0,.05-.14,1.05,1.05,0,0,0,.05-.19c0-.1.06-.18.09-.26a.49.49,0,0,1,.1-.19.48.48,0,0,1,.16-.13.51.51,0,0,1,.22,0,.54.54,0,0,1,.27.06.55.55,0,0,1,.18.16,1.12,1.12,0,0,1,.1.22,1.3,1.3,0,0,1,0,.7,1.21,1.21,0,0,1-.18.38l-.33-.16.07-.09.08-.15a1,1,0,0,0,.06-.2.76.76,0,0,0,0-.21c0-.21-.07-.31-.2-.31a.17.17,0,0,0-.1,0,.39.39,0,0,0-.08.1l-.06.16q0,.09-.06.21a1.35,1.35,0,0,1-.08.24.71.71,0,0,1-.11.17.45.45,0,0,1-.14.1.54.54,0,0,1-.19,0,.71.71,0,0,1-.26-.05.58.58,0,0,1-.19-.15.84.84,0,0,1-.12-.23,1.1,1.1,0,0,1,0-.27,1.29,1.29,0,0,1,.22-.67Z" style="fill:#fff"></path><path d="M422.84,383.25v.61h1.6v.37h-1.6v.62h-.33v-1.6Z" style="fill:#fff"></path><rect x="425.91" y="406.96" width="5.36" height="0.32" style="fill:#263238"></rect><rect x="425.91" y="406.35" width="5.36" height="0.32" style="fill:#263238"></rect><rect x="425.91" y="404.51" width="5.36" height="0.32" style="fill:#263238"></rect><rect x="425.91" y="402.05" width="5.36" height="0.32" style="fill:#263238"></rect><rect x="425.91" y="400.99" width="5.36" height="0.32" style="fill:#263238"></rect><rect x="425.91" y="399.6" width="5.36" height="0.32" style="fill:#263238"></rect><rect x="425.91" y="398.4" width="5.36" height="0.32" style="fill:#263238"></rect><rect x="425.91" y="396.03" width="5.36" height="0.32" style="fill:#263238"></rect><rect x="425.91" y="395.39" width="5.36" height="0.32" style="fill:#263238"></rect><rect x="425.91" y="393.02" width="5.36" height="0.32" style="fill:#263238"></rect><rect x="425.91" y="392.14" width="5.36" height="0.54" style="fill:#263238"></rect><rect x="425.91" y="393.74" width="5.36" height="0.54" style="fill:#263238"></rect><rect x="425.91" y="397.4" width="5.36" height="0.54" style="fill:#263238"></rect><rect x="425.91" y="403.59" width="5.36" height="0.54" style="fill:#263238"></rect><rect x="425.91" y="402.78" width="5.36" height="0.54" style="fill:#263238"></rect><rect x="425.91" y="400.19" width="5.36" height="0.54" style="fill:#263238"></rect><rect x="425.91" y="391.76" width="5.36" height="0.16" style="fill:#263238"></rect><rect x="425.91" y="394.51" width="5.36" height="0.16" style="fill:#263238"></rect><rect x="425.91" y="394.98" width="5.36" height="0.16" style="fill:#263238"></rect><rect x="425.91" y="396.77" width="5.36" height="0.16" style="fill:#263238"></rect><rect x="425.91" y="399.08" width="5.36" height="0.16" style="fill:#263238"></rect><rect x="425.91" y="401.6" width="5.36" height="0.16" style="fill:#263238"></rect><rect x="425.91" y="405.11" width="5.36" height="0.16" style="fill:#263238"></rect><rect x="425.91" y="405.51" width="5.36" height="0.16" style="fill:#263238"></rect><rect x="425.91" y="405.91" width="5.36" height="0.16" style="fill:#263238"></rect><rect x="425.91" y="391" width="5.36" height="0.32" style="fill:#263238"></rect><path d="M430.49,389.92h-3.8a.71.71,0,0,1-.71-.71V378.56a.71.71,0,0,1,.71-.71h3.8a.71.71,0,0,1,.71.71v10.65A.71.71,0,0,1,430.49,389.92Zm-3.8-11.87a.51.51,0,0,0-.51.51v10.65a.52.52,0,0,0,.51.52h3.8a.52.52,0,0,0,.52-.52V378.56a.51.51,0,0,0-.52-.51Z" style="fill:#263238"></path><rect x="426.15" y="383.79" width="4.88" height="0.19" style="fill:#263238"></rect><rect x="426.97" y="378.47" width="0.19" height="1.15" style="fill:#263238"></rect><rect x="426.5" y="378.94" width="1.15" height="0.19" style="fill:#263238"></rect><rect x="426.5" y="384.61" width="1.15" height="0.19" style="fill:#263238"></rect><path d="M364,385.42v4.37H448V382.6H434.33V385c0,1.19-3.35,2.15-7.48,2.15s-7.47-1-7.47-2.15V382.6h-8.44V385c0,1.19-3.34,2.15-7.47,2.15-.79,0-1.56,0-2.28-.11-3-.27-5.2-1.08-5.2-2V382.6h-8.44V385c0,1.19-3.35,2.15-7.48,2.15-3.35,0-6.17-.63-7.13-1.51a1.24,1.24,0,0,1-.19-.21.72.72,0,0,1-.15-.43V382.6h-8.44V385A.72.72,0,0,1,364,385.42Z" style="fill:#455a64"></path><path d="M317.22,382.6l0,7.19H364v-4.37c-.67,1-3.7,1.74-7.34,1.74-4.13,0-7.47-1-7.47-2.15V382.6h-8.44V385c0,1.19-3.35,2.15-7.48,2.15s-7.47-1-7.47-2.15V382.6Z" style="fill:#455a64"></path><rect x="317.22" y="389.8" width="130.75" height="2.9" transform="translate(765.2 782.49) rotate(180)" style="fill:#263238"></rect><rect x="313.29" y="353.9" width="3.94" height="76.86" transform="translate(630.51 784.65) rotate(180)" style="fill:#263238"></rect><path d="M261.66,404.3h6.6a8.48,8.48,0,0,1,8.48,8.48v31.65a0,0,0,0,1,0,0H253.18a0,0,0,0,1,0,0V412.78A8.48,8.48,0,0,1,261.66,404.3Z" style="fill:#dbdbdb"></path><rect x="258.89" y="398.41" width="12.14" height="7.05" style="fill:#dbdbdb"></rect><rect x="256.75" y="395.12" width="16.42" height="6.28" style="fill:#FFC727"></rect><rect x="255.15" y="419.19" width="17.38" height="15.88" style="fill:#fff"></rect><path d="M287.63,404.3h6.6a8.48,8.48,0,0,1,8.48,8.48v31.65a0,0,0,0,1,0,0H279.15a0,0,0,0,1,0,0V412.78A8.48,8.48,0,0,1,287.63,404.3Z" style="fill:#dbdbdb"></path><rect x="284.86" y="398.41" width="12.14" height="7.05" style="fill:#dbdbdb"></rect><rect x="282.72" y="395.12" width="16.42" height="6.28" style="fill:#455a64"></rect><rect x="281.12" y="419.19" width="17.38" height="15.88" style="fill:#fff"></rect></g></svg>