<svg xmlns="http://www.w3.org/2000/svg" viewBox="0 0 500 500"><g id="freepik--background-complete--inject-2"><path d="M457.1,410.15c0-.14.44-.26,1-.26l-.26.26h0V410l0-.18a2.4,2.4,0,0,1,.05-.32c0-.18.11-.3.19-.3s.13.12.18.3,0,.2.06.32v.36h0c-.12.12.26-.26-.26.27C457.54,410.42,457.1,410.3,457.1,410.15Z" style="fill:#e0e0e0"></path><path d="M453.13,410.15c0-.14.45-.26,1-.26s1,.12,1,.26-.44.27-1,.27S453.13,410.3,453.13,410.15Z" style="fill:#e0e0e0"></path><path d="M449.17,410.15c0-.14.44-.26,1-.26s1,.12,1,.26-.44.27-1,.27S449.17,410.3,449.17,410.15Z" style="fill:#e0e0e0"></path><path d="M445.2,410.15c0-.14.45-.26,1-.26s1,.12,1,.26-.45.27-1,.27S445.2,410.3,445.2,410.15Z" style="fill:#e0e0e0"></path><path d="M441.24,410.15c0-.14.44-.26,1-.26s1,.12,1,.26-.44.27-1,.27S441.24,410.3,441.24,410.15Z" style="fill:#e0e0e0"></path><path d="M437.28,410.15c0-.14.44-.26,1-.26s1,.12,1,.26-.45.27-1,.27S437.28,410.3,437.28,410.15Z" style="fill:#e0e0e0"></path><path d="M433.31,410.15c0-.14.45-.26,1-.26s1,.12,1,.26-.44.27-1,.27S433.31,410.3,433.31,410.15Z" style="fill:#e0e0e0"></path><path d="M429.35,410.15c0-.14.44-.26,1-.26s1,.12,1,.26-.44.27-1,.27S429.35,410.3,429.35,410.15Z" style="fill:#e0e0e0"></path><path d="M425.38,410.15c0-.14.45-.26,1-.26s1,.12,1,.26-.45.27-1,.27S425.38,410.3,425.38,410.15Z" style="fill:#e0e0e0"></path><path d="M421.42,410.15c0-.14.44-.26,1-.26s1,.12,1,.26-.44.27-1,.27S421.42,410.3,421.42,410.15Z" style="fill:#e0e0e0"></path><path d="M417.46,410.15c0-.14.44-.26,1-.26s1,.12,1,.26-.45.27-1,.27S417.46,410.3,417.46,410.15Z" style="fill:#e0e0e0"></path><path d="M413.49,410.15c0-.14.44-.26,1-.26s1,.12,1,.26-.44.27-1,.27S413.49,410.3,413.49,410.15Z" style="fill:#e0e0e0"></path><path d="M409.53,410.15c0-.14.44-.26,1-.26s1,.12,1,.26-.44.27-1,.27S409.53,410.3,409.53,410.15Z" style="fill:#e0e0e0"></path><path d="M405.56,410.15c0-.14.45-.26,1-.26s1,.12,1,.26-.44.27-1,.27S405.56,410.3,405.56,410.15Z" style="fill:#e0e0e0"></path><path d="M401.6,410.15c0-.14.44-.26,1-.26s1,.12,1,.26-.44.27-1,.27S401.6,410.3,401.6,410.15Z" style="fill:#e0e0e0"></path><path d="M397.63,410.15c0-.14.45-.26,1-.26s1,.12,1,.26-.45.27-1,.27S397.63,410.3,397.63,410.15Z" style="fill:#e0e0e0"></path><path d="M393.67,410.15c0-.14.44-.26,1-.26s1,.12,1,.26-.44.27-1,.27S393.67,410.3,393.67,410.15Z" style="fill:#e0e0e0"></path><path d="M389.71,410.15c0-.14.44-.26,1-.26s1,.12,1,.26-.45.27-1,.27S389.71,410.3,389.71,410.15Z" style="fill:#e0e0e0"></path><path d="M385.74,410.15c0-.14.45-.26,1-.26s1,.12,1,.26-.44.27-1,.27S385.74,410.3,385.74,410.15Z" style="fill:#e0e0e0"></path><path d="M381.78,410.15c0-.14.44-.26,1-.26s1,.12,1,.26-.44.27-1,.27S381.78,410.3,381.78,410.15Z" style="fill:#e0e0e0"></path><path d="M377.81,410.15c0-.14.45-.26,1-.26s1,.12,1,.26-.45.27-1,.27S377.81,410.3,377.81,410.15Z" style="fill:#e0e0e0"></path><path d="M373.85,410.15c0-.14.44-.26,1-.26s1,.12,1,.26-.44.27-1,.27S373.85,410.3,373.85,410.15Z" style="fill:#e0e0e0"></path><path d="M369.89,410.15c0-.14.44-.26,1-.26s1,.12,1,.26-.45.27-1,.27S369.89,410.3,369.89,410.15Z" style="fill:#e0e0e0"></path><path d="M365.92,410.15c0-.14.45-.26,1-.26s1,.12,1,.26-.44.27-1,.27S365.92,410.3,365.92,410.15Z" style="fill:#e0e0e0"></path><path d="M362,410.15c0-.14.44-.26,1-.26s1,.12,1,.26-.44.27-1,.27S362,410.3,362,410.15Z" style="fill:#e0e0e0"></path><path d="M358,410.15c0-.14.45-.26,1-.26s1,.12,1,.26-.45.27-1,.27S358,410.3,358,410.15Z" style="fill:#e0e0e0"></path><path d="M354,410.15c0-.14.44-.26,1-.26s1,.12,1,.26-.44.27-1,.27S354,410.3,354,410.15Z" style="fill:#e0e0e0"></path><path d="M350.07,410.15c0-.14.44-.26,1-.26s1,.12,1,.26-.45.27-1,.27S350.07,410.3,350.07,410.15Z" style="fill:#e0e0e0"></path><path d="M346.1,410.15c0-.14.45-.26,1-.26s1,.12,1,.26-.44.27-1,.27S346.1,410.3,346.1,410.15Z" style="fill:#e0e0e0"></path><path d="M342.14,410.15c0-.14.44-.26,1-.26s1,.12,1,.26-.44.27-1,.27S342.14,410.3,342.14,410.15Z" style="fill:#e0e0e0"></path><path d="M338.17,410.15c0-.14.45-.26,1-.26s1,.12,1,.26-.45.27-1,.27S338.17,410.3,338.17,410.15Z" style="fill:#e0e0e0"></path><path d="M334.21,410.15c0-.14.44-.26,1-.26s1,.12,1,.26-.44.27-1,.27S334.21,410.3,334.21,410.15Z" style="fill:#e0e0e0"></path><ellipse cx="331.24" cy="410.15" rx="0.99" ry="0.26" style="fill:#e0e0e0"></ellipse><path d="M326.28,410.15c0-.14.44-.26,1-.26s1,.12,1,.26-.44.27-1,.27S326.28,410.3,326.28,410.15Z" style="fill:#e0e0e0"></path><ellipse cx="323.31" cy="410.15" rx="0.99" ry="0.26" style="fill:#e0e0e0"></ellipse><ellipse cx="319.34" cy="410.15" rx="0.99" ry="0.26" style="fill:#e0e0e0"></ellipse><path d="M315.37,409.15c.14,0,.26.45.26,1l-.26-.26h.39l.32.06c.18,0,.29.11.29.18s-.11.14-.29.19l-.32.05-.19,0h-.2c-.12-.12.26.26-.26-.27C315.11,409.6,315.23,409.15,315.37,409.15Z" style="fill:#e0e0e0"></path><path d="M315.37,405.1c.14,0,.26.45.26,1s-.12,1-.26,1-.26-.46-.26-1S315.23,405.1,315.37,405.1Z" style="fill:#e0e0e0"></path><path d="M315.37,401c.14,0,.26.46.26,1s-.12,1-.26,1-.26-.45-.26-1S315.23,401,315.37,401Z" style="fill:#e0e0e0"></path><path d="M315.37,397c.14,0,.26.45.26,1s-.12,1-.26,1-.26-.46-.26-1S315.23,397,315.37,397Z" style="fill:#e0e0e0"></path><path d="M315.37,392.93c.14,0,.26.46.26,1s-.12,1-.26,1-.26-.45-.26-1S315.23,392.93,315.37,392.93Z" style="fill:#e0e0e0"></path><path d="M315.37,388.88c.14,0,.26.45.26,1s-.12,1-.26,1-.26-.45-.26-1S315.23,388.88,315.37,388.88Z" style="fill:#e0e0e0"></path><path d="M315.37,384.82c.14,0,.26.45.26,1s-.12,1-.26,1-.26-.45-.26-1S315.23,384.82,315.37,384.82Z" style="fill:#e0e0e0"></path><path d="M315.37,380.77c.14,0,.26.45.26,1s-.12,1-.26,1-.26-.45-.26-1S315.23,380.77,315.37,380.77Z" style="fill:#e0e0e0"></path><path d="M315.37,376.71c.14,0,.26.45.26,1s-.12,1-.26,1-.26-.46-.26-1S315.23,376.71,315.37,376.71Z" style="fill:#e0e0e0"></path><path d="M315.37,372.65c.14,0,.26.46.26,1s-.12,1-.26,1-.26-.45-.26-1S315.23,372.65,315.37,372.65Z" style="fill:#e0e0e0"></path><path d="M315.37,368.6c.14,0,.26.45.26,1s-.12,1-.26,1-.26-.46-.26-1S315.23,368.6,315.37,368.6Z" style="fill:#e0e0e0"></path><path d="M315.37,364.54c.14,0,.26.46.26,1s-.12,1-.26,1-.26-.45-.26-1S315.23,364.54,315.37,364.54Z" style="fill:#e0e0e0"></path><path d="M315.37,360.49c.14,0,.26.45.26,1s-.12,1-.26,1-.26-.46-.26-1S315.23,360.49,315.37,360.49Z" style="fill:#e0e0e0"></path><path d="M315.37,356.43c.14,0,.26.46.26,1s-.12,1-.26,1-.26-.45-.26-1S315.23,356.43,315.37,356.43Z" style="fill:#e0e0e0"></path><path d="M315.37,352.38c.14,0,.26.45.26,1s-.12,1-.26,1-.26-.45-.26-1S315.23,352.38,315.37,352.38Z" style="fill:#e0e0e0"></path><path d="M315.37,348.32c.14,0,.26.45.26,1s-.12,1-.26,1-.26-.46-.26-1S315.23,348.32,315.37,348.32Z" style="fill:#e0e0e0"></path><path d="M315.37,344.26c.14,0,.26.46.26,1s-.12,1-.26,1-.26-.45-.26-1S315.23,344.26,315.37,344.26Z" style="fill:#e0e0e0"></path><path d="M315.37,340.21c.14,0,.26.45.26,1s-.12,1-.26,1-.26-.46-.26-1S315.23,340.21,315.37,340.21Z" style="fill:#e0e0e0"></path><path d="M315.37,336.15c.14,0,.26.46.26,1s-.12,1-.26,1-.26-.45-.26-1S315.23,336.15,315.37,336.15Z" style="fill:#e0e0e0"></path><path d="M315.37,332.1c.14,0,.26.45.26,1s-.12,1-.26,1-.26-.46-.26-1S315.23,332.1,315.37,332.1Z" style="fill:#e0e0e0"></path><path d="M316.37,329.07c0,.14-.45.26-1,.26l.26-.26h0v.19l0,.19a1.4,1.4,0,0,1-.06.32c0,.18-.11.29-.18.29s-.14-.11-.18-.29a1.4,1.4,0,0,1-.06-.32v-.38h0l.26-.26C315.92,328.81,316.37,328.93,316.37,329.07Z" style="fill:#e0e0e0"></path><ellipse cx="319.34" cy="329.07" rx="0.99" ry="0.26" style="fill:#e0e0e0"></ellipse><path d="M324.3,329.07c0,.14-.44.26-1,.26s-1-.12-1-.26.44-.26,1-.26S324.3,328.93,324.3,329.07Z" style="fill:#e0e0e0"></path><ellipse cx="327.27" cy="329.07" rx="0.99" ry="0.26" style="fill:#e0e0e0"></ellipse><ellipse cx="331.24" cy="329.07" rx="0.99" ry="0.26" style="fill:#e0e0e0"></ellipse><ellipse cx="335.2" cy="329.07" rx="0.99" ry="0.26" style="fill:#e0e0e0"></ellipse><ellipse cx="339.16" cy="329.07" rx="0.99" ry="0.26" style="fill:#e0e0e0"></ellipse><ellipse cx="343.13" cy="329.07" rx="0.99" ry="0.26" style="fill:#e0e0e0"></ellipse><ellipse cx="347.09" cy="329.07" rx="0.99" ry="0.26" style="fill:#e0e0e0"></ellipse><ellipse cx="351.06" cy="329.07" rx="0.99" ry="0.26" style="fill:#e0e0e0"></ellipse><ellipse cx="355.02" cy="329.07" rx="0.99" ry="0.26" style="fill:#e0e0e0"></ellipse><path d="M360,329.07c0,.14-.45.26-1,.26s-1-.12-1-.26.45-.26,1-.26S360,328.93,360,329.07Z" style="fill:#e0e0e0"></path><ellipse cx="362.95" cy="329.07" rx="0.99" ry="0.26" style="fill:#e0e0e0"></ellipse><ellipse cx="366.91" cy="329.07" rx="0.99" ry="0.26" style="fill:#e0e0e0"></ellipse><path d="M371.87,329.07c0,.14-.45.26-1,.26s-1-.12-1-.26.44-.26,1-.26S371.87,328.93,371.87,329.07Z" style="fill:#e0e0e0"></path><ellipse cx="374.84" cy="329.07" rx="0.99" ry="0.26" style="fill:#e0e0e0"></ellipse><path d="M379.8,329.07c0,.14-.45.26-1,.26s-1-.12-1-.26.45-.26,1-.26S379.8,328.93,379.8,329.07Z" style="fill:#e0e0e0"></path><ellipse cx="382.77" cy="329.07" rx="0.99" ry="0.26" style="fill:#e0e0e0"></ellipse><ellipse cx="386.73" cy="329.07" rx="0.99" ry="0.26" style="fill:#e0e0e0"></ellipse><path d="M391.69,329.07c0,.14-.45.26-1,.26s-1-.12-1-.26.44-.26,1-.26S391.69,328.93,391.69,329.07Z" style="fill:#e0e0e0"></path><ellipse cx="394.66" cy="329.07" rx="0.99" ry="0.26" style="fill:#e0e0e0"></ellipse><path d="M399.62,329.07c0,.14-.45.26-1,.26s-1-.12-1-.26.45-.26,1-.26S399.62,328.93,399.62,329.07Z" style="fill:#e0e0e0"></path><path d="M403.58,329.07c0,.14-.44.26-1,.26s-1-.12-1-.26.44-.26,1-.26S403.58,328.93,403.58,329.07Z" style="fill:#e0e0e0"></path><ellipse cx="406.55" cy="329.07" rx="0.99" ry="0.26" style="fill:#e0e0e0"></ellipse><path d="M411.51,329.07c0,.14-.44.26-1,.26s-1-.12-1-.26.44-.26,1-.26S411.51,328.93,411.51,329.07Z" style="fill:#e0e0e0"></path><ellipse cx="414.48" cy="329.07" rx="0.99" ry="0.26" style="fill:#e0e0e0"></ellipse><path d="M419.44,329.07c0,.14-.45.26-1,.26s-1-.12-1-.26.44-.26,1-.26S419.44,328.93,419.44,329.07Z" style="fill:#e0e0e0"></path><path d="M423.4,329.07c0,.14-.44.26-1,.26s-1-.12-1-.26.44-.26,1-.26S423.4,328.93,423.4,329.07Z" style="fill:#e0e0e0"></path><ellipse cx="426.37" cy="329.07" rx="0.99" ry="0.26" style="fill:#e0e0e0"></ellipse><path d="M431.33,329.07c0,.14-.44.26-1,.26s-1-.12-1-.26.44-.26,1-.26S431.33,328.93,431.33,329.07Z" style="fill:#e0e0e0"></path><path d="M435.29,329.07c0,.14-.44.26-1,.26s-1-.12-1-.26.45-.26,1-.26S435.29,328.93,435.29,329.07Z" style="fill:#e0e0e0"></path><path d="M439.26,329.07c0,.14-.45.26-1,.26s-1-.12-1-.26.44-.26,1-.26S439.26,328.93,439.26,329.07Z" style="fill:#e0e0e0"></path><path d="M443.22,329.07c0,.14-.44.26-1,.26s-1-.12-1-.26.44-.26,1-.26S443.22,328.93,443.22,329.07Z" style="fill:#e0e0e0"></path><path d="M447.19,329.07c0,.14-.45.26-1,.26s-1-.12-1-.26.45-.26,1-.26S447.19,328.93,447.19,329.07Z" style="fill:#e0e0e0"></path><path d="M451.15,329.07c0,.14-.44.26-1,.26s-1-.12-1-.26.44-.26,1-.26S451.15,328.93,451.15,329.07Z" style="fill:#e0e0e0"></path><path d="M455.11,329.07c0,.14-.44.26-1,.26s-1-.12-1-.26.45-.26,1-.26S455.11,328.93,455.11,329.07Z" style="fill:#e0e0e0"></path><path d="M458.1,330.07c-.15,0-.26-.45-.26-1l.26.26h-.21l-.18,0a1.4,1.4,0,0,1-.32-.06c-.18,0-.29-.11-.29-.18s.11-.14.29-.18a1.4,1.4,0,0,1,.32-.06h.39c.11.12-.26-.26.26.26C458.36,329.62,458.24,330.07,458.1,330.07Z" style="fill:#e0e0e0"></path><path d="M458.1,334.13c-.15,0-.26-.46-.26-1s.11-1,.26-1,.26.45.26,1S458.24,334.13,458.1,334.13Z" style="fill:#e0e0e0"></path><path d="M458.1,338.18c-.15,0-.26-.45-.26-1s.11-1,.26-1,.26.46.26,1S458.24,338.18,458.1,338.18Z" style="fill:#e0e0e0"></path><path d="M458.1,342.24c-.15,0-.26-.46-.26-1s.11-1,.26-1,.26.45.26,1S458.24,342.24,458.1,342.24Z" style="fill:#e0e0e0"></path><path d="M458.1,346.29c-.15,0-.26-.45-.26-1s.11-1,.26-1,.26.46.26,1S458.24,346.29,458.1,346.29Z" style="fill:#e0e0e0"></path><path d="M458.1,350.35c-.15,0-.26-.46-.26-1s.11-1,.26-1,.26.45.26,1S458.24,350.35,458.1,350.35Z" style="fill:#e0e0e0"></path><path d="M458.1,354.4c-.15,0-.26-.45-.26-1s.11-1,.26-1,.26.45.26,1S458.24,354.4,458.1,354.4Z" style="fill:#e0e0e0"></path><path d="M458.1,358.46c-.15,0-.26-.45-.26-1s.11-1,.26-1,.26.46.26,1S458.24,358.46,458.1,358.46Z" style="fill:#e0e0e0"></path><path d="M458.1,362.52c-.15,0-.26-.46-.26-1s.11-1,.26-1,.26.45.26,1S458.24,362.52,458.1,362.52Z" style="fill:#e0e0e0"></path><path d="M458.1,366.57c-.15,0-.26-.45-.26-1s.11-1,.26-1,.26.46.26,1S458.24,366.57,458.1,366.57Z" style="fill:#e0e0e0"></path><path d="M458.1,370.63c-.15,0-.26-.46-.26-1s.11-1,.26-1,.26.45.26,1S458.24,370.63,458.1,370.63Z" style="fill:#e0e0e0"></path><path d="M458.1,374.68c-.15,0-.26-.45-.26-1s.11-1,.26-1,.26.46.26,1S458.24,374.68,458.1,374.68Z" style="fill:#e0e0e0"></path><path d="M458.1,378.74c-.15,0-.26-.46-.26-1s.11-1,.26-1,.26.45.26,1S458.24,378.74,458.1,378.74Z" style="fill:#e0e0e0"></path><path d="M458.1,382.79c-.15,0-.26-.45-.26-1s.11-1,.26-1,.26.45.26,1S458.24,382.79,458.1,382.79Z" style="fill:#e0e0e0"></path><path d="M458.1,386.85c-.15,0-.26-.46-.26-1s.11-1,.26-1,.26.45.26,1S458.24,386.85,458.1,386.85Z" style="fill:#e0e0e0"></path><path d="M458.1,390.9c-.15,0-.26-.45-.26-1s.11-1,.26-1,.26.45.26,1S458.24,390.9,458.1,390.9Z" style="fill:#e0e0e0"></path><path d="M458.1,395c-.15,0-.26-.45-.26-1s.11-1,.26-1,.26.46.26,1S458.24,395,458.1,395Z" style="fill:#e0e0e0"></path><path d="M458.1,399c-.15,0-.26-.46-.26-1s.11-1,.26-1,.26.45.26,1S458.24,399,458.1,399Z" style="fill:#e0e0e0"></path><path d="M458.1,403.07c-.15,0-.26-.45-.26-1s.11-1,.26-1,.26.46.26,1S458.24,403.07,458.1,403.07Z" style="fill:#e0e0e0"></path><path d="M458.1,407.13c-.15,0-.26-.46-.26-1s.11-1,.26-1,.26.45.26,1S458.24,407.13,458.1,407.13Z" style="fill:#e0e0e0"></path><rect x="313.37" y="408.15" width="4.01" height="4.01" style="fill:#e0e0e0"></rect><rect x="313.37" y="327.07" width="4.01" height="4.01" style="fill:#e0e0e0"></rect><rect x="456.09" y="327.07" width="4.01" height="4.01" style="fill:#e0e0e0"></rect><rect x="456.09" y="408.15" width="4.01" height="4.01" style="fill:#e0e0e0"></rect><rect x="384.73" y="408.15" width="4.01" height="4.01" style="fill:#e0e0e0"></rect><rect x="386.73" y="327.07" width="4.01" height="4.01" style="fill:#e0e0e0"></rect><rect x="313.37" y="366.17" width="4.01" height="4.01" style="fill:#e0e0e0"></rect><rect x="456.09" y="366.17" width="4.01" height="4.01" style="fill:#e0e0e0"></rect><rect x="202.26" y="92.87" width="126.59" height="54.05" style="fill:#ebebeb"></rect><path d="M122.58,195.6c0-.15.45-.26,1-.26l-.26.26h0v-.17l0-.19a1.4,1.4,0,0,1,.06-.32c0-.18.11-.29.18-.29s.14.11.18.29a1.4,1.4,0,0,1,.06.32l0,.19v.17h0l-.26.26C123,195.86,122.58,195.74,122.58,195.6Z" style="fill:#e0e0e0"></path><path d="M118.58,195.6c0-.15.45-.26,1-.26s1,.11,1,.26-.45.26-1,.26S118.58,195.74,118.58,195.6Z" style="fill:#e0e0e0"></path><path d="M114.58,195.6c0-.15.44-.26,1-.26s1,.11,1,.26-.45.26-1,.26S114.58,195.74,114.58,195.6Z" style="fill:#e0e0e0"></path><path d="M110.57,195.6c0-.15.45-.26,1-.26s1,.11,1,.26-.45.26-1,.26S110.57,195.74,110.57,195.6Z" style="fill:#e0e0e0"></path><path d="M106.57,195.6c0-.15.45-.26,1-.26s1,.11,1,.26-.44.26-1,.26S106.57,195.74,106.57,195.6Z" style="fill:#e0e0e0"></path><path d="M102.57,195.6c0-.15.45-.26,1-.26s1,.11,1,.26-.45.26-1,.26S102.57,195.74,102.57,195.6Z" style="fill:#e0e0e0"></path><path d="M98.57,195.6c0-.15.45-.26,1-.26s1,.11,1,.26-.45.26-1,.26S98.57,195.74,98.57,195.6Z" style="fill:#e0e0e0"></path><path d="M94.57,195.6c0-.15.45-.26,1-.26s1,.11,1,.26-.45.26-1,.26S94.57,195.74,94.57,195.6Z" style="fill:#e0e0e0"></path><path d="M90.57,195.6c0-.15.44-.26,1-.26s1,.11,1,.26-.45.26-1,.26S90.57,195.74,90.57,195.6Z" style="fill:#e0e0e0"></path><path d="M86.56,195.6c0-.15.45-.26,1-.26s1,.11,1,.26-.44.26-1,.26S86.56,195.74,86.56,195.6Z" style="fill:#e0e0e0"></path><path d="M82.56,195.6c0-.15.45-.26,1-.26s1,.11,1,.26-.44.26-1,.26S82.56,195.74,82.56,195.6Z" style="fill:#e0e0e0"></path><path d="M78.56,195.6c0-.15.45-.26,1-.26s1,.11,1,.26-.45.26-1,.26S78.56,195.74,78.56,195.6Z" style="fill:#e0e0e0"></path><path d="M74.56,195.6c0-.15.45-.26,1-.26s1,.11,1,.26-.45.26-1,.26S74.56,195.74,74.56,195.6Z" style="fill:#e0e0e0"></path><path d="M70.56,195.6c0-.15.44-.26,1-.26s1,.11,1,.26-.45.26-1,.26S70.56,195.74,70.56,195.6Z" style="fill:#e0e0e0"></path><ellipse cx="67.56" cy="195.6" rx="1" ry="0.26" style="fill:#e0e0e0"></ellipse><path d="M63.55,194.6c.15,0,.26.45.26,1-.52-.52-.14-.15-.26-.26h.21l.18,0,.32,0c.18.05.29.12.29.19s-.11.13-.29.18a2.29,2.29,0,0,1-.32.06h-.39l-.26-.26C63.29,195.05,63.41,194.6,63.55,194.6Z" style="fill:#e0e0e0"></path><path d="M63.55,190.62c.15,0,.26.45.26,1s-.11,1-.26,1-.26-.45-.26-1S63.41,190.62,63.55,190.62Z" style="fill:#e0e0e0"></path><path d="M63.55,186.64c.15,0,.26.45.26,1s-.11,1-.26,1-.26-.44-.26-1S63.41,186.64,63.55,186.64Z" style="fill:#e0e0e0"></path><path d="M63.55,182.67c.15,0,.26.44.26,1s-.11,1-.26,1-.26-.44-.26-1S63.41,182.67,63.55,182.67Z" style="fill:#e0e0e0"></path><path d="M63.55,178.69c.15,0,.26.44.26,1s-.11,1-.26,1-.26-.45-.26-1S63.41,178.69,63.55,178.69Z" style="fill:#e0e0e0"></path><path d="M63.55,174.71c.15,0,.26.45.26,1s-.11,1-.26,1-.26-.44-.26-1S63.41,174.71,63.55,174.71Z" style="fill:#e0e0e0"></path><path d="M63.55,170.74c.15,0,.26.44.26,1s-.11,1-.26,1-.26-.44-.26-1S63.41,170.74,63.55,170.74Z" style="fill:#e0e0e0"></path><path d="M63.55,166.76c.15,0,.26.44.26,1s-.11,1-.26,1-.26-.45-.26-1S63.41,166.76,63.55,166.76Z" style="fill:#e0e0e0"></path><path d="M63.55,162.78c.15,0,.26.45.26,1s-.11,1-.26,1-.26-.45-.26-1S63.41,162.78,63.55,162.78Z" style="fill:#e0e0e0"></path><path d="M64.55,159.79c0,.15-.44.26-1,.26l.26-.26h0V160l0,.19a2.4,2.4,0,0,1,0,.32c-.05.18-.11.29-.19.29s-.13-.11-.18-.29,0-.2-.06-.32v-.36h0c.12-.11-.26.26.26-.26C64.11,159.53,64.55,159.65,64.55,159.79Z" style="fill:#e0e0e0"></path><path d="M68.56,159.79c0,.15-.45.26-1,.26s-1-.11-1-.26.45-.26,1-.26S68.56,159.65,68.56,159.79Z" style="fill:#e0e0e0"></path><path d="M72.56,159.79c0,.15-.45.26-1,.26s-1-.11-1-.26.44-.26,1-.26S72.56,159.65,72.56,159.79Z" style="fill:#e0e0e0"></path><path d="M76.56,159.79c0,.15-.45.26-1,.26s-1-.11-1-.26.45-.26,1-.26S76.56,159.65,76.56,159.79Z" style="fill:#e0e0e0"></path><path d="M80.56,159.79c0,.15-.45.26-1,.26s-1-.11-1-.26.45-.26,1-.26S80.56,159.65,80.56,159.79Z" style="fill:#e0e0e0"></path><path d="M84.56,159.79c0,.15-.44.26-1,.26s-1-.11-1-.26.45-.26,1-.26S84.56,159.65,84.56,159.79Z" style="fill:#e0e0e0"></path><path d="M88.56,159.79c0,.15-.44.26-1,.26s-1-.11-1-.26.45-.26,1-.26S88.56,159.65,88.56,159.79Z" style="fill:#e0e0e0"></path><path d="M92.57,159.79c0,.15-.45.26-1,.26s-1-.11-1-.26.44-.26,1-.26S92.57,159.65,92.57,159.79Z" style="fill:#e0e0e0"></path><path d="M96.57,159.79c0,.15-.45.26-1,.26s-1-.11-1-.26.45-.26,1-.26S96.57,159.65,96.57,159.79Z" style="fill:#e0e0e0"></path><path d="M100.57,159.79c0,.15-.45.26-1,.26s-1-.11-1-.26.45-.26,1-.26S100.57,159.65,100.57,159.79Z" style="fill:#e0e0e0"></path><path d="M104.57,159.79c0,.15-.45.26-1,.26s-1-.11-1-.26.45-.26,1-.26S104.57,159.65,104.57,159.79Z" style="fill:#e0e0e0"></path><path d="M108.57,159.79c0,.15-.44.26-1,.26s-1-.11-1-.26.45-.26,1-.26S108.57,159.65,108.57,159.79Z" style="fill:#e0e0e0"></path><path d="M112.58,159.79c0,.15-.45.26-1,.26s-1-.11-1-.26.45-.26,1-.26S112.58,159.65,112.58,159.79Z" style="fill:#e0e0e0"></path><path d="M116.58,159.79c0,.15-.45.26-1,.26s-1-.11-1-.26.44-.26,1-.26S116.58,159.65,116.58,159.79Z" style="fill:#e0e0e0"></path><path d="M120.58,159.79c0,.15-.45.26-1,.26s-1-.11-1-.26.45-.26,1-.26S120.58,159.65,120.58,159.79Z" style="fill:#e0e0e0"></path><path d="M123.58,160.79c-.14,0-.26-.45-.26-1l.26.26h-.2l-.19,0-.32-.05c-.18,0-.29-.12-.29-.19s.11-.13.29-.18a2.29,2.29,0,0,1,.32-.06h.39l.26.26C123.84,160.34,123.72,160.79,123.58,160.79Z" style="fill:#e0e0e0"></path><path d="M123.58,164.77c-.14,0-.26-.45-.26-1s.12-1,.26-1,.26.45.26,1S123.72,164.77,123.58,164.77Z" style="fill:#e0e0e0"></path><path d="M123.58,168.75c-.14,0-.26-.45-.26-1s.12-1,.26-1,.26.44.26,1S123.72,168.75,123.58,168.75Z" style="fill:#e0e0e0"></path><path d="M123.58,172.72c-.14,0-.26-.44-.26-1s.12-1,.26-1,.26.44.26,1S123.72,172.72,123.58,172.72Z" style="fill:#e0e0e0"></path><path d="M123.58,176.7c-.14,0-.26-.44-.26-1s.12-1,.26-1,.26.45.26,1S123.72,176.7,123.58,176.7Z" style="fill:#e0e0e0"></path><path d="M123.58,180.68c-.14,0-.26-.45-.26-1s.12-1,.26-1,.26.44.26,1S123.72,180.68,123.58,180.68Z" style="fill:#e0e0e0"></path><path d="M123.58,184.65c-.14,0-.26-.44-.26-1s.12-1,.26-1,.26.44.26,1S123.72,184.65,123.58,184.65Z" style="fill:#e0e0e0"></path><path d="M123.58,188.63c-.14,0-.26-.44-.26-1s.12-1,.26-1,.26.45.26,1S123.72,188.63,123.58,188.63Z" style="fill:#e0e0e0"></path><path d="M123.58,192.61c-.14,0-.26-.45-.26-1s.12-1,.26-1,.26.45.26,1S123.72,192.61,123.58,192.61Z" style="fill:#e0e0e0"></path><rect x="62.12" y="193.87" width="2.86" height="2.86" style="fill:#e0e0e0"></rect><rect x="62.12" y="158.36" width="2.86" height="2.86" style="fill:#e0e0e0"></rect><rect x="122.15" y="158.36" width="2.86" height="2.86" style="fill:#e0e0e0"></rect><rect x="122.15" y="193.74" width="2.86" height="2.86" style="fill:#e0e0e0"></rect><rect x="92.14" y="193.74" width="2.86" height="2.86" style="fill:#e0e0e0"></rect><rect x="92.14" y="158.36" width="2.86" height="2.86" style="fill:#e0e0e0"></rect><rect x="62.12" y="176.26" width="2.86" height="2.86" style="fill:#e0e0e0"></rect><rect x="122.15" y="176.26" width="2.86" height="2.86" style="fill:#e0e0e0"></rect><path d="M443.67,103.23c0-.14.45-.26,1-.26l-.26.26h0v-.38a2.29,2.29,0,0,1,.06-.32c0-.18.11-.29.18-.29s.14.11.19.29a2.4,2.4,0,0,1,.05.32l0,.19v.19h0l-.26.26C444.12,103.49,443.67,103.37,443.67,103.23Z" style="fill:#e0e0e0"></path><path d="M439.75,103.23c0-.14.44-.26,1-.26s1,.12,1,.26-.44.26-1,.26S439.75,103.37,439.75,103.23Z" style="fill:#e0e0e0"></path><path d="M435.83,103.23c0-.14.44-.26,1-.26s1,.12,1,.26-.44.26-1,.26S435.83,103.37,435.83,103.23Z" style="fill:#e0e0e0"></path><ellipse cx="432.89" cy="103.23" rx="0.98" ry="0.26" style="fill:#e0e0e0"></ellipse><ellipse cx="428.97" cy="103.23" rx="0.98" ry="0.26" style="fill:#e0e0e0"></ellipse><path d="M424.06,103.23c0-.14.44-.26,1-.26s1,.12,1,.26-.43.26-1,.26S424.06,103.37,424.06,103.23Z" style="fill:#e0e0e0"></path><path d="M420.14,103.23c0-.14.44-.26,1-.26s1,.12,1,.26-.44.26-1,.26S420.14,103.37,420.14,103.23Z" style="fill:#e0e0e0"></path><path d="M416.22,103.23c0-.14.44-.26,1-.26s1,.12,1,.26-.44.26-1,.26S416.22,103.37,416.22,103.23Z" style="fill:#e0e0e0"></path><path d="M412.3,103.23c0-.14.44-.26,1-.26s1,.12,1,.26-.44.26-1,.26S412.3,103.37,412.3,103.23Z" style="fill:#e0e0e0"></path><path d="M408.38,103.23c0-.14.44-.26,1-.26s1,.12,1,.26-.44.26-1,.26S408.38,103.37,408.38,103.23Z" style="fill:#e0e0e0"></path><path d="M404.46,103.23c0-.14.43-.26,1-.26s1,.12,1,.26-.44.26-1,.26S404.46,103.37,404.46,103.23Z" style="fill:#e0e0e0"></path><ellipse cx="401.51" cy="103.23" rx="0.98" ry="0.26" style="fill:#e0e0e0"></ellipse><ellipse cx="397.59" cy="103.23" rx="0.98" ry="0.26" style="fill:#e0e0e0"></ellipse><path d="M392.69,103.23c0-.14.44-.26,1-.26s1,.12,1,.26-.44.26-1,.26S392.69,103.37,392.69,103.23Z" style="fill:#e0e0e0"></path><path d="M388.77,103.23c0-.14.44-.26,1-.26s1,.12,1,.26-.44.26-1,.26S388.77,103.37,388.77,103.23Z" style="fill:#e0e0e0"></path><ellipse cx="385.83" cy="103.23" rx="0.98" ry="0.26" style="fill:#e0e0e0"></ellipse><ellipse cx="381.91" cy="103.23" rx="0.98" ry="0.26" style="fill:#e0e0e0"></ellipse><path d="M377,103.23c0-.14.44-.26,1-.26s1,.12,1,.26-.43.26-1,.26S377,103.37,377,103.23Z" style="fill:#e0e0e0"></path><path d="M373.08,103.23c0-.14.44-.26,1-.26s1,.12,1,.26-.44.26-1,.26S373.08,103.37,373.08,103.23Z" style="fill:#e0e0e0"></path><ellipse cx="370.14" cy="103.23" rx="0.98" ry="0.26" style="fill:#e0e0e0"></ellipse><path d="M365.24,103.23c0-.14.44-.26,1-.26s1,.12,1,.26-.44.26-1,.26S365.24,103.37,365.24,103.23Z" style="fill:#e0e0e0"></path><path d="M361.32,103.23c0-.14.44-.26,1-.26s1,.12,1,.26-.44.26-1,.26S361.32,103.37,361.32,103.23Z" style="fill:#e0e0e0"></path><path d="M357.4,103.23c0-.14.43-.26,1-.26s1,.12,1,.26-.44.26-1,.26S357.4,103.37,357.4,103.23Z" style="fill:#e0e0e0"></path><ellipse cx="354.45" cy="103.23" rx="0.98" ry="0.26" style="fill:#e0e0e0"></ellipse><path d="M349.55,103.23c0-.14.44-.26,1-.26s1,.12,1,.26-.44.26-1,.26S349.55,103.37,349.55,103.23Z" style="fill:#e0e0e0"></path><path d="M345.63,103.23c0-.14.44-.26,1-.26s1,.12,1,.26-.44.26-1,.26S345.63,103.37,345.63,103.23Z" style="fill:#e0e0e0"></path><path d="M342.67,102.23c.14,0,.26.45.26,1l-.26-.26h.2l.19,0a1.4,1.4,0,0,1,.32.06c.18,0,.29.11.29.18s-.11.14-.29.18a1.4,1.4,0,0,1-.32.06l-.19,0h-.2l-.26-.26C342.41,102.68,342.53,102.23,342.67,102.23Z" style="fill:#e0e0e0"></path><path d="M342.67,98.09c.14,0,.26.46.26,1s-.12,1-.26,1-.26-.47-.26-1S342.53,98.09,342.67,98.09Z" style="fill:#e0e0e0"></path><path d="M342.67,93.94c.14,0,.26.47.26,1s-.12,1-.26,1-.26-.46-.26-1S342.53,93.94,342.67,93.94Z" style="fill:#e0e0e0"></path><ellipse cx="342.67" cy="90.83" rx="0.26" ry="1.04" style="fill:#e0e0e0"></ellipse><ellipse cx="342.67" cy="86.69" rx="0.26" ry="1.04" style="fill:#e0e0e0"></ellipse><path d="M342.67,81.51c.14,0,.26.46.26,1s-.12,1-.26,1-.26-.46-.26-1S342.53,81.51,342.67,81.51Z" style="fill:#e0e0e0"></path><path d="M342.67,77.36c.14,0,.26.47.26,1s-.12,1-.26,1-.26-.47-.26-1S342.53,77.36,342.67,77.36Z" style="fill:#e0e0e0"></path><path d="M342.67,73.22c.14,0,.26.46.26,1s-.12,1-.26,1-.26-.46-.26-1S342.53,73.22,342.67,73.22Z" style="fill:#e0e0e0"></path><ellipse cx="342.67" cy="70.11" rx="0.26" ry="1.04" style="fill:#e0e0e0"></ellipse><ellipse cx="342.67" cy="65.97" rx="0.26" ry="1.04" style="fill:#e0e0e0"></ellipse><ellipse cx="342.67" cy="61.82" rx="0.26" ry="1.04" style="fill:#e0e0e0"></ellipse><path d="M342.67,56.64c.14,0,.26.47.26,1s-.12,1-.26,1-.26-.46-.26-1S342.53,56.64,342.67,56.64Z" style="fill:#e0e0e0"></path><path d="M342.67,52.5c.14,0,.26.46.26,1s-.12,1-.26,1-.26-.46-.26-1S342.53,52.5,342.67,52.5Z" style="fill:#e0e0e0"></path><path d="M342.67,48.35c.14,0,.26.47.26,1s-.12,1-.26,1-.26-.47-.26-1S342.53,48.35,342.67,48.35Z" style="fill:#e0e0e0"></path><path d="M343.67,45.28c0,.14-.45.26-1,.26l.26-.26h0v.38a1.4,1.4,0,0,1-.06.32c0,.18-.11.29-.18.29s-.14-.11-.18-.29a1.4,1.4,0,0,1-.06-.32l0-.19v-.19h0l.26-.26C343.22,45,343.67,45.14,343.67,45.28Z" style="fill:#e0e0e0"></path><ellipse cx="346.61" cy="45.28" rx="0.98" ry="0.26" style="fill:#e0e0e0"></ellipse><path d="M351.51,45.28c0,.14-.44.26-1,.26s-1-.12-1-.26.44-.26,1-.26S351.51,45.14,351.51,45.28Z" style="fill:#e0e0e0"></path><path d="M355.43,45.28c0,.14-.43.26-1,.26s-1-.12-1-.26.44-.26,1-.26S355.43,45.14,355.43,45.28Z" style="fill:#e0e0e0"></path><ellipse cx="358.38" cy="45.28" rx="0.98" ry="0.26" style="fill:#e0e0e0"></ellipse><path d="M363.28,45.28c0,.14-.44.26-1,.26s-1-.12-1-.26.44-.26,1-.26S363.28,45.14,363.28,45.28Z" style="fill:#e0e0e0"></path><path d="M367.2,45.28c0,.14-.44.26-1,.26s-1-.12-1-.26.44-.26,1-.26S367.2,45.14,367.2,45.28Z" style="fill:#e0e0e0"></path><ellipse cx="370.14" cy="45.28" rx="0.98" ry="0.26" style="fill:#e0e0e0"></ellipse><ellipse cx="374.06" cy="45.28" rx="0.98" ry="0.26" style="fill:#e0e0e0"></ellipse><path d="M379,45.28c0,.14-.43.26-1,.26s-1-.12-1-.26.44-.26,1-.26S379,45.14,379,45.28Z" style="fill:#e0e0e0"></path><path d="M382.89,45.28c0,.14-.44.26-1,.26s-1-.12-1-.26.43-.26,1-.26S382.89,45.14,382.89,45.28Z" style="fill:#e0e0e0"></path><path d="M386.81,45.28c0,.14-.44.26-1,.26s-1-.12-1-.26.44-.26,1-.26S386.81,45.14,386.81,45.28Z" style="fill:#e0e0e0"></path><path d="M390.73,45.28c0,.14-.44.26-1,.26s-1-.12-1-.26.44-.26,1-.26S390.73,45.14,390.73,45.28Z" style="fill:#e0e0e0"></path><path d="M394.65,45.28c0,.14-.44.26-1,.26s-1-.12-1-.26.44-.26,1-.26S394.65,45.14,394.65,45.28Z" style="fill:#e0e0e0"></path><path d="M398.57,45.28c0,.14-.44.26-1,.26s-1-.12-1-.26.44-.26,1-.26S398.57,45.14,398.57,45.28Z" style="fill:#e0e0e0"></path><path d="M402.49,45.28c0,.14-.43.26-1,.26s-1-.12-1-.26.44-.26,1-.26S402.49,45.14,402.49,45.28Z" style="fill:#e0e0e0"></path><ellipse cx="405.44" cy="45.28" rx="0.98" ry="0.26" style="fill:#e0e0e0"></ellipse><path d="M410.34,45.28c0,.14-.44.26-1,.26s-1-.12-1-.26.44-.26,1-.26S410.34,45.14,410.34,45.28Z" style="fill:#e0e0e0"></path><path d="M414.26,45.28c0,.14-.44.26-1,.26s-1-.12-1-.26.44-.26,1-.26S414.26,45.14,414.26,45.28Z" style="fill:#e0e0e0"></path><ellipse cx="417.2" cy="45.28" rx="0.98" ry="0.26" style="fill:#e0e0e0"></ellipse><ellipse cx="421.12" cy="45.28" rx="0.98" ry="0.26" style="fill:#e0e0e0"></ellipse><path d="M426,45.28c0,.14-.43.26-1,.26s-1-.12-1-.26.44-.26,1-.26S426,45.14,426,45.28Z" style="fill:#e0e0e0"></path><path d="M430,45.28c0,.14-.44.26-1,.26s-1-.12-1-.26.43-.26,1-.26S430,45.14,430,45.28Z" style="fill:#e0e0e0"></path><ellipse cx="432.89" cy="45.28" rx="0.98" ry="0.26" style="fill:#e0e0e0"></ellipse><path d="M437.79,45.28c0,.14-.44.26-1,.26s-1-.12-1-.26.44-.26,1-.26S437.79,45.14,437.79,45.28Z" style="fill:#e0e0e0"></path><path d="M441.71,45.28c0,.14-.44.26-1,.26s-1-.12-1-.26.44-.26,1-.26S441.71,45.14,441.71,45.28Z" style="fill:#e0e0e0"></path><path d="M444.67,46.28c-.14,0-.26-.45-.26-1l.26.26h-.2l-.19,0a1.52,1.52,0,0,1-.32-.06c-.18,0-.29-.11-.29-.18s.11-.14.29-.18a1.52,1.52,0,0,1,.32-.06h.39l.26.26C444.93,45.83,444.82,46.28,444.67,46.28Z" style="fill:#e0e0e0"></path><path d="M444.67,50.43c-.14,0-.26-.47-.26-1s.12-1,.26-1,.26.47.26,1S444.82,50.43,444.67,50.43Z" style="fill:#e0e0e0"></path><path d="M444.67,54.57c-.14,0-.26-.46-.26-1s.12-1,.26-1,.26.46.26,1S444.82,54.57,444.67,54.57Z" style="fill:#e0e0e0"></path><path d="M444.67,58.71c-.14,0-.26-.46-.26-1s.12-1,.26-1,.26.47.26,1S444.82,58.71,444.67,58.71Z" style="fill:#e0e0e0"></path><path d="M444.67,62.86c-.14,0-.26-.47-.26-1s.12-1,.26-1,.26.46.26,1S444.82,62.86,444.67,62.86Z" style="fill:#e0e0e0"></path><path d="M444.67,67c-.14,0-.26-.46-.26-1s.12-1,.26-1,.26.46.26,1S444.82,67,444.67,67Z" style="fill:#e0e0e0"></path><path d="M444.67,71.15c-.14,0-.26-.47-.26-1s.12-1,.26-1,.26.47.26,1S444.82,71.15,444.67,71.15Z" style="fill:#e0e0e0"></path><path d="M444.67,75.29c-.14,0-.26-.46-.26-1s.12-1,.26-1,.26.46.26,1S444.82,75.29,444.67,75.29Z" style="fill:#e0e0e0"></path><path d="M444.67,79.44c-.14,0-.26-.47-.26-1s.12-1,.26-1,.26.47.26,1S444.82,79.44,444.67,79.44Z" style="fill:#e0e0e0"></path><path d="M444.67,83.58c-.14,0-.26-.46-.26-1s.12-1,.26-1,.26.46.26,1S444.82,83.58,444.67,83.58Z" style="fill:#e0e0e0"></path><path d="M444.67,87.72c-.14,0-.26-.46-.26-1s.12-1,.26-1,.26.47.26,1S444.82,87.72,444.67,87.72Z" style="fill:#e0e0e0"></path><path d="M444.67,91.87c-.14,0-.26-.46-.26-1s.12-1,.26-1,.26.46.26,1S444.82,91.87,444.67,91.87Z" style="fill:#e0e0e0"></path><path d="M444.67,96c-.14,0-.26-.46-.26-1s.12-1,.26-1,.26.47.26,1S444.82,96,444.67,96Z" style="fill:#e0e0e0"></path><path d="M444.67,100.16c-.14,0-.26-.47-.26-1s.12-1,.26-1,.26.46.26,1S444.82,100.16,444.67,100.16Z" style="fill:#e0e0e0"></path><rect x="341.24" y="101.8" width="2.86" height="2.86" style="fill:#e0e0e0"></rect><rect x="341.24" y="43.85" width="2.86" height="2.86" style="fill:#e0e0e0"></rect><rect x="443.24" y="43.85" width="2.86" height="2.86" style="fill:#e0e0e0"></rect><rect x="443.24" y="101.8" width="2.86" height="2.86" style="fill:#e0e0e0"></rect><rect x="392.24" y="101.8" width="2.86" height="2.86" style="fill:#e0e0e0"></rect><rect x="393.67" y="43.85" width="2.86" height="2.86" style="fill:#e0e0e0"></rect><rect x="341.24" y="71.79" width="2.86" height="2.86" style="fill:#e0e0e0"></rect><rect x="443.24" y="71.79" width="2.86" height="2.86" style="fill:#e0e0e0"></rect><rect x="81.46" y="315.33" width="112.18" height="44.95" style="fill:#ebebeb"></rect></g><g id="freepik--Floor--inject-2"><path d="M461.74,472.45c0,.14-94.81.26-211.73.26s-211.75-.12-211.75-.26,94.79-.26,211.75-.26S461.74,472.31,461.74,472.45Z" style="fill:#263238"></path></g><g id="freepik--Screens--inject-2"><rect x="215.37" y="208.6" width="215.22" height="134.73" style="fill:#fafafa"></rect><path d="M430.59,343.33s0-.83,0-2.43,0-4,0-7.07c0-6.2,0-15.32-.05-27,0-23.37-.06-57-.11-98.21l.21.2-215.21.06h0l.26-.26c0,47.77,0,93.31,0,134.73l-.24-.24,154.94.12,44.38.06,11.81,0,3.05,0h1l-1,0h-3l-11.76,0-44.32.06-155.1.12h-.24v-.24c0-41.42,0-87,0-134.73v-.26h.27l215.21.06h.2v.2c0,41.23-.08,74.94-.11,98.34,0,11.67,0,20.78-.05,27,0,3.08,0,5.44,0,7S430.59,343.33,430.59,343.33Z" style="fill:#FF725E"></path><rect x="344.45" y="225.67" width="61.65" height="61.65" style="fill:#FF725E"></rect><path d="M397.68,296c0,.15-10,.26-22.4.26s-22.4-.11-22.4-.26,10-.26,22.4-.26S397.68,295.87,397.68,296Z" style="fill:#FF725E"></path><path d="M411.09,301.11c0,.15-16,.26-35.81.26s-35.81-.11-35.81-.26,16-.26,35.81-.26S411.09,301,411.09,301.11Z" style="fill:#FF725E"></path><path d="M411.09,307.37c0,.14-16,.26-35.81.26s-35.81-.12-35.81-.26,16-.26,35.81-.26S411.09,307.23,411.09,307.37Z" style="fill:#FF725E"></path><path d="M411.09,313.63c0,.14-16,.26-35.81.26s-35.81-.12-35.81-.26,16-.26,35.81-.26S411.09,313.49,411.09,313.63Z" style="fill:#FF725E"></path><path d="M411.09,319.89c0,.14-16,.26-35.81.26s-35.81-.12-35.81-.26,16-.26,35.81-.26S411.09,319.75,411.09,319.89Z" style="fill:#FF725E"></path><path d="M411.09,326.15c0,.14-16,.26-35.81.26s-35.81-.12-35.81-.26,16-.26,35.81-.26S411.09,326,411.09,326.15Z" style="fill:#FF725E"></path><rect x="247.15" y="225.67" width="61.65" height="61.65" style="fill:#FF725E"></rect><g style="opacity:0.8"><rect x="247.15" y="225.67" width="61.65" height="61.65" style="fill:#fff"></rect></g><path d="M300.38,296c0,.15-10,.26-22.4.26s-22.4-.11-22.4-.26,10-.26,22.4-.26S300.38,295.87,300.38,296Z" style="fill:#FF725E"></path><path d="M313.79,301.11c0,.15-16,.26-35.81.26s-35.81-.11-35.81-.26,16-.26,35.81-.26S313.79,301,313.79,301.11Z" style="fill:#FF725E"></path><path d="M313.79,307.37c0,.14-16,.26-35.81.26s-35.81-.12-35.81-.26,16-.26,35.81-.26S313.79,307.23,313.79,307.37Z" style="fill:#FF725E"></path><path d="M313.79,313.63c0,.14-16,.26-35.81.26s-35.81-.12-35.81-.26,16-.26,35.81-.26S313.79,313.49,313.79,313.63Z" style="fill:#FF725E"></path><path d="M313.79,319.89c0,.14-16,.26-35.81.26s-35.81-.12-35.81-.26,16-.26,35.81-.26S313.79,319.75,313.79,319.89Z" style="fill:#FF725E"></path><path d="M313.79,326.15c0,.14-16,.26-35.81.26s-35.81-.12-35.81-.26,16-.26,35.81-.26S313.79,326,313.79,326.15Z" style="fill:#FF725E"></path><g style="opacity:0.8"><rect x="344.45" y="225.67" width="61.65" height="61.65" style="fill:#fff"></rect></g><path d="M404.69,265.93a1.76,1.76,0,0,1-.33-.26l-.88-.81-3.28-3.12-11.54-11.13H389l-11.83,13.46-.47.53-.17.19-.19-.16-7.3-6h.33l-16,14.25L348.71,277,347.44,278a2.7,2.7,0,0,1-.46.36,2.34,2.34,0,0,1,.4-.42l1.21-1.15,4.59-4.23L369,258.21l.16-.14.17.13,7.31,6-.36,0,.47-.54c4.29-4.84,8.34-9.42,11.87-13.42l.17-.18.17.17,11.4,11.26,3.19,3.21.84.86A3,3,0,0,1,404.69,265.93Z" style="fill:#FF725E"></path><path d="M365.73,245.47s-.32-.49-1.05-1.22a6.58,6.58,0,0,0-3.85-1.84,6.41,6.41,0,0,0-5.66,2.27,6.27,6.27,0,0,0-1.44,3.39,6.33,6.33,0,0,0,3.75,6.49,6.28,6.28,0,0,0,3.65.45,6.44,6.44,0,0,0,4.8-3.77,6.56,6.56,0,0,0,.33-4.25c-.26-1-.58-1.5-.53-1.52s.1.11.24.35a4.73,4.73,0,0,1,.49,1.12,6.61,6.61,0,0,1-.19,4.44,6.8,6.8,0,0,1-9,3.65,6.82,6.82,0,0,1-4-7,6.79,6.79,0,0,1,7.66-6,6.51,6.51,0,0,1,3.94,2.06,5.13,5.13,0,0,1,.73,1C365.68,245.33,365.75,245.46,365.73,245.47Z" style="fill:#FF725E"></path><rect x="81.45" y="208.4" width="112.17" height="45.56" style="fill:#fff"></rect><path d="M193.62,254s0-.28,0-.81,0-1.33,0-2.37c0-2.08,0-5.13,0-9.06,0-7.87,0-19.24-.07-33.32l.12.12-112.16.06h0l.18-.18c0,15.95,0,31.35,0,45.56l-.17-.17,80.43.08,23.33,0,6.24,0h0l-6.21,0-23.29.05-80.54.08h-.17V254c0-14.21,0-29.61,0-45.56v-.18h.19l112.16.05h.13v.13c0,14.11-.05,25.51-.07,33.39,0,3.92,0,7,0,9,0,1,0,1.81,0,2.34S193.62,254,193.62,254Z" style="fill:#FF725E"></path><rect x="90.98" y="218.84" width="27.09" height="27.09" style="fill:#FF725E"></rect><path d="M185.86,229.21c0,.1-13.94.18-31.13.18s-31.14-.08-31.14-.18,13.93-.18,31.14-.18S185.86,229.11,185.86,229.21Z" style="fill:#FF725E"></path><path d="M185.86,234.73c0,.1-13.94.18-31.13.18s-31.14-.08-31.14-.18,13.93-.18,31.14-.18S185.86,234.63,185.86,234.73Z" style="fill:#FF725E"></path><path d="M163.68,240.25l-.41,0-1.17,0-4.3.05-14.17.06-14.17-.06-4.3-.05-1.17,0-.4,0a1.6,1.6,0,0,1,.4,0l1.17,0,4.3-.06,14.17-.05,14.17.05,4.3.06,1.17,0A1.65,1.65,0,0,1,163.68,240.25Z" style="fill:#FF725E"></path><rect x="81.45" y="370.4" width="112.17" height="45.56" style="fill:#fff"></rect><path d="M193.62,416s0-.28,0-.81,0-1.33,0-2.36c0-2.08,0-5.14,0-9.07,0-7.86,0-19.24-.07-33.32l.12.13-112.16.05h0l.18-.18c0,16,0,31.36,0,45.56l-.17-.17,80.43.08,23.33.05,6.24,0h1.64l-1.6,0-6.21,0-23.29,0-80.54.08h-.17V416c0-14.2,0-29.6,0-45.56v-.18h.19l112.16.06h.13v.12c0,14.11-.05,25.51-.07,33.39,0,3.93,0,7,0,9,0,1,0,1.81,0,2.35S193.62,416,193.62,416Z" style="fill:#FF725E"></path><rect x="90.98" y="380.84" width="27.09" height="27.09" style="fill:#FF725E"></rect><path d="M185.86,391.21c0,.1-13.94.18-31.13.18s-31.14-.08-31.14-.18,13.93-.18,31.14-.18S185.86,391.11,185.86,391.21Z" style="fill:#FF725E"></path><path d="M185.86,396.73c0,.1-13.94.18-31.13.18s-31.14-.08-31.14-.18,13.93-.18,31.14-.18S185.86,396.63,185.86,396.73Z" style="fill:#FF725E"></path><path d="M163.68,402.25a1.65,1.65,0,0,1-.41,0l-1.17,0-4.3.06-14.17.05-14.17-.05-4.3-.06-1.17,0a1.6,1.6,0,0,1-.4,0l.4,0,1.17,0,4.3-.05,14.17-.06,14.17.06,4.3.05,1.17,0Z" style="fill:#FF725E"></path><path d="M185.86,281.94c0,.1-13.94.18-31.13.18s-31.14-.08-31.14-.18,13.93-.17,31.14-.17S185.86,281.85,185.86,281.94Z" style="fill:#FF725E"></path><path d="M185.86,287.46c0,.1-13.94.18-31.13.18s-31.14-.08-31.14-.18,13.93-.17,31.14-.17S185.86,287.37,185.86,287.46Z" style="fill:#FF725E"></path><path d="M163.68,293a1.2,1.2,0,0,1-.41,0l-1.17,0-4.3.06-14.17.05-14.17-.05-4.3-.06L124,293a1.17,1.17,0,0,1-.4,0l.4,0,1.17,0,4.3-.05,14.17-.05,14.17.05,4.3.05,1.17,0Z" style="fill:#FF725E"></path><path d="M191.64,307.37c0-.14.44-.26,1-.26s1,.12,1,.26-.45.26-1,.26S191.64,307.51,191.64,307.37Z" style="fill:#FF725E"></path><path d="M187.64,307.37c0-.14.44-.26,1-.26s1,.12,1,.26-.45.26-1,.26S187.64,307.51,187.64,307.37Z" style="fill:#FF725E"></path><path d="M183.64,307.37c0-.14.44-.26,1-.26s1,.12,1,.26-.45.26-1,.26S183.64,307.51,183.64,307.37Z" style="fill:#FF725E"></path><path d="M179.64,307.37c0-.14.44-.26,1-.26s1,.12,1,.26-.45.26-1,.26S179.64,307.51,179.64,307.37Z" style="fill:#FF725E"></path><path d="M175.64,307.37c0-.14.44-.26,1-.26s1,.12,1,.26-.45.26-1,.26S175.64,307.51,175.64,307.37Z" style="fill:#FF725E"></path><path d="M171.64,307.37c0-.14.44-.26,1-.26s1,.12,1,.26-.45.26-1,.26S171.64,307.51,171.64,307.37Z" style="fill:#FF725E"></path><path d="M167.64,307.37c0-.14.44-.26,1-.26s1,.12,1,.26-.45.26-1,.26S167.64,307.51,167.64,307.37Z" style="fill:#FF725E"></path><path d="M163.64,307.37c0-.14.44-.26,1-.26s1,.12,1,.26-.45.26-1,.26S163.64,307.51,163.64,307.37Z" style="fill:#FF725E"></path><path d="M159.64,307.37c0-.14.44-.26,1-.26s1,.12,1,.26-.45.26-1,.26S159.64,307.51,159.64,307.37Z" style="fill:#FF725E"></path><path d="M155.64,307.37c0-.14.44-.26,1-.26s1,.12,1,.26-.45.26-1,.26S155.64,307.51,155.64,307.37Z" style="fill:#FF725E"></path><path d="M151.64,307.37c0-.14.44-.26,1-.26s1,.12,1,.26-.45.26-1,.26S151.64,307.51,151.64,307.37Z" style="fill:#FF725E"></path><path d="M147.64,307.37c0-.14.44-.26,1-.26s1,.12,1,.26-.45.26-1,.26S147.64,307.51,147.64,307.37Z" style="fill:#FF725E"></path><path d="M143.64,307.37c0-.14.44-.26,1-.26s1,.12,1,.26-.45.26-1,.26S143.64,307.51,143.64,307.37Z" style="fill:#FF725E"></path><path d="M139.64,307.37c0-.14.44-.26,1-.26s1,.12,1,.26-.45.26-1,.26S139.64,307.51,139.64,307.37Z" style="fill:#FF725E"></path><path d="M135.64,307.37c0-.14.44-.26,1-.26s1,.12,1,.26-.45.26-1,.26S135.64,307.51,135.64,307.37Z" style="fill:#FF725E"></path><path d="M131.64,307.37c0-.14.44-.26,1-.26s1,.12,1,.26-.45.26-1,.26S131.64,307.51,131.64,307.37Z" style="fill:#FF725E"></path><path d="M127.64,307.37c0-.14.44-.26,1-.26s1,.12,1,.26-.45.26-1,.26S127.64,307.51,127.64,307.37Z" style="fill:#FF725E"></path><path d="M123.64,307.37c0-.14.44-.26,1-.26s1,.12,1,.26-.45.26-1,.26S123.64,307.51,123.64,307.37Z" style="fill:#FF725E"></path><path d="M119.64,307.37c0-.14.44-.26,1-.26s1,.12,1,.26-.45.26-1,.26S119.64,307.51,119.64,307.37Z" style="fill:#FF725E"></path><path d="M115.64,307.37c0-.14.44-.26,1-.26s1,.12,1,.26-.45.26-1,.26S115.64,307.51,115.64,307.37Z" style="fill:#FF725E"></path><path d="M111.64,307.37c0-.14.44-.26,1-.26s1,.12,1,.26-.45.26-1,.26S111.64,307.51,111.64,307.37Z" style="fill:#FF725E"></path><path d="M107.64,307.37c0-.14.44-.26,1-.26s1,.12,1,.26-.45.26-1,.26S107.64,307.51,107.64,307.37Z" style="fill:#FF725E"></path><path d="M103.64,307.37c0-.14.44-.26,1-.26s1,.12,1,.26-.45.26-1,.26S103.64,307.51,103.64,307.37Z" style="fill:#FF725E"></path><path d="M99.64,307.37c0-.14.44-.26,1-.26s1,.12,1,.26-.45.26-1,.26S99.64,307.51,99.64,307.37Z" style="fill:#FF725E"></path><path d="M95.64,307.37c0-.14.44-.26,1-.26s1,.12,1,.26-.45.26-1,.26S95.64,307.51,95.64,307.37Z" style="fill:#FF725E"></path><path d="M91.64,307.37c0-.14.44-.26,1-.26s1,.12,1,.26-.45.26-1,.26S91.64,307.51,91.64,307.37Z" style="fill:#FF725E"></path><path d="M87.64,307.37c0-.14.44-.26,1-.26s1,.12,1,.26-.45.26-1,.26S87.64,307.51,87.64,307.37Z" style="fill:#FF725E"></path><path d="M83.64,307.37c0-.14.44-.26,1-.26s1,.12,1,.26-.45.26-1,.26S83.64,307.51,83.64,307.37Z" style="fill:#FF725E"></path><path d="M81.46,305.55c.14,0,.26.45.26,1a2.49,2.49,0,0,1-.11.82l-.15-.15c.11,0,.18.1.18.15s-.07.11-.18.15l-.08,0-.07-.18a2.49,2.49,0,0,1-.11-.82C81.2,306,81.32,305.55,81.46,305.55Z" style="fill:#FF725E"></path><path d="M81.46,301.55c.14,0,.26.45.26,1s-.12,1-.26,1-.26-.45-.26-1S81.32,301.55,81.46,301.55Z" style="fill:#FF725E"></path><path d="M81.46,297.55c.14,0,.26.45.26,1s-.12,1-.26,1-.26-.45-.26-1S81.32,297.55,81.46,297.55Z" style="fill:#FF725E"></path><path d="M81.46,293.55c.14,0,.26.45.26,1s-.12,1-.26,1-.26-.45-.26-1S81.32,293.55,81.46,293.55Z" style="fill:#FF725E"></path><path d="M81.46,289.55c.14,0,.26.45.26,1s-.12,1-.26,1-.26-.45-.26-1S81.32,289.55,81.46,289.55Z" style="fill:#FF725E"></path><path d="M81.46,285.55c.14,0,.26.45.26,1s-.12,1-.26,1-.26-.45-.26-1S81.32,285.55,81.46,285.55Z" style="fill:#FF725E"></path><path d="M81.46,281.55c.14,0,.26.45.26,1s-.12,1-.26,1-.26-.45-.26-1S81.32,281.55,81.46,281.55Z" style="fill:#FF725E"></path><path d="M81.46,277.55c.14,0,.26.45.26,1s-.12,1-.26,1-.26-.45-.26-1S81.32,277.55,81.46,277.55Z" style="fill:#FF725E"></path><path d="M81.46,273.55c.14,0,.26.45.26,1s-.12,1-.26,1-.26-.45-.26-1S81.32,273.55,81.46,273.55Z" style="fill:#FF725E"></path><path d="M81.46,269.55c.14,0,.26.45.26,1s-.12,1-.26,1-.26-.45-.26-1S81.32,269.55,81.46,269.55Z" style="fill:#FF725E"></path><path d="M81.46,265.55c.14,0,.26.45.26,1s-.12,1-.26,1-.26-.45-.26-1S81.32,265.55,81.46,265.55Z" style="fill:#FF725E"></path><path d="M82.33,262.42c0,.13-.38.24-.87.26l.26-.26v.13c0,.55-.12,1-.26,1s-.26-.45-.26-1v-.4h.25C82,262.18,82.33,262.29,82.33,262.42Z" style="fill:#FF725E"></path><path d="M86.33,262.42c0,.14-.45.26-1,.26s-1-.12-1-.26.45-.26,1-.26S86.33,262.28,86.33,262.42Z" style="fill:#FF725E"></path><path d="M90.33,262.42c0,.14-.45.26-1,.26s-1-.12-1-.26.45-.26,1-.26S90.33,262.28,90.33,262.42Z" style="fill:#FF725E"></path><path d="M94.33,262.42c0,.14-.45.26-1,.26s-1-.12-1-.26.45-.26,1-.26S94.33,262.28,94.33,262.42Z" style="fill:#FF725E"></path><path d="M98.33,262.42c0,.14-.45.26-1,.26s-1-.12-1-.26.45-.26,1-.26S98.33,262.28,98.33,262.42Z" style="fill:#FF725E"></path><path d="M102.33,262.42c0,.14-.45.26-1,.26s-1-.12-1-.26.45-.26,1-.26S102.33,262.28,102.33,262.42Z" style="fill:#FF725E"></path><path d="M106.33,262.42c0,.14-.45.26-1,.26s-1-.12-1-.26.45-.26,1-.26S106.33,262.28,106.33,262.42Z" style="fill:#FF725E"></path><path d="M110.33,262.42c0,.14-.45.26-1,.26s-1-.12-1-.26.45-.26,1-.26S110.33,262.28,110.33,262.42Z" style="fill:#FF725E"></path><path d="M114.33,262.42c0,.14-.45.26-1,.26s-1-.12-1-.26.45-.26,1-.26S114.33,262.28,114.33,262.42Z" style="fill:#FF725E"></path><path d="M118.33,262.42c0,.14-.45.26-1,.26s-1-.12-1-.26.45-.26,1-.26S118.33,262.28,118.33,262.42Z" style="fill:#FF725E"></path><path d="M122.33,262.42c0,.14-.45.26-1,.26s-1-.12-1-.26.45-.26,1-.26S122.33,262.28,122.33,262.42Z" style="fill:#FF725E"></path><path d="M126.33,262.42c0,.14-.45.26-1,.26s-1-.12-1-.26.45-.26,1-.26S126.33,262.28,126.33,262.42Z" style="fill:#FF725E"></path><path d="M130.33,262.42c0,.14-.45.26-1,.26s-1-.12-1-.26.45-.26,1-.26S130.33,262.28,130.33,262.42Z" style="fill:#FF725E"></path><path d="M134.33,262.42c0,.14-.45.26-1,.26s-1-.12-1-.26.45-.26,1-.26S134.33,262.28,134.33,262.42Z" style="fill:#FF725E"></path><path d="M138.33,262.42c0,.14-.45.26-1,.26s-1-.12-1-.26.45-.26,1-.26S138.33,262.28,138.33,262.42Z" style="fill:#FF725E"></path><path d="M142.33,262.42c0,.14-.45.26-1,.26s-1-.12-1-.26.45-.26,1-.26S142.33,262.28,142.33,262.42Z" style="fill:#FF725E"></path><path d="M146.33,262.42c0,.14-.45.26-1,.26s-1-.12-1-.26.45-.26,1-.26S146.33,262.28,146.33,262.42Z" style="fill:#FF725E"></path><path d="M150.33,262.42c0,.14-.45.26-1,.26s-1-.12-1-.26.45-.26,1-.26S150.33,262.28,150.33,262.42Z" style="fill:#FF725E"></path><path d="M154.33,262.42c0,.14-.45.26-1,.26s-1-.12-1-.26.45-.26,1-.26S154.33,262.28,154.33,262.42Z" style="fill:#FF725E"></path><path d="M158.33,262.42c0,.14-.45.26-1,.26s-1-.12-1-.26.45-.26,1-.26S158.33,262.28,158.33,262.42Z" style="fill:#FF725E"></path><path d="M162.33,262.42c0,.14-.45.26-1,.26s-1-.12-1-.26.45-.26,1-.26S162.33,262.28,162.33,262.42Z" style="fill:#FF725E"></path><path d="M166.33,262.42c0,.14-.45.26-1,.26s-1-.12-1-.26.45-.26,1-.26S166.33,262.28,166.33,262.42Z" style="fill:#FF725E"></path><path d="M170.33,262.42c0,.14-.45.26-1,.26s-1-.12-1-.26.45-.26,1-.26S170.33,262.28,170.33,262.42Z" style="fill:#FF725E"></path><path d="M174.33,262.42c0,.14-.45.26-1,.26s-1-.12-1-.26.45-.26,1-.26S174.33,262.28,174.33,262.42Z" style="fill:#FF725E"></path><path d="M178.33,262.42c0,.14-.45.26-1,.26s-1-.12-1-.26.45-.26,1-.26S178.33,262.28,178.33,262.42Z" style="fill:#FF725E"></path><path d="M182.33,262.42c0,.14-.45.26-1,.26s-1-.12-1-.26.45-.26,1-.26S182.33,262.28,182.33,262.42Z" style="fill:#FF725E"></path><path d="M186.33,262.42c0,.14-.45.26-1,.26s-1-.12-1-.26.45-.26,1-.26S186.33,262.28,186.33,262.42Z" style="fill:#FF725E"></path><path d="M190.33,262.42c0,.14-.45.26-1,.26s-1-.12-1-.26.45-.26,1-.26S190.33,262.28,190.33,262.42Z" style="fill:#FF725E"></path><path d="M193.64,263.11c-.12,0-.22-.29-.25-.69l.25.25h-.31c-.55,0-1-.12-1-.26s.45-.26,1-.26h.31l.26,0,0,.23C193.85,262.82,193.75,263.11,193.64,263.11Z" style="fill:#FF725E"></path><path d="M193.64,267.11c-.15,0-.26-.44-.26-1s.11-1,.26-1,.26.45.26,1S193.78,267.11,193.64,267.11Z" style="fill:#FF725E"></path><path d="M193.64,271.11c-.15,0-.26-.44-.26-1s.11-1,.26-1,.26.45.26,1S193.78,271.11,193.64,271.11Z" style="fill:#FF725E"></path><path d="M193.64,275.11c-.15,0-.26-.44-.26-1s.11-1,.26-1,.26.45.26,1S193.78,275.11,193.64,275.11Z" style="fill:#FF725E"></path><path d="M193.64,279.11c-.15,0-.26-.44-.26-1s.11-1,.26-1,.26.45.26,1S193.78,279.11,193.64,279.11Z" style="fill:#FF725E"></path><path d="M193.64,283.11c-.15,0-.26-.44-.26-1s.11-1,.26-1,.26.45.26,1S193.78,283.11,193.64,283.11Z" style="fill:#FF725E"></path><path d="M193.64,287.11c-.15,0-.26-.44-.26-1s.11-1,.26-1,.26.45.26,1S193.78,287.11,193.64,287.11Z" style="fill:#FF725E"></path><path d="M193.64,291.11c-.15,0-.26-.44-.26-1s.11-1,.26-1,.26.45.26,1S193.78,291.11,193.64,291.11Z" style="fill:#FF725E"></path><path d="M193.64,295.11c-.15,0-.26-.44-.26-1s.11-1,.26-1,.26.45.26,1S193.78,295.11,193.64,295.11Z" style="fill:#FF725E"></path><path d="M193.64,299.11c-.15,0-.26-.44-.26-1s.11-1,.26-1,.26.45.26,1S193.78,299.11,193.64,299.11Z" style="fill:#FF725E"></path><path d="M193.64,303.11c-.15,0-.26-.44-.26-1s.11-1,.26-1,.26.45.26,1S193.78,303.11,193.64,303.11Z" style="fill:#FF725E"></path><path d="M193.64,307.11c-.15,0-.26-.44-.26-1s.11-1,.26-1,.26.45.26,1S193.78,307.11,193.64,307.11Z" style="fill:#FF725E"></path><path d="M118.54,299.47c0-.15.45-.26,1-.26l-.26.26h0v-.18l0-.18a2.4,2.4,0,0,1,0-.32c.05-.18.12-.29.19-.29s.14.11.18.29a2.29,2.29,0,0,1,.06.32v.36h0c-.12.11.26-.26-.26.26C119,299.73,118.54,299.61,118.54,299.47Z" style="fill:#FF725E"></path><path d="M114.8,299.47c0-.15.42-.26.94-.26s.93.11.93.26-.42.26-.93.26S114.8,299.61,114.8,299.47Z" style="fill:#FF725E"></path><path d="M111.07,299.47c0-.15.42-.26.93-.26s.94.11.94.26-.42.26-.94.26S111.07,299.61,111.07,299.47Z" style="fill:#FF725E"></path><path d="M107.33,299.47c0-.15.42-.26.94-.26s.93.11.93.26-.42.26-.93.26S107.33,299.61,107.33,299.47Z" style="fill:#FF725E"></path><path d="M103.6,299.47c0-.15.42-.26.93-.26s.94.11.94.26-.42.26-.94.26S103.6,299.61,103.6,299.47Z" style="fill:#FF725E"></path><path d="M99.86,299.47c0-.15.42-.26.94-.26s.93.11.93.26-.42.26-.93.26S99.86,299.61,99.86,299.47Z" style="fill:#FF725E"></path><path d="M96.13,299.47c0-.15.42-.26.93-.26s.94.11.94.26-.42.26-.94.26S96.13,299.61,96.13,299.47Z" style="fill:#FF725E"></path><path d="M92.39,299.47c0-.15.42-.26.94-.26s.93.11.93.26-.42.26-.93.26S92.39,299.61,92.39,299.47Z" style="fill:#FF725E"></path><path d="M89.53,298.47c.14,0,.26.44.26,1l-.26-.26h.2l.18,0,.32,0c.18.05.3.11.3.19s-.12.13-.3.18l-.32.06h-.38l-.27-.26C89.26,298.91,89.38,298.47,89.53,298.47Z" style="fill:#FF725E"></path><path d="M89.53,294.44c.14,0,.26.45.26,1s-.12,1-.26,1-.27-.45-.27-1S89.38,294.44,89.53,294.44Z" style="fill:#FF725E"></path><path d="M89.53,290.41c.14,0,.26.45.26,1s-.12,1-.26,1-.27-.45-.27-1S89.38,290.41,89.53,290.41Z" style="fill:#FF725E"></path><path d="M89.53,286.39c.14,0,.26.45.26,1s-.12,1-.26,1-.27-.45-.27-1S89.38,286.39,89.53,286.39Z" style="fill:#FF725E"></path><path d="M89.53,282.36c.14,0,.26.45.26,1s-.12,1-.26,1-.27-.46-.27-1S89.38,282.36,89.53,282.36Z" style="fill:#FF725E"></path><path d="M89.53,278.34c.14,0,.26.45.26,1s-.12,1-.26,1-.27-.45-.27-1S89.38,278.34,89.53,278.34Z" style="fill:#FF725E"></path><path d="M89.53,274.31c.14,0,.26.45.26,1s-.12,1-.26,1-.27-.45-.27-1S89.38,274.31,89.53,274.31Z" style="fill:#FF725E"></path><path d="M90.53,271.3c0,.14-.45.26-1,.26l.26-.26h0v.37c0,.12,0,.22-.06.31s-.11.3-.18.3-.14-.11-.19-.3a2.24,2.24,0,0,1,0-.31l0-.19v-.18h0l.27-.26C90.08,271,90.53,271.15,90.53,271.3Z" style="fill:#FF725E"></path><path d="M94.26,271.3c0,.14-.42.26-.93.26s-.94-.12-.94-.26.42-.26.94-.26S94.26,271.15,94.26,271.3Z" style="fill:#FF725E"></path><path d="M98,271.3c0,.14-.42.26-.94.26s-.93-.12-.93-.26.42-.26.93-.26S98,271.15,98,271.3Z" style="fill:#FF725E"></path><path d="M101.73,271.3c0,.14-.42.26-.93.26s-.94-.12-.94-.26.42-.26.94-.26S101.73,271.15,101.73,271.3Z" style="fill:#FF725E"></path><path d="M105.47,271.3c0,.14-.42.26-.94.26s-.93-.12-.93-.26.42-.26.93-.26S105.47,271.15,105.47,271.3Z" style="fill:#FF725E"></path><path d="M109.2,271.3c0,.14-.42.26-.93.26s-.94-.12-.94-.26.42-.26.94-.26S109.2,271.15,109.2,271.3Z" style="fill:#FF725E"></path><path d="M112.94,271.3c0,.14-.42.26-.94.26s-.93-.12-.93-.26.42-.26.93-.26S112.94,271.15,112.94,271.3Z" style="fill:#FF725E"></path><path d="M116.67,271.3c0,.14-.42.26-.93.26s-.94-.12-.94-.26.42-.26.94-.26S116.67,271.15,116.67,271.3Z" style="fill:#FF725E"></path><path d="M119.54,272.3c-.15,0-.26-.45-.26-1l.26.26h-.39a2.29,2.29,0,0,1-.32-.06c-.18-.05-.29-.11-.29-.18s.11-.14.29-.19l.32-.05.19,0h.2l.26.26C119.8,271.85,119.68,272.3,119.54,272.3Z" style="fill:#FF725E"></path><path d="M119.54,276.32c-.15,0-.26-.45-.26-1s.11-1,.26-1,.26.45.26,1S119.68,276.32,119.54,276.32Z" style="fill:#FF725E"></path><path d="M119.54,280.35c-.15,0-.26-.45-.26-1s.11-1,.26-1,.26.45.26,1S119.68,280.35,119.54,280.35Z" style="fill:#FF725E"></path><ellipse cx="119.54" cy="283.37" rx="0.26" ry="1.01" style="fill:#FF725E"></ellipse><path d="M119.54,288.4c-.15,0-.26-.45-.26-1s.11-1,.26-1,.26.45.26,1S119.68,288.4,119.54,288.4Z" style="fill:#FF725E"></path><path d="M119.54,292.43c-.15,0-.26-.45-.26-1s.11-1,.26-1,.26.45.26,1S119.68,292.43,119.54,292.43Z" style="fill:#FF725E"></path><ellipse cx="119.54" cy="295.45" rx="0.26" ry="1.01" style="fill:#FF725E"></ellipse><rect x="88.81" y="298.75" width="1.43" height="1.43" style="fill:#FF725E"></rect><rect x="88.81" y="270.58" width="1.43" height="1.43" style="fill:#FF725E"></rect><rect x="118.82" y="270.58" width="1.43" height="1.43" style="fill:#FF725E"></rect><rect x="118.82" y="298.03" width="1.43" height="1.43" style="fill:#FF725E"></rect><rect x="103.1" y="298.75" width="1.43" height="1.43" style="fill:#FF725E"></rect><rect x="103.82" y="270.58" width="1.43" height="1.43" style="fill:#FF725E"></rect><rect x="88.81" y="285.38" width="1.43" height="1.43" style="fill:#FF725E"></rect><rect x="118.11" y="284.67" width="1.43" height="1.43" style="fill:#FF725E"></rect><rect x="63.78" y="63.06" width="351.65" height="12.57" style="fill:#FF725E"></rect><g style="opacity:0.8"><rect x="63.78" y="63.06" width="351.65" height="12.57" style="fill:#fff"></rect></g><ellipse cx="69.65" cy="68.95" rx="1.97" ry="1.88" style="fill:#FF725E"></ellipse><ellipse cx="75.65" cy="68.95" rx="1.97" ry="1.88" style="fill:#FF725E"></ellipse><path d="M83.62,69a2,2,0,1,1-2-1.87A1.92,1.92,0,0,1,83.62,69Z" style="fill:#FF725E"></path></g><g id="freepik--Character--inject-2"><path d="M163.39,158l-.14-6.75L157.91,143s-1.13,0-1.25,1.46a18,18,0,0,0,.6,4.27l-10.49-12.36a1.33,1.33,0,0,0-1.9-.12h0a1.34,1.34,0,0,0-.19,1.73l4.78,6.84s-3.16-.69-2.49,2.92c0,0-3,1.71-.66,5.74s6.92,10.31,6.92,10.31l6.32-.88Z" style="fill:#ffbe9d"></path><path d="M149.23,145.45a13.36,13.36,0,0,1,1.79,1.89l1.84,2.14a5.63,5.63,0,0,1,1,1.43,2,2,0,0,1,.13,1,1.44,1.44,0,0,1-.52.94,2,2,0,0,1-2,.24,3.76,3.76,0,0,1-1.39-1.09c-.69-.84-1.24-1.6-1.73-2.24a13.06,13.06,0,0,1-1.47-2.15,13.16,13.16,0,0,1,1.76,1.92l1.8,2.16a3.34,3.34,0,0,0,1.22.92,1.53,1.53,0,0,0,1.44-.16,1.15,1.15,0,0,0,.24-1.35,5.28,5.28,0,0,0-.88-1.31c-.63-.79-1.22-1.53-1.75-2.21A12.55,12.55,0,0,1,149.23,145.45Z" style="fill:#eb996e"></path><path d="M147.94,149.44a14.12,14.12,0,0,1,1.79,1.89l1.84,2.14a5.82,5.82,0,0,1,1,1.43,2,2,0,0,1,.13,1,1.49,1.49,0,0,1-.52,1,2,2,0,0,1-2,.23,3.64,3.64,0,0,1-1.39-1.08c-.69-.84-1.24-1.6-1.73-2.25a12.13,12.13,0,0,1-1.47-2.15,14.69,14.69,0,0,1,1.76,1.92c.55.66,1.15,1.39,1.8,2.16a3.37,3.37,0,0,0,1.22.93,1.53,1.53,0,0,0,1.44-.17,1.14,1.14,0,0,0,.24-1.34,5.11,5.11,0,0,0-.88-1.31l-1.75-2.21A11.9,11.9,0,0,1,147.94,149.44Z" style="fill:#eb996e"></path><path d="M158.61,157.64s-.52-.33-.9-1.22a4.83,4.83,0,0,1,0-3.68,4.44,4.44,0,0,1,.74-1.19l0,.27a16.68,16.68,0,0,1-1.35-3.51,16.84,16.84,0,0,1,1.81,3.29l.07.14-.11.13a4.89,4.89,0,0,0-.64,1.07,5,5,0,0,0-.14,3.35C158.31,157.14,158.68,157.59,158.61,157.64Z" style="fill:#eb996e"></path><path d="M313.77,195.86l-2.86,7.2v5.21l9.26,1.92,3.78-3.77,5.59-8.89a1.37,1.37,0,0,0-.28-1.77l-1.57-1.32.07-.38a2.27,2.27,0,0,0-1.39-2.53l-1.23-.49,2.77-6a2.12,2.12,0,0,0-.52-2.47h0l-8.33,10-4.37,1Z" style="fill:#ffbe9d"></path><path d="M327.82,194.22a5.19,5.19,0,0,1-1.1,1.5,11.37,11.37,0,0,1-1.48,1.42,2.21,2.21,0,0,1-1.24.44,1.37,1.37,0,0,1-1.27-.77,2,2,0,0,1,0-1.43,6.63,6.63,0,0,1,.54-1.1l1-1.75a6.23,6.23,0,0,1,1-1.55,6.74,6.74,0,0,1-.71,1.72c-.28.58-.58,1.18-.89,1.8s-.77,1.42-.45,2.09a.86.86,0,0,0,.79.48,1.67,1.67,0,0,0,1-.33,15.54,15.54,0,0,0,1.48-1.27A9.67,9.67,0,0,1,327.82,194.22Z" style="fill:#eb996e"></path><path d="M329.65,197a6.56,6.56,0,0,1-1,1.61,8.66,8.66,0,0,1-1.31,1.61,1.82,1.82,0,0,1-2.59,0,1.59,1.59,0,0,1-.18-1.46,6.64,6.64,0,0,1,.5-1.14,10,10,0,0,1,1.14-1.72c.74-.91,1.34-1.34,1.38-1.29a15.14,15.14,0,0,1-1.09,1.51,12.46,12.46,0,0,0-1,1.72,6.57,6.57,0,0,0-.44,1.06,1.11,1.11,0,0,0,.1,1,1.06,1.06,0,0,0,.93.33,1.8,1.8,0,0,0,.94-.43,10.33,10.33,0,0,0,1.33-1.47A6.65,6.65,0,0,1,329.65,197Z" style="fill:#eb996e"></path><path d="M318.6,203.44a8.23,8.23,0,0,0,.88-2.1,5.37,5.37,0,0,0-.11-2.46,4.91,4.91,0,0,0-1.46-2.64l-.5-.41.64-.05a5.37,5.37,0,0,0,1.68-.41,5.15,5.15,0,0,0,2-1.42,2.64,2.64,0,0,0,.64-2l.28.19c-1.5.31-2.75.55-3.63.7a5.44,5.44,0,0,1-1.39.17,5.47,5.47,0,0,1,1.34-.43c.86-.23,2.1-.53,3.58-.88l.24-.06,0,.25a3.11,3.11,0,0,1-.69,2.33,5.58,5.58,0,0,1-2.15,1.59,5.83,5.83,0,0,1-1.85.45l.14-.46a5.16,5.16,0,0,1,1.57,2.93,5.39,5.39,0,0,1,0,2.65,4.48,4.48,0,0,1-.76,1.57C318.8,203.32,318.62,203.46,318.6,203.44Z" style="fill:#eb996e"></path><polygon points="305.65 434.99 309.74 466.79 295.34 467.71 287.94 437.2 305.65 434.99" style="fill:#ffbe9d"></polygon><path d="M294,461.54s11,5.76,15-1.07l1.68,2.82,8.6,20.52a2.88,2.88,0,0,1-1.14,3.64,2.78,2.78,0,0,1-3-.16c-4.66-3.37-21.76-15.84-21.88-17.84l-.65-5.23a2.67,2.67,0,0,1,1.36-2.68Z" style="fill:#FF725E"></path><path d="M317.69,487.66l-24.66-20,.16,1.14c.06,1.25.67,1.67,1.36,2.38,2.06,2.11,7.6,6.72,20.53,16.14a2.8,2.8,0,0,0,2.61.36Z" style="fill:#fff;opacity:0.6000000000000001"></path><g style="opacity:0.6000000000000001"><path d="M295.72,463.81a1.68,1.68,0,0,1,.76,2.11,1.61,1.61,0,0,1-2.09.78,1.77,1.77,0,0,1-.79-2.25,1.67,1.67,0,0,1,2.26-.56" style="fill:#fff"></path></g><path d="M309.88,476.75a8.42,8.42,0,0,1,2.07-2.43,8.58,8.58,0,0,1,3-1c0-.07-.36-.24-1-.24a4.36,4.36,0,0,0-2.36.77,4.45,4.45,0,0,0-1.58,1.91C309.8,476.33,309.81,476.74,309.88,476.75Z" style="fill:#263238"></path><path d="M312.31,480.09c.14.1.88-.9,2.22-1.49a20.64,20.64,0,0,1,2.58-.71c.06-.15-1.32-.54-2.83.16S312.15,480,312.31,480.09Z" style="fill:#263238"></path><path d="M305.66,472.63a27.68,27.68,0,0,1,3.28-2.54c2-1.14,3.88-1.31,3.86-1.49s-2-.25-4.16,1A6.14,6.14,0,0,0,305.66,472.63Z" style="fill:#263238"></path><path d="M304.3,466.21c.1.15,1.5-.68,3.42-1s3.53-.09,3.57-.27a5.43,5.43,0,0,0-3.67-.32A5.37,5.37,0,0,0,304.3,466.21Z" style="fill:#263238"></path><path d="M308.82,465a2.33,2.33,0,0,0-.29-1,7,7,0,0,0-1.62-2.3,3.18,3.18,0,0,0-1.77-1,1.12,1.12,0,0,0-1.12.63,1.85,1.85,0,0,0,0,1.31,3.94,3.94,0,0,0,4.42,2.37,4.57,4.57,0,0,0,3.51-3.68,1.61,1.61,0,0,0-.34-1.28,1.11,1.11,0,0,0-1.28-.19,3.84,3.84,0,0,0-1.4,1.45,7.72,7.72,0,0,0-1.1,2.59,2.16,2.16,0,0,0-.1,1,12.61,12.61,0,0,1,1.54-3.37,3.83,3.83,0,0,1,1.26-1.24.61.61,0,0,1,.7.1,1.12,1.12,0,0,1,.18.86,4.09,4.09,0,0,1-3.08,3.15,3.41,3.41,0,0,1-3.79-2,1.3,1.3,0,0,1,0-.91.61.61,0,0,1,.61-.36,2.87,2.87,0,0,1,1.51.83A10.62,10.62,0,0,1,308.82,465Z" style="fill:#263238"></path><polygon points="261.4 433.59 261.81 466.18 244.21 465.5 241.61 433.98 261.4 433.59" style="fill:#ffbe9d"></polygon><path d="M243.91,461.57h0s-19.52,7.27-19.74,10.88l37.76-.07,0-9.87-1.38.32A28.12,28.12,0,0,1,243.91,461.57Z" style="fill:#FF725E"></path><g style="opacity:0.6000000000000001"><path d="M257.6,464.37a1.54,1.54,0,0,1,1.07,1.75,1.48,1.48,0,0,1-1.73,1.08,1.63,1.63,0,0,1-1.13-1.87,1.55,1.55,0,0,1,1.93-.92" style="fill:#fff"></path></g><g style="opacity:0.6000000000000001"><path d="M261.93,472.38l0-3.06-36.3,1.21s-1.68.74-1.49,1.92Z" style="fill:#fff"></path></g><path d="M243.3,461.38c0,.18.92.26,1.83.85s1.39,1.37,1.56,1.3-.1-1.14-1.22-1.84S243.25,461.21,243.3,461.38Z" style="fill:#263238"></path><path d="M239.34,463c0,.18.75.49,1.38,1.27s.81,1.6,1,1.6.29-1.06-.5-2S239.34,462.85,239.34,463Z" style="fill:#263238"></path><path d="M237.1,467.76c.16,0,.42-.88-.06-1.89s-1.33-1.41-1.41-1.25.46.69.83,1.52S236.91,467.75,237.1,467.76Z" style="fill:#263238"></path><path d="M243.7,461.27a3.53,3.53,0,0,0,1.9,0,8.8,8.8,0,0,0,2-.62,9.49,9.49,0,0,0,1.09-.57,2.66,2.66,0,0,0,.57-.45.8.8,0,0,0,.08-1,1,1,0,0,0-.81-.42,2.48,2.48,0,0,0-.71.1,6.55,6.55,0,0,0-2.91,1.55c-.88.81-1.18,1.5-1.11,1.54s.51-.52,1.4-1.19a7.5,7.5,0,0,1,1.68-1,7,7,0,0,1,1.09-.34c.4-.1.74-.11.84.07s0,.09,0,.21a1.92,1.92,0,0,1-.42.33,8.48,8.48,0,0,1-1,.57,10.19,10.19,0,0,1-1.83.7A14,14,0,0,0,243.7,461.27Z" style="fill:#263238"></path><path d="M244,461.53a3,3,0,0,0,.49-1.82,6.11,6.11,0,0,0-.26-2.07,7,7,0,0,0-.48-1.15,1.59,1.59,0,0,0-1.21-.95.85.85,0,0,0-.79.52,2.3,2.3,0,0,0-.19.7,4.16,4.16,0,0,0,0,1.27,4.31,4.31,0,0,0,.81,2c.74,1,1.51,1.2,1.52,1.14s-.58-.45-1.15-1.39a4.55,4.55,0,0,1-.6-1.78,4,4,0,0,1,0-1.09c.05-.4.2-.72.35-.68s.51.3.67.62a6.22,6.22,0,0,1,.47,1,6.76,6.76,0,0,1,.37,1.89C244,460.81,243.85,461.5,244,461.53Z" style="fill:#263238"></path><path d="M295.64,294.8c-.78-17.6-14.3-36.84-14.3-36.84l-20.81-1.74v-.07l-.44,0h0l-23.92,1.95s-10.54,23-7.8,50.36,12,128.12,12,128.12h21.95l.48-145.77L285,441.55h22S296.43,312.4,295.64,294.8Z" style="fill:#263238"></path><polygon points="237.7 434.12 240.76 448.98 263.11 448.9 264.46 435.22 237.7 434.12" style="fill:#455a64"></polygon><polygon points="283.53 438.87 288.42 455.61 309.23 452.7 308.14 433.88 283.53 438.87" style="fill:#455a64"></polygon><path d="M263.68,290.71a1.17,1.17,0,0,1-.33,0,2.35,2.35,0,0,1-.86-.39,5,5,0,0,1-1.65-3c-.52-2.84-1-6.74-1.46-11.08s-.79-8.27-1-11.12c-.1-1.42-.17-2.58-.2-3.37a5,5,0,0,1,0-1.25,6,6,0,0,1,.2,1.23c.1.9.22,2,.37,3.36.3,2.95.7,6.82,1.14,11.1s.9,8.25,1.31,11.05a5.07,5.07,0,0,0,1.41,2.9A3.89,3.89,0,0,0,263.68,290.71Z" style="fill:#455a64"></path><path d="M261.82,259.48s.17-.13.52-.18a2.35,2.35,0,0,1,1.5.32,2.85,2.85,0,0,1,1.29,1.88,2.09,2.09,0,0,1-.24,1.4,2.27,2.27,0,0,1-1.17,1,2.41,2.41,0,0,1-2.71-.59,2.5,2.5,0,0,1-.46-2.23,2.41,2.41,0,0,1,.78-1.3c.28-.23.48-.29.49-.26a3.23,3.23,0,0,0-.91,1.64,2.19,2.19,0,0,0,.46,1.84,2,2,0,0,0,2.17.41,1.63,1.63,0,0,0,1.11-1.8,2.49,2.49,0,0,0-1-1.64A3.33,3.33,0,0,0,261.82,259.48Z" style="fill:#455a64"></path><path d="M232.34,182.38l-36.92-3.69-29.92-25.2-13.05,13.42,23.07,23.67a35,35,0,0,0,20,10.21c13.23,1.91,32.89,4.66,33.09,4.06C229,203.94,232.34,182.38,232.34,182.38Z" style="fill:#FF725E"></path><path d="M228.64,204.85l2.88,31.89-.21,16.85s2.13,4.58,4.67,4.54h44.31a4.24,4.24,0,0,0,2.6-1.28A8.69,8.69,0,0,0,285,247l-5.68-13.84,1.88-32.51-3.88-12.55L276,184.47,253.59,183l-21.25-.63Z" style="fill:#FF725E"></path><path d="M273.73,184.36s14.23-.22,17.54,7.77c2,4.7,17.64,33.8,21.54,45.38,0,0-4.7,10.43-8.24,11.56h0c-9.65,2.48-16.09-5.35-18.61-11.95l-6.86-18.33Z" style="fill:#FF725E"></path><path d="M310.91,205.84l-3.61,7L296.25,236.3l4.87,13.24h0c5.55,1,11.63-6.77,13.18-12.19L323,208.28Z" style="fill:#FF725E"></path><path d="M310.91,205.83c.13.07-3.61,7.78-8.35,17.21s-8.68,17.05-8.81,17,3.61-7.77,8.35-17.21S310.78,205.77,310.91,205.83Z" style="fill:#263238"></path><path d="M280.64,209.16c.14,0-.05,5.39-.43,12s-.8,12-.94,12,0-5.39.42-12S280.49,209.15,280.64,209.16Z" style="fill:#263238"></path><path d="M243.29,255.38a4.12,4.12,0,0,1-2.66-1.81,4,4,0,0,1-1-3,17.86,17.86,0,0,0,1.43,2.74A19.17,19.17,0,0,0,243.29,255.38Z" style="fill:#263238"></path><path d="M250.09,254.93a6.27,6.27,0,0,1-2.16-4.9,19.08,19.08,0,0,1,1,2.48A20.17,20.17,0,0,1,250.09,254.93Z" style="fill:#263238"></path><path d="M261.77,249.07a4.72,4.72,0,0,1,.35,3.41,4.66,4.66,0,0,1-1.63,3,23.39,23.39,0,0,0,1.12-3.12A24.63,24.63,0,0,0,261.77,249.07Z" style="fill:#263238"></path><path d="M272.17,250a6.71,6.71,0,0,1-1.55,6.12c-.12-.09.62-1.31,1-3S272,250,272.17,250Z" style="fill:#263238"></path><path d="M272.81,184.36a1.65,1.65,0,0,1,.05.52c0,.34,0,.83,0,1.48a22.17,22.17,0,0,1-.83,5.38,13.85,13.85,0,0,1-13.57,10.13,12.54,12.54,0,0,1-5.06-1.09,10,10,0,0,1-3.78-3,17,17,0,0,1-2.86-7.55,28.45,28.45,0,0,1-.26-5.44c0-.64.07-1.14.12-1.48a1.85,1.85,0,0,1,.09-.51s0,.72,0,2a32.72,32.72,0,0,0,.43,5.38,16.81,16.81,0,0,0,2.87,7.31,9.36,9.36,0,0,0,3.61,2.83,12.08,12.08,0,0,0,4.85,1,13.56,13.56,0,0,0,13.21-9.72,23.88,23.88,0,0,0,1-5.28C272.76,185.07,272.77,184.36,272.81,184.36Z" style="fill:#263238"></path><path d="M259.29,201.41A14.47,14.47,0,0,1,258,204.9l-.21.48-.25-.46-.16-.28a15.89,15.89,0,0,1-1.74-3.64,15.51,15.51,0,0,1,2.19,3.39l.16.28-.46,0A13.56,13.56,0,0,1,259.29,201.41Z" style="fill:#263238"></path><path d="M267.71,217.2a3.72,3.72,0,0,0-1-1.2,2.93,2.93,0,0,1-.87-1.17,1,1,0,0,1,.46-1.26,1,1,0,0,1,1.13.35,4.32,4.32,0,0,1,.68,1,2.23,2.23,0,0,1,.76-1.11,1.09,1.09,0,0,1,1.44.1,1,1,0,0,1,.08,1,2.39,2.39,0,0,1-.57.81,9,9,0,0,1-2.15,1.64" style="fill:#fafafa"></path><path d="M252,195.75c.06.12-.39.51-1,.85s-1.21.53-1.28.4.39-.51,1-.85S251.89,195.62,252,195.75Z" style="fill:#263238"></path><path d="M250,190.61c0,.14-.58.38-1.35.54s-1.42.16-1.45,0,.58-.38,1.35-.54S250,190.47,250,190.61Z" style="fill:#263238"></path><path d="M249.92,186.05c-.07.13-.79-.12-1.68-.37s-1.64-.4-1.63-.55.82-.22,1.77.05S250,185.93,249.92,186.05Z" style="fill:#263238"></path><path d="M257.33,201.68c-.14,0-.2-.58-.14-1.26s.24-1.22.38-1.21.21.58.14,1.26S257.47,201.7,257.33,201.68Z" style="fill:#263238"></path><path d="M263.47,200.36c-.14,0-.44-.4-.69-1s-.33-1.15-.2-1.2.44.4.69,1S263.6,200.31,263.47,200.36Z" style="fill:#263238"></path><path d="M269,196.7c-.12.09-.6-.32-1.16-.84s-1-1-.93-1.08.69.15,1.28.7S269.1,196.61,269,196.7Z" style="fill:#263238"></path><path d="M272.13,191c-.06.13-.72-.05-1.51-.28s-1.44-.43-1.42-.58.73-.16,1.57.08S272.19,190.87,272.13,191Z" style="fill:#263238"></path><path d="M272.31,186c0,.14-.7.37-1.61.51s-1.67.14-1.69,0,.7-.37,1.61-.5S272.29,185.87,272.31,186Z" style="fill:#263238"></path><path d="M220.81,191.07a8.56,8.56,0,0,1,2,1.57A22.85,22.85,0,0,1,229,203a8.11,8.11,0,0,1,.43,2.49,37.88,37.88,0,0,0-3.27-7.84A39.27,39.27,0,0,0,220.81,191.07Z" style="fill:#263238"></path><g style="opacity:0.30000000000000004"><path d="M304.36,218.75l-.58-1.16c-2.35,3.6-6.43,9.5-8.79,13.1a12.07,12.07,0,0,0-1.94,4,4.13,4.13,0,0,0,1.13,4.06Z"></path></g><g style="opacity:0.30000000000000004"><path d="M228.93,203.37a21.31,21.31,0,0,0-4.38-9.1,17,17,0,0,0-8.4-5.51,5,5,0,0,0-2.29-.21,2.13,2.13,0,0,0-1.68,1.43c-.32,1.23.82,2.31,1.84,3.07q7.23,5.38,14.71,10.4"></path></g><path d="M273,224a4.62,4.62,0,0,1-1.91.47,11.52,11.52,0,0,1-4.74-.49,11.69,11.69,0,0,1-4.16-2.31,5,5,0,0,1-1.3-1.48,14.2,14.2,0,0,1,1.53,1.2A13.62,13.62,0,0,0,271,224.1,18.68,18.68,0,0,1,273,224Z" style="fill:#263238"></path><path d="M273.28,243.2a1.06,1.06,0,0,1-.4.08c-.27,0-.66.09-1.17.11a27.2,27.2,0,0,1-4.33-.13,29,29,0,0,1-22.72-15.5,25.82,25.82,0,0,1-1.7-4c-.17-.48-.25-.87-.33-1.13s-.09-.4-.07-.4a10.8,10.8,0,0,1,.59,1.46,33.61,33.61,0,0,0,1.83,3.88,29.89,29.89,0,0,0,22.45,15.31,31.8,31.8,0,0,0,4.27.28A12.16,12.16,0,0,1,273.28,243.2Z" style="fill:#263238"></path><g style="opacity:0.2"><path d="M268.66,243.69c1.88.15-.55-3.77-2.22-4.64s-3.63-.94-5.5-1.21a24,24,0,0,1-16.51-10.62S251.72,242.3,268.66,243.69Z"></path></g><path d="M276.9,150.48a4.45,4.45,0,0,1,8.44,2.74c-.2.81-.56,1.84.12,2.32s1.41-.07,2.13-.26a3.13,3.13,0,0,1,3.08,1.21,6.59,6.59,0,0,1,1.2,3.25c.38,2.74-.07,5.76-1.95,7.79s-5.39,2.63-7.43.75a4,4,0,0,1-3.3,4.08,5.37,5.37,0,0,1-5-2.2,8.33,8.33,0,0,1-1.43-5.48,19.38,19.38,0,0,1,1.4-5.58" style="fill:#263238"></path><path d="M238.74,161.74c-2,.5-3.8-1.58-4.05-3.62s.48-4,.7-6.08c.34-3.14-.55-6.28-.7-9.44s.73-6.73,3.48-8.3,6.12-.61,9.06-1.56c2.08-.67,3.75-2.23,5.73-3.15a10.19,10.19,0,0,1,11.09,1.9c1.38,1.34,2.45,3.14,4.24,3.85s3.83.15,5.72.53a7,7,0,0,1,4.76,4,11.07,11.07,0,0,1,.63,6.37c-.4,2.29-1.3,4.54-1.14,6.86.25,3.47,2.85,6.81,1.78,10.12-1.26,3.91-6.67,4.8-8.83,8.3-.56.91-.87,2-1.36,2.91a3.92,3.92,0,0,1-2.26,2.14,1.93,1.93,0,0,1-2.44-1.42" style="fill:#263238"></path><path d="M268.24,139.35l0,3.11.88,46.56c.07,5.4-4.27,9.24-10,9.27h0c-5.84,0-9-3.59-9.21-9-.17-5.72-.46-11.74-.46-11.74s-7.41-1-9.2-10.6c-.89-4.76-.87-12.61-.64-19a10.15,10.15,0,0,1,10.94-9.77Z" style="fill:#ffbe9d"></path><path d="M244,153.46a1.23,1.23,0,0,0,1.22,1.21,1.17,1.17,0,0,0,1.24-1.15,1.23,1.23,0,0,0-1.22-1.21A1.18,1.18,0,0,0,244,153.46Z" style="fill:#263238"></path><path d="M241.4,151.92c.16.15,1.08-.57,2.4-.6s2.32.61,2.46.44-.09-.36-.53-.66a3.44,3.44,0,0,0-2-.55,3.19,3.19,0,0,0-1.9.68C241.46,151.55,241.33,151.85,241.4,151.92Z" style="fill:#263238"></path><path d="M257.15,153.46a1.24,1.24,0,0,0,1.22,1.21,1.19,1.19,0,0,0,1.25-1.15,1.25,1.25,0,0,0-1.23-1.21A1.18,1.18,0,0,0,257.15,153.46Z" style="fill:#263238"></path><path d="M254.46,151.8c.15.16,1.07-.56,2.4-.59s2.32.6,2.45.44-.09-.36-.52-.66a3.35,3.35,0,0,0-2-.55,3.29,3.29,0,0,0-1.9.67C254.51,151.44,254.38,151.73,254.46,151.8Z" style="fill:#263238"></path><path d="M249.91,161.78a8.19,8.19,0,0,0-2.17-.33c-.34,0-.66-.08-.72-.31a1.63,1.63,0,0,1,.2-1q.43-1.24.93-2.61a44.28,44.28,0,0,0,2.06-6.82,45.79,45.79,0,0,0-2.61,6.63c-.3.92-.6,1.79-.88,2.63a1.92,1.92,0,0,0-.14,1.33.85.85,0,0,0,.57.48,2.6,2.6,0,0,0,.58.07A9.18,9.18,0,0,0,249.91,161.78Z" style="fill:#263238"></path><path d="M249.43,177.51a24.45,24.45,0,0,0,12.78-3.79s-2.94,6.69-12.59,6.06Z" style="fill:#eb996e"></path><path d="M250.56,165a2.42,2.42,0,0,1,2.12-1,2.19,2.19,0,0,1,1.53.77,1.4,1.4,0,0,1,.15,1.58,1.62,1.62,0,0,1-1.73.49,5,5,0,0,1-1.72-1,1.29,1.29,0,0,1-.39-.38.42.42,0,0,1,0-.49" style="fill:#eb996e"></path><path d="M253.84,162.59c-.21,0-.18,1.43-1.38,2.49s-2.74.94-2.75,1.14.35.27,1,.27a3.52,3.52,0,0,0,2.29-.87,3.09,3.09,0,0,0,1.07-2.09C254.11,162.93,253.94,162.58,253.84,162.59Z" style="fill:#263238"></path><path d="M254,147.94c.15.36,1.47.15,3,.3s2.83.53,3,.2c.09-.16-.14-.49-.66-.82a5,5,0,0,0-2.26-.73,5.07,5.07,0,0,0-2.35.35C254.25,147.48,254,147.77,254,147.94Z" style="fill:#263238"></path><path d="M241.35,149.23c.3.3,1.4,0,2.74-.1s2.48.14,2.73-.19c.11-.15-.08-.45-.58-.72a4.42,4.42,0,0,0-2.24-.43,4.31,4.31,0,0,0-2.16.66C241.37,148.78,241.22,149.09,241.35,149.23Z" style="fill:#263238"></path><path d="M260.12,136.25a7.07,7.07,0,0,0,1.24,8.4c.92.87,2.14,1.55,2.59,2.74.55,1.46-.26,3-.87,4.47-.79,1.88-1.24,4.09-.33,5.91a28.78,28.78,0,0,1,1.61,2.65c.66,1.78-.26,3.71-.43,5.6-.23,2.47,1.41,5.34,3.89,5.35a4.37,4.37,0,0,0,3.61-2.35,11.27,11.27,0,0,0,1.19-4.32c.84-6.7.62-13.48.39-20.23a12.73,12.73,0,0,0-1-5.45,8.56,8.56,0,0,0-4.92-3.93,25.19,25.19,0,0,0-6.35-1.06" style="fill:#263238"></path><path d="M251.17,134.24a18.48,18.48,0,0,0,18.26,12.51,14.25,14.25,0,0,0-18.65-13" style="fill:#263238"></path><path d="M250.78,133.74c-.22-.67.24-1.6,1.57-2.47a11.27,11.27,0,0,1,6.4-1.54,15.25,15.25,0,0,1,4.67.92,15.8,15.8,0,0,1,4.89,2.83,17.91,17.91,0,0,1,6.17,11.3c.09.6.12,1.21.15,1.78l.27,5.22-5.25.17a21,21,0,0,1-11.3-2.89,18.18,18.18,0,0,1-6.54-6.54,12.12,12.12,0,0,1-1.74-5.75c0-1.46.46-2.32,1.11-2.53,1.35-.45,3.19,1.61,6.12,3.65a20.75,20.75,0,0,0,5.23,2.71,18.07,18.07,0,0,0,6.68,1l-5,5.38a7.55,7.55,0,0,0-.08-.79,11.76,11.76,0,0,0-2.48-5.74A12.81,12.81,0,0,0,257.3,137C254.14,135.35,251.26,135.13,250.78,133.74Z" style="fill:#263238"></path><path d="M237.52,150.44a56.6,56.6,0,0,0,13.07-13.14,11.22,11.22,0,0,0-13.34,13" style="fill:#263238"></path><path d="M290.33,166.8s.18-.16.4-.47a2.26,2.26,0,0,0,.38-1.53,2.53,2.53,0,0,0-1.26-1.87,4.19,4.19,0,0,0-2.84-.47,8.67,8.67,0,0,0-1.17.27l-.3.09,0-.3a4.25,4.25,0,0,0-.89-2.32,2.15,2.15,0,0,0-1.71-.81,1.77,1.77,0,0,0-1.16.56c-.21.23-.27.41-.31.4s0-.21.16-.52a1.85,1.85,0,0,1,1.27-.77,2.43,2.43,0,0,1,2.08.83,4.53,4.53,0,0,1,1.07,2.56l-.33-.21a8.28,8.28,0,0,1,1.26-.3,4.51,4.51,0,0,1,3.16.59,2.83,2.83,0,0,1,1.38,2.25,2.38,2.38,0,0,1-.59,1.68C290.59,166.77,290.34,166.83,290.33,166.8Z" style="fill:#455a64"></path><path d="M284.26,169.94c-.09,0,0-.57-.37-1.33a3.05,3.05,0,0,0-2.44-1.81,2.61,2.61,0,0,0-.39,0h-.5l.28-.41a3.05,3.05,0,0,0,.24-2.78c-.27-.71-.66-1-.6-1.09s.52.19.92.94a3.21,3.21,0,0,1-.14,3.23l-.22-.41a3.77,3.77,0,0,1,.47,0,3.37,3.37,0,0,1,1.83.83,3.08,3.08,0,0,1,.89,1.37A1.87,1.87,0,0,1,284.26,169.94Z" style="fill:#455a64"></path><path d="M279.53,142.86a1.73,1.73,0,0,1,.25,1.17,15,15,0,0,1-.68,3.18,7.24,7.24,0,0,0-.38,2.11,2.49,2.49,0,0,0,.41,1.05c.21.36.44.73.68,1.11a7.31,7.31,0,0,1,1.19,2.65,4.86,4.86,0,0,1-.5,3.11c-.53,1-1.42,1.6-1.9,2.37a5.25,5.25,0,0,0-.55,2.61,8.76,8.76,0,0,1-1.65,4.55A8.42,8.42,0,0,1,274,169a3.6,3.6,0,0,1-1.08.51,11,11,0,0,0,3.16-2.95,8.6,8.6,0,0,0,1.47-4.37,5.49,5.49,0,0,1,.6-2.85c.56-.89,1.43-1.48,1.87-2.35a4.42,4.42,0,0,0,.46-2.77,7.22,7.22,0,0,0-1.09-2.49c-.24-.38-.47-.75-.68-1.14-.1-.19-.2-.38-.29-.58a1.68,1.68,0,0,1-.15-.67,7.6,7.6,0,0,1,.45-2.24,18.43,18.43,0,0,0,.84-3.08A4.33,4.33,0,0,0,279.53,142.86Z" style="fill:#455a64"></path><path d="M239.09,137.77a6.6,6.6,0,0,1-.31-2.3,6.14,6.14,0,0,1,.47-2.52,3.77,3.77,0,0,1,2.3-2.18,5.23,5.23,0,0,1,3.17.08A13.68,13.68,0,0,1,247,131.9a10.38,10.38,0,0,1,2,1.21,10.51,10.51,0,0,1-2.14-.88,14.77,14.77,0,0,0-2.28-.92,5,5,0,0,0-2.87-.05,3.42,3.42,0,0,0-2,1.88,6.2,6.2,0,0,0-.54,2.34A20.76,20.76,0,0,1,239.09,137.77Z" style="fill:#263238"></path><path d="M288,158.14a11.34,11.34,0,0,0,1.1-.29,4.17,4.17,0,0,0,2.21-2,3.45,3.45,0,0,0,.38-2,3.82,3.82,0,0,0-1-2.1,3.67,3.67,0,0,0-2.19-1.24,2.32,2.32,0,0,0-2.35.88,1.43,1.43,0,0,0-.18,1.21,1.18,1.18,0,0,0,.87.73.85.85,0,0,0,.93-.42,1.76,1.76,0,0,0,.14-1.14,4.7,4.7,0,0,0-2.85-3.18,5,5,0,0,0-3-.18c-.7.17-1.06.38-1.09.34a2.69,2.69,0,0,1,1-.54,5,5,0,0,1,6.37,3.47,2.22,2.22,0,0,1-.18,1.48,1.36,1.36,0,0,1-1.46.67,1.64,1.64,0,0,1-1.26-1.06,2,2,0,0,1,.22-1.66,2.81,2.81,0,0,1,2.87-1.1,4.13,4.13,0,0,1,2.49,1.43,4.27,4.27,0,0,1,1,2.37,3.76,3.76,0,0,1-.49,2.2,4.26,4.26,0,0,1-2.47,2,3.3,3.3,0,0,1-.86.13C288.09,158.17,288,158.16,288,158.14Z" style="fill:#263238"></path><path d="M278.26,139.73s.07.15.09.47a3.08,3.08,0,0,1-.28,1.36,3,3,0,0,1-1.58,1.52,3.21,3.21,0,0,1-2.87-.21l.27-.06a5.28,5.28,0,0,1-8.91-.26l.38.08c-.27.18-.55.38-.86.55a10,10,0,0,1-6.91,1.14,9.7,9.7,0,0,1-7.1-6,6.17,6.17,0,0,1-.3-1c-.05-.24-.07-.36-.05-.37s.17.48.54,1.3a10.11,10.11,0,0,0,2.15,3.07,9.37,9.37,0,0,0,4.85,2.55,9.74,9.74,0,0,0,6.56-1.12c.29-.16.56-.35.81-.52l.24-.16.14.23a4.9,4.9,0,0,0,4.34,2.36,5,5,0,0,0,3.79-2.06l.11-.16.17.1a2.88,2.88,0,0,0,2.53.26,2.77,2.77,0,0,0,1.49-1.32A3.88,3.88,0,0,0,278.26,139.73Z" style="fill:#455a64"></path><path d="M278.2,148.15a1,1,0,0,1-.08.59,3,3,0,0,1-1,1.33,4.42,4.42,0,0,1-2.25.94,6.76,6.76,0,0,1-2.94-.38,19.2,19.2,0,0,1-2.26-1l.34-.18a3.28,3.28,0,0,1-1.07,1.82,4.15,4.15,0,0,1-1.41.81,2.49,2.49,0,0,1-1.42.18c0-.07.52-.11,1.3-.46a3.5,3.5,0,0,0,2.12-2.43l.06-.31.28.13c.69.3,1.43.64,2.23.91a6.87,6.87,0,0,0,2.72.4,4.33,4.33,0,0,0,2.08-.76A4.25,4.25,0,0,0,278.2,148.15Z" style="fill:#455a64"></path><path d="M264.54,130.42A7.22,7.22,0,0,0,262,130a4.77,4.77,0,0,0-2.61.94,4.88,4.88,0,0,0-1.86,2.82l-.06.27-.28-.08c-.13,0-.27-.09-.41-.12a5.52,5.52,0,0,0-5.84,2.12,8.7,8.7,0,0,0-1.13,2.54,1.74,1.74,0,0,1,0-.78,5.43,5.43,0,0,1,.8-2,5.66,5.66,0,0,1,2.4-2.07,6,6,0,0,1,3.87-.35l.45.13-.34.19a5.32,5.32,0,0,1,2.09-3.09,5,5,0,0,1,2.88-.91,4.9,4.9,0,0,1,2,.41C264.35,130.22,264.56,130.39,264.54,130.42Z" style="fill:#455a64"></path><path d="M249.46,137.83a11.25,11.25,0,0,1-1.78,1.72,26.66,26.66,0,0,1-4.9,3.46,13.47,13.47,0,0,1-5.78,1.62,5.43,5.43,0,0,1-2.47-.32c0-.09.95.09,2.44,0a14.92,14.92,0,0,0,5.57-1.73,34.92,34.92,0,0,0,4.91-3.27A12,12,0,0,1,249.46,137.83Z" style="fill:#455a64"></path><path d="M145.51,127.57a4.26,4.26,0,0,1,0-.45c0-.31,0-.72,0-1.24,0-1.13,0-2.7-.05-4.7,0-4.05-.07-9.78-.11-16.68l.21.22-28.79,0c0,.06.49-.49.26-.25h0v12.06c0,3.87,0,7.55,0,11l-.24-.23,20.74.11,5.91.06,1.58,0,.56,0a3,3,0,0,1-.51,0l-1.53,0-5.86.06-20.89.12h-.23v-.23c0-3.44,0-7.12,0-11,0-1.93,0-3.91,0-5.93v-6.13h0l.26-.27,28.79.05h.22v.21c0,7-.09,12.74-.11,16.82,0,2-.05,3.53-.06,4.64,0,.51,0,.9,0,1.21A1.87,1.87,0,0,1,145.51,127.57Z" style="fill:#FF725E"></path><path d="M141.83,119.15a14.45,14.45,0,0,1-1.8-1.56c-1.1-1-2.66-2.5-4.5-4.27h.33l-4.57,5.22-.18.21-.17.19-.19-.16-2.82-2.34h.32c-2.49,2.23-4.66,4.14-6.22,5.48-.73.62-1.34,1.14-1.85,1.56a3.25,3.25,0,0,1-.7.52,3.37,3.37,0,0,1,.59-.64l1.75-1.68c1.5-1.41,3.63-3.37,6.1-5.61l.16-.15.17.14,2.83,2.33-.36,0,.18-.21,4.61-5.19.17-.18.17.17c1.81,1.8,3.33,3.32,4.38,4.4A15.58,15.58,0,0,1,141.83,119.15Z" style="fill:#FF725E"></path><path d="M126.74,111.23s-.16-.17-.45-.43a2.52,2.52,0,0,0-1.46-.64,2.37,2.37,0,0,0-2.07.86,2.32,2.32,0,0,0,2.18,3.76,2.4,2.4,0,0,0,1.78-1.36,2.56,2.56,0,0,0,.17-1.58,5.62,5.62,0,0,1-.15-.61s.19.15.34.55a2.57,2.57,0,0,1,0,1.78,2.74,2.74,0,0,1-2,1.69,2.79,2.79,0,0,1-2.92-1.34,2.77,2.77,0,0,1,.3-3.2,2.73,2.73,0,0,1,2.48-.92,2.59,2.59,0,0,1,1.56.87C126.7,111,126.77,111.22,126.74,111.23Z" style="fill:#FF725E"></path><path d="M113.38,121.28s-.17-.17-.46-.43a2.55,2.55,0,0,0-1.45-.64,2.4,2.4,0,0,0-2.07.86,2.32,2.32,0,0,0,2.17,3.76,2.38,2.38,0,0,0,1.78-1.36,2.56,2.56,0,0,0,.17-1.58c-.08-.38-.18-.59-.14-.61s.19.16.34.55a2.58,2.58,0,0,1,0,1.78,2.73,2.73,0,0,1-2,1.7,2.78,2.78,0,0,1-2.62-4.55,2.7,2.7,0,0,1,2.48-.91,2.51,2.51,0,0,1,1.56.86C113.34,121,113.4,121.27,113.38,121.28Z" style="fill:#FF725E"></path><path d="M131.12,128.58a2.37,2.37,0,0,1,0,.49c0,.38,0,.85,0,1.43,0,1.31.05,3.11.08,5.37V136h-.16c-6,.06-15.31.1-25.81.1h-1.59v-.26c0-8.2,0-15.61.07-21.21v-.2H104l7.73.08,2.1,0a3.47,3.47,0,0,1,.73.06,4.14,4.14,0,0,1-.73,0l-2.1.05-7.73.09.19-.19c0,5.6,0,13,.07,21.21l-.26-.26h1.33c10.5,0,19.86,0,25.81.09l-.16.17c0-2.26,0-4.06.07-5.37,0-.58,0-1.05,0-1.43A1.91,1.91,0,0,1,131.12,128.58Z" style="fill:#FF725E"></path><path d="M115.18,126.15A39.72,39.72,0,0,1,111,130.1a40.45,40.45,0,0,1-4.37,3.73,27.38,27.38,0,0,1,4-4.12A26,26,0,0,1,115.18,126.15Z" style="fill:#FF725E"></path><path d="M121,131.94c-.08.11-.87-.39-1.61-1.24s-1.16-1.68-1-1.75.7.6,1.42,1.41S121.09,131.83,121,131.94Z" style="fill:#FF725E"></path><path d="M154.8,148.57s0-.37,0-1.06,0-1.74,0-3.08c0-2.72,0-6.68-.05-11.76,0-10.18-.06-24.82-.11-42.77l.21.2-98.36.06h0l.26-.26c0,20.78,0,40.62,0,58.67l-.24-.24,70.74.12,20.31.07,5.42,0h1.89l-.46,0H153l-5.37,0-20.26.07-70.9.12h-.25v-.25c0-18,0-37.89,0-58.67v-.26h.27l98.36.06h.2v.2c-.05,18-.08,32.69-.11,42.89,0,5.07,0,9,0,11.72,0,1.32,0,2.34,0,3S154.8,148.57,154.8,148.57Z" style="fill:#FF725E"></path><rect x="64.4" y="103.64" width="29.96" height="2.19" style="fill:#FF725E"></rect><path d="M93.15,114.47c0,.14-6.53.26-14.6.26s-14.6-.12-14.6-.26,6.54-.26,14.6-.26S93.15,114.32,93.15,114.47Z" style="fill:#FF725E"></path><path d="M93.15,119.32c0,.14-6.53.26-14.6.26s-14.6-.12-14.6-.26,6.54-.26,14.6-.26S93.15,119.18,93.15,119.32Z" style="fill:#FF725E"></path><path d="M93.15,124.17c0,.15-6.53.26-14.6.26s-14.6-.11-14.6-.26,6.54-.26,14.6-.26S93.15,124,93.15,124.17Z" style="fill:#FF725E"></path><path d="M93.15,129c0,.14-6.53.26-14.6.26S64,129.17,64,129s6.54-.26,14.6-.26S93.15,128.88,93.15,129Z" style="fill:#FF725E"></path><path d="M77.09,133.79a42.24,42.24,0,0,1-6.57.26,42.35,42.35,0,0,1-6.57-.26,40.91,40.91,0,0,1,6.57-.26A40.81,40.81,0,0,1,77.09,133.79Z" style="fill:#FF725E"></path><path d="M149.57,137.53s0-.36-.23-1a4.06,4.06,0,0,0-1.48-2.11,3.91,3.91,0,0,0-3.65-.51,3.84,3.84,0,1,0,3.65,6.67,4,4,0,0,0,1.48-2.12c.18-.6.18-1,.23-1a2.19,2.19,0,0,1,0,1,4,4,0,0,1-1.46,2.36,4.23,4.23,0,0,1-4,.67,4.28,4.28,0,0,1,0-8.08,4.23,4.23,0,0,1,4,.67,4,4,0,0,1,1.46,2.35A2.23,2.23,0,0,1,149.57,137.53Z" style="fill:#FF725E"></path><path d="M414.19,193s0-.45,0-1.28,0-2.09,0-3.7c0-3.24,0-8-.05-14.05,0-12.13-.07-29.53-.11-50.7l.21.21-100,.05h0l.26-.26c0,24.92,0,48.59,0,69.73l-.23-.24,72.09.12,20.57.06,5.47,0h1.42l.49,0h-1.85l-5.43,0-20.51.07-72.25.11h-.24V193c0-21.14,0-44.81,0-69.73V123h.26l100,0h.21v.21c0,21.22-.09,38.67-.11,50.83,0,6,0,10.77-.06,14,0,1.59,0,2.81,0,3.65S414.19,193,414.19,193Z" style="fill:#FF725E"></path><circle cx="364.17" cy="158.14" r="14.52" transform="translate(126.12 475.88) rotate(-76.63)" style="fill:#FF725E"></circle><path d="M331.37,182.36s0-.36-.22-1a4.07,4.07,0,0,0-1.49-2.12,3.84,3.84,0,1,0,0,6.16,4.09,4.09,0,0,0,1.49-2.11c.18-.61.18-1,.22-1a2,2,0,0,1,0,1,4,4,0,0,1-1.47,2.35,4.23,4.23,0,0,1-4,.67,4.28,4.28,0,0,1,0-8.07,4.2,4.2,0,0,1,4,.66,4.06,4.06,0,0,1,1.47,2.36A1.94,1.94,0,0,1,331.37,182.36Z" style="fill:#FF725E"></path><polygon points="360.59 158.14 360.59 151.6 366.26 154.87 371.92 158.14 366.26 161.41 360.59 164.68 360.59 158.14" style="fill:#fff"></polygon></g><g id="freepik--Plant--inject-2"><path d="M389.26,404.86c7.45,2.6,17.17.27,23.55-4.38s11-11.32,15-18.09c1.74-2.88,3.43-5.89,4-9.22s-.26-7.06-2.84-9.23c-4-3.37-10.14-1.66-14.69.93a50.68,50.68,0,0,0-25,40" style="fill:#FF725E"></path><path d="M397.26,422.69c4.48,5.9,12.17,8.53,19.57,8.87s14.71-1.7,21.62-4.35c2.51-1,5.26-2.29,6.12-4.83a6.15,6.15,0,0,0-1.31-5.7,12.76,12.76,0,0,0-5-3.4,34.06,34.06,0,0,0-21.76-1.18c-7.17,1.86-13.42,6-19.24,10.59" style="fill:#FF725E"></path><path d="M389.16,372.94c6.16.12,10.83-5.28,13.62-10.78a40,40,0,0,0,3.68-24.92c-.57-3.15-1.76-6.55-4.58-8.06s-6.59-.53-9,1.67-3.72,5.32-4.68,8.43c-3.31,10.71-2.59,23,1,33.66" style="fill:#FF725E"></path><path d="M368.9,407.05c10.51-17.9,12.26-39.79,6.05-59.6-1-3.21-2.91-6.89-6.27-7.1-3.72-.24-6.05,3.91-7.08,7.5-3.6,12.57-2.84,25.93-2,39,.49,8.05,3.25,14.92,9.34,20.21" style="fill:#FF725E"></path><path d="M358,414.41a43,43,0,0,0-25.52-27.06c-2.79-1.05-6.34-1.65-8.42.49s-1.42,5.6-.11,8.21c2.12,4.23,5.56,7.63,9,10.89,3.12,3,6.35,5.94,10.29,7.66s11.18,2.16,14.78-.19" style="fill:#FF725E"></path><path d="M423.16,368.43a.88.88,0,0,1-.19.17l-.56.44-2.21,1.64-1.6,1.18c-.57.45-1.17,1-1.83,1.5-1.3,1.08-2.84,2.26-4.39,3.73l-2.48,2.25c-.85.79-1.68,1.68-2.57,2.56-1.81,1.74-3.56,3.77-5.45,5.87a116,116,0,0,0-19.22,31.09c-1,2.63-2.07,5.11-2.82,7.5-.38,1.19-.81,2.33-1.13,3.45s-.62,2.2-.91,3.23c-.62,2-1,3.94-1.37,5.59-.19.83-.38,1.59-.52,2.31s-.24,1.36-.34,1.95c-.21,1.15-.37,2.05-.49,2.71-.06.29-.1.52-.14.7a.81.81,0,0,1-.06.24.62.62,0,0,1,0-.24c0-.19.05-.42.09-.71.1-.67.23-1.58.4-2.73l.3-2c.12-.72.3-1.49.47-2.32.37-1.66.71-3.57,1.31-5.63.28-1,.58-2.11.88-3.24s.73-2.27,1.11-3.47c.74-2.41,1.76-4.9,2.79-7.54a113,113,0,0,1,19.29-31.22c1.91-2.1,3.68-4.13,5.51-5.86.9-.88,1.73-1.76,2.6-2.55l2.51-2.23c1.57-1.46,3.13-2.62,4.45-3.69.67-.52,1.28-1,1.86-1.46l1.63-1.15,2.26-1.58.6-.4Z" style="fill:#263238"></path><path d="M437.08,418a3.27,3.27,0,0,1-.72-.12c-.47-.08-1.15-.26-2.05-.41a57.47,57.47,0,0,0-7.61-.93,55.55,55.55,0,0,0-45.11,18.77,58.23,58.23,0,0,0-4.7,6c-.53.74-.88,1.36-1.15,1.75a3.9,3.9,0,0,1-.43.6,6.07,6.07,0,0,1,.34-.65c.25-.41.57-1,1.08-1.8a49.91,49.91,0,0,1,4.6-6.18,54.63,54.63,0,0,1,45.39-18.89,50.17,50.17,0,0,1,7.63,1.09c.89.18,1.57.39,2,.51A4.12,4.12,0,0,1,437.08,418Z" style="fill:#263238"></path><path d="M398.25,336.32s0,.1,0,.28-.1.47-.17.8q-.26,1.11-.69,3.09c-.61,2.67-1.53,6.53-2.69,11.29-2.32,9.53-5.69,22.65-9.19,37.18-1.75,7.28-3.32,14.23-4.68,20.56s-2.48,12.07-3.32,16.89c-.46,2.41-.8,4.6-1.12,6.52s-.59,3.57-.79,4.93-.36,2.37-.48,3.12l-.14.81a1,1,0,0,1-.06.27.84.84,0,0,1,0-.28q0-.31.09-.81c.09-.75.23-1.8.39-3.14s.4-3,.7-4.94.62-4.12,1.05-6.54c.8-4.84,1.91-10.57,3.22-16.92s2.9-13.3,4.64-20.58c3.51-14.55,6.93-27.65,9.34-37.15,1.19-4.73,2.16-8.57,2.84-11.26.33-1.3.59-2.33.78-3.06.09-.32.16-.59.22-.79A1.1,1.1,0,0,1,398.25,336.32Z" style="fill:#263238"></path><path d="M374.1,440.62s0-.07-.07-.21l-.14-.65c-.13-.61-.3-1.44-.52-2.49-.45-2.17-1-5.31-1.71-9.2-1.35-7.79-3-18.6-3.93-30.63-.48-6-.74-11.76-.86-17s0-9.93.12-13.88c.05-2,.18-3.76.27-5.33s.19-2.91.29-4,.18-1.91.23-2.53c0-.26.06-.48.08-.66s0-.22,0-.22a.82.82,0,0,1,0,.23c0,.18,0,.39,0,.66,0,.62-.08,1.47-.14,2.54s-.15,2.45-.21,4-.16,3.35-.19,5.32c-.12,3.95-.13,8.65,0,13.86s.42,11,.89,17c1,12,2.52,22.82,3.78,30.61.63,3.9,1.17,7.05,1.56,9.22.18,1.06.32,1.9.42,2.51,0,.27.08.48.1.66A.74.74,0,0,1,374.1,440.62Z" style="fill:#263238"></path><path d="M374.88,442.9a3.71,3.71,0,0,1-.28-.62q-.25-.69-.69-1.8l-.49-1.3-.68-1.52-.77-1.74c-.27-.61-.62-1.23-1-1.9l-1.07-2.09-1.28-2.2c-.84-1.54-1.94-3.07-3-4.74a112.92,112.92,0,0,0-7.92-10.13,125.57,125.57,0,0,0-9.09-9.09c-1.51-1.28-2.9-2.55-4.29-3.62l-2-1.59-1.89-1.39c-1.2-.91-2.32-1.66-3.31-2.33s-1.83-1.24-2.55-1.67l-1.63-1a2.88,2.88,0,0,1-.55-.39,3.7,3.7,0,0,1,.6.3l1.68,1c.74.4,1.61.95,2.61,1.6s2.14,1.38,3.35,2.27l1.92,1.38c.64.5,1.32,1,2,1.57,1.42,1.06,2.82,2.32,4.34,3.59a118.72,118.72,0,0,1,9.16,9.11,108.75,108.75,0,0,1,7.93,10.2c1.05,1.69,2.13,3.24,3,4.8.43.76.85,1.51,1.26,2.22s.71,1.44,1.05,2.11.66,1.31.93,1.93.5,1.21.74,1.77.44,1.05.64,1.53.31.92.45,1.32c.25.76.45,1.37.61,1.84A4.58,4.58,0,0,1,374.88,442.9Z" style="fill:#263238"></path><path d="M419.26,389.19c0,.08-1.28.08-3.32.19a59.31,59.31,0,0,0-15.68,3c-1.95.65-3.13,1.11-3.16,1a3.2,3.2,0,0,1,.79-.43c.52-.25,1.29-.57,2.25-.94a47.72,47.72,0,0,1,15.78-3c1,0,1.87,0,2.45.05A3.48,3.48,0,0,1,419.26,389.19Z" style="fill:#263238"></path><path d="M427.19,427.94a30.25,30.25,0,0,0-4.33-6.53,29.92,29.92,0,0,0-6.19-4.8,7.32,7.32,0,0,1,2.14.94,18.88,18.88,0,0,1,7.6,8.19A7.54,7.54,0,0,1,427.19,427.94Z" style="fill:#263238"></path><path d="M400.14,350.85c.1.11-1.84,2-3.95,4.63s-3.62,4.87-3.74,4.8a21.69,21.69,0,0,1,3.35-5.11A21.33,21.33,0,0,1,400.14,350.85Z" style="fill:#263238"></path><path d="M393.78,339.88a36.52,36.52,0,0,1,1.43,8.38,18.87,18.87,0,0,1-1-4.15A19.08,19.08,0,0,1,393.78,339.88Z" style="fill:#263238"></path><path d="M374.11,374.31a51.61,51.61,0,0,1-3.08,6.48,53.52,53.52,0,0,1-3.51,6.25,50.62,50.62,0,0,1,3.07-6.48A54.38,54.38,0,0,1,374.11,374.31Z" style="fill:#263238"></path><path d="M362.4,362.62a28.76,28.76,0,0,1,2.61,4.69,29.71,29.71,0,0,1,2.17,4.9,27.86,27.86,0,0,1-2.61-4.68A29.59,29.59,0,0,1,362.4,362.62Z" style="fill:#263238"></path><path d="M345.19,402.6c0,.14-2.12-.26-4.72-.44s-4.73-.09-4.74-.23a13.62,13.62,0,0,1,4.78-.27A13.46,13.46,0,0,1,345.19,402.6Z" style="fill:#263238"></path><path d="M357,437.94l5.85,30.79a4.32,4.32,0,0,0,4.24,3.51h17.3a4.31,4.31,0,0,0,4.25-3.61l5.09-30.69Z" style="fill:#263238"></path><polygon points="358.85 447.95 391.93 447.95 393.68 437.94 356.95 437.94 358.85 447.95" style="fill:#455a64"></polygon><polygon points="358.85 447.95 359.54 451.6 391.42 451.6 391.93 447.95 358.85 447.95" style="fill:#fafafa"></polygon></g></svg>