<svg xmlns="http://www.w3.org/2000/svg" viewBox="0 0 500 500">
    <g id="freepik--background-complete--inject-103">
        <rect x="38.73" y="254.42" width="26.48" height="11.19" style="fill:#ebebeb"></rect>
        <rect x="23.96" y="268.53" width="26.48" height="11.19" style="fill:#ebebeb"></rect>
        <rect x="53.5" y="268.53" width="26.48" height="11.19" style="fill:#ebebeb"></rect>
        <rect x="434.79" y="268.53" width="26.48" height="11.19" style="fill:#ebebeb"></rect>
        <rect x="434.79" y="110.1" width="26.48" height="11.19" style="fill:#ebebeb"></rect>
        <rect x="449.56" y="124.21" width="26.48" height="11.19" style="fill:#ebebeb"></rect>
        <rect x="23.96" y="110.11" width="26.48" height="11.19" style="fill:#ebebeb"></rect>
        <rect x="197.11" y="361.18" width="26.48" height="11.19" transform="translate(420.7 733.55) rotate(180)"
            style="fill:#ebebeb"></rect>
        <rect x="211.88" y="347.07" width="26.48" height="11.19" transform="translate(450.25 705.33) rotate(180)"
            style="fill:#ebebeb"></rect>
        <polygon points="483.3 185.65 457.43 46.73 433.52 185.65 432.53 185.48 457.39 41.06 484.28 185.47 483.3 185.65"
            style="fill:#dbdbdb"></polygon>
        <polygon points="476.4 300.11 457.7 231.46 440.42 300.1 439.45 299.85 457.66 227.51 477.36 299.84 476.4 300.11"
            style="fill:#dbdbdb"></polygon>
        <path d="M459.77,42.79a2.36,2.36,0,1,1-2.36-2.36A2.36,2.36,0,0,1,459.77,42.79Z" style="fill:#a6a6a6"></path>
        <polygon
            points="479.31 297.79 478.58 307.41 476.84 330.29 439.97 330.29 438.24 307.41 437.5 297.79 479.31 297.79"
            style="fill:#ebebeb"></polygon>
        <polygon points="479.31 297.79 478.58 307.41 438.24 307.41 437.5 297.79 479.31 297.79" style="fill:#dbdbdb">
        </polygon>
        <rect x="434.97" y="294.72" width="46.87" height="7.47" style="fill:#ebebeb"></rect>
        <path
            d="M483.11,293.17a2.24,2.24,0,0,1-2.49,2.06,2.38,2.38,0,0,1-2.68.78,2.72,2.72,0,0,1-2.69,1.59,2.74,2.74,0,0,1-1.6,3.32,1.7,1.7,0,0,1-1.76,1.21,2.79,2.79,0,0,1-2.07-1.45,2.14,2.14,0,0,1-3.15.29,1.75,1.75,0,0,1-.38-1.91,2,2,0,0,1-.41-.26,2.69,2.69,0,0,1-.73-2.26,2.6,2.6,0,0,1-1.92,0,1.46,1.46,0,0,1-1.32,1.11,2.61,2.61,0,0,1-.45,2.35,2.73,2.73,0,0,1-2.39.9c.26,1.26.32,2.69-.83,3.53a1.85,1.85,0,0,1-1.88.18,2.4,2.4,0,0,1-2.95,1.87,3.06,3.06,0,0,1-.29,2.26,2.08,2.08,0,0,1-1.58,1c0,1.23-.52,2.57-2,2.54a1.45,1.45,0,0,1-1.37-1.75,1.81,1.81,0,0,1-.92-3,2.63,2.63,0,0,1,0-4.15,1.71,1.71,0,0,1,.07-2.54,2.32,2.32,0,0,1-.85-1.84,2.57,2.57,0,0,1,1.34-2.05,1.11,1.11,0,0,1-.64-.65.65.65,0,0,1,0-.2,1.74,1.74,0,0,1-1.36,0,1.52,1.52,0,0,1-.68-.62,2.8,2.8,0,0,1-2.69.66,2.25,2.25,0,0,1-3.45.71c-.85.76-2,1.49-3.11.8a1.39,1.39,0,0,1-.63-1.24,1.53,1.53,0,0,1-1.39-.83,1.43,1.43,0,0,1,.39-1.77,1.38,1.38,0,0,1-.53-.8,1.61,1.61,0,0,1,1.58-1.8,2.26,2.26,0,0,1,.43-2.27,3.27,3.27,0,0,1,2.64-.94,2.83,2.83,0,0,1,1.39-2.95,2.32,2.32,0,0,1,2.86.69,3.7,3.7,0,0,1,5.88-.38,1.83,1.83,0,0,1,2.29-.94,3,3,0,0,1,1.73,3,3.49,3.49,0,0,1,5.08,3.34,3.24,3.24,0,0,1,3.44.21,7.07,7.07,0,0,1,3.66-2.79,3.47,3.47,0,0,1,3,.63,4.08,4.08,0,0,1,7.44-.94,2.88,2.88,0,0,1,3-.4c1.44.59,2.16,2.09,2.66,3.49A2.22,2.22,0,0,1,483.11,293.17Z"
            style="fill:#c7c7c7"></path>
        <polygon
            points="486.34 186.06 485.36 198.91 483.04 229.49 433.77 229.49 431.45 198.91 430.47 186.06 486.34 186.06"
            style="fill:#ebebeb"></polygon>
        <polygon points="486.34 186.06 485.36 198.91 431.45 198.91 430.47 186.06 486.34 186.06" style="fill:#dbdbdb">
        </polygon>
        <rect x="427.09" y="181.95" width="62.63" height="9.98" style="fill:#ebebeb"></rect>
        <path
            d="M488.29,184.46a3.66,3.66,0,0,1,.77,3.42,6.75,6.75,0,0,1-3.84,3.43,4.07,4.07,0,0,1-1.36,6c1.49,1.75,2.1,3.74.17,5a4.49,4.49,0,0,1-1.35,6.39c.42,1.38-.91,5.51-3.75,5.5a3,3,0,0,1-2.59-4.42,3.5,3.5,0,0,1-.81-5.53s-1.75.37-2.58-.52a2.39,2.39,0,0,1-.14-2.36,4,4,0,0,1,.91-5.83,3.3,3.3,0,0,1,0-4.94,4.67,4.67,0,0,1-2-1.67c-1.42.69-2.28.08-3.07-1.27a3.3,3.3,0,0,1-3.57.94A3.94,3.94,0,0,1,459.3,191a5.44,5.44,0,0,1-1.08,2.93c-.2.26-.43.47-.65.71a5.43,5.43,0,0,0-.63,1,4.66,4.66,0,0,1-1.3,1.49,2.45,2.45,0,0,1-3.25-.13,1.86,1.86,0,0,1-.3-1.93,2.5,2.5,0,0,1-1.56-3.18,3,3,0,0,1-3-1.74,3.24,3.24,0,0,1-2.47,1.23,3.63,3.63,0,0,1-2.05,4.55,3.73,3.73,0,0,1-1.6,5.3,2.63,2.63,0,0,1-.77,3.48,3.31,3.31,0,0,1-.12,3,2.16,2.16,0,0,1-2,1,1.6,1.6,0,0,1-1-2.39,4,4,0,0,1-1.45-6.65,3.29,3.29,0,0,1-1.94-5,3.4,3.4,0,0,1-2.58-2.61,3.32,3.32,0,0,1,.71-2.66,2,2,0,0,1-1.8-.66,1.81,1.81,0,0,1-.36-1.13,2.55,2.55,0,0,1-2.75-1.2,2.49,2.49,0,0,1,.5-2.9,2.11,2.11,0,0,1-1.4-1.52,1.8,1.8,0,0,1,.16-1.26,2.46,2.46,0,0,1-2.94-2.07,2,2,0,0,1,1.34-2.08,2.46,2.46,0,0,1-.2-1.59c.38-1.52,2.14-2,3.53-2.16a3.13,3.13,0,0,1,3.48-4.1,3.23,3.23,0,0,1,1.5-3,3,3,0,0,1,3.37.26h.1a3.79,3.79,0,0,1,3.21,3.7,3.92,3.92,0,0,1,3.73,0,5.5,5.5,0,0,1,2.57,3.79,4.44,4.44,0,0,1,7.13.93,4.2,4.2,0,0,1,4.4-1,4.25,4.25,0,0,1,2.63,3.34,10.08,10.08,0,0,1,9.47-1.86,4.43,4.43,0,0,1,6.71-2.13,4.45,4.45,0,0,1,4.6-2.71c2.34.24,4.06,2.13,5,4.16a4.51,4.51,0,0,1,4,5.94A3.27,3.27,0,0,1,488.29,184.46Z"
            style="fill:#c7c7c7"></path>
    </g>
    <g id="freepik--Shadows--inject-103">
        <ellipse cx="368.33" cy="460.48" rx="99.43" ry="8.15" style="fill:#ebebeb"></ellipse>
        <ellipse cx="92.91" cy="460.48" rx="49.69" ry="8.15" style="fill:#ebebeb"></ellipse>
    </g>
    <g id="freepik--Floor--inject-103">
        <polygon
            points="40.54 420.91 92.91 420.67 145.27 420.58 250 420.41 354.73 420.58 407.09 420.67 459.46 420.91 407.09 421.15 354.73 421.24 250 421.41 145.27 421.24 92.91 421.15 40.54 420.91"
            style="fill:#263238"></polygon>
    </g>
    <g id="freepik--Window--inject-103">
        <rect x="78.73" y="49.19" width="342.54" height="1" style="fill:#ebebeb"></rect>
        <polygon points="421.27 321 78.73 321 100.98 293.49 399.02 293.49 421.27 321" style="fill:#ebebeb"></polygon>
        <polygon points="100.98 49.69 78.73 49.69 78.73 321 100.98 293.49 100.98 49.69" style="fill:#dbdbdb"></polygon>
        <polygon points="399.02 49.69 421.27 49.69 421.27 321 399.02 293.49 399.02 49.69" style="fill:#dbdbdb">
        </polygon>
        <path d="M101,49.69v243.8H399V49.69ZM390.89,285.41H109.11V57.77H390.89Z" style="fill:#a6a6a6"></path>
        <rect x="109.11" y="57.77" width="281.78" height="227.64" style="fill:#fff"></rect>
        <rect x="245.94" y="57.77" width="8.14" height="227.64" style="fill:#a6a6a6"></rect>
        <rect x="65.53" y="46.3" width="368.95" height="5.57" style="fill:#ebebeb"></rect>
        <rect x="65.53" y="52.56" width="368.95" height="5.57" style="fill:#ebebeb"></rect>
        <rect x="65.53" y="58.83" width="368.95" height="5.57" style="fill:#ebebeb"></rect>
        <rect x="65.53" y="65.1" width="368.95" height="5.57" style="fill:#ebebeb"></rect>
        <rect x="65.53" y="71.36" width="368.95" height="5.57" style="fill:#ebebeb"></rect>
        <rect x="65.53" y="77.63" width="368.95" height="5.57" style="fill:#ebebeb"></rect>
        <rect x="65.53" y="83.89" width="368.95" height="5.57" style="fill:#ebebeb"></rect>
        <rect x="65.53" y="90.16" width="368.95" height="5.57" style="fill:#ebebeb"></rect>
        <rect x="65.53" y="96.43" width="368.95" height="5.57" style="fill:#ebebeb"></rect>
        <rect x="406.59" y="43.25" width="1" height="158.39" style="fill:#263238"></rect>
        <polygon points="408.87 206.3 405.32 206.3 406.21 201.2 407.98 201.2 408.87 206.3" style="fill:#263238">
        </polygon>
        <rect x="410.2" y="43.25" width="1" height="215.73" style="fill:#263238"></rect>
        <polygon points="412.47 262.74 408.92 262.74 409.81 257.64 411.58 257.64 412.47 262.74" style="fill:#263238">
        </polygon>
        <rect x="59.32" y="37.43" width="381.36" height="11.65" style="fill:#dbdbdb"></rect>
    </g>
    <g id="freepik--Character--inject-103">
        <path
            d="M147.06,235l-8.38-1.21a26,26,0,0,1-.07-15.78c.35-1.18-3.67,5.26-4.19,15.17-8.84-1.28-20.87-3-31.37-4.66.49-4.12.76-8,.76-8a46.13,46.13,0,0,1-3,7.62c-1.44-.21-2.84-.44-4.19-.65C98,221.2,98.75,210,98.75,210a56.76,56.76,0,0,1-8.13,16.58c-6.65-1.1-11-1.95-10.67-2.22,12-9.82,5.77-17.71,10.35-27.38,5.49-11.59,16.31-11.74,17.54-20.93,1-7.48,2.39-21.13,12.27-22.42a18.35,18.35,0,0,1,20.27-.43c13.88,8.2,4.13,30.13,4.35,35,.31,6.9,3.08,9.79,4.17,17.79s-3.26,12.61-4.54,17.76S148.73,235.25,147.06,235Z"
            style="fill:#263238"></path>
        <path
            d="M79.93,222.63a26.5,26.5,0,0,0,4.33-6c1.14-2.14,1.21-4.51,1.15-7a73.44,73.44,0,0,1,0-7.56,19.57,19.57,0,0,1,2-7.53,17.21,17.21,0,0,1,5.12-5.92,45.06,45.06,0,0,1,6.53-3.88,28.34,28.34,0,0,0,6.11-4,13.63,13.63,0,0,0,3.79-6.2,12.68,12.68,0,0,1-3.14,6.83,25.94,25.94,0,0,1-6,4.65,56.09,56.09,0,0,0-6.14,4,16.43,16.43,0,0,0-4.49,5.38,19.21,19.21,0,0,0-1.87,6.81c-.26,2.41-.23,4.87-.32,7.39a23.84,23.84,0,0,1-.41,3.83,11,11,0,0,1-1.48,3.64A21.38,21.38,0,0,1,79.93,222.63Z"
            style="fill:#263238"></path>
        <path
            d="M147.33,163.11a37.85,37.85,0,0,1,.52,9.21c-.13,3.08-.42,6.15-.73,9.2l-.44,4.55a23.39,23.39,0,0,0-.05,4.42,24.4,24.4,0,0,0,2.76,8.37,36,36,0,0,1,1.75,4.38A21.63,21.63,0,0,1,152,208a31.31,31.31,0,0,1-.14,4.75,19,19,0,0,1-1.05,4.65c-.53,1.51-1.22,2.9-1.83,4.27a23.87,23.87,0,0,0-1.43,4.25,9.42,9.42,0,0,0,2.35,8.29,9.57,9.57,0,0,1-3.29-8.46,22.86,22.86,0,0,1,1.17-4.55c.52-1.48,1.15-2.86,1.56-4.28a24.2,24.2,0,0,0,.77-8.77,20.84,20.84,0,0,0-.87-4.28,33.06,33.06,0,0,0-1.71-4.13,45.67,45.67,0,0,1-1.81-4.33,18.85,18.85,0,0,1-1-4.71,24.2,24.2,0,0,1,.19-4.76c.17-1.54.4-3.06.63-4.58.45-3,.94-6,1.3-9.08A44.28,44.28,0,0,0,147.33,163.11Z"
            style="fill:#263238"></path>
        <path
            d="M389.64,316.89c-2.61,1-78.33,4.38-81.29,2.69-.32-.19-.23-3.54-1.35-12.18-.05-.41-1.78-2-4.48-4.28-10.12-8.49-33.92-26.38-33.92-26.38l37.79-32.83,36.62,36,9.52,9.35s30.94,14.71,34,16.91S392.25,315.89,389.64,316.89Z"
            style="fill:#eb9481"></path>
        <path
            d="M389.64,316.89c-2.61,1-78.33,4.38-81.29,2.69-.32-.19-.23-3.54-1.35-12.18-.05-.41-1.78-2-4.48-4.28,7.72-4.29,31-17.74,40.49-23.21l9.52,9.35s30.94,14.71,34,16.91S392.25,315.89,389.64,316.89Z"
            style="fill:#FFC727"></path>
        <path
            d="M323.47,316.26a11.08,11.08,0,0,0-.76-2.58,11.4,11.4,0,0,0-3.16-4.3,10.6,10.6,0,0,0-4.88-2.27,12.77,12.77,0,0,0-5.36.28c-.1,0-.05.17.05.15a11,11,0,0,1,9.63,2.71,10.81,10.81,0,0,1,2.78,4,11.49,11.49,0,0,1,.65,2.31q.09.6.12,1.2c0,.41,0,.73.28,1a.38.38,0,0,0,.54,0C323.91,318.3,323.58,316.91,323.47,316.26Z"
            style="fill:#fff"></path>
        <path
            d="M377.88,301.66a8.21,8.21,0,0,0-4.57,2,21.19,21.19,0,0,0-3.7,3.81A20.79,20.79,0,0,0,367,312a22.92,22.92,0,0,0-.87,2.4,9,9,0,0,0-.51,2.54.16.16,0,0,0,.29.07,21.24,21.24,0,0,0,.78-2.16,24.11,24.11,0,0,1,1-2.34,27.41,27.41,0,0,1,2.61-4.22,16,16,0,0,1,7.7-5.9A.35.35,0,0,0,377.88,301.66Z"
            style="fill:#fff"></path>
        <path
            d="M345.26,285.44c-9.49,5.26-18.95,10.59-28.5,15.76-2.7,1.46-5.39,3-8.12,4.38-.09.05,0,.18.08.13a300,300,0,0,0,29-14.94c2.65-1.58,5.24-3.26,7.81-4.95A.22.22,0,0,0,345.26,285.44Z"
            style="fill:#fff"></path>
        <path
            d="M309.62,304.28a.69.69,0,0,0-.1-.19l-.18-.16-.35-.3c-.25-.21-.5-.41-.76-.6-.5-.37-1-.72-1.55-1.06-.08-.05-.16.07-.09.12.48.39,1,.8,1.42,1.21l.69.6.36.32a1,1,0,0,0,.38.25A.15.15,0,0,0,309.62,304.28Z"
            style="fill:#fff"></path>
        <path
            d="M314.06,301.76a.52.52,0,0,0-.11-.19,1.37,1.37,0,0,0-.18-.16l-.34-.3c-.25-.21-.5-.41-.76-.6-.51-.37-1-.72-1.56-1.06-.07-.05-.16.07-.09.12.49.39,1,.8,1.43,1.21l.69.6.36.32a1,1,0,0,0,.38.25A.15.15,0,0,0,314.06,301.76Z"
            style="fill:#fff"></path>
        <path
            d="M318.5,299.24a.72.72,0,0,0-.11-.19l-.18-.16-.35-.3q-.36-.31-.75-.6c-.51-.37-1-.72-1.56-1.06-.07-.05-.16.07-.09.12.49.39,1,.8,1.43,1.21l.68.6c.12.1.25.21.36.32a1,1,0,0,0,.38.25A.16.16,0,0,0,318.5,299.24Z"
            style="fill:#fff"></path>
        <path
            d="M322.93,296.72a.52.52,0,0,0-.11-.19l-.18-.16-.34-.3c-.25-.2-.5-.41-.76-.6-.5-.37-1-.72-1.55-1.06-.08-.05-.17.07-.1.13.49.38,1,.79,1.43,1.2l.69.6.36.32a.87.87,0,0,0,.38.25A.15.15,0,0,0,322.93,296.72Z"
            style="fill:#fff"></path>
        <path
            d="M327.37,294.2a.52.52,0,0,0-.11-.19l-.18-.16-.35-.3c-.24-.2-.49-.41-.75-.6-.51-.37-1-.72-1.56-1.06-.07-.05-.16.07-.09.13.49.38,1,.79,1.43,1.2l.69.6.36.32a.87.87,0,0,0,.38.25A.15.15,0,0,0,327.37,294.2Z"
            style="fill:#fff"></path>
        <path
            d="M331.81,291.68a.72.72,0,0,0-.11-.19l-.18-.16-.35-.29c-.25-.21-.5-.42-.76-.61-.5-.37-1-.72-1.55-1.06-.08-.05-.16.07-.09.13.48.38,1,.79,1.42,1.2l.69.6.36.32a.93.93,0,0,0,.38.25A.15.15,0,0,0,331.81,291.68Z"
            style="fill:#fff"></path>
        <path
            d="M336.24,289.16a.52.52,0,0,0-.11-.19l-.18-.16-.34-.29c-.25-.21-.5-.42-.76-.61-.51-.37-1-.72-1.56-1.06-.07-.05-.16.07-.09.13.49.38,1,.79,1.43,1.2l.69.6.36.32a1,1,0,0,0,.38.26A.16.16,0,0,0,336.24,289.16Z"
            style="fill:#fff"></path>
        <path
            d="M340.68,286.64a.72.72,0,0,0-.11-.19l-.18-.16L340,286c-.24-.21-.49-.42-.75-.61-.51-.37-1-.72-1.56-1.06-.07,0-.16.07-.09.13.49.38,1,.79,1.43,1.2.22.21.45.4.68.6l.37.32a.92.92,0,0,0,.38.26A.16.16,0,0,0,340.68,286.64Z"
            style="fill:#fff"></path>
        <path
            d="M345.11,284.12a.69.69,0,0,0-.1-.19l-.19-.16-.34-.29-.76-.61c-.5-.37-1-.72-1.55-1.06a.08.08,0,0,0-.09.13c.48.39,1,.79,1.42,1.2l.69.6.36.32a1,1,0,0,0,.38.26A.15.15,0,0,0,345.11,284.12Z"
            style="fill:#fff"></path>
        <path
            d="M329.65,263.1l-5.83,6.65L305,291.22,294.75,303s-38-36.23-52.9-44.32h0a18.57,18.57,0,0,0-2.63-1.2h0a10.77,10.77,0,0,0-3.8.38h0c-14.9,3.39-61.3,25.3-95.29,35.07l8.08-26.3,3.57-11.67c35.9-17.69,76.34-49.46,100.79-46.5C279.05,211.62,329.65,263.1,329.65,263.1Z"
            style="fill:#455a64"></path>
        <path
            d="M320.5,260.68c-6,6.46-4.34,4.53-10.24,11.05-2.88,3.19-17.43,19.2-19.63,22.63-.05.07.06.17.13.11,3.14-2.59,17.34-18.91,20.17-22.15,5.78-6.63,4.05-4.79,9.76-11.48A.12.12,0,0,0,320.5,260.68Z"
            style="fill:#263238"></path>
        <path d="M235.34,257.8c-14.9,3.39-61.3,25.3-95.29,35.07l8.08-26.3Z" style="fill:#263238"></path>
        <path d="M305,291.22,294.75,303s-38-36.23-52.9-44.32Z" style="fill:#263238"></path>
        <path
            d="M297.05,295.29c-8.75-7.18-49.82-43.37-55.41-43.37-5.09,0-94.64,34.24-96,34.73-.1,0,0,.18,0,.15,10.63-4,93-33.84,95.68-33.75,5.59.18,54.12,41.84,55.24,42.67C296.93,295.94,297.35,295.54,297.05,295.29Z"
            style="fill:#263238"></path>
        <path
            d="M101.91,266.34s-5.59,32.29,10.56,45,134.45,11.16,152.4,5.35,18.51-34.76-1.11-41.47c-18.66-6.39-101.43-10.06-103.39-10.84s-7.7-9.94-7.7-9.94Z"
            style="fill:#455a64"></path>
        <path
            d="M126.42,265.52c0-.14-.24-.09-.24,0a15.91,15.91,0,0,1-3.73,10.26c-2.75,3.17-6.8,4.95-10.48,6.81-.35.18-.08.73.28.62a32.13,32.13,0,0,0,6.49-2.8,15.65,15.65,0,0,0,4.88-4.05A14,14,0,0,0,126.42,265.52Z"
            style="fill:#263238"></path>
        <path
            d="M158.32,265.83c-.82-1.05-1.71-2-2.56-3.06-2-2.41-4.06-4.82-6.18-7.15-.2-.22-.59.1-.41.34,1.43,1.86,2.94,3.67,4.43,5.49l2.29,2.79A17.62,17.62,0,0,1,158,267c.55,1-.18,1.92-1.25,2a3.74,3.74,0,0,1-2.58-.95,34.68,34.68,0,0,1-4.38-4.68c-.85-1-1.7-1.92-2.57-2.86s-1.9-2-2.82-3c-.05-.06-.17,0-.12.1.81,1.1,1.55,2.25,2.35,3.35s1.61,2.19,2.44,3.27,1.6,2,2.43,3a10,10,0,0,0,2.47,2.21c1.53.9,4.2,1.1,5-.89A2.78,2.78,0,0,0,158.32,265.83Z"
            style="fill:#263238"></path>
        <path
            d="M262.41,316.78c-6.18.12-12.35.48-18.53.61s-12.27.16-18.4.11q-18.47-.18-36.91-1.44c-12.42-.86-25.81-2.09-38.14-3.8-5.9-.82-11.88-1.5-17.72-2.76a27.93,27.93,0,0,1-14-7.13c-8-7.75-11.09-19.14-12.37-30-.17-1.46-.31-2.93-.43-4.39,0-.1-.16-.1-.15,0,.72,11.16,2.46,22.79,9.47,31.77a27.82,27.82,0,0,0,11.44,8.87c5.52,2.22,11.65,2.73,17.48,3.52,12.38,1.68,25.83,3,38.28,3.95s25.1,1.58,37.67,1.76,25.14,0,37.7-.61c1.53-.07,3.06-.16,4.59-.3C262.5,316.92,262.5,316.78,262.41,316.78Z"
            style="fill:#263238"></path>
        <path
            d="M130.43,210.22c19.64,12.72,36.71,19,44.67,19.42,6.43.34,35.74-3.69,37.12-4.38,3.41-1.7,4.25-27.52.37-28.81-.89-.3-25.75,8.54-36.57,10.24-2,.31-13.52-3.38-30.9-5.6-11.38-1.45-18.15-2.15-18.93,1.21C125.77,204.19,126.52,207.69,130.43,210.22Z"
            style="fill:#eb9481"></path>
        <path
            d="M210,225.75a95.77,95.77,0,0,0,12.41,1.8c3.3.12,12.8.21,13.3-3.4.34-2.47-5.24-3.18-9.18-3.77-2.07-.31-4.88-1.7-4.63-3,.44-2.35,5.8-1.44,9.44-.39,7,2,16.84,6.41,19.81,2.35,1.13-1.54-1.06-3.27-4-4.77,4.53,1.47,9.21,2.44,10.52.78a2.13,2.13,0,0,0-.25-2.91,2.83,2.83,0,0,0,2.91-1.23c.93-1.65-.18-3.46-2.07-5.12a1.59,1.59,0,0,0,1-1c1.66-4.78-14.77-13.19-19.7-13.12-14.53.18-28.82,5-28.82,5C206.42,202.55,210,225.74,210,225.75Z"
            style="fill:#eb9481"></path>
        <path
            d="M230.76,209.59c5.81.14,10.59,1.54,16.9,5.2.12.07.26-.1.14-.19-5.86-4.14-9.43-5.49-17.08-5.37C230.36,209.24,230.4,209.58,230.76,209.59Z"
            style="fill:#263238"></path>
        <path
            d="M233.78,202.65c10.39.82,16.7,6.1,23.58,9.74.1.05.17-.07.07-.13-6.41-4-11.49-9.33-23.57-10C233.5,202.24,233.42,202.62,233.78,202.65Z"
            style="fill:#263238"></path>
        <path
            d="M237.57,196.55c8.26.71,14,5.18,20.23,9.29a.14.14,0,0,0,.16-.22c-6-4.81-12-9.36-20.33-9.29C237.16,196.33,237.1,196.51,237.57,196.55Z"
            style="fill:#263238"></path>
        <path
            d="M160.31,201.7l-4.1,9.48-5.15,11.93s-13.65-5.51-21.07-11.6c-5.45-4.49-7.52-9.3-4.87-11.62a7.38,7.38,0,0,1,4.76-1.42C142.66,198.11,160.31,201.7,160.31,201.7Z"
            style="fill:#FFC727"></path>
        <path
            d="M155.63,201.56c-1.73,3.61-7.86,16.91-8,18.84,0,0,.13.1.16.07,1.29-1.44,6.65-15.07,8.06-18.82C155.88,201.58,155.66,201.49,155.63,201.56Z"
            style="fill:#263238"></path>
        <path
            d="M142.57,204.77a1,1,0,0,1,0-1.94,1,1,0,0,1,0,1.94Zm0-1.69a.72.72,0,1,0,.72.72A.72.72,0,0,0,142.57,203.08Zm-13.85.84a1,1,0,0,1,0-1.94,1,1,0,0,1,0,1.94Zm0-1.69a.72.72,0,1,0,.72.72A.72.72,0,0,0,128.72,202.23Zm26.87,6.68a1,1,0,0,1,0-1.94,1,1,0,0,1,0,1.94Zm0-1.69a.72.72,0,1,0,.72.72A.72.72,0,0,0,155.59,207.22Zm-19.86.46a1,1,0,1,1,1-1A1,1,0,0,1,135.73,207.68Zm0-1.69a.72.72,0,1,0,.72.72A.73.73,0,0,0,135.73,206Zm12.45,5.76a1,1,0,1,1,1-1A1,1,0,0,1,148.18,211.75Zm0-1.7a.73.73,0,1,0,.72.72A.72.72,0,0,0,148.18,210.05Zm2.14-6.7a1,1,0,1,1,1-1A1,1,0,0,1,150.32,203.35Zm0-1.69a.72.72,0,1,0,.72.72A.72.72,0,0,0,150.32,201.66Zm-15.09-.51a1,1,0,0,1,0-1.94,1,1,0,0,1,0,1.94Zm0-1.69a.72.72,0,1,0,.72.72A.72.72,0,0,0,135.23,199.46Zm4.82,15.4a1,1,0,0,1,0-1.94,1,1,0,0,1,0,1.94Zm0-1.69a.72.72,0,1,0,.72.72A.72.72,0,0,0,140.05,213.17Z"
            style="fill:#fff"></path>
        <path d="M156.21,211.18l-5.15,11.93s-13.65-5.51-21.07-11.6c-5.45-4.49-7.52-9.3-4.87-11.62Z"
            style="fill:#263238"></path>
        <path
            d="M162,260.19c-.8,2.82-16.93,11.52-36,14.68-.31.05-.64.11-1,.15a75.43,75.43,0,0,1-19.7.64c-.37,0-.74-.07-1.12-.13a57.53,57.53,0,0,1-7-1.35s.69-15.21,2.61-30.75c0-.3.06-.59.11-.89,1.07-8.59,2.53-17.19,4.45-23.33A44.84,44.84,0,0,1,112.18,204a21.08,21.08,0,0,1,4.92-4.41c.09-.07.19-.12.28-.18h0c4.34-2.62,9.4-2.94,15,.36a43.8,43.8,0,0,1,5.65,4.3c5.41,4.65,15.08,16.5,16.46,19.95,2.27,5.71-1.69,13.16-1.69,13.16Z"
            style="fill:#FFC727"></path>
        <path
            d="M136.57,235.14a1,1,0,1,1,1-1A1,1,0,0,1,136.57,235.14Zm0-1.69a.72.72,0,1,0,.72.72A.72.72,0,0,0,136.57,233.45Zm11.68,13a1,1,0,1,1,1-1A1,1,0,0,1,148.25,246.49Zm0-1.69a.72.72,0,1,0,.72.72A.72.72,0,0,0,148.25,244.8Zm-10.48-18.33a1,1,0,1,1,1-1A1,1,0,0,1,137.77,226.47Zm0-1.69a.72.72,0,1,0,.72.72A.72.72,0,0,0,137.77,224.78Zm3.13-4.12a1,1,0,1,1,1-1A1,1,0,0,1,140.9,220.66Zm0-1.69a.72.72,0,1,0,.72.72A.73.73,0,0,0,140.9,219Zm6.73,0a1,1,0,1,1,1-1A1,1,0,0,1,147.63,219Zm0-1.69a.72.72,0,1,0,.72.72A.72.72,0,0,0,147.63,217.28Zm-17.22,6.26a1,1,0,1,1,1-1A1,1,0,0,1,130.41,223.54Zm0-1.69a.72.72,0,1,0,.72.72A.72.72,0,0,0,130.41,221.85Zm4.82-12.48a1,1,0,1,1,1-1A1,1,0,0,1,135.23,209.37Zm0-1.69a.72.72,0,1,0,.72.72A.72.72,0,0,0,135.23,207.68Zm-8.18,4.3a1,1,0,1,1,1-1A1,1,0,0,1,127.05,212Zm0-1.7a.73.73,0,1,0,.72.73A.73.73,0,0,0,127.05,210.28Zm6.61,6.45a1,1,0,1,1,1-1A1,1,0,0,1,133.66,216.73Zm0-1.69a.72.72,0,0,0,0,1.44.72.72,0,1,0,0-1.44Zm7.64-1a1,1,0,1,1,1-1A1,1,0,0,1,141.3,214Zm0-1.69a.72.72,0,1,0,.72.72A.72.72,0,0,0,141.3,212.33Zm-26.61,9.52a1,1,0,1,1,1-1A1,1,0,0,1,114.69,221.85Zm0-1.7a.73.73,0,0,0,0,1.45.73.73,0,0,0,0-1.45ZM113,206.84a1,1,0,1,1,1-1A1,1,0,0,1,113,206.84Zm0-1.7a.73.73,0,1,0,.73.72A.73.73,0,0,0,113,205.14Zm-7.06,18.4a1,1,0,1,1,1-1A1,1,0,0,1,105.93,223.54Zm0-1.69a.72.72,0,1,0,.72.72A.72.72,0,0,0,105.93,221.85Zm14.12,13.29a1,1,0,1,1,1-1A1,1,0,0,1,120.05,235.14Zm0-1.69a.72.72,0,1,0,.72.72A.72.72,0,0,0,120.05,233.45ZM119.21,254a1,1,0,1,1,1-1A1,1,0,0,1,119.21,254Zm0-1.69a.72.72,0,1,0,.72.72A.72.72,0,0,0,119.21,252.29Zm-15.12,9a1,1,0,1,1,1-1A1,1,0,0,1,104.09,261.29Zm0-1.7a.73.73,0,1,0,.72.73A.73.73,0,0,0,104.09,259.59Zm2.28,13.59a1,1,0,0,1,0-1.94,1,1,0,0,1,0,1.94Zm0-1.69a.72.72,0,1,0,.72.72A.72.72,0,0,0,106.37,271.49Zm5.23-32.2a1,1,0,1,1,1-1A1,1,0,0,1,111.6,239.29Zm0-1.7a.73.73,0,0,0,0,1.45.73.73,0,0,0,0-1.45Zm-.85,18.29a1,1,0,1,1,1-1A1,1,0,0,1,110.75,255.88Zm0-1.7a.73.73,0,1,0,.72.73A.73.73,0,0,0,110.75,254.18Zm7.91,15.4a1,1,0,1,1,0-1.94,1,1,0,1,1,0,1.94Zm0-1.69a.72.72,0,1,0,.72.72A.72.72,0,0,0,118.66,267.89Zm-18.36,1.69a1,1,0,1,1,1-1A1,1,0,0,1,100.3,269.58Zm0-1.69a.72.72,0,1,0,.72.72A.72.72,0,0,0,100.3,267.89Zm0-13.46a1,1,0,1,1,0-1.94,1,1,0,0,1,0,1.94Zm0-1.69a.72.72,0,1,0,.72.72A.72.72,0,0,0,100.3,252.74ZM103,241.61a1,1,0,1,1,1-1A1,1,0,0,1,103,241.61Zm0-1.69a.72.72,0,1,0,.72.72A.72.72,0,0,0,103,239.92Zm46.1-1.48a1,1,0,0,1,0-1.94,1,1,0,0,1,0,1.94Zm0-1.69a.72.72,0,1,0,.72.72A.72.72,0,0,0,149.09,236.75Zm-.84,18.53a1,1,0,1,1,1-1A1,1,0,0,1,148.25,255.28Zm0-1.69a.72.72,0,1,0,.72.72A.72.72,0,0,0,148.25,253.59Zm8.5,10.21a1,1,0,0,1,0-1.94,1,1,0,0,1,0,1.94Zm0-1.69a.72.72,0,1,0,.72.72A.72.72,0,0,0,156.75,262.11Zm-12.53,4.59a1,1,0,1,1,1-1A1,1,0,0,1,144.22,266.7Zm0-1.7a.73.73,0,0,0,0,1.45.73.73,0,0,0,0-1.45Zm-22-20.47a1,1,0,1,1,1-1A1,1,0,0,1,122.22,244.53Zm0-1.69a.72.72,0,1,0,.72.72A.72.72,0,0,0,122.22,242.84Zm13,11.59a1,1,0,1,1,1-1A1,1,0,0,1,135.23,254.43Zm0-1.69a.72.72,0,1,0,.72.72A.72.72,0,0,0,135.23,252.74Zm-21.6,23a1,1,0,1,1,1-1A1,1,0,0,1,113.63,275.75Zm0-1.69a.72.72,0,0,0,0,1.44.72.72,0,0,0,0-1.44Zm15.42-35.62a1,1,0,1,1,1-1A1,1,0,0,1,129.05,238.44Zm0-1.69a.72.72,0,1,0,.72.72A.72.72,0,0,0,129.05,236.75Zm-1.16,13.95a1,1,0,1,1,1-1A1,1,0,0,1,127.89,250.7Zm0-1.69a.72.72,0,1,0,.72.72A.72.72,0,0,0,127.89,249Zm-9.23,12.83a1,1,0,1,1,1-1A1,1,0,0,1,118.66,261.84Zm0-1.69a.72.72,0,1,0,.72.72A.72.72,0,0,0,118.66,260.15Zm8.39,8.24a1,1,0,1,1,1-1A1,1,0,0,1,127.05,268.39Zm0-1.69a.72.72,0,1,0,0,1.44.72.72,0,1,0,0-1.44ZM124,274.48a1,1,0,1,1,1-1A1,1,0,0,1,124,274.48Zm0-1.7a.73.73,0,1,0,.72.72A.73.73,0,0,0,124,272.78Zm17.72-31.51a1,1,0,1,1,1-1A1,1,0,0,1,141.69,241.27Zm0-1.69a.72.72,0,1,0,0,1.44.72.72,0,0,0,0-1.44Zm13.42,8.59a1,1,0,1,1,0-1.94,1,1,0,0,1,0,1.94Zm0-1.69a.72.72,0,1,0,.72.72A.72.72,0,0,0,155.11,246.48Zm-11.29-13.6a1,1,0,1,1,0-1.94,1,1,0,1,1,0,1.94Zm0-1.69a.72.72,0,1,0,.72.72A.72.72,0,0,0,143.82,231.19Zm2.67-4.27a1,1,0,1,1,1-1A1,1,0,0,1,146.49,226.92Zm0-1.69a.72.72,0,1,0,.72.72A.72.72,0,0,0,146.49,225.23Zm6.36-.45a1,1,0,1,1,1-1A1,1,0,0,1,152.85,224.78Zm0-1.7a.73.73,0,1,0,.73.73A.73.73,0,0,0,152.85,223.08Zm-.84,8.33a1,1,0,1,1,1-1A1,1,0,0,1,152,231.41Zm0-1.69a.72.72,0,1,0,.72.72A.72.72,0,0,0,152,229.72Zm-23.27,1a1,1,0,1,1,1-1A1,1,0,0,1,128.74,230.68Zm0-1.7a.73.73,0,1,0,.72.73A.73.73,0,0,0,128.74,229Zm-6.17-10a1,1,0,1,1,1-1A1,1,0,0,1,122.57,219Zm0-1.69a.72.72,0,1,0,.72.72A.72.72,0,0,0,122.57,217.28ZM117,214a1,1,0,0,1,0-1.94,1,1,0,0,1,0,1.94Zm0-1.69a.72.72,0,1,0,.72.72A.72.72,0,0,0,117,212.33Zm4.41,15a1,1,0,1,1,1-1A1,1,0,0,1,121.38,227.31Zm0-1.69a.72.72,0,1,0,0,1.44.72.72,0,1,0,0-1.44ZM109.52,215a1,1,0,1,1,1-1A1,1,0,0,1,109.52,215Zm0-1.7a.73.73,0,1,0,.72.72A.72.72,0,0,0,109.52,213.34Zm11.38-4.81a1,1,0,1,1,1-1A1,1,0,0,1,120.9,208.53Zm0-1.69a.72.72,0,1,0,.72.72A.72.72,0,0,0,120.9,206.84Zm7.3-2.65a1,1,0,1,1,1-1A1,1,0,0,1,128.2,204.19Zm0-1.69a.72.72,0,1,0,.72.72A.72.72,0,0,0,128.2,202.5Zm-7.67-1.09a1,1,0,0,1,0-1.94,1,1,0,0,1,0,1.94Zm0-1.69a.72.72,0,1,0,.72.72A.72.72,0,0,0,120.53,199.72Zm-6,46.51a1,1,0,1,1,1-1A1,1,0,0,1,114.48,246.23Zm0-1.7a.73.73,0,1,0,.72.72A.72.72,0,0,0,114.48,244.53ZM113,229.26a1,1,0,1,1,1-1A1,1,0,0,1,113,229.26Zm0-1.69a.72.72,0,1,0,.73.72A.72.72,0,0,0,113,227.57Zm-8.31,4.69a1,1,0,1,1,1-1A1,1,0,0,1,104.68,232.26Zm0-1.7a.73.73,0,1,0,.72.72A.72.72,0,0,0,104.68,230.56Zm1.25,18.86a1,1,0,1,1,1-1A1,1,0,0,1,105.93,249.42Zm0-1.69a.72.72,0,1,0,.72.72A.72.72,0,0,0,105.93,247.73Zm5.28,19a1,1,0,1,1,1-1A1,1,0,0,1,111.21,266.7Zm0-1.7a.73.73,0,1,0,.72.73A.73.73,0,0,0,111.21,265Zm23.18-19.62a1,1,0,1,1,1-1A1,1,0,0,1,134.39,245.38Zm0-1.69a.72.72,0,1,0,.72.72A.72.72,0,0,0,134.39,243.69Zm-6.5,16.75a1,1,0,1,1,0-1.94,1,1,0,0,1,0,1.94Zm0-1.69a.72.72,0,1,0,.72.72A.72.72,0,0,0,127.89,258.75Zm7.84,5.05a1,1,0,1,1,1-1A1,1,0,0,1,135.73,263.8Zm0-1.69a.72.72,0,1,0,.72.72A.73.73,0,0,0,135.73,262.11Zm5.57-12.25a1,1,0,1,1,1-1A1,1,0,0,1,141.3,249.86Zm0-1.69a.72.72,0,1,0,.72.72A.72.72,0,0,0,141.3,248.17Zm.44,10.93a1,1,0,1,1,1-1A1,1,0,0,1,141.74,259.1Zm0-1.69a.72.72,0,1,0,.72.72A.72.72,0,0,0,141.74,257.41Zm14.47-1.53a1,1,0,1,1,1-1A1,1,0,0,1,156.21,255.88Zm0-1.7a.73.73,0,1,0,.73.73A.73.73,0,0,0,156.21,254.18ZM150.32,261a1,1,0,1,1,1-1A1,1,0,0,1,150.32,261Zm0-1.69a.72.72,0,0,0,0,1.44.72.72,0,0,0,0-1.44Zm-15.81,12a1,1,0,1,1,1-1A1,1,0,0,1,134.51,271.27Zm0-1.69a.72.72,0,1,0,.72.72A.72.72,0,0,0,134.51,269.58Z"
            style="fill:#fff"></path>
        <path
            d="M126,274.87c-.31.05-.64.11-1,.15a75.43,75.43,0,0,1-19.7.64c-.37,0-.74-.07-1.12-.13a57.53,57.53,0,0,1-7-1.35s.69-15.21,2.61-30.75c0-.3.06-.59.11-.89,1.07-8.59,2.53-17.19,4.45-23.33A44.84,44.84,0,0,1,112.18,204a21.08,21.08,0,0,1,4.92-4.41Z"
            style="fill:#263238"></path>
        <path
            d="M187.5,238.19c1.46,3.7-9.37,6.92-11.85,8.28s-2.59,2.18-1,2.43a4.39,4.39,0,0,0,1,0c-4.39.77-19.68,1.43-19.68,1.43s7-5.88,10.93-8.43S186,234.48,187.5,238.19Z"
            style="fill:#eb9481"></path>
        <path
            d="M106.88,209.61c-13.19,17.92-26.06,51.16-17.47,57.24C101,275,136.65,279.72,164.8,279.12c3.9-.09-.36-29.54-4.52-29.67-5.25-.15-45.18-1.43-46.22-2.51-.88-.93,1.86-15.84,3.2-31.43C118.82,197.29,110.65,204.48,106.88,209.61Z"
            style="fill:#eb9481"></path>
        <path
            d="M209.89,215.81a4.73,4.73,0,0,1,3.9-3.33c3.32-.62,9.61-1.71,10.94-2.19l2.13.15-19.42,41.64-15,3.63-30-12.41L179,203.47l2.16.12s3.78,1.73,7,2.83S202.54,209.39,209.89,215.81Z"
            style="fill:#fff"></path>
        <polygon points="189.49 256.49 207.25 216.26 177.73 202.89 160.5 244.06 189.49 256.49" style="fill:#37474f">
        </polygon>
        <polygon points="189.49 256.49 193.94 257.29 211.75 217.07 207.25 216.26 189.49 256.49" style="fill:#263238">
        </polygon>
        <polygon points="193.94 257.29 211.75 217.07 227.82 210.17 207.89 252.55 193.94 257.29" style="fill:#37474f">
        </polygon>
        <path
            d="M201.33,249.67c1.14,3.33-3.5,6.42-3.82,6.63.29-.16,4.62-2.39,5.5,1s-2.83,7-2.83,7,1.8.17,1.34,2.95c-.68,4-8.32,8.14-12.83,9.37s-21.93,2.4-24.6,2.53L156,250.29s15.29-.66,19.68-1.43l.07,0a75.55,75.55,0,0,0,9.09-1.92c4.68-1.48,9.62-7.28,11.69-4.29,1.86,2.68-2,6.37-2,6.37S200.17,246.22,201.33,249.67Z"
            style="fill:#eb9481"></path>
        <path
            d="M194.27,249.08c-5.68,4.78-9,5.88-16.22,6.87-.14,0-.14.24,0,.23,7.17-.33,11.52-1.12,16.45-6.83C194.75,249.07,194.54,248.86,194.27,249.08Z"
            style="fill:#263238"></path>
        <path
            d="M197.7,256.05c-6.33,4.44-9.91,5.67-17.4,7.26-.11,0-.08.21,0,.19,7.49-.94,11.81-1.83,17.55-7.1C198.13,256.16,198,255.84,197.7,256.05Z"
            style="fill:#263238"></path>
        <path
            d="M200.07,264.31c-6.43,3.86-10.3,5.38-17.77,6a.14.14,0,0,0,0,.28c7.69.11,12.52-1.75,17.87-6.06C200.54,264.23,200.48,264.07,200.07,264.31Z"
            style="fill:#263238"></path>
        <path
            d="M91.82,232.47l25.92-.73s1.71-12.44,1.44-21.09c-.18-5.66-.86-10.92-1.57-11.19-.93-.36-4.67,1.74-8.09,5.56A104.31,104.31,0,0,0,91.82,232.47Z"
            style="fill:#FFC727"></path>
        <path
            d="M104.09,219.81a1,1,0,0,1,0-1.94,1,1,0,0,1,0,1.94Zm0-1.69a.72.72,0,1,0,.72.72A.72.72,0,0,0,104.09,218.12Zm3.53-6.14a1,1,0,1,1,1-1A1,1,0,0,1,107.62,212Zm0-1.7a.73.73,0,1,0,.72.73A.73.73,0,0,0,107.62,210.28Zm8.81,13.32a1,1,0,1,1,1-1A1,1,0,0,1,116.43,223.6Zm0-1.7a.73.73,0,1,0,.72.73A.73.73,0,0,0,116.43,221.9Zm-17.82,2.48a1,1,0,1,1,1-1A1,1,0,0,1,98.61,224.38Zm0-1.69a.72.72,0,1,0,.72.72A.73.73,0,0,0,98.61,222.69ZM109,226.43a1,1,0,1,1,1-1A1,1,0,0,1,109,226.43Zm0-1.69a.72.72,0,1,0,.72.72A.72.72,0,0,0,109,224.74Zm2.13-6.71a1,1,0,1,1,1-1A1,1,0,0,1,111.15,218Zm0-1.69a.72.72,0,1,0,.73.72A.73.73,0,0,0,111.15,216.34Zm-16.4,15.41a1,1,0,1,1,1-1A1,1,0,0,1,94.75,231.75Zm0-1.7a.73.73,0,1,0,.72.72A.72.72,0,0,0,94.75,230.05Zm19.09,1.19a1,1,0,1,1,1-1A1,1,0,0,1,113.84,231.24Zm0-1.69a.72.72,0,1,0,.72.72A.72.72,0,0,0,113.84,229.55ZM113,205.61a1,1,0,1,1,1-1A1,1,0,0,1,113,205.61Zm0-1.69a.72.72,0,1,0,.73.72A.72.72,0,0,0,113,203.92Zm3.14,9.4a1,1,0,1,1,1-1A1,1,0,0,1,116.13,213.32Zm0-1.7a.73.73,0,1,0,.72.73A.73.73,0,0,0,116.13,211.62Zm-14.4,18.21a1,1,0,1,1,1-1A1,1,0,0,1,101.73,229.83Zm0-1.69a.72.72,0,1,0,.72.72A.72.72,0,0,0,101.73,228.14Z"
            style="fill:#fff"></path>
        <path
            d="M116.72,227.69a171.34,171.34,0,0,0-21.93.24c-.05,0-.05.17,0,.17,6,.27,17.94,0,21.94-.17C116.79,227.93,116.8,227.69,116.72,227.69Z"
            style="fill:#263238"></path>
        <path
            d="M118.23,200.47c.38,1.14,6.63,8.16,11.91,7.42,1.72-.25.8-9.7.8-9.7l.1-.71,1.27-10-12.17-6.3-1.75-.82s-.17,2.75-.35,6.18l0,.49c0,.2,0,.38,0,.56,0,.51-.07,1-.09,1.56s0,.78,0,1.2,0,.83,0,1.25A66.3,66.3,0,0,0,118.23,200.47Z"
            style="fill:#eb9481"></path>
        <path d="M118,186.55a20.21,20.21,0,0,0,13,10.93l1.27-10-12.17-6.3-1.75-.82S118.22,183.12,118,186.55Z"
            style="fill:#263238"></path>
        <path
            d="M145.87,173.2c.56,17.66-10,20-13.76,20.11-3.46.1-15.24,0-17.62-17.48s5.64-23.35,13.53-24S145.3,155.54,145.87,173.2Z"
            style="fill:#eb9481"></path>
        <path
            d="M142.52,170.62a12,12,0,0,1-1.18-.3,2,2,0,0,1-1.15-.53.65.65,0,0,1,0-.77,1.55,1.55,0,0,1,1.55-.3,2.28,2.28,0,0,1,1.41.86A.68.68,0,0,1,142.52,170.62Z"
            style="fill:#263238"></path>
        <path
            d="M130.29,170.53a9.4,9.4,0,0,0,1.2-.21,1.93,1.93,0,0,0,1.19-.44.63.63,0,0,0,0-.77,1.56,1.56,0,0,0-1.52-.42,2.31,2.31,0,0,0-1.47.75A.67.67,0,0,0,130.29,170.53Z"
            style="fill:#263238"></path>
        <path
            d="M132.47,175.07s-.09.06-.09.11c0,1.2-.16,2.58-1.25,3,0,0,0,.07,0,.06C132.47,178.05,132.69,176.21,132.47,175.07Z"
            style="fill:#263238"></path>
        <path d="M131.42,173.8c-1.93-.17-2.14,3.7-.35,3.87S133,174,131.42,173.8Z" style="fill:#263238"></path>
        <path
            d="M130.65,174c-.35.21-.71.58-1.12.59s-.81-.4-1.09-.81c0,0-.07,0-.07,0-.05.75.19,1.52,1,1.68s1.28-.49,1.5-1.23C130.9,174.09,130.79,173.88,130.65,174Z"
            style="fill:#263238"></path>
        <path
            d="M140,174.93c0-.05.09.06.08.11-.11,1.2,0,2.59,1,3.06,0,0,0,.07,0,.06C139.81,177.89,139.73,176.05,140,174.93Z"
            style="fill:#263238"></path>
        <path d="M141.18,173.74c1.94,0,1.85,3.86,0,3.88S139.55,173.76,141.18,173.74Z" style="fill:#263238"></path>
        <path
            d="M142,174c.3.21.6.59,1,.62s.75-.37,1-.77c0,0,.06,0,.06,0,0,.74-.26,1.51-1,1.64s-1.12-.53-1.28-1.28C141.75,174.14,141.86,173.93,142,174Z"
            style="fill:#263238"></path>
        <path
            d="M132.57,184.32c.26.31.51.72.94.8a3.08,3.08,0,0,0,1.31-.17,0,0,0,0,1,.05.07,1.62,1.62,0,0,1-1.58.49,1.26,1.26,0,0,1-.84-1.15C132.44,184.29,132.53,184.27,132.57,184.32Z"
            style="fill:#263238"></path>
        <path
            d="M137.78,180.19s.17,1.8.13,2.65c0,.08-.21.11-.49.11,0,0,0,0,0,0a4,4,0,0,1-3.84-1.67c-.06-.08.05-.16.13-.11a6,6,0,0,0,3.63,1.21c.07-.23-.4-3.08-.27-3.09a7.11,7.11,0,0,1,1.91.52c-.25-3.77-1.1-7.47-1.3-11.23a.12.12,0,0,1,.23-.05,62,62,0,0,1,1.91,12C139.83,181.05,138.11,180.34,137.78,180.19Z"
            style="fill:#263238"></path>
        <path
            d="M115.71,176.64c4.17,0,4.08-6.57,4.08-6.57s4.72-.48,5-8.11a11.57,11.57,0,0,0,8.73,5.47c1.36.18-3.22-3.29-3.22-3.29s5.5,4.88,15.59,2.92c.71-.14-.91-10.79-8.87-14.36s-15.1-1.44-20,3.61c0,0-5.79,2.73-6.39,8.24S114.09,176.64,115.71,176.64Z"
            style="fill:#263238"></path>
        <path d="M117.33,177.1s-3.54-5.72-6.12-4.48S111.1,182,114,183.25a3,3,0,0,0,4.09-1.39Z" style="fill:#eb9481">
        </path>
        <path
            d="M112,174.93a0,0,0,0,0,0,.08c2,1,3,2.91,3.64,4.93a1.65,1.65,0,0,0-2.44-.58c-.06,0,0,.12,0,.11a1.85,1.85,0,0,1,2,.75,8.75,8.75,0,0,1,.88,1.69c.08.19.42.11.36-.11a.43.43,0,0,1,0-.05C116.61,179.13,114.78,175.35,112,174.93Z"
            style="fill:#263238"></path>
    </g>
    <g id="freepik--Shelf--inject-103">
        <rect x="64.51" y="320" width="370.99" height="12.18" style="fill:#a6a6a6"></rect>
    </g>
    <g id="freepik--Plant--inject-103">
        <path
            d="M127,341.86c-3.72-3.64-8.53-8-14.21-6.47-5.35,1.48-7.4,7.31-8.35,12.18-1.24,6.27-2.2,12.6-3.19,18.91s-2,12.75-2.87,19.14q-.78,5.4-1.53,10.81-.39,2.71-.76,5.41c-.24,1.77-.54,3.54-.63,5.32,0,.57.86.65,1,.11.69-3,1-6.13,1.42-9.19s.88-6.14,1.33-9.2q1.35-9.15,2.74-18.29c.91-6.09,1.87-12.18,2.84-18.27.82-5.16,1.21-11.58,5.79-15a8.83,8.83,0,0,1,8.56-.8c3,1.15,5.41,3.3,7.77,5.44C127,342,127.08,341.93,127,341.86Z"
            style="fill:#263238"></path>
        <path
            d="M121.92,338.14s-7.6-2.74-11.35,2.81.73,19.66,35.34,27.62a97.79,97.79,0,0,0-8.33-31.29C130.16,321.1,116.94,327.23,121.92,338.14Z"
            style="fill:#FFC727"></path>
        <path
            d="M143.92,366.26a28,28,0,0,0-1.74-2.81c-.58-.89-1.17-1.78-1.76-2.66-.44-.67-.9-1.33-1.35-2,0-.16,0-.33.06-.5l.12-.9c.09-.65.18-1.29.28-1.94s.2-1.29.32-1.93a9.91,9.91,0,0,1,.46-2c0-.1-.14-.15-.16,0a6.64,6.64,0,0,1-.31,1.14c-.08.29-.15.59-.23.88-.17.65-.33,1.31-.47,2s-.26,1.23-.36,1.84c-.05.3-.09.59-.13.89-.62-.88-1.25-1.75-1.9-2.61-1.84-2.42-3.78-4.75-5.79-7,0,0,0,0,0-.06.18-3.64.09-7.24.9-10.82,0-.09-.13-.15-.15-.05A37.33,37.33,0,0,0,130.45,348q-1.08-1.22-2.19-2.4-2.52-2.73-5.16-5.35a.08.08,0,0,0-.11.11c2.92,3.14,5.69,6.41,8.38,9.74a60.58,60.58,0,0,0-6.32.23c-2.35.18-4.68.48-7,.8-.1,0-.07.17,0,.15a65.69,65.69,0,0,1,7-.62c2.25-.1,4.5,0,6.76,0,1.45,1.8,2.9,3.62,4.32,5.46h-.33c-.53,0-1.06,0-1.59,0-1,0-2.1.1-3.15.19a47.58,47.58,0,0,0-6.39,1,.08.08,0,0,0,0,.15c2.13-.24,4.26-.43,6.4-.51,1,0,2,0,3.06,0h1.59a2.06,2.06,0,0,0,.87-.08c.93,1.21,1.87,2.41,2.79,3.63.73,1,1.46,1.94,2.17,2.92s1.38,2.11,2.19,3.05A.08.08,0,0,0,143.92,366.26Z"
            style="fill:#263238"></path>
        <path
            d="M125.23,346a22.88,22.88,0,0,0-3.7-.18c-1.24,0-2.47,0-3.71.08a.08.08,0,1,0,0,.15c1.25-.09,2.51-.11,3.76-.09s2.42.13,3.63.1C125.26,346.06,125.27,346,125.23,346Z"
            style="fill:#263238"></path>
        <path
            d="M136.09,348.79c.14-1.18.29-2.37.54-3.53a.08.08,0,1,0-.15,0c-.18,1.17-.4,2.32-.57,3.49-.09.58-.17,1.16-.24,1.75a7.61,7.61,0,0,0-.14,1.65.1.1,0,0,0,.2,0,10,10,0,0,0,.18-1.64C136,349.91,136,349.35,136.09,348.79Z"
            style="fill:#263238"></path>
        <path
            d="M133.81,335.69c-.3,1.15-.6,2.32-.81,3.49-.11.59-.2,1.19-.28,1.79a7.33,7.33,0,0,0-.12,1.75s.08,0,.09,0a10.28,10.28,0,0,0,.28-1.66c.07-.58.16-1.15.26-1.72.21-1.21.43-2.41.73-3.59C134,335.65,133.84,335.6,133.81,335.69Z"
            style="fill:#263238"></path>
        <path
            d="M88.75,405.88c-.19-2.18-.4-4.35-.63-6.53q-.69-6.47-1.56-12.91c-.58-4.28-1.13-8.57-1.82-12.84a31.35,31.35,0,0,0-1.32-5.83,5.51,5.51,0,0,0-3.23-3.65c-4.07-1.4-6.82,2.82-8.46,5.81,0,.09.08.15.14.07,1-1.41,3.7-5.39,6.79-5.2,2.08.12,3.74,1.6,4.74,6.78,2.49,12.91,4.73,39.11,5,40.83.14.91.78.87.78-.11C89.19,410.16,88.94,408,88.75,405.88Z"
            style="fill:#263238"></path>
        <path
            d="M72.83,368.32s3.56-12.57-4.31-6.28C55.42,372.5,55,395.25,55,395.25s23.28-13.52,26.17-22.44C85.45,359.52,72.83,368.32,72.83,368.32Z"
            style="fill:#FFC727"></path>
        <path
            d="M77.24,374.49c-1.83.37-3.68.61-5.53.88l-2.62.37c-.59.08-1.19.13-1.78.21,1.73-2.39,3.48-4.77,5.15-7.21.06-.09-.09-.19-.16-.11a52.4,52.4,0,0,0-3.89,4.49c-.34-1-.69-1.95-1-2.92-.4-1.13-.82-2.25-1.11-3.41,0-.09-.18-.05-.15,0,.32,1.15.54,2.33.85,3.48s.64,2.22,1,3.3q-1.27,1.67-2.46,3.39c-.4-1.14-.9-2.24-1.25-3.39a.08.08,0,0,0-.15.05c.42,1.27.64,2.6,1,3.88-.53.78-1.07,1.56-1.58,2.35-.94,1.45-1.82,2.93-2.69,4.42a.35.35,0,0,0-.2.35c-1.47,2.55-2.87,5.13-4.25,7.73-.05.09.09.17.13.08,1.39-2.57,2.92-5.08,4.52-7.54h0a4.26,4.26,0,0,1,.76-.15l.8-.17c.61-.13,1.2-.29,1.8-.44,1.18-.29,2.35-.57,3.55-.78.1,0,0-.16,0-.14-1.41.26-2.82.42-4.24.59-.68.08-1.35.16-2,.27h-.09c.84-1.27,1.68-2.53,2.54-3.78s1.72-2.44,2.59-3.65c.81-.11,1.61-.32,2.41-.48l2.7-.52c1.8-.36,3.6-.76,5.41-1.06C77.38,374.62,77.33,374.47,77.24,374.49Z"
            style="fill:#263238"></path>
        <path
            d="M63.24,375.73c-.1-.33-.2-.67-.31-1a19.73,19.73,0,0,1-.53-2.11c0-.1-.17-.05-.15.05.15.71.31,1.41.48,2.12a13.85,13.85,0,0,0,.6,2.09c.07.16.32.1.27-.08C63.5,376.44,63.36,376.08,63.24,375.73Z"
            style="fill:#263238"></path>
        <path
            d="M79.62,371.58c-1.06.16-2.14.23-3.2.33s-2.14.24-3.2.4c-.06,0-.06.1,0,.09,1.07-.07,2.13-.15,3.2-.29s2.13-.3,3.2-.37C79.72,371.73,79.71,371.56,79.62,371.58Z"
            style="fill:#263238"></path>
        <path
            d="M105.88,390c-.41-9.25-1-18.49-1.93-27.7-.46-4.59-1-9.18-1.63-13.74a97.34,97.34,0,0,0-2.65-13.31,25.51,25.51,0,0,0-4.42-9.37,10.08,10.08,0,0,0-9-3.91c-4,.5-7.31,3.05-10.13,5.82-3.16,3.11-6.06,6.51-9,9.84-.74.84-1.48,1.68-2.21,2.54-.06.07,0,.18.12.1,2.86-3.29,5.84-6.49,9-9.54,2.88-2.83,5.85-5.92,9.83-7.09a10.09,10.09,0,0,1,5.71-.13A9.16,9.16,0,0,1,93.49,326a20.59,20.59,0,0,1,4.4,8.56c2.49,8.5,3.38,17.42,4.3,26.2.94,8.93,1.57,17.87,2,26.83s.8,18,1.67,27c.11,1.11.25,2.21.39,3.32.1.74,1.25.74,1.19,0C106.73,408.56,106.3,399.27,105.88,390Z"
            style="fill:#263238"></path>
        <path
            d="M75.66,328.77s5.28-9.78-1-12.92S47.56,336,41.46,370.14c0,0,33.75-14.93,45.21-29.81S85.13,322.18,75.66,328.77Z"
            style="fill:#FFC727"></path>
        <path
            d="M80.62,336.72c-3.79,0-7.57-.29-11.37-.26.71-.82,1.42-1.63,2.14-2.44a36,36,0,0,0,3-3.45c0-.08-.07-.19-.14-.13a27.87,27.87,0,0,0-2.87,2.88c-.95,1-1.9,2-2.84,3-1.45,1.57-2.87,3.16-4.29,4.76v-2.45c0-1.29,0-2.57,0-3.86,0-2.61,0-5.23.2-7.83,0-.1-.15-.1-.15,0-.19,2.62-.46,5.22-.58,7.84-.07,1.29-.1,2.58-.11,3.86,0,.67,0,1.33,0,2,0,.36,0,.74,0,1.11l-.67.75c-3,3.46-5.91,7-8.71,10.67,0-.2,0-.4-.05-.6,0-.4-.08-.8-.13-1.2-.1-.87-.22-1.74-.35-2.61s-.25-1.62-.39-2.43-.37-1.84-.44-2.76c0-.11-.18-.09-.15,0a23.64,23.64,0,0,1,.31,2.78c.08.84.16,1.67.23,2.5l.24,2.51.12,1.2c0,.2,0,.41.07.61a1.13,1.13,0,0,0,.17.47c-.48.63-1,1.26-1.44,1.89-1.92,2.53-3.8,5.09-5.68,7.65,0,.08.06.19.12.11,1.78-2.32,3.61-4.6,5.46-6.86,1.39.06,2.81,0,4.2-.07s2.92,0,4.39,0c.1,0,.09-.16,0-.16-1.46,0-2.92,0-4.39,0s-2.69-.06-4,0q2.44-3,4.94-5.92l1.81-2.15a8.69,8.69,0,0,0,1.69.06h2c1.25,0,2.49,0,3.74,0,2.57,0,5.15-.12,7.73-.13.1,0,.09-.16,0-.16-2.58,0-5.15-.14-7.73-.21-1.25,0-2.5-.07-3.75-.08l-2,0c-.38,0-.77,0-1.16,0,1.42-1.68,2.83-3.37,4.26-5a.16.16,0,0,0,.07-.09c1.39-1.64,2.77-3.27,4.17-4.89.19-.22.39-.43.58-.66,3.93.13,7.86-.13,11.79-.06C80.73,336.88,80.72,336.72,80.62,336.72Z"
            style="fill:#263238"></path>
        <path d="M78.68,343.42h-.92c-.09,0-.08.14,0,.14h.92C78.79,343.58,78.78,343.42,78.68,343.42Z"
            style="fill:#263238"></path>
        <path
            d="M76.64,343.44,73,343.36l-1.82-.06a6.82,6.82,0,0,0-1.69,0c-.06,0,0,.1,0,.11a6.44,6.44,0,0,0,1.7.12l1.82,0c1.21,0,2.43,0,3.64,0A.07.07,0,0,0,76.64,343.44Z"
            style="fill:#263238"></path>
        <path
            d="M66,354.82a51.83,51.83,0,0,0-7.46-.67s0,.05,0,.06c2.48.23,5,.37,7.42.77C66.09,355,66.13,354.84,66,354.82Z"
            style="fill:#263238"></path>
        <path
            d="M55.89,344c0-.22,0-.44-.08-.65-.06-.49-.14-1-.22-1.46-.14-.93-.31-1.86-.48-2.78,0-.08-.17-.06-.16,0,.12.95.22,1.91.31,2.86.05.47.08.94.12,1.41a4,4,0,0,0,.19,1.34.18.18,0,0,0,.33-.05A2.06,2.06,0,0,0,55.89,344Z"
            style="fill:#263238"></path>
        <path
            d="M105.55,316.21c-1.21-2.25-2.74-5.22-5.76-5-2.49.15-3.61,2.69-4.14,4.79-1.65,6.5-1.76,13.35-2.08,20-.68,14.07-1.29,28.15-1.38,42.24q0,5.85,0,11.71c0,4,0,8,.28,12a.29.29,0,0,0,.58,0c0-3.4-.1-6.81-.11-10.22s0-6.64.07-10q.15-10.1.54-20.19c.24-6.68.54-13.37.82-20.05q.21-5,.43-10c.15-3.23.29-6.47.66-9.69.21-1.8.47-3.61.85-5.38a7.43,7.43,0,0,1,1.56-3.61,3.4,3.4,0,0,1,4.4-.32,9.3,9.3,0,0,1,3.12,3.89C105.46,316.38,105.6,316.3,105.55,316.21Z"
            style="fill:#263238"></path>
        <path
            d="M104.73,315.13s-2.47-8.75,3-4.37c9.13,7.28,9.45,23.13,9.45,23.13S101,324.47,99,318.26C95.94,309,104.73,315.13,104.73,315.13Z"
            style="fill:#FFC727"></path>
        <path
            d="M113.77,327.4c-.15-.25-.31-.48-.46-.72a4.7,4.7,0,0,0,0-.75c0-.37,0-.75,0-1.13,0-.74,0-1.48.08-2.22,0-.1-.15-.09-.15,0,0,.72-.07,1.45-.09,2.17,0,.37,0,.73,0,1.09,0,.14,0,.31,0,.47-.64-1-1.29-2-2-2.93-.19-.28-.4-.55-.6-.83a16.94,16.94,0,0,1-.05-2.85c0-1,0-2,.07-3.06,0-.1-.16-.09-.16,0,0,1.06-.08,2.11-.14,3.17,0,.75-.1,1.51-.06,2.27-1.57-2.13-3.23-4.19-4.91-6.23-.05-.07-.17,0-.12.1,1,1.32,2,2.67,3,4-1.91-.45-3.85-.7-5.79-1-.1,0-.14.13,0,.15,2.06.31,4.07.82,6.1,1.27h0l2.31,3.3.92,1.35h-.09L111,325c-.45-.06-.9-.09-1.35-.13-.94-.07-1.87-.12-2.81-.17-.1,0-.1.15,0,.15.93,0,1.84.09,2.76.19l1.45.18.63.08.19,0,1.56,2.3c.91,1.35,1.73,2.8,2.71,4.11a.08.08,0,0,0,.13-.08A44,44,0,0,0,113.77,327.4Z"
            style="fill:#263238"></path>
        <path
            d="M109.73,317.51c0-.34,0-.68,0-1a17.1,17.1,0,0,1,.08-2.15c0-.11-.15-.13-.15,0,0,.71-.08,1.42-.11,2.13,0,.35,0,.71,0,1.06V318a1.43,1.43,0,0,0,0,.51.07.07,0,0,0,.13,0,1.49,1.49,0,0,0,0-.47C109.73,317.86,109.73,317.69,109.73,317.51Z"
            style="fill:#263238"></path>
        <path
            d="M107.73,321.13c-.61-.1-1.22-.13-1.83-.18s-1.34-.12-2-.2a.08.08,0,1,0,0,.15c1.28.08,2.55.31,3.83.36A.07.07,0,0,0,107.73,321.13Z"
            style="fill:#263238"></path>
        <path
            d="M112.82,321.19c.05.06,0,.26,0,.33v.29c0,.2,0,.4,0,.61V323a1.23,1.23,0,0,0,0,.54,0,0,0,0,0,.06,0,.51.51,0,0,0,0-.25V323c0-.21,0-.41,0-.61v-.9c0-.09,0-.26,0-.34S112.72,321,112.82,321.19Z"
            style="fill:#263238"></path>
        <path
            d="M105.93,362.92c-3.41-2.56-6.48-6.24-11.06-6.42-3.79-.15-6.44,2.7-8,5.87a33.54,33.54,0,0,0-1.86,5.23c-.68,2.4-1.33,4.8-1.93,7.22q-1.78,7.14-3,14.39c-.46,2.69-.89,5.4-1.23,8.11a68,68,0,0,0-.79,8.3.43.43,0,0,0,.84.09c.47-2.27.66-4.61,1-6.9s.69-4.61,1.08-6.9q1.17-6.9,2.71-13.72c1-4.29,1.94-8.64,3.33-12.82,1-3,2.58-6.5,5.82-7.57,4.92-1.64,9.39,2.53,13,5.23C105.9,363.09,106,363,105.93,362.92Z"
            style="fill:#263238"></path>
        <path
            d="M102.4,360.47s-3.15-9,1.4-10.74c6.82-2.64,24.65,17.45,21.16,48.23,0,0-13.78-7.59-24-16.13s-12.78-19.7-8.29-22.58S102.4,360.47,102.4,360.47Z"
            style="fill:#FFC727"></path>
        <path
            d="M122.9,391.36a23.71,23.71,0,0,0-1.66-3.1c-.58-1.05-1.17-2.1-1.78-3.14-1.18-2-2.36-4.06-3.57-6.07l-.6-1c0-.12,0-.24.08-.36l.2-.89c.15-.67.27-1.34.39-2,.25-1.31.48-2.65.83-3.94,0-.1-.13-.13-.15,0-.28,1.32-.7,2.61-1.09,3.9-.19.64-.39,1.27-.56,1.91l-.17.66c-1.47-2.4-3-4.79-4.56-7.1a3.48,3.48,0,0,0,.16-1c0-.45.1-.9.15-1.35.12-1,.24-2,.39-3a55.67,55.67,0,0,1,1.08-5.9c0-.1-.13-.12-.16,0-.49,1.94-1,3.88-1.39,5.84-.18,1-.35,1.94-.48,2.91-.07.48-.12,1-.17,1.46,0,.14,0,.29,0,.44-.5-.7-1-1.4-1.51-2.08-1.57-2.07-3.2-4.09-4.85-6.1-.06-.08-.19,0-.13.09a106.78,106.78,0,0,1,7.75,11.32l1.34,2.17-.44,0c-.58-.08-1.16-.11-1.74-.17q-1.74-.17-3.48-.3c-2.32-.18-4.65-.33-7-.57-.1,0-.13.14,0,.15,2.35.27,4.68.64,7,1l3.45.46a13.55,13.55,0,0,0,2.66.27l2.73,4.45c-.2,0-.41,0-.61,0h-3.32l-4.48,0c-.1,0-.09.15,0,.15,1.52,0,3,.1,4.54.18l2.15.13,1.08.08a2.28,2.28,0,0,0,.94,0q1.17,1.89,2.33,3.78c.71,1.16,1.43,2.32,2.17,3.47a27.11,27.11,0,0,0,2.34,3.51C122.81,391.51,122.94,391.46,122.9,391.36Z"
            style="fill:#263238"></path>
        <path
            d="M116.33,366.49a22.61,22.61,0,0,1-.61,2.92c-.26,1-.55,2-.87,3a.1.1,0,1,0,.19.06c.3-1,.57-1.95.81-2.93s.4-2,.64-3C116.51,366.41,116.35,366.38,116.33,366.49Z"
            style="fill:#263238"></path>
        <path
            d="M106.21,372.5a1.12,1.12,0,0,0-.75-.28l-1.3-.18c-.81-.11-1.62-.2-2.43-.29-1.67-.2-3.36-.36-5-.58-.1,0-.13.15,0,.16,1.58.19,3.16.43,4.74.64.77.1,1.55.21,2.33.3l1.12.13a3.85,3.85,0,0,1,1.27.21A.07.07,0,0,0,106.21,372.5Z"
            style="fill:#263238"></path>
        <path
            d="M116.31,386c-.79-.06-1.59-.09-2.39-.11l-1.2,0-.58,0a3.78,3.78,0,0,1-.75,0c-.11,0-.12.17,0,.15a4.12,4.12,0,0,1,.7,0l.62,0,1.21.07c.79,0,1.59.1,2.38.1A.09.09,0,0,0,116.31,386Z"
            style="fill:#263238"></path>
        <path
            d="M121.17,382.59c.09-.45.17-.9.26-1.35.16-.89.32-1.78.49-2.67a.08.08,0,0,0-.16,0c-.19.86-.39,1.73-.58,2.59-.1.43-.2.86-.29,1.3l-.12.6a1.7,1.7,0,0,0-.07.63c0,.08.12.14.17.06A3.37,3.37,0,0,0,121.17,382.59Z"
            style="fill:#263238"></path>
        <polygon points="119.33 409.12 118.57 421.84 116.3 459.4 69.86 459.4 67.6 421.84 66.83 409.12 119.33 409.12"
            style="fill:#455a64"></polygon>
        <polygon points="119.33 409.12 118.57 421.84 67.6 421.84 66.83 409.12 119.33 409.12" style="fill:#263238">
        </polygon>
        <rect x="63.28" y="400.12" width="59.61" height="12.73" style="fill:#455a64"></rect>
    </g>
    <g id="freepik--Table--inject-103">
        <rect x="284.85" y="388.08" width="166.96" height="11.28" style="fill:#37474f"></rect>
        <polygon
            points="319.15 399.37 314.97 409.56 294.56 459.43 289.33 459.43 303.06 409.56 305.86 399.37 319.15 399.37"
            style="fill:#37474f"></polygon>
        <polygon points="305.86 399.37 319.15 399.37 314.97 409.56 303.06 409.56 305.86 399.37" style="fill:#263238">
        </polygon>
        <polygon points="447.33 459.43 442.1 459.43 421.69 409.56 417.52 399.37 430.8 399.37 433.6 409.56 447.33 459.43"
            style="fill:#37474f"></polygon>
        <polygon points="433.6 409.56 421.69 409.56 417.52 399.37 430.8 399.37 433.6 409.56" style="fill:#263238">
        </polygon>
    </g>
    <g id="freepik--Device--inject-103">
        <rect x="323.67" y="384.82" width="72.66" height="3.26" style="fill:#455a64"></rect>
        <rect x="359.76" y="384.82" width="36.57" height="3.26" style="fill:#263238"></rect>
        <polygon points="363.69 388.08 434.5 388.08 443.76 339.98 372.95 339.98 363.69 388.08" style="fill:#455a64">
        </polygon>
        <path
            d="M399.42,364a3.88,3.88,0,0,0,3.93,4.31A4.8,4.8,0,0,0,408,364a3.89,3.89,0,0,0-3.94-4.31A4.79,4.79,0,0,0,399.42,364Z"
            style="fill:#263238"></path>
    </g>
    <g id="freepik--Mug--inject-103">
        <rect x="317.77" y="386.04" width="13.05" height="2.04" style="fill:#FFC727"></rect>
        <rect x="317.77" y="386.04" width="13.05" height="1.34" style="fill:#263238"></rect>
        <path
            d="M302.29,380.57a7.37,7.37,0,0,0,7.34,3.14,7.62,7.62,0,0,0,1.33-.38,9.64,9.64,0,0,0,1.84-1l-1.66-2.46a5.2,5.2,0,0,1-1,.56,4.34,4.34,0,0,1-5.46-1.6c-1.78-2.52-2.42-8.26-.61-10.46.12-.17.64-.43,2.74,0l1.33.32a5.07,5.07,0,0,0,1.19.26l0-1.48.15-1.47a5.77,5.77,0,0,1-.63-.16,20,20,0,0,0-3-.62c-1.55-.16-3.17,0-4.16,1.25C298.85,370.12,300.05,377.42,302.29,380.57Z"
            style="fill:#FFC727"></path>
        <path d="M311.14,379.9a5.2,5.2,0,0,1-1,.56l.8,2.87a9.64,9.64,0,0,0,1.84-1Z" style="fill:#263238"></path>
        <path
            d="M306,365.27l.87,3.15,1.33.32a5.07,5.07,0,0,0,1.19.26l0-1.48.15-1.47a5.77,5.77,0,0,1-.63-.16A20,20,0,0,0,306,365.27Z"
            style="fill:#263238"></path>
        <path
            d="M341.65,361.43s-1.57,13.29-4.27,18.89-6.48,6.22-8.82,6.22H320c-2.34,0-6.12-.63-8.82-6.22s-4.27-18.89-4.27-18.89Z"
            style="fill:#FFC727"></path>
        <path
            d="M339.1,370.18a.88.88,0,1,1,.88-.88A.88.88,0,0,1,339.1,370.18Zm0-1.51a.63.63,0,1,0,0,1.26.63.63,0,0,0,0-1.26Zm-24.73-2.78a.89.89,0,1,1,0-1.77.89.89,0,0,1,0,1.77Zm0-1.52a.64.64,0,0,0-.64.63.64.64,0,0,0,.64.64A.64.64,0,0,0,315,365,.63.63,0,0,0,314.37,364.37Zm1.23,13.77a.89.89,0,1,1,.89-.89A.88.88,0,0,1,315.6,378.14Zm0-1.52a.63.63,0,0,0-.63.63.64.64,0,0,0,.63.64.64.64,0,0,0,.64-.64A.64.64,0,0,0,315.6,376.62Zm-6.81-12.92a.89.89,0,1,1,0-1.77.89.89,0,0,1,0,1.77Zm0-1.52a.64.64,0,0,0-.64.63.64.64,0,0,0,.64.64.64.64,0,0,0,.63-.64A.63.63,0,0,0,308.79,362.18Zm11.64,6.72a.89.89,0,1,1,.88-.88A.89.89,0,0,1,320.43,368.9Zm0-1.52a.64.64,0,0,0-.64.64.64.64,0,0,0,.64.63.63.63,0,0,0,.63-.63A.64.64,0,0,0,320.43,367.38Zm9.08,10.41a.89.89,0,1,1,.88-.89A.88.88,0,0,1,329.51,377.79Zm0-1.52a.63.63,0,0,0-.63.63.63.63,0,1,0,1.26,0A.63.63,0,0,0,329.51,376.27ZM324,363.7a.89.89,0,1,1,0-1.77.89.89,0,0,1,0,1.77Zm0-1.52a.64.64,0,0,0-.64.63.64.64,0,0,0,.64.64.64.64,0,0,0,.63-.64A.63.63,0,0,0,324,362.18Zm-1,12.26a.89.89,0,0,1,0-1.77.89.89,0,1,1,0,1.77Zm0-1.52a.64.64,0,0,0-.63.64.63.63,0,0,0,.63.63.64.64,0,0,0,.64-.63A.64.64,0,0,0,322.92,372.92Zm-8.28,11.52a.89.89,0,1,1,.88-.88A.89.89,0,0,1,314.64,384.44Zm0-1.52a.64.64,0,0,0-.64.64.64.64,0,0,0,.64.63.63.63,0,0,0,.63-.63A.64.64,0,0,0,314.64,382.92ZM335,365a.89.89,0,1,1,.88-.88A.89.89,0,0,1,335,365Zm0-1.52a.64.64,0,0,0-.64.64.64.64,0,0,0,1.27,0A.64.64,0,0,0,335,363.43Zm-23.32,8.73a.89.89,0,0,1,0-1.77.89.89,0,1,1,0,1.77Zm0-1.52a.64.64,0,0,0-.63.64.63.63,0,0,0,.63.63.64.64,0,0,0,.64-.63A.64.64,0,0,0,311.64,370.64Zm17.11-1a.89.89,0,0,1,0-1.77.89.89,0,1,1,0,1.77Zm0-1.52a.64.64,0,0,0-.63.64.63.63,0,0,0,.63.63.64.64,0,0,0,.64-.63A.64.64,0,0,0,328.75,368.14Zm-5.83,15a.89.89,0,0,1,0-1.77.89.89,0,1,1,0,1.77Zm0-1.52a.64.64,0,0,0-.63.64.63.63,0,0,0,.63.63.64.64,0,0,0,.64-.63A.64.64,0,0,0,322.92,381.66Zm7,4.54a.89.89,0,1,1,.89-.89A.89.89,0,0,1,330,386.2Zm0-1.52a.63.63,0,0,0-.63.63.64.64,0,0,0,.63.64.64.64,0,0,0,.64-.64A.64.64,0,0,0,330,384.68Zm5-11a.89.89,0,1,1,.88-.88A.88.88,0,0,1,335,373.68Zm0-1.52a.64.64,0,0,0-.64.64.64.64,0,0,0,1.27,0A.64.64,0,0,0,335,372.16Zm.75,9.06a.89.89,0,1,1,.89-.89A.89.89,0,0,1,335.71,381.22Zm0-1.52a.64.64,0,1,0,.64.63A.64.64,0,0,0,335.71,379.7Z"
            style="fill:#fff"></path>
    </g>
</svg>