<svg xmlns="http://www.w3.org/2000/svg" viewBox="0 0 750 500"><g id="freepik--background-complete--inject-215"><rect x="548.46" y="18.67" width="64.12" height="462.14" style="fill:#ebebeb"></rect><rect x="529.64" y="14.45" width="101.76" height="13.76" rx="6.67" style="fill:#ebebeb"></rect><rect x="669.5" y="210.62" width="48.65" height="12.87" style="fill:#ebebeb"></rect><path d="M697.58,237.05s0-.09,0-.24l0-.66c0-.6,0-1.45,0-2.53,0-2.22,0-5.42-.08-9.44l.15.15-48.65.09c.11-.11-.25.25.25-.24h0v3.27c0,1.09,0,2.17,0,3.25v6.33l-.24-.25,34.67.11,10.23.07,2.77,0h.72a1.33,1.33,0,0,1,.26,0h-.22l-.7,0-2.71,0-10.18.07-34.84.11h-.24v-.24c0-2.07,0-4.19,0-6.33V224.2h0l.25-.25,48.65.09h.15v.15c0,4.06-.06,7.29-.08,9.53,0,1.07,0,1.9,0,2.5,0,.26,0,.47,0,.63A.85.85,0,0,1,697.58,237.05Z" style="fill:#e0e0e0"></path><path d="M427.9,192.49H378.25V178.62H427.9Zm-48.65-1H426.9V179.62H379.25Z" style="fill:#e0e0e0"></path><path d="M86.37,187.73a2.07,2.07,0,0,1,0-.23c0-.17,0-.39,0-.66,0-.61,0-1.45,0-2.54,0-2.22,0-5.41-.09-9.44l.15.15-48.65.1.25-.25h0v6.52q0,3.22,0,6.33l-.24-.24,34.67.11,10.24.07,2.76,0,.73,0h.25s-.07,0-.22,0h-.7l-2.71,0-10.18.07L37.72,188h-.24v-.24q0-3.1,0-6.33v-6.52h0l.25-.25,48.65.1h.16v.15c0,4.07-.06,7.29-.08,9.53,0,1.07,0,1.91,0,2.5v.64C86.38,187.67,86.38,187.74,86.37,187.73Z" style="fill:#ebebeb"></path><path d="M66.48,108.85a20.46,20.46,0,0,0-7.75,15.7c-.38,19.79-3.88,67,.11,88C64,239.71,132.9,457.31,132.9,457.31l97.52-18.52S216.73,243.38,213,211.29,182.71,95.19,166.29,88.94C166.29,88.94,113.87,71.38,66.48,108.85Z" style="fill:#f5f5f5"></path><path d="M147,105.12s0,.13.1.39.13.66.24,1.15c.2,1,.5,2.54.89,4.48.76,3.94,1.88,9.67,3.28,16.9v.05c-1.26,7.52-2.83,16.8-4.61,27.37v.06l0,0L135.26,169l.06-.17c1.47,14.15,3.11,29.94,4.85,46.63l0,.24-.23,0-5.71,1.09-2.52.47-.23.05-.07-.23c-4.47-16-8.72-31.22-12.55-45l.13.15L104,165.06l-.06,0,0-.06L89.65,141.87v-.07c-1.12-8.89-2-16-2.63-20.8-.28-2.41-.49-4.27-.64-5.55L86.23,114a4.52,4.52,0,0,1,0-.49s.31,2.62,1,7.45,1.59,11.91,2.78,20.79l0-.07c4,6.54,8.86,14.3,14.3,23.06l-.09-.08,15.06,7.22.1,0,0,.11c3.84,13.71,8.11,28.92,12.59,44.93l-.29-.19,2.51-.47,5.71-1.09-.21.28c-1.72-16.68-3.34-32.48-4.8-46.64v-.1l.07-.07,11.6-13.4,0,.1c1.83-10.56,3.43-19.84,4.73-27.35v.06c-1.34-7.24-2.41-13-3.14-16.93-.36-2-.63-3.45-.82-4.49l-.2-1.16C147,105.26,147,105.12,147,105.12Z" style="fill:#e0e0e0"></path><polygon points="215.06 233.25 72.05 260.42 65.33 237.35 212.92 209.31 215.06 233.25" style="fill:#e0e0e0"></polygon><path d="M126.23,250.13s42.17,200.44,43.48,200.19l18.37-3.49L156.86,244.31Z" style="fill:#e0e0e0"></path><path d="M135.26,169.44s-.22-.21-.53-.64a12.85,12.85,0,0,0-1.43-1.69,5,5,0,0,0-2.82-1.38,11.45,11.45,0,0,0-4,.2,10.58,10.58,0,0,0-6.12,3.61,9.35,9.35,0,0,0-1.4,2.66,2.1,2.1,0,0,1,.1-.83,6.61,6.61,0,0,1,1-2.05,9.29,9.29,0,0,1,2.47-2.33,11.52,11.52,0,0,1,3.84-1.56,11.25,11.25,0,0,1,4.14-.18,5.24,5.24,0,0,1,3,1.6,10.1,10.1,0,0,1,1.34,1.84A2.55,2.55,0,0,1,135.26,169.44Z" style="fill:#e0e0e0"></path><path d="M133,148a15.44,15.44,0,0,1-2.7,1c-1.7.56-4.06,1.25-6.71,1.89s-5.07,1.1-6.83,1.37a13.7,13.7,0,0,1-2.87.31,18.43,18.43,0,0,1,2.8-.67c1.74-.37,4.14-.88,6.78-1.52s5-1.27,6.72-1.73A17.3,17.3,0,0,1,133,148Z" style="fill:#e0e0e0"></path><path d="M128.88,147.13c0,.09-.85-.1-2.21-.15a14.44,14.44,0,0,0-5.18.79,13.58,13.58,0,0,0-4.51,2.64,8,8,0,0,0-1.34,1.71,3.06,3.06,0,0,1,1.08-2,12.12,12.12,0,0,1,4.6-2.87,12.67,12.67,0,0,1,5.38-.67A5.84,5.84,0,0,1,128.88,147.13Z" style="fill:#e0e0e0"></path><path d="M129.78,151.17a4.21,4.21,0,0,1-1.21,1.29,11.44,11.44,0,0,1-3.78,2,11.57,11.57,0,0,1-4.26.47,4.14,4.14,0,0,1-1.73-.39,18.92,18.92,0,0,0,5.83-.58A18.63,18.63,0,0,0,129.78,151.17Z" style="fill:#e0e0e0"></path><path d="M142,135a23,23,0,0,1-1.2,4.75,23.55,23.55,0,0,1-1.71,4.59,24.15,24.15,0,0,1,1.21-4.75A22.87,22.87,0,0,1,142,135Z" style="fill:#e0e0e0"></path><path d="M105.33,151.08a44.23,44.23,0,0,1-3.5-3.75,44.15,44.15,0,0,1-3.43-3.8,18.08,18.08,0,0,1,3.82,3.45A17.7,17.7,0,0,1,105.33,151.08Z" style="fill:#e0e0e0"></path><path d="M96.74,133.47a11.15,11.15,0,0,1,1.1.19c.72.12,1.76.18,3.06.34a11.52,11.52,0,0,0,4.46.13c1.63-.4,3-1.81,4.23-3.32l0,.36-.36-.32a9.2,9.2,0,0,0-2.43-1.6,4.88,4.88,0,0,0-2.62-.32,12.53,12.53,0,0,0-4.29,1.69,9.64,9.64,0,0,0-2.46,1.94c-.49.56-.68.93-.72.91a2.7,2.7,0,0,1,.56-1,8.76,8.76,0,0,1,2.43-2.12,12.1,12.1,0,0,1,4.42-1.86,5.32,5.32,0,0,1,2.87.33,9.75,9.75,0,0,1,2.58,1.67c.12.12.25.23.37.33l.19.17-.17.19c-1.27,1.52-2.7,3-4.52,3.45a11.34,11.34,0,0,1-4.63-.23c-1.27-.2-2.32-.32-3-.5A3.06,3.06,0,0,1,96.74,133.47Z" style="fill:#e0e0e0"></path><path d="M109.44,124.53c0,.08-.82-.54-2.21-1.22a6.18,6.18,0,0,0-2.58-.58,14.61,14.61,0,0,0-3.28.44,16.83,16.83,0,0,0-5.47,2.52c-1.28.9-2,1.6-2,1.54a6.93,6.93,0,0,1,1.79-1.83,14.76,14.76,0,0,1,5.57-2.73,13.49,13.49,0,0,1,3.42-.42,6.06,6.06,0,0,1,2.73.73A9.3,9.3,0,0,1,109,124C109.29,124.33,109.46,124.51,109.44,124.53Z" style="fill:#e0e0e0"></path><path d="M139.41,125.36s-.25.33-.85.75-1.53.93-2.64,1.59a11.31,11.31,0,0,1-4.22,1.9c-1.84.29-3.74-.6-5.47-1.54l-.23-.13.12-.22.23-.44a9.31,9.31,0,0,1,1.78-2.5,5.3,5.3,0,0,1,2.55-1.36,12.18,12.18,0,0,1,4.79.11,8.78,8.78,0,0,1,3,1.08,2.81,2.81,0,0,1,.9.76s-.34-.24-1-.58a9.68,9.68,0,0,0-3-.9,12.33,12.33,0,0,0-4.62,0,4.85,4.85,0,0,0-2.31,1.26,9.05,9.05,0,0,0-1.67,2.38c-.08.14-.16.29-.22.42l-.11-.34c1.73,1,3.49,1.77,5.16,1.53a11.47,11.47,0,0,0,4.1-1.74c1.15-.63,2.1-1.07,2.71-1.44S139.39,125.33,139.41,125.36Z" style="fill:#e0e0e0"></path><path d="M124.32,121.71s.06-.25.27-.64a10.27,10.27,0,0,1,1.06-1.56,6.13,6.13,0,0,1,2.28-1.68,13.43,13.43,0,0,1,3.33-.86,14.88,14.88,0,0,1,6.18.49,6.79,6.79,0,0,1,2.34,1.05c0,.08-.92-.33-2.44-.69a16.59,16.59,0,0,0-6-.34,14.79,14.79,0,0,0-3.21.79,6,6,0,0,0-2.19,1.49C124.88,120.89,124.4,121.76,124.32,121.71Z" style="fill:#e0e0e0"></path><path d="M144.81,106.1s-.78-.38-2.24-.92a29.89,29.89,0,0,0-6.41-1.51c-2.75-.38-6.09-.57-9.77-.79a52.8,52.8,0,0,0-5.77,0,40.38,40.38,0,0,0-6.12.9,128,128,0,0,0-20.72,6.75c-2.58,1.09-4.63,2-6,2.71l-1.63.77a2.92,2.92,0,0,1-.58.24,2.32,2.32,0,0,1,.53-.33c.36-.2.89-.5,1.59-.86,1.39-.72,3.42-1.73,6-2.86a115.9,115.9,0,0,1,20.76-6.92,40,40,0,0,1,6.2-.91,51.07,51.07,0,0,1,5.82,0c3.7.25,7,.48,9.81.9a27.54,27.54,0,0,1,6.42,1.69,13.84,13.84,0,0,1,1.64.78A2.32,2.32,0,0,1,144.81,106.1Z" style="fill:#e0e0e0"></path><path d="M85.48,115.61a15.66,15.66,0,0,1-2.93.3c-1.82.11-4.34.19-7.12.17s-5.3-.13-7.12-.26a15.4,15.4,0,0,1-2.93-.34,16.57,16.57,0,0,1,3,0l7.1.11,7.1,0A17.19,17.19,0,0,1,85.48,115.61Z" style="fill:#e0e0e0"></path><path d="M163.29,94.18a101.91,101.91,0,0,1-8.48,5.69,98.09,98.09,0,0,1-8.75,5.24,100.08,100.08,0,0,1,8.47-5.68A100.34,100.34,0,0,1,163.29,94.18Z" style="fill:#e0e0e0"></path><polygon points="72.36 104.49 89.65 112.39 92.22 111.01 76.89 101.51 72.36 104.49" style="fill:#e0e0e0"></polygon><polygon points="88.67 95.12 98.35 108.46 100.69 107.59 93.13 93.16 88.67 95.12" style="fill:#e0e0e0"></polygon><polygon points="107.72 105.28 102.43 89.42 107.75 88.11 110.51 104.49 107.72 105.28" style="fill:#e0e0e0"></polygon><polygon points="115.48 86.64 117.35 102.91 120.47 102.62 120.21 85.74 115.48 86.64" style="fill:#e0e0e0"></polygon><path d="M126.19,102.63s3.42-17.94,3.42-17.94l7,.14-6.75,18Z" style="fill:#e0e0e0"></path><path d="M137.74,103.74c.11-.49,11-18.23,11-18.23l7.72,1.11c.21,0-15.68,17.84-15.68,17.84Z" style="fill:#e0e0e0"></path><polygon points="86.85 121.22 58.73 124.55 58.59 129.47 87.66 125.49 86.85 121.22" style="fill:#e0e0e0"></polygon><polygon points="58.2 139.6 88.9 135.02 89.38 139.61 57.94 145.58 58.2 139.6" style="fill:#e0e0e0"></polygon><path d="M57.61,153.78c0,.13-.22,6-.22,6l39.17-7.07-3-4.92Z" style="fill:#e0e0e0"></path><polygon points="57.12 169.22 56.99 176.12 106.98 166.28 104.05 164.87 102.1 161.71 57.12 169.22" style="fill:#e0e0e0"></polygon><polygon points="56.95 184.99 119.9 174.53 122.1 181.46 57.98 193.65 56.95 184.99" style="fill:#e0e0e0"></polygon><polygon points="147.95 110.22 177.45 101.59 179.91 106.33 148.76 114.49 147.95 110.22" style="fill:#e0e0e0"></polygon><polygon points="184.22 115.39 150.26 123.09 151.5 127.53 186.65 120.86 184.22 115.39" style="fill:#e0e0e0"></polygon><path d="M190.41,130.15l2.42,5.52-44.21,8.82,1-5.69Z" style="fill:#e0e0e0"></path><polygon points="195.13 142.55 196.77 148.6 144.53 157.9 146.74 154.66 147.39 151.01 195.13 142.55" style="fill:#e0e0e0"></polygon><polygon points="199.85 156.81 135.53 170.89 136.05 178.14 202.51 165.52 199.85 156.81" style="fill:#e0e0e0"></polygon><path d="M122.4,140.59a6.65,6.65,0,0,1-1.53.37c-1,.2-2.38.45-4.05.73l-.27.05v-.28c0-1.48,0-3.13.08-4.88.07-2.92.16-5.56.25-7.47a16.86,16.86,0,0,1,.26-3.09,18.39,18.39,0,0,1,.11,3.1c0,1.91,0,4.55-.1,7.47,0,1.75-.1,3.4-.14,4.88l-.27-.24c1.68-.24,3.09-.42,4.08-.54A6.62,6.62,0,0,1,122.4,140.59Z" style="fill:#e0e0e0"></path><path d="M690.27,419s29.5-30,17.56-77.73l-34.49,9.41s2.44-31.55,9-40.78H645.08s6.56,12.88,8.67,40.5c0,0-33.48-9.6-34.18-9.6S603.65,386,636.66,418l-8.2,9.36s6.56,29.5,17.8,43.31c0,0,2.57,7.5-3.75,9.84h42.84a7.09,7.09,0,0,1-5.15-7.26s14.52-22.94,18-44.72Zm-49.39-4c-23.38-26.49-15.58-64.68-15.58-64.68l29.21,6.67,2.74,46.32Zm28.76-11.69,2.73-46.32,29.22-6.67s7.79,38.19-15.59,64.68Z" style="fill:#f5f5f5"></path><polygon points="653.38 346.17 673.76 346.17 674.1 343.06 653.05 343.06 653.38 346.17" style="fill:#e0e0e0"></polygon><path d="M633.19,444h61a145.78,145.78,0,0,1-5.67,13.79H638.58S633.14,447.05,633.19,444Z" style="fill:#e0e0e0"></path><path d="M698.77,428.81c0,.15-15.8.26-35.29.26s-35.3-.11-35.3-.26,15.8-.26,35.3-.26S698.77,428.67,698.77,428.81Z" style="fill:#e0e0e0"></path><path d="M674.19,339.73c0,.14-4.88.26-10.9.26s-10.9-.12-10.9-.26,4.88-.26,10.9-.26S674.19,339.59,674.19,339.73Z" style="fill:#e0e0e0"></path><rect x="236.22" y="114.2" width="48.65" height="12.87" style="fill:#ebebeb"></rect><path d="M264.3,140.63a1.35,1.35,0,0,1,0-.24v-.66c0-.6,0-1.45,0-2.53,0-2.22-.05-5.42-.08-9.44l.15.15-48.65.09.24-.24h0v12.85l-.24-.25,34.67.11,10.23.07,2.77,0H264l.26,0h-.23l-.69,0-2.71,0-10.18.07-34.84.11h-.25V127.78h0c.49-.5.14-.14.25-.25l48.65.1h.15v.15c0,4.06-.06,7.29-.08,9.53,0,1.07,0,1.9,0,2.5,0,.26,0,.47,0,.63A1.66,1.66,0,0,1,264.3,140.63Z" style="fill:#e0e0e0"></path></g><g id="freepik--Plant--inject-215"><path d="M663,425.43a10.37,10.37,0,0,1,5.4,6.11,18.41,18.41,0,0,1,.72,8.28c-.61,5.38-3.66,10.8-6.95,15.1-4.53-3.95-5.57-10.84-5.88-14.37-.49-5.58,2-15.95,6.71-15.12" style="fill:#455a64"></path><path d="M667.47,463.79a8.88,8.88,0,0,1,2.87-8.45,11.82,11.82,0,0,1,8.7-2.72,5,5,0,0,1,3.82,1.72,3.79,3.79,0,0,1,.06,3.85,7.69,7.69,0,0,1-2.85,2.81c-3.92,2.46-8.17,4.12-12.6,2.79" style="fill:#455a64"></path><path d="M661.66,480.27a7.48,7.48,0,0,1,.17-1.1l.54-3a31.35,31.35,0,0,1,3.08-9.53,19.19,19.19,0,0,1,6.85-7.28,13.08,13.08,0,0,1,2.79-1.23,7.6,7.6,0,0,1,.8-.2c.19,0,.28-.06.29,0a19.29,19.29,0,0,0-3.74,1.71,19.68,19.68,0,0,0-6.64,7.23,33.64,33.64,0,0,0-3.16,9.4c-.27,1.25-.49,2.26-.67,3A5.3,5.3,0,0,1,661.66,480.27Z" style="fill:#263238"></path><path d="M661.83,433.5a1.5,1.5,0,0,1,.06.48c0,.36.05.82.08,1.38.07,1.21.14,2.95.21,5.1.14,4.31.25,10.26.22,16.84s-.19,12.53-.37,16.83c-.09,2.16-.17,3.9-.25,5.1q-.06.86-.09,1.38a3.26,3.26,0,0,1-.06.49,2.76,2.76,0,0,1,0-.49c0-.36,0-.82,0-1.39,0-1.25.07-3,.12-5.1.11-4.3.23-10.25.26-16.82s0-12.52-.11-16.83c0-2.12-.06-3.85-.08-5.1,0-.57,0-1,0-1.39A2.58,2.58,0,0,1,661.83,433.5Z" style="fill:#263238"></path><path d="M659.64,467.06a20.8,20.8,0,0,0-11.35-15.23c-1.51-.72-3.49-1.19-4.73-.07s-1,3.15-.36,4.72a17.73,17.73,0,0,0,16.33,11" style="fill:#455a64"></path><path d="M649,456.93a6.47,6.47,0,0,1,1,.42,12.23,12.23,0,0,1,1.09.58c.4.25.89.5,1.38.87s1,.72,1.58,1.19a19.07,19.07,0,0,1,1.68,1.52,21.21,21.21,0,0,1,5.3,8.87,22.76,22.76,0,0,1,.81,4.17,16.15,16.15,0,0,1,.07,1.63,11.47,11.47,0,0,1,0,1.23,4.69,4.69,0,0,1-.12,1c-.09,0,.06-1.49-.2-3.87-.08-.59-.15-1.24-.31-1.92s-.34-1.41-.56-2.17a23.5,23.5,0,0,0-2.1-4.67,24.16,24.16,0,0,0-3.12-4.05,19,19,0,0,0-1.63-1.53,18.51,18.51,0,0,0-1.53-1.22C650.34,457.63,649,457,649,456.93Z" style="fill:#263238"></path></g><g id="freepik--Paper--inject-215"><path d="M453.86,126.37l.1-21.77-1.09-8-4.55,3.25L451.56,87l-4.32-31.86L348.65,68.51,347,79.69l-8.42-9.8-49.67,6.75,15.67,90.66,155.68-16.71-2.29-16.79C456.26,131.24,453.86,126.37,453.86,126.37Z" style="fill:#f5f5f5"></path><path d="M353.24,100.05l4.89,3.93,1.37,10.07S351.09,112.4,353.24,100.05Z" style="fill:#263238"></path><path d="M363.55,98.65l-3.66,5.09,1.36,10.07S368.91,110,363.55,98.65Z" style="fill:#263238"></path><path d="M358.8,102.46l-4.54-4.11s3-2.68,8-1.08Z" style="fill:#263238"></path><path d="M341.92,104.47l-3.28.44a9.5,9.5,0,0,0,1.77-7.63c-.67-3.15-2.67-3.66-4.15-3.72a3.87,3.87,0,0,0-1.58.27,4.68,4.68,0,0,0-3.1,5.37,8.75,8.75,0,0,0,4.07,6.25l-3.17.43.36,2.71,3.76-.77-.86,9.25,5.36-.72-2.62-8.73,3.83-.26Zm-4.71.47a25.5,25.5,0,0,1-2.91-3.15,10.5,10.5,0,0,1-.66-1,4.5,4.5,0,0,1-.33-3.64,2.92,2.92,0,0,1,.56-1,2.65,2.65,0,0,1,1.83-.91,2.79,2.79,0,0,1,1.94.65,4.32,4.32,0,0,1,.8.91,2.78,2.78,0,0,1,.4,1,3.75,3.75,0,0,1,.18,1A15.08,15.08,0,0,1,337.21,104.94Z" style="fill:#455a64"></path><path d="M415.17,94.58c-.1.2-1.66-.36-4-1.39l.62-.1c-1,1.08-2.16,2.35-3.48,3.7l-.37.38-.45-.29-.27-.18c-1.31-.86-2.54-1.7-3.59-2.44l.71-.06c-2.32,2.06-4,3.36-4.18,3.18s1.21-1.8,3.39-4l.31-.31.4.25c1.1.66,2.36,1.46,3.67,2.32l.27.17-.82.09c1.33-1.34,2.58-2.55,3.64-3.54l.31-.28.32.18C413.89,93.47,415.27,94.39,415.17,94.58Z" style="fill:#455a64"></path><path d="M415.87,99.71c-.1.2-1.66-.37-4-1.39l.62-.11c-1,1.09-2.16,2.36-3.48,3.7l-.37.38-.44-.29-.27-.17c-1.31-.87-2.54-1.7-3.59-2.44l.71-.07c-2.33,2.07-4,3.37-4.18,3.18s1.21-1.79,3.39-4l.3-.32.41.25c1.1.67,2.36,1.46,3.67,2.32l.27.18-.82.09c1.32-1.34,2.58-2.56,3.64-3.54l.3-.29.32.18C414.58,98.6,416,99.51,415.87,99.71Z" style="fill:#455a64"></path><path d="M392.69,99.64c-.12.14-1-.47-2.58-1.32A20.75,20.75,0,0,0,387.37,97a6.75,6.75,0,0,0-3.43-.47,5.92,5.92,0,0,0-3,1.58,15.65,15.65,0,0,0-2,2.28c-1,1.44-1.76,2.32-1.91,2.21s.28-1.11,1.14-2.7a12,12,0,0,1,1.91-2.65,6.72,6.72,0,0,1,3.64-2,7.32,7.32,0,0,1,4.09.64,14.26,14.26,0,0,1,2.78,1.65C392.08,98.63,392.8,99.51,392.69,99.64Z" style="fill:#455a64"></path><path d="M391.38,99.9c.14.09-.15,1-.92,2.44a10.26,10.26,0,0,1-1.74,2.31,7,7,0,0,1-3.18,1.81,5.31,5.31,0,0,1-2,.09,5.62,5.62,0,0,1-1.72-.57,12.12,12.12,0,0,1-1.32-.78l-1.07-.7c-1.31-.86-2.08-1.48-2-1.64s1,.18,2.46.85c.73.31,1.55.81,2.44,1.19a4.37,4.37,0,0,0,2.89.3,6.56,6.56,0,0,0,2.67-1.43,12.89,12.89,0,0,0,1.78-1.93C390.63,100.61,391.22,99.8,391.38,99.9Z" style="fill:#455a64"></path><path d="M384.07,96.65a2.32,2.32,0,0,0-1.44,1.25,4.21,4.21,0,0,0-.38,1.89,6.8,6.8,0,0,0,1.62,4.3,1.32,1.32,0,0,0,.64.46,1.1,1.1,0,0,0,.81-.22,4.17,4.17,0,0,0,1.45-3.46,6.19,6.19,0,0,0-.27-2.18A2.93,2.93,0,0,0,385.11,97a2,2,0,0,0-2.11.16" style="fill:#455a64"></path><path d="M395.58,118l-3.67,5.09,1.37,10.07S400.94,129.3,395.58,118Z" style="fill:#455a64"></path><path d="M385.26,119.37l4.89,3.93,1.37,10.07S383.12,131.72,385.26,119.37Z" style="fill:#455a64"></path><path d="M390.86,121.77l3.28-5.17s-3.58-1.78-8,1.09Z" style="fill:#455a64"></path><path d="M408.06,122.1l3.76-.77-.2,9.11,5.36-.73-3.3-8.69,3.83-.26-.37-2.71-3.17.43a8.73,8.73,0,0,0,2.25-7.11A4.68,4.68,0,0,0,411.8,107a3.89,3.89,0,0,0-1.59.16c-1.41.45-3.2,1.48-3,4.7a9.5,9.5,0,0,0,3.74,6.88l-3.28.44Zm.88-9.15a3.33,3.33,0,0,1-.09-1,3,3,0,0,1,.11-1.08,4.78,4.78,0,0,1,.53-1.09,2.78,2.78,0,0,1,1.7-1.14,2.63,2.63,0,0,1,2,.38,3.31,3.31,0,0,1,.82.85,4.54,4.54,0,0,1,.65,3.6,8.19,8.19,0,0,1-.38,1.12,24.47,24.47,0,0,1-2,3.81A14.9,14.9,0,0,1,408.94,113Z" style="fill:#263238"></path><path d="M334.43,129.22c.15.17,1.5-.79,3.45-2.4l-.63.07c1.22.78,2.71,1.69,4.34,2.64l.46.26.35-.4.21-.24c1-1.18,2-2.31,2.82-3.31l-.71.13c2.8,1.37,4.76,2.17,4.88,2s-1.64-1.41-4.34-3l-.37-.22-.33.35c-.88.94-1.88,2-2.92,3.22l-.21.24.81-.14c-1.63-.93-3.16-1.77-4.45-2.44l-.37-.19-.26.26C335.37,127.81,334.28,129.06,334.43,129.22Z" style="fill:#263238"></path><path d="M335.12,134.35c.15.16,1.51-.8,3.46-2.4L338,132c1.22.79,2.71,1.69,4.34,2.64l.46.27.35-.4.21-.24c1-1.18,2-2.32,2.81-3.31l-.7.13c2.79,1.37,4.76,2.17,4.88,2s-1.65-1.41-4.34-3l-.38-.22-.32.35c-.89.93-1.89,2-2.92,3.21l-.21.24.81-.13c-1.64-.94-3.17-1.78-4.46-2.44l-.36-.19-.26.25C336.07,132.93,335,134.18,335.12,134.35Z" style="fill:#263238"></path><path d="M357.44,128.09c.15.11.88-.73,2.14-2a22,22,0,0,1,2.29-2,6.86,6.86,0,0,1,3.18-1.37,6.14,6.14,0,0,1,3.34.72,16,16,0,0,1,2.5,1.68c1.38,1.1,2.31,1.76,2.43,1.61s-.57-1-1.82-2.3a12.34,12.34,0,0,0-2.55-2,6.61,6.61,0,0,0-4-1,7.35,7.35,0,0,0-3.77,1.7,14.9,14.9,0,0,0-2.24,2.33C357.77,127,357.3,128,357.44,128.09Z" style="fill:#455a64"></path><path d="M358.78,128c-.12.12.41.95,1.54,2.11a10.3,10.3,0,0,0,2.28,1.76,7,7,0,0,0,3.56.89,5.09,5.09,0,0,0,1.93-.44,5.69,5.69,0,0,0,1.5-1,11.87,11.87,0,0,0,1.06-1.11l.85-1c1-1.18,1.61-2,1.49-2.11s-.93.44-2.14,1.47c-.62.5-1.29,1.19-2,1.8a4.44,4.44,0,0,1-2.71,1.06,6.7,6.7,0,0,1-3-.66,13,13,0,0,1-2.23-1.4C359.69,128.48,358.91,127.86,358.78,128Z" style="fill:#455a64"></path><path d="M365,122.91a2.41,2.41,0,0,1,1.72.82,4.11,4.11,0,0,1,.86,1.72,6.82,6.82,0,0,1-.41,4.58,1.25,1.25,0,0,1-.49.62,1.11,1.11,0,0,1-.84,0,4.15,4.15,0,0,1-2.32-2.94,6,6,0,0,1-.32-2.18,2.93,2.93,0,0,1,.89-2,2,2,0,0,1,2.08-.41" style="fill:#455a64"></path></g><g id="freepik--Mummy--inject-215"><path d="M456.21,323.09,524.74,320l8.19-61.36s8.15-25.35-25-45.19l-35.74,8.19Z" style="fill:#e0e0e0"></path><path d="M346.88,219.9,348.4,212l2.78-2.78,11.68-6.54,8.9,2.92,11.53-2.92s4.59,2.78,3.06,5.7,1.39,10.57,1.39,10.57l-3.47,10.7s-3.2,1.67-2.78-2.64a51.58,51.58,0,0,0,.28-6.81s-1-3.2-3.48-3.2-5.28,2.36-5.28,2.36l1.94,4.59s3.48-.83,3.9,2.09h-6.12l-5.42-7.79-1,7.65s6.25,2.64,6.25,6l-9.31-2.08L362,217.26h-4l-3.62,6.25s2.37,3.2,1.25,6.54l-5.56-6.67,5-9.74,8.75-2.64.7-1.66s-7.92,1.52-9.45,1.8S352.85,219.9,346.88,219.9Z" style="fill:#e0e0e0"></path><path d="M383.37,202.66,423.7,224.5,450,226s11.72-6,17.74-6.6a107.66,107.66,0,0,1,11.54-.46l-9.39,27s-37.13-.86-44.49-2.2S409.31,234,408.31,234s-23.6-16.23-23.6-16.23Z" style="fill:#e0e0e0"></path><path d="M432.91,225s4.32,2.95,4.15,6.19S434.89,272,434.89,272l-11.52,13,5.37,1.56s12.3-12,12.65-14.56,2.77-27.4,2.77-27.4v-14.7l-3.46-4.46Z" style="fill:#f5f5f5"></path><path d="M427.63,269.17,427.49,244l-5.38-1.26c.11,0,1.26,42.27,1.26,42.27l5.37,1.56Z" style="fill:#e0e0e0"></path><path d="M431.65,244.45c-.11,0,.14-1.24,0-3.2a18,18,0,0,0-.69-3.38,28.76,28.76,0,0,0-1.59-3.94,67.54,67.54,0,0,0-3.94-6.68,23.24,23.24,0,0,1-1.69-2.75,17.74,17.74,0,0,1,2,2.54,50.07,50.07,0,0,1,4.1,6.67,25.27,25.27,0,0,1,1.58,4,15.51,15.51,0,0,1,.59,3.49,7.81,7.81,0,0,1,0,1.37,5.36,5.36,0,0,1-.11,1A2.51,2.51,0,0,1,431.65,244.45Z" style="fill:#263238"></path><path d="M448.93,225.65s.19.23.4.71a9.86,9.86,0,0,1,.63,2.14,14.84,14.84,0,0,1-.65,7.28,27.34,27.34,0,0,1-3.36,6.5,15,15,0,0,1-1.84,2.4,20.75,20.75,0,0,1,1.53-2.6,32.37,32.37,0,0,0,3.17-6.46,15.93,15.93,0,0,0,.79-7.06A28.53,28.53,0,0,0,448.93,225.65Z" style="fill:#263238"></path><path d="M454.71,245.5a18.71,18.71,0,0,0,1.4-2.94,14.8,14.8,0,0,0,.65-7.71,28.48,28.48,0,0,0-2.69-7.38,10.37,10.37,0,0,0-1.94-2.6,5.44,5.44,0,0,1,2.27,2.42,25.2,25.2,0,0,1,2.87,7.46,14.23,14.23,0,0,1-.81,7.94,10.7,10.7,0,0,1-1.15,2.15C455,245.31,454.73,245.52,454.71,245.5Z" style="fill:#263238"></path><path d="M468.08,245.9a38.19,38.19,0,0,0-.08-4.19,25.46,25.46,0,0,0-.87-4.43,19.76,19.76,0,0,0-2.22-5,15.34,15.34,0,0,0-3.8-3.93,31.4,31.4,0,0,0-3.85-2.4c-2.28-1.22-3.76-1.88-3.72-2a4.88,4.88,0,0,1,1.07.37c.68.27,1.65.68,2.82,1.26a28.49,28.49,0,0,1,4,2.35,14.92,14.92,0,0,1,4,4,18.88,18.88,0,0,1,2.24,5.19,22.46,22.46,0,0,1,.77,4.53,15.78,15.78,0,0,1-.05,3.1A4.32,4.32,0,0,1,468.08,245.9Z" style="fill:#263238"></path><path d="M362.8,253.28l.74,0s-.53,1.13-.55,1.27,1.86,5.18,1.86,5.18a3.8,3.8,0,0,0,2-1,2.52,2.52,0,0,0,.47-2.32l3.6-3.19s6.6,1.08,7.6,1.45.76,1.13.76,1.13l-6.64,1.74-4.2,3.66-.3,4.22s.27,1.07,1.87.91,1.73-2.51,1.73-2.51l3.81-1.63,6.75-1s15.86,3.39,18.5,4,5.07-2.11,7-3.09,11.88,1.41,11.88,1.41l-5.21-14.47-21.72-2.28s-18.5-4-20.58-4.24c-1.85-.22-8.44,4.86-10,6.23Z" style="fill:#455a64"></path><path d="M380.38,250a9.09,9.09,0,0,0-2.68-1.26c-.86-.31-1.9-.64-3.05-1a10.59,10.59,0,0,0-4-.63,4.24,4.24,0,0,0-2,.79,12.14,12.14,0,0,0-1.43,1.29L365,251.47a13.63,13.63,0,0,0-1.94,2.23,13.09,13.09,0,0,0,2.26-1.9l2.31-2.19a5.47,5.47,0,0,1,3.12-1.87,10.69,10.69,0,0,1,3.72.56l3.07.84A25.71,25.71,0,0,0,380.38,250Z" style="fill:#263238"></path><path d="M400.11,247.75a4.29,4.29,0,0,0-.22.68c-.12.44-.32,1.08-.58,1.85a29.48,29.48,0,0,1-2.74,5.74,30,30,0,0,1-3.93,5c-.58.58-1.06,1-1.4,1.34a3.48,3.48,0,0,0-.51.5,5,5,0,0,0,.58-.43c.36-.28.86-.72,1.45-1.28a26.21,26.21,0,0,0,6.72-10.82,18.2,18.2,0,0,0,.51-1.87A3.84,3.84,0,0,0,400.11,247.75Z" style="fill:#263238"></path><path d="M395.66,259.93a3.13,3.13,0,0,0-3-1.88,10.61,10.61,0,0,1,1.64.7A11,11,0,0,1,395.66,259.93Z" style="fill:#263238"></path><path d="M398.15,257.12A2.27,2.27,0,0,0,397,256a2.32,2.32,0,0,0-1.6-.32,15.77,15.77,0,0,1,1.48.55A14.23,14.23,0,0,1,398.15,257.12Z" style="fill:#263238"></path><path d="M400,253a2.43,2.43,0,0,0-1.83-.62,2.5,2.5,0,0,0-1.83.65,6.82,6.82,0,0,1,1.83-.4A6.49,6.49,0,0,1,400,253Z" style="fill:#263238"></path><path d="M401.43,249.65a2.48,2.48,0,0,0-3.34,0,5.34,5.34,0,0,1,1.67-.38A5.51,5.51,0,0,1,401.43,249.65Z" style="fill:#263238"></path><path d="M491.87,145.77H490.7a22.47,22.47,0,0,0-22.35,20.71c-.85,10.85-1.65,22.85-1.57,28.67a15.67,15.67,0,0,0,.68,4.39,2,2,0,0,1,2.17.67l3,3.52c.7.7,1.28.89.95,1.82,0,.08,1.35.72,1.3.8,3,1.88,4.15,2.71,4.15,2.71l0,7.39A10.2,10.2,0,0,0,492.92,226l15-12.54L509.76,170C510.82,157.52,504.41,146.47,491.87,145.77Z" style="fill:#455a64"></path><path d="M510.9,189.92a1.62,1.62,0,0,1,1.78.09,2.68,2.68,0,0,1,.34-1.88,1.9,1.9,0,0,1,1.63-.91,2,2,0,0,1,0-2.84,1.43,1.43,0,0,1,1.3-.33c-.22-7.41-7.83-5.17-8-5.08,0,0-.45,11.6-.44,11.83a5.72,5.72,0,0,0,2.66.36A1.61,1.61,0,0,1,510.9,189.92Z" style="fill:#455a64"></path><path d="M478.92,209a29.21,29.21,0,0,0,15.78-4.65S491,213.07,479,212Z" style="fill:#263238"></path><path d="M470.9,173.69a1.72,1.72,0,0,0,1.66,1.73,1.65,1.65,0,0,0,1.77-1.56,1.71,1.71,0,0,0-1.66-1.73A1.65,1.65,0,0,0,470.9,173.69Z" style="fill:#263238"></path><path d="M471,171.06c.21.23,1.51-.74,3.37-.74s3.21.93,3.41.7-.12-.51-.71-.94a4.79,4.79,0,0,0-2.74-.83,4.53,4.53,0,0,0-2.68.87C471,170.56,470.85,171,471,171.06Z" style="fill:#263238"></path><path d="M488.66,175.27a1.72,1.72,0,0,0,1.66,1.74,1.65,1.65,0,0,0,1.77-1.56,1.71,1.71,0,0,0-1.66-1.73A1.64,1.64,0,0,0,488.66,175.27Z" style="fill:#263238"></path><path d="M489.17,172.67c.21.23,1.52-.74,3.37-.74s3.21.93,3.41.7-.12-.51-.71-.94a4.78,4.78,0,0,0-2.73-.83,4.54,4.54,0,0,0-2.69.87C489.26,172.17,489.06,172.57,489.17,172.67Z" style="fill:#263238"></path><path d="M482.47,186.43a11.57,11.57,0,0,0-3-.54c-.47,0-.92-.14-1-.46a2.49,2.49,0,0,1,.31-1.41c.45-1.14.91-2.34,1.4-3.6,1.93-5.13,3.33-9.35,3.12-9.43s-1.94,4-3.88,9.15c-.46,1.27-.91,2.48-1.33,3.63a2.75,2.75,0,0,0-.24,1.86,1.21,1.21,0,0,0,.78.69,3.63,3.63,0,0,0,.8.11A12.25,12.25,0,0,0,482.47,186.43Z" style="fill:#263238"></path><path d="M488.68,165.41c.18.51,2,.26,4.2.52s3.94.85,4.22.4c.13-.22-.18-.69-.88-1.18a7.13,7.13,0,0,0-3.14-1.09,7,7,0,0,0-3.29.4C489,164.78,488.6,165.18,488.68,165.41Z" style="fill:#263238"></path><path d="M471.63,166.52c.32.42,1.6,0,3.13,0s2.84.28,3.14-.16c.13-.22-.08-.64-.65-1a4.55,4.55,0,0,0-5.05.17C471.66,165.88,471.48,166.32,471.63,166.52Z" style="fill:#263238"></path><path d="M509.4,187.76s.14.1.38.22a1.4,1.4,0,0,0,1.07.05c.88-.29,1.66-1.65,1.74-3.13a4.63,4.63,0,0,0-.34-2.07,1.69,1.69,0,0,0-1-1.14.73.73,0,0,0-.86.37c-.12.23-.07.4-.12.41s-.17-.15-.09-.48a.84.84,0,0,1,.34-.51,1.06,1.06,0,0,1,.8-.19,2.06,2.06,0,0,1,1.46,1.33,4.82,4.82,0,0,1,.43,2.31c-.11,1.66-1,3.19-2.2,3.5a1.56,1.56,0,0,1-1.31-.26C509.41,188,509.37,187.77,509.4,187.76Z" style="fill:#263238"></path><path d="M481.42,189.35a2.89,2.89,0,0,0-.26,1.56,1.65,1.65,0,0,0,.66,1.3,1.4,1.4,0,0,0,1.26,0,9.12,9.12,0,0,0,1.1-.73,4.75,4.75,0,0,1,1.62-.69,3.37,3.37,0,0,1,1.64,0c.37.11.71.3,1.08.39a2.18,2.18,0,0,0,2-3.7,3.64,3.64,0,0,0-2.33-.94A8,8,0,0,0,485,187a11.79,11.79,0,0,0-3.14,1.86A3.53,3.53,0,0,0,481.42,189.35Z" style="fill:#263238"></path><path d="M496.37,177.4a7.88,7.88,0,0,1-3.86,1.31,5.94,5.94,0,0,1-2.81-.66c-.66-.34-1-.66-1-.62s.07.1.23.24a4.28,4.28,0,0,0,.74.52,5.58,5.58,0,0,0,2.88.75,6.2,6.2,0,0,0,2.87-.8,4.49,4.49,0,0,0,.75-.51C496.3,177.5,496.38,177.41,496.37,177.4Z" style="fill:#263238"></path><path d="M494,179.52c0-.08-.82.08-1.8,0a4.2,4.2,0,0,1-1.69-.48,2.08,2.08,0,0,0,1.68.71A4.29,4.29,0,0,0,494,179.52Z" style="fill:#263238"></path><path d="M475.81,177.22s-.23.2-.63.43a3.51,3.51,0,0,1-1.74.43,6.58,6.58,0,0,1-2.47-.73s.2.23.63.46a4.07,4.07,0,0,0,1.83.49,3.16,3.16,0,0,0,1.83-.52C475.67,177.5,475.83,177.24,475.81,177.22Z" style="fill:#263238"></path><path d="M474.87,178.67c0-.06-.44.09-1,.08s-.94-.15-1-.1a1.25,1.25,0,0,0,1,.32A1.27,1.27,0,0,0,474.87,178.67Z" style="fill:#263238"></path><path d="M493.76,191.56s0-.52.14-1.34a10.82,10.82,0,0,1,.88-3.07,11.09,11.09,0,0,1,1.75-2.68c.55-.61,1-.94.92-1a1.68,1.68,0,0,0-.3.2,6.14,6.14,0,0,0-.73.66,9.66,9.66,0,0,0-1.84,2.69,9.38,9.38,0,0,0-.84,3.16,6.91,6.91,0,0,0,0,1A1.34,1.34,0,0,0,493.76,191.56Z" style="fill:#263238"></path><path d="M471.16,191.81a3.22,3.22,0,0,0,.14-.95,8.93,8.93,0,0,0-.17-2.3,9.23,9.23,0,0,0-.75-2.19,2.81,2.81,0,0,0-.5-.81,19,19,0,0,1,1,3A18.72,18.72,0,0,1,471.16,191.81Z" style="fill:#263238"></path><path d="M501.72,174c-.19-.48-.73-1-1.24-1l.26,0a1.36,1.36,0,0,0-1.42.27,2,2,0,0,0-.6,1.38,2.12,2.12,0,0,0,.51,1.55,1.45,1.45,0,0,0,1.53.38,1.87,1.87,0,0,0,.93-1.14A2.27,2.27,0,0,0,501.72,174Z"></path><path d="M502.87,179c-.1-.24-.36-.51-.62-.48l.13,0a.65.65,0,0,0-.71.14,1,1,0,0,0-.3.68,1,1,0,0,0,.26.78.72.72,0,0,0,.76.19.91.91,0,0,0,.46-.57A1.05,1.05,0,0,0,502.87,179Z"></path><path d="M498.49,162.37a3.71,3.71,0,0,0-.67-.29l-1.84-.71c-1.56-.57-3.74-1.35-6.2-2a35.18,35.18,0,0,0-6.41-1.16,19.75,19.75,0,0,0-2-.08,6.74,6.74,0,0,0-.72,0,3.42,3.42,0,0,0,.72.06c.46,0,1.14.06,2,.15a40.72,40.72,0,0,1,6.38,1.21c2.44.67,4.62,1.41,6.2,2l1.86.64A5.12,5.12,0,0,0,498.49,162.37Z" style="fill:#263238"></path><path d="M483.24,161.15c.06,0,.26-.93.62-2.06s.71-2,.65-2a6.81,6.81,0,0,0-.87,2A6.46,6.46,0,0,0,483.24,161.15Z" style="fill:#263238"></path><path d="M485.56,161.05a9,9,0,0,0,.73-1.83,8.51,8.51,0,0,0,.52-1.91,17.37,17.37,0,0,0-1.25,3.74Z" style="fill:#263238"></path><path d="M489.13,161.28a10.87,10.87,0,0,0,1-3,10.87,10.87,0,0,0-1,3Z" style="fill:#263238"></path><path d="M491.61,162.24a10.54,10.54,0,0,0,.64-1.56,9.66,9.66,0,0,0,.59-1.59,4.8,4.8,0,0,0-.8,1.51A4.75,4.75,0,0,0,491.61,162.24Z" style="fill:#263238"></path><path d="M494.63,163.07a5.55,5.55,0,0,0,.63-2.21,3.11,3.11,0,0,0-.42,1.07A3.18,3.18,0,0,0,494.63,163.07Z" style="fill:#263238"></path><path d="M466.89,298.3l31.46-17.92,25.77-1.61s-10.27,9.66-20.74,9.77S466.89,298.3,466.89,298.3Z" style="fill:#455a64"></path><path d="M413.55,249l42.94,9.64,27.05-6s14.88-18.45,20.81-20.78h0c9.57-3.65,15.66,10.73,18.45,20.58h0a7.47,7.47,0,0,1-4.88,9.13c-14.61,4.75-48.13,15.49-54.22,16.08-7.85.75-19-4.83-20.08-5-.82-.1-32.74-11.73-32.93-11.34Z" style="fill:#455a64"></path><path d="M505.65,231.48,525.14,228s.11,24.88-2.37,28.59S505.65,231.48,505.65,231.48Z" style="fill:#455a64"></path><path d="M463.77,256.71a21.88,21.88,0,0,1,3.8,20.37L477.79,275c2.37-6.83-.32-14.66-5.23-20Z" style="fill:#e0e0e0"></path><path d="M483.18,252.64a27.85,27.85,0,0,1,9.51,17.82,90.56,90.56,0,0,0,16.9-4.33,24.19,24.19,0,0,0-1.49-15.63A35.1,35.1,0,0,0,498.38,238c-.89-.75-2.07-1.5-3.13-1a3.16,3.16,0,0,0-1.09,1,174.82,174.82,0,0,0-11,14.73" style="fill:#e0e0e0"></path><path d="M454.71,276.4a29.14,29.14,0,0,0,2.87-15.56,4.92,4.92,0,0,0-1.23-2.23h0c-1.86-.6-4.07-1.09-5.93-1.68l-1.77,9.67a39.48,39.48,0,0,1-2,7.95,19.45,19.45,0,0,0,8,2.29" style="fill:#e0e0e0"></path><path d="M450.42,256.93l-24.2-5.09-5.35,10.38-.61-11.72-4.28-1-1.86,13.07L447,274a11.72,11.72,0,0,0,4.68-8.81C451.83,259.51,450.42,256.93,450.42,256.93Z" style="fill:#e0e0e0"></path><path d="M421.16,265.05a52.08,52.08,0,0,1-.71-7.26,51.58,51.58,0,0,1-.19-7.29,52.08,52.08,0,0,1,.71,7.26A49.84,49.84,0,0,1,421.16,265.05Z" style="fill:#263238"></path><path d="M434.67,253.67a6.19,6.19,0,0,1-.77,2.27,23.71,23.71,0,0,1-3.23,4.81,31.06,31.06,0,0,1-4,4.19,5.35,5.35,0,0,1-2.09,1.19c0-.07.77-.5,1.85-1.47a47,47,0,0,0,3.84-4.24,30.8,30.8,0,0,0,3.3-4.65C434.29,254.5,434.6,253.64,434.67,253.67Z" style="fill:#263238"></path><path d="M444,255.59a8.89,8.89,0,0,1-.81,2.4,25.32,25.32,0,0,1-3.15,5.28,26.36,26.36,0,0,1-4.3,4.38,9.65,9.65,0,0,1-2.1,1.43c-.12-.14,3.09-2.37,6-6.13A47.11,47.11,0,0,0,444,255.59Z" style="fill:#263238"></path><path d="M442.14,259.67a5.52,5.52,0,0,1,1.52,1.6,16.19,16.19,0,0,1,2.32,4.79,28.1,28.1,0,0,1,1,5.22,8.7,8.7,0,0,1,.07,2.2,10.45,10.45,0,0,1-.44-2.15,40.61,40.61,0,0,0-1.09-5.12,19.43,19.43,0,0,0-2.12-4.73C442.65,260.34,442.08,259.73,442.14,259.67Z" style="fill:#263238"></path><path d="M450.64,257.35a7.09,7.09,0,0,1,.27,2.52,18.48,18.48,0,0,1-1.13,6c-.78,2.25-1.44,4.29-2,5.75a13.48,13.48,0,0,1-.95,2.33,11.51,11.51,0,0,1,.6-2.45c.44-1.49,1.05-3.56,1.82-5.79a21.61,21.61,0,0,0,1.26-5.86C450.64,258.32,450.56,257.36,450.64,257.35Z" style="fill:#263238"></path><path d="M465.56,277.22c.08,0,0,.31.06.71a.9.9,0,0,0,.2.57c.15.17.38.25.52.15a2.44,2.44,0,0,0,.46-.67c.13-.25.24-.48.33-.67.19-.4.3-.65.37-.64s.08.31,0,.75a4.26,4.26,0,0,1-.25.77,2,2,0,0,1-.61.89.78.78,0,0,1-.69.08,1,1,0,0,1-.48-.35,1.22,1.22,0,0,1-.2-.9C465.34,277.43,465.5,277.2,465.56,277.22Z" style="fill:#263238"></path><path d="M479.84,271a22.64,22.64,0,0,1-1.22,3.37L477.14,278a2.93,2.93,0,0,1-.67,1,5,5,0,0,1-1,.74,15.65,15.65,0,0,1-2.25,1.1,15.22,15.22,0,0,1-8.13.81l-.1,0,0-.09a5.9,5.9,0,0,1-.5-3,2.58,2.58,0,0,1,.27-1.09,11,11,0,0,1-.05,1.1,6.19,6.19,0,0,0,.63,2.82l-.15-.11a15.67,15.67,0,0,0,7.88-.9,16.3,16.3,0,0,0,2.18-1.06,3.21,3.21,0,0,0,1.48-1.5c.57-1.3,1.1-2.5,1.57-3.55A25,25,0,0,1,479.84,271Z" style="fill:#263238"></path><path d="M495.81,239.38a5,5,0,0,1,.58,1.11,25.42,25.42,0,0,1,1.2,3.22,21.75,21.75,0,0,1,.89,5,30,30,0,0,1-.36,6.23,55.66,55.66,0,0,1-3,10.91c-.51,1.35-1,2.43-1.29,3.17a6,6,0,0,1-.55,1.13,5.22,5.22,0,0,1,.37-1.2l1.12-3.23a64.57,64.57,0,0,0,2.8-10.86,30.61,30.61,0,0,0,.4-6.13,23.56,23.56,0,0,0-.76-4.95C496.48,241,495.72,239.41,495.81,239.38Z" style="fill:#263238"></path><path d="M520.23,260.22a8,8,0,0,1-1.25.65c-.82.39-2,.91-3.53,1.51-3,1.22-7.23,2.69-12,4.12s-9.05,2.6-12.17,3.44l-3.71,1a8.41,8.41,0,0,1-1.37.3,6.9,6.9,0,0,1,1.32-.5c.86-.28,2.11-.67,3.66-1.14L503.34,266c4.72-1.42,8.95-2.83,12-4,1.52-.56,2.74-1,3.58-1.36A7.1,7.1,0,0,1,520.23,260.22Z" style="fill:#263238"></path><path d="M525.14,228a4.63,4.63,0,0,1-.81,0c-.52,0-1.29-.06-2.28-.07a42.77,42.77,0,0,0-8.36.72l-1.33.27-1.37.38c-.94.22-1.87.61-2.86.94a35.08,35.08,0,0,0-5.88,3,48.36,48.36,0,0,0-11,10.49c-2.65,3.16-5.2,6.21-7.56,9l-.05.07-.08,0-19.29,4.47-5.59,1.25-1.5.31a1.87,1.87,0,0,1-.52.08,2.89,2.89,0,0,1,.5-.16l1.48-.39,5.56-1.39,19.25-4.66-.14.09c2.35-2.81,4.89-5.87,7.54-9A48.09,48.09,0,0,1,502,232.89a36,36,0,0,1,6-3c1-.32,1.95-.71,2.9-.92l1.39-.36,1.35-.26a39.89,39.89,0,0,1,8.43-.56c1,0,1.77.12,2.29.16A4.79,4.79,0,0,1,525.14,228Z" style="fill:#263238"></path><path d="M494.27,283a2.44,2.44,0,0,1,.42-.35l1.29-.91,4.78-3.29,7.14-4.82q2-1.36,4.22-2.83c1.46-1,3-2,4.39-3.19a35,35,0,0,0,6.71-8l4.83-7.13,3.29-4.78c.37-.52.67-.95.92-1.29a2.61,2.61,0,0,1,.34-.43,1.75,1.75,0,0,1-.26.49l-.83,1.34-3.16,4.87-4.73,7.19a34.37,34.37,0,0,1-6.78,8.12,52.68,52.68,0,0,1-4.44,3.21L508.16,274,501,278.76l-4.88,3.15-1.34.83C494.44,282.93,494.28,283,494.27,283Z" style="fill:#263238"></path><path d="M530.5,272.87a28.41,28.41,0,0,1-8.54,7c-.09-.13,1.93-1.55,4.28-3.47S530.39,272.76,530.5,272.87Z" style="fill:#263238"></path><path d="M529.62,284.52a.74.74,0,0,1-.11.18l-.38.49a17.43,17.43,0,0,1-1.63,1.72,44,44,0,0,1-7.08,5,221.44,221.44,0,0,1-25.27,13.52,224.9,224.9,0,0,1-26.78,10.19c-3.51,1.08-6.37,1.86-8.36,2.37l-2.29.56a4.54,4.54,0,0,1-.81.17,4.18,4.18,0,0,1,.78-.27l2.27-.66c2-.57,4.81-1.4,8.3-2.53a243.38,243.38,0,0,0,52-23.66,47.57,47.57,0,0,0,7.13-4.88,19.69,19.69,0,0,0,1.69-1.64A6.1,6.1,0,0,1,529.62,284.52Z" style="fill:#263238"></path><path d="M459.21,303.65a21.23,21.23,0,0,1,4.4-3.64,21.64,21.64,0,0,1,5-2.81c.08.13-2.1,1.46-4.68,3.24S459.3,303.76,459.21,303.65Z" style="fill:#263238"></path><path d="M468.79,313.44a5.42,5.42,0,0,1,.68-.87l2-2.25c1.67-1.9,4-4.54,6.44-7.51s4.65-5.7,6.22-7.69l1.86-2.35a4.87,4.87,0,0,1,.74-.83,4.74,4.74,0,0,1-.57.95c-.4.59-1,1.43-1.74,2.45-1.49,2.05-3.63,4.83-6.11,7.81s-4.82,5.58-6.57,7.41c-.87.92-1.59,1.66-2.1,2.15S468.82,313.47,468.79,313.44Z" style="fill:#263238"></path><path d="M526.13,298.84a2,2,0,0,1-.39.36l-1.18.94c-1,.81-2.55,2-4.43,3.38a130.34,130.34,0,0,1-15.4,10,63.39,63.39,0,0,1-17.19,6.49,41.5,41.5,0,0,1-5.53.79c-.65.07-1.17.06-1.51.08a1.66,1.66,0,0,1-.53,0s.72-.1,2-.26a51.22,51.22,0,0,0,5.47-.95,67.27,67.27,0,0,0,17-6.58,150.3,150.3,0,0,0,15.43-9.89l4.53-3.24,1.24-.87A2.55,2.55,0,0,1,526.13,298.84Z" style="fill:#263238"></path><path d="M510.22,167a1.43,1.43,0,0,0-.46-.42s.74-3.43-2.93-12.34-14.91-8.78-14.91-8.78a21,21,0,0,0-19.3,8.54c.05,0,.08.26-.21.38a2.84,2.84,0,0,0-1.06,1c-1.78,2.41-3.9,4.54-3.83,7.54l.71,0a54.52,54.52,0,0,1,12.3,1.66l8.91,9.29-.17.05q-11.44,4.06-22.66,8.71a53.19,53.19,0,0,0-.64,9.16h0v.06l1,7.8,2.64.14a16.25,16.25,0,0,0,4.24,7.32,11.35,11.35,0,0,0,2.5,1.91c2.29,1.21,5,1.23,7.58,1.06,8-.51,15.84-2.52,23.82-2.25a.87.87,0,0,0,.74-.2.84.84,0,0,0,.12-.52c0-1,0-2.08,0-3.12l-.32,0,.23-5.24-39.62-7.54,5.13-2.5a73.56,73.56,0,0,1,9.4-4.05c4.23-1.38,8.72-2,12.87-3.57L508.73,194l.66-16.25-8.27-7c2.87,1.05,5.71,2.16,8.52,3.36a35.11,35.11,0,0,0,.71-6.38A1.51,1.51,0,0,0,510.22,167Z" style="fill:#e0e0e0"></path><path d="M478.44,208c-.1,4-.06,8.33.21,12.34,10.08-2.23,20.2-4.75,30.28-7-.25-3-.36-5.94-.33-8.92q-13.38,0-26.74.79a16.36,16.36,0,0,0-4.62.75" style="fill:#e0e0e0"></path><path d="M465.57,147.37c.14-.08,1.19,1.87,3.07,3.79s3.78,3,3.69,3.18a12.87,12.87,0,0,1-6.76-7Z" style="fill:#263238"></path><path d="M468.83,143.36c.16,0,.47,2.36,1.37,5.15s2,4.93,1.86,5a18.83,18.83,0,0,1-3.23-10.16Z" style="fill:#263238"></path><path d="M473.25,153.61a7.63,7.63,0,0,1,1.48.35c.95.26,2.31.65,4,1.15,3.36,1,8,2.45,13,4.21s9.58,3.51,12.82,4.87c1.61.69,2.91,1.26,3.8,1.68a8.17,8.17,0,0,1,1.36.69,8.93,8.93,0,0,1-1.44-.51l-3.86-1.51c-3.27-1.28-7.8-3-12.86-4.73s-9.65-3.25-13-4.35l-3.94-1.31A10,10,0,0,1,473.25,153.61Z" style="fill:#263238"></path><path d="M493.26,160.24a19.17,19.17,0,0,1-1-2.28,35.07,35.07,0,0,0-2.93-5.21c-1.32-1.94-2.64-3.61-3.58-4.83a12.31,12.31,0,0,1-1.45-2,11.66,11.66,0,0,1,1.73,1.81,50.59,50.59,0,0,1,3.73,4.78,26.26,26.26,0,0,1,2.84,5.36A8.24,8.24,0,0,1,493.26,160.24Z" style="fill:#263238"></path><path d="M499,146.7a5.4,5.4,0,0,1,1,2.15,15.49,15.49,0,0,1,.26,5.68c-.56,4.41-1.6,7.85-1.79,7.8a18.31,18.31,0,0,1,.4-2.3c.23-1.42.62-3.39.87-5.55a18.06,18.06,0,0,0-.1-5.54C499.3,147.54,498.9,146.74,499,146.7Z" style="fill:#263238"></path><path d="M509.64,174.12a11.63,11.63,0,0,1-1.63-.58l-4.4-1.69c-3.72-1.4-8.9-3.24-14.73-4.87a124.91,124.91,0,0,0-15.17-3.25c-2-.28-3.56-.48-4.66-.59a10.46,10.46,0,0,1-1.72-.24,11.94,11.94,0,0,1,1.73,0c1.12.05,2.72.19,4.7.43A104.74,104.74,0,0,1,489,166.48a138.08,138.08,0,0,1,14.72,5c1.85.74,3.33,1.38,4.35,1.84A12.87,12.87,0,0,1,509.64,174.12Z" style="fill:#263238"></path><path d="M508.73,194a10.84,10.84,0,0,1-1.17-1.07c-.79-.78-1.83-1.8-3.07-3-2.57-2.58-6.1-6.17-10-10.16s-7.35-7.63-9.85-10.28l-2.95-3.15a8.83,8.83,0,0,1-1-1.21,9.3,9.3,0,0,1,1.18,1.07l3.06,3c2.57,2.58,6.1,6.18,10,10.17s7.36,7.62,9.86,10.27l2.94,3.15A8.62,8.62,0,0,1,508.73,194Z" style="fill:#263238"></path><path d="M508.53,198.72a12.42,12.42,0,0,1-1.69-.22l-4.57-.8-15-2.83-15-2.86-4.56-.87a10.26,10.26,0,0,1-1.66-.38,10,10,0,0,1,1.7.18c1.08.15,2.65.39,4.59.71,3.86.63,9.2,1.58,15.07,2.71s11.18,2.19,15,3l4.54,1A10.65,10.65,0,0,1,508.53,198.72Z" style="fill:#263238"></path><path d="M508.3,204a9,9,0,0,1-1.65-.05c-1.06-.06-2.6-.18-4.49-.35-3.79-.33-9-.89-14.77-1.55l-14.75-1.7-4.47-.52a9.71,9.71,0,0,1-1.63-.25,9,9,0,0,1,1.65.05c1.06.06,2.59.18,4.49.35,3.79.33,9,.89,14.77,1.55l14.75,1.7,4.47.52A9.71,9.71,0,0,1,508.3,204Z" style="fill:#263238"></path><path d="M504.12,203.61a4,4,0,0,1-.91.55c-.6.33-1.48.77-2.6,1.26a50.17,50.17,0,0,1-9.07,3,62.26,62.26,0,0,1-9.45,1.35c-1.21.07-2.2.11-2.88.11a4.42,4.42,0,0,1-1.06,0c0-.08,1.5-.19,3.91-.44a79.39,79.39,0,0,0,9.37-1.49,61,61,0,0,0,9-2.8C502.72,204.19,504.08,203.53,504.12,203.61Z" style="fill:#263238"></path><path d="M508.61,207.35a5.1,5.1,0,0,1-1,.69c-.68.41-1.68,1-3,1.58a58.78,58.78,0,0,1-10.34,3.78,67.46,67.46,0,0,1-10.84,2c-1.4.14-2.54.21-3.33.23a5.49,5.49,0,0,1-1.22,0,5.92,5.92,0,0,1,1.21-.18c.78-.07,1.91-.2,3.3-.38a85.39,85.39,0,0,0,10.75-2.11,69.84,69.84,0,0,0,10.32-3.61c1.28-.56,2.3-1.06,3-1.42A5.76,5.76,0,0,1,508.61,207.35Z" style="fill:#263238"></path><path d="M514.34,217.75c0,.1-2,.78-5,2.42-.74.41-1.55.87-2.38,1.43s-1.71,1.18-2.62,1.84a43.32,43.32,0,0,0-5.37,4.95,44.49,44.49,0,0,0-4.38,5.85c-.57,1-1.13,1.88-1.57,2.78s-.84,1.74-1.18,2.52c-1.33,3.14-1.8,5.22-1.9,5.19a7.2,7.2,0,0,1,.3-1.46,12.92,12.92,0,0,1,.48-1.68c.22-.65.43-1.4.78-2.19a27.26,27.26,0,0,1,1.14-2.57c.42-.92,1-1.85,1.54-2.84a38.29,38.29,0,0,1,9.87-10.93c.93-.66,1.8-1.31,2.68-1.82a26.63,26.63,0,0,1,2.44-1.4c.75-.42,1.47-.71,2.09-1a14.41,14.41,0,0,1,1.63-.65A8.8,8.8,0,0,1,514.34,217.75Z" style="fill:#263238"></path><path d="M466.81,253.71a8.24,8.24,0,0,1,.86-1.21c.58-.75,1.44-1.83,2.52-3.14,2.15-2.63,5.21-6.2,8.72-10s6.81-7.17,9.25-9.53c1.22-1.19,2.22-2.13,2.93-2.77a9.54,9.54,0,0,1,1.12-1,6.74,6.74,0,0,1-1,1.1l-2.81,2.89c-2.37,2.43-5.62,5.81-9.13,9.62s-6.6,7.34-8.82,9.91l-2.64,3A7.9,7.9,0,0,1,466.81,253.71Z" style="fill:#263238"></path><path d="M477.24,219a4.76,4.76,0,0,1-.17,1.14c-.15.73-.38,1.77-.69,3.06-.63,2.57-1.61,6.1-2.89,9.93s-2.63,7.24-3.68,9.67c-.52,1.21-1,2.19-1.28,2.85a5.89,5.89,0,0,1-.55,1,5.19,5.19,0,0,1,.36-1.1c.31-.79.69-1.76,1.13-2.91,1-2.46,2.25-5.88,3.53-9.7s2.3-7.32,3-9.86c.33-1.19.62-2.19.85-3A5.58,5.58,0,0,1,477.24,219Z" style="fill:#263238"></path><path d="M408,216s-3.26,12-6.6,13.6c3.48,2.58,7.26,5.08,11.29,7.53l11-12.64Z" style="fill:#455a64"></path><path d="M431.7,225a1.71,1.71,0,0,1,1.09.25,8.28,8.28,0,0,1,2.41,1.87,6.4,6.4,0,0,1,1.23,1.75,7.53,7.53,0,0,1,.44,2.41c0,1.72-.17,3.54-.2,5.48-.12,3.87-.17,7.39-.29,9.93-.06,1.27-.13,2.3-.2,3a5.06,5.06,0,0,1-.16,1.09,4.17,4.17,0,0,1,0-1.11q0-1.23,0-3c0-2.54,0-6,.14-9.94,0-1.94.25-3.8.24-5.44a6.8,6.8,0,0,0-.37-2.27,6.18,6.18,0,0,0-1.09-1.67,9.46,9.46,0,0,0-2.23-1.93A5.44,5.44,0,0,0,431.7,225Z" style="fill:#263238"></path><path d="M443.58,250.5a4,4,0,0,1,0-1c0-.77.09-1.69.15-2.77s.16-2.55.29-4.09c.07-.77.14-1.58.26-2.42s.23-1.68.29-2.57c.21-3.51,0-6.79-1.09-8.84a10.57,10.57,0,0,0-2.23-3,2.59,2.59,0,0,1,.85.57,8,8,0,0,1,1.7,2.22,11.18,11.18,0,0,1,1.17,4,27.06,27.06,0,0,1,.12,5.06c-.06.9-.18,1.78-.31,2.6s-.2,1.63-.28,2.39l-.41,4.08c-.11,1.16-.22,2.11-.31,2.75A3.18,3.18,0,0,1,443.58,250.5Z" style="fill:#263238"></path><path d="M398.59,211.56a5.7,5.7,0,0,1,.65,2.09,13.22,13.22,0,0,1-2.44,10.08,5.67,5.67,0,0,1-1.54,1.56c-.06-.06.51-.67,1.24-1.77a15.36,15.36,0,0,0,2.05-4.7,15.15,15.15,0,0,0,.33-5.12A18.78,18.78,0,0,1,398.59,211.56Z" style="fill:#263238"></path><path d="M384.09,202.58s.22.16.54.5a10.9,10.9,0,0,1,1.25,1.57,17.17,17.17,0,0,1,2.57,6.09,17.39,17.39,0,0,1,.1,6.61,12.28,12.28,0,0,1-.51,2,2.15,2.15,0,0,1-.3.67c-.09,0,.23-1,.45-2.67a19.58,19.58,0,0,0-.25-6.45,19.25,19.25,0,0,0-2.37-6C384.71,203.43,384,202.64,384.09,202.58Z" style="fill:#263238"></path><path d="M378,217c-.09,0-.05-.79-.22-2a13.85,13.85,0,0,0-1.48-4.56,13.63,13.63,0,0,0-3-3.75c-.93-.82-1.6-1.22-1.55-1.29a5.17,5.17,0,0,1,1.79,1,11.94,11.94,0,0,1,4.6,8.56A5.22,5.22,0,0,1,378,217Z" style="fill:#263238"></path><path d="M387.5,219.67c-.09,0-.15-.5-.56-1.18a3.7,3.7,0,0,0-5.25-1.32c-.68.41-1,.84-1.05.79s.15-.55.84-1.09a3.78,3.78,0,0,1,5.79,1.45C387.62,219.12,387.56,219.68,387.5,219.67Z" style="fill:#263238"></path><path d="M371.74,206c.05,0-.18.49-.73,1.09a7.89,7.89,0,0,1-2.6,1.83,8,8,0,0,1-3.1.68,2.57,2.57,0,0,1-1.3-.2,16.51,16.51,0,0,0,4.19-1A16,16,0,0,0,371.74,206Z" style="fill:#263238"></path><path d="M361.18,217a5.74,5.74,0,0,0,2.39-6.13c.06,0,.3.33.46,1a4.54,4.54,0,0,1-1.84,4.72C361.63,217,361.21,217.08,361.18,217Z" style="fill:#263238"></path><path d="M367.41,223.15c-.1.12-1-.58-2.29-1s-2.42-.43-2.43-.59a4.57,4.57,0,0,1,4.72,1.6Z" style="fill:#263238"></path><path d="M374.53,220.72a14.43,14.43,0,0,0-2.6.11,15.17,15.17,0,0,0-2.4,1,3.81,3.81,0,0,1,5-1.13Z" style="fill:#263238"></path><polygon points="172.06 316.34 180.74 341.66 192.14 341.66 194.69 361.15 194.52 359.87 201.42 381.21 210.36 382.92 197.79 384.83 203.04 424.93 571.32 424.93 586.19 348.6 596.6 348.6 605.02 318.86 172.06 316.34" style="fill:#FF725E"></polygon><path d="M596.59,348.6s-.36,0-1.07,0l-3.15,0H580.25c-5.26,0-11.7,0-19.17-.06l-25.4-.22c-18.82-.2-41.22-.58-66.09-1.08l-80.92-1.9-80.94-1.94c-24.87-.53-47.28-.95-66.09-1.19l-25.39-.3-19.17-.15L185,341.73l-3.15,0-1.07,0s.36,0,1.07,0l3.15,0h12.12c5.26,0,11.7,0,19.17.06l25.39.22c18.82.2,41.22.58,66.1,1.08l80.94,1.9,80.92,1.94c24.87.53,47.27.95,66.09,1.19l25.39.3,19.17.15,12.12.08,3.15,0Z" style="fill:#263238"></path><g style="opacity:0.30000000000000004"><polygon points="444.52 346.32 454.28 330.8 451.84 343.67 495.54 347.36 445.85 346.35 444.52 346.32"></polygon></g><g style="opacity:0.30000000000000004"><polygon points="192.14 341.66 584.93 355.02 586.19 348.6 192.14 341.66"></polygon></g><path d="M369.33,382.41l-.11.51-.3,1.36a17.34,17.34,0,0,0-.43,2.1,20.66,20.66,0,0,0-.33,2.87,16.23,16.23,0,0,0,1,7.35,13.39,13.39,0,0,0,2.32,3.7,11.69,11.69,0,0,0,3.76,2.75,2.69,2.69,0,0,0,.32.13l-.34.25c0-5.5,0-10.54.05-14.51l.06.14c-1.84-2-3.31-3.62-4.36-4.78l-1.22-1.36a5,5,0,0,1-.44-.51,3.43,3.43,0,0,1,.42.39l1.25,1.25c1.09,1.09,2.7,2.71,4.64,4.73l.06.05v.09c0,4,0,9,.06,14.51v.37l-.35-.12-.36-.15a12.09,12.09,0,0,1-3.93-2.89,13.72,13.72,0,0,1-2.39-3.86,16.36,16.36,0,0,1-.94-7.55,18.66,18.66,0,0,1,.42-2.9,13.27,13.27,0,0,1,.55-2.18c.17-.52.3-1,.42-1.32S369.32,382.39,369.33,382.41Z" style="fill:#263238"></path><path d="M384.2,382.41a2.83,2.83,0,0,1,.14.42l.43,1.32a15.65,15.65,0,0,1,.55,2.18,20,20,0,0,1,.41,2.9,16.23,16.23,0,0,1-.94,7.55,13.72,13.72,0,0,1-2.39,3.86,12.09,12.09,0,0,1-3.93,2.89l-.36.15-.34.12v-.37c0-5.5,0-10.54.05-14.51v-.09l.06-.05c1.95-2,3.56-3.64,4.65-4.73l1.24-1.25a4.05,4.05,0,0,1,.43-.39l-.44.51-1.23,1.36c-1,1.16-2.52,2.81-4.36,4.78l.06-.14c0,4,0,9,.06,14.51l-.35-.25a2.69,2.69,0,0,0,.32-.13A11.58,11.58,0,0,0,382,400.3a13.39,13.39,0,0,0,2.32-3.7,16.39,16.39,0,0,0,1-7.35,22.2,22.2,0,0,0-.34-2.87,19.81,19.81,0,0,0-.42-2.1l-.31-1.36A3.76,3.76,0,0,1,384.2,382.41Z" style="fill:#263238"></path><path d="M376.73,386.89c0-.05.6-.79,1.61-2s2.41-2.9,4.09-4.84l.07.37a14.7,14.7,0,0,0-5.59-1.38,10.94,10.94,0,0,0-5.68,1.36l0-.35c1.61,1.95,3,3.63,3.91,4.85s1.54,1.95,1.54,2a21,21,0,0,1-1.6-1.73c-1-1.14-2.5-2.8-4.22-4.81l-.17-.21L371,380a11.14,11.14,0,0,1,6-1.49,14.58,14.58,0,0,1,5.79,1.47l.28.14-.21.23c-1.78,2-3.31,3.67-4.38,4.81A22.72,22.72,0,0,1,376.73,386.89Z" style="fill:#263238"></path><path d="M344.35,370.23a5.3,5.3,0,0,1,1.4.31,5.19,5.19,0,0,1,3.07,2.59,10.64,10.64,0,0,1,.71,6.33,13.92,13.92,0,0,1-3.85,7.46l-.13-.36,4.72,0h.22v.22c0,1.31,0,2.73,0,4.18v.25l-.25,0-5.47-.36.26-.28c.63,4,1.32,8.35,2,12.86l0,.3h-8.35l.08-.32c1-4.49,2-8.83,3-12.93l.25.3-5.47.36-.25,0v-.25c0-1.35,0-2.65,0-3.92v-.23h4.8l-.13.39a12.64,12.64,0,0,1-4.5-8.22,10.33,10.33,0,0,1,.23-4,6.45,6.45,0,0,1,1.71-2.88,7.54,7.54,0,0,1,4.21-1.94,4.2,4.2,0,0,1,1.63.11,8.69,8.69,0,0,0-1.62,0,7.55,7.55,0,0,0-4.05,2,6.12,6.12,0,0,0-1.59,2.79,10.09,10.09,0,0,0-.17,3.83,12.34,12.34,0,0,0,4.4,7.93l.48.38h-.6l-4.58,0,.23-.23c0,1.27,0,2.57,0,3.92l-.25-.24,5.47-.38.33,0-.07.32c-.95,4.11-1.95,8.45-3,12.94l-.25-.32h7.72l-.26.3c-.7-4.51-1.38-8.85-2-12.86l0-.3.3,0,5.47.38-.24.23c0-1.45,0-2.87,0-4.18l.22.22h-5.22l.36-.36a13.62,13.62,0,0,0,3.8-7.2,10.49,10.49,0,0,0-.6-6.17,5.15,5.15,0,0,0-2.9-2.59C344.84,370.32,344.35,370.27,344.35,370.23Z" style="fill:#263238"></path><path d="M343.5,386.53a36.68,36.68,0,0,0,2.36-4.5,22.78,22.78,0,0,0,.82-2.42c.12-.45.23-.91.33-1.39a3.7,3.7,0,0,0-.06-1.43c-.06-1.93-1.84-4.19-4.15-4.05a3.48,3.48,0,0,0-2.75,1.55,6.24,6.24,0,0,0-.55,5.74c.4.82.76,1.59,1.17,2.26.81,1.35,1.55,2.39,2.06,3.11a7.64,7.64,0,0,1,.77,1.13,6.3,6.3,0,0,1-.93-1,30.09,30.09,0,0,1-2.21-3,23.81,23.81,0,0,1-1.26-2.29,6.61,6.61,0,0,1,.53-6.19,3.94,3.94,0,0,1,3.14-1.78,4.19,4.19,0,0,1,3.33,1.43,7.17,7.17,0,0,1,.95,1.44,4.63,4.63,0,0,1,.38,1.64,4.24,4.24,0,0,1,0,1.59,14.52,14.52,0,0,1-.36,1.41,20.21,20.21,0,0,1-.89,2.44,19.38,19.38,0,0,1-1.83,3.28A5.52,5.52,0,0,1,343.5,386.53Z" style="fill:#263238"></path><path d="M458.07,386.58a7.93,7.93,0,0,1-1.41-.82c-.88-.55-2.13-1.37-3.63-2.37h.26l-5.71,4.47-.17.13-.16-.14-.35-.3-4.66-4.09.29,0c-1.82,1.28-3.35,2.35-4.44,3.08a11.92,11.92,0,0,1-1.75,1.1,11.2,11.2,0,0,1,1.59-1.32c1-.8,2.53-1.92,4.32-3.24l.15-.11.14.12,4.7,4.05.35.3h-.33l5.76-4.4.13-.1.13.09c1.47,1,2.68,1.9,3.52,2.52A8,8,0,0,1,458.07,386.58Z" style="fill:#263238"></path><path d="M458.07,394a7.93,7.93,0,0,1-1.41-.82c-.88-.55-2.13-1.37-3.63-2.37h.26l-5.71,4.47-.17.13-.16-.14-.35-.29-4.66-4.1.29,0c-1.82,1.28-3.35,2.35-4.44,3.08a11.92,11.92,0,0,1-1.75,1.1,11.2,11.2,0,0,1,1.59-1.32c1-.8,2.53-1.92,4.32-3.24l.15-.11.14.12,4.7,4.05.35.3h-.33l5.76-4.4.13-.1.13.09c1.47,1,2.68,1.9,3.52,2.52A8,8,0,0,1,458.07,394Z" style="fill:#263238"></path><path d="M425.27,389.41c-.06.06-1.14-1.11-3.1-2.72a25.77,25.77,0,0,0-3.63-2.56,10.06,10.06,0,0,0-5.08-1.46,9,9,0,0,0-4.93,1.84,19.86,19.86,0,0,0-3.22,3,30.09,30.09,0,0,1-2.78,3.07,4.72,4.72,0,0,1,.64-.92c.43-.56,1-1.39,1.86-2.38a18.26,18.26,0,0,1,3.21-3.19,9.21,9.21,0,0,1,5.2-2,10.17,10.17,0,0,1,5.34,1.57,23.12,23.12,0,0,1,3.63,2.69,26.31,26.31,0,0,1,2.17,2.13A3.83,3.83,0,0,1,425.27,389.41Z" style="fill:#263238"></path><path d="M423.36,389.53a3.37,3.37,0,0,1-.51.84c-.36.52-.89,1.26-1.62,2.13a16.4,16.4,0,0,1-2.89,2.75,9.78,9.78,0,0,1-4.58,1.78A7,7,0,0,1,409,395.8c-1.26-.85-2.25-1.75-3.15-2.42s-1.59-1.26-2.08-1.66a4,4,0,0,1-.72-.67,3.49,3.49,0,0,1,.84.5c.53.36,1.27.88,2.19,1.54s1.95,1.51,3.18,2.3a6.63,6.63,0,0,0,4.43,1.12,9.39,9.39,0,0,0,4.35-1.66,17.62,17.62,0,0,0,2.9-2.59C422.44,390.59,423.29,389.48,423.36,389.53Z" style="fill:#263238"></path><path d="M412,384.08s.07-.09.25-.19a2.27,2.27,0,0,1,.85-.25A3.23,3.23,0,0,1,416,385a4.92,4.92,0,0,1,.91,2.09,8.56,8.56,0,0,1,0,2.58,10.6,10.6,0,0,1-.71,2.76,4.8,4.8,0,0,1-2,2.38,1.89,1.89,0,0,1-1.68.24,2.81,2.81,0,0,1-1.07-1.2,10,10,0,0,1-1.05-2.65,9.24,9.24,0,0,1,.09-4.79,4.18,4.18,0,0,1,2-2.55,2.7,2.7,0,0,1,.84-.28.57.57,0,0,1,.31,0,6.73,6.73,0,0,0-1,.47,4.06,4.06,0,0,0-1.71,2.48,9.24,9.24,0,0,0,0,4.56,9.78,9.78,0,0,0,1,2.51,2.54,2.54,0,0,0,.84,1,1.44,1.44,0,0,0,1.22-.22,4.36,4.36,0,0,0,1.78-2.13,9.8,9.8,0,0,0,.7-2.62,5.85,5.85,0,0,0-.75-4.39,3,3,0,0,0-2.59-1.33A4.44,4.44,0,0,0,412,384.08Z" style="fill:#263238"></path><path d="M472.25,411.53s0-.29,0-.86,0-1.42,0-2.52c0-2.22,0-5.48,0-9.72,0-8.47-.05-20.81-.09-36.33l.16.16-156.65-1.8.26-.27c0,.4,0,.84,0,1.27.2,17.83.4,35.13.59,51.34l-.26-.25,111.63-.79,32.61-.19,8.75,0h3.05s-.24,0-.74,0l-2.24,0-8.7.1L428,412l-111.8,1H316v-.26c-.19-16.21-.39-33.51-.6-51.33,0-.44,0-.87,0-1.27v-.27h.27l156.65,2h.16v.17c0,15.57-.07,27.94-.09,36.43,0,4.22,0,7.47,0,9.69,0,1.08,0,1.91,0,2.48S472.25,411.53,472.25,411.53Z" style="fill:#263238"></path><path d="M315.66,360.12a3.31,3.31,0,0,1,.64.42c.46.32,1,.75,1.77,1.28l6.38,4.78.08.06v.11c-.29,5.13-.65,11.75-1,19-.51,8.68-1,16.5-1.36,21.88v.08l-.05.05-4.45,3.82-1.22,1c-.28.23-.43.34-.44.32a2.88,2.88,0,0,1,.38-.39c.3-.29.68-.65,1.15-1.08l4.34-3.95-.06.12c.27-5.39.69-13.21,1.2-21.89.44-7.22.85-13.84,1.17-19l.07.17L317.93,362l-1.7-1.37A5.13,5.13,0,0,1,315.66,360.12Z" style="fill:#263238"></path><path d="M471.57,411.24a2.08,2.08,0,0,1-.41-.27c-.26-.2-.64-.5-1.1-.92a20.89,20.89,0,0,1-3.46-4l0,0v-.05c-.12-4.79-.26-11.69-.37-19.35-.08-7-.15-13.44-.2-18.23v-.09l.07-.06a24.37,24.37,0,0,0,4.23-4.3c.86-1.14,1.27-1.83,1.31-1.8a2,2,0,0,1-.25.52c-.19.33-.48.81-.89,1.4a22.83,22.83,0,0,1-4.16,4.48l.07-.15c.09,4.78.21,11.18.34,18.23.11,7.65.18,14.55.2,19.34l0-.09a23.69,23.69,0,0,0,3.3,4.07C471.07,410.78,471.6,411.21,471.57,411.24Z" style="fill:#263238"></path><path d="M466.19,368.36c0,.14-31.76-.1-70.93-.54s-70.93-.92-70.93-1.06,31.75.1,70.93.54S466.19,368.22,466.19,368.36Z" style="fill:#263238"></path><path d="M466.74,405.94c0,.14-32.41.63-72.39,1.1s-72.41.72-72.41.57,32.41-.63,72.4-1.09S466.74,405.79,466.74,405.94Z" style="fill:#263238"></path><g style="opacity:0.30000000000000004"><path d="M240.28,341.84a4.06,4.06,0,0,1-.24-1c-.12-.63-.28-1.55-.45-2.68-.35-2.28-.76-5.43-1.1-8.93s-.52-6.67-.6-9c0-1.15-.06-2.08-.06-2.72a3.86,3.86,0,0,1,.06-1,31,31,0,0,1,.37,3.71c.18,2.29.42,5.45.75,8.94s.68,6.64.94,8.93A26.5,26.5,0,0,1,240.28,341.84Z"></path></g><g style="opacity:0.30000000000000004"><path d="M293.82,342.06c-.14,0-.5-5.41-.81-12.09s-.44-12.1-.3-12.1.51,5.4.82,12.08S294,342.05,293.82,342.06Z"></path></g><g style="opacity:0.30000000000000004"><path d="M356.67,318.08c.15,0,0,5.82-.24,13s-.63,13-.77,13,0-5.82.25-13S356.53,318.07,356.67,318.08Z"></path></g><g style="opacity:0.30000000000000004"><path d="M413.35,343.58c-.15,0-.57-5.5-1-12.3S411.82,319,412,319s.57,5.49,1,12.29S413.49,343.57,413.35,343.58Z"></path></g><g style="opacity:0.30000000000000004"><path d="M478.81,319.61a3.88,3.88,0,0,1,.09,1.08q0,1.21.06,2.94c0,2.61.09,6,.15,9.71s.15,7.09.21,9.7c0,1.16,0,2.14,0,2.95a4.21,4.21,0,0,1-.05,1.08,4.57,4.57,0,0,1-.15-1.07c-.06-.7-.14-1.7-.21-2.94-.15-2.48-.29-5.92-.36-9.71s0-7.24,0-9.72c0-1.25.07-2.25.11-2.95A4.14,4.14,0,0,1,478.81,319.61Z"></path></g><g style="opacity:0.30000000000000004"><path d="M536.84,348.16c-.15,0-.61-6.62-1-14.8s-.66-14.83-.51-14.84.6,6.62,1,14.81S537,348.15,536.84,348.16Z"></path></g><path d="M238.22,339.06a12.84,12.84,0,0,0-3,3.88,12.05,12.05,0,0,0-1.13,5.53,19.74,19.74,0,0,0,1.64,7.22l.15.34-.37,0a15.57,15.57,0,0,0-10.63,3,24,24,0,0,0-4.68,4.25,23.14,23.14,0,0,0-3.61,5.58c-2.72,6.16-2.26,13.21.74,17.9l.22.36h-.42a24.77,24.77,0,0,0-9.45,1.86,23.81,23.81,0,0,0-6.41,3.92,26.42,26.42,0,0,0-3.41,3.5c-.36.44-.6.8-.79,1a2.38,2.38,0,0,1-.29.35,2.14,2.14,0,0,1,.23-.39c.16-.24.39-.62.74-1.07a24,24,0,0,1,3.34-3.63,23.73,23.73,0,0,1,6.44-4.06,24.67,24.67,0,0,1,9.6-2l-.2.36c-3.11-4.83-3.6-12.06-.81-18.37a23.78,23.78,0,0,1,3.68-5.71,24.36,24.36,0,0,1,4.8-4.32,16,16,0,0,1,11-3l-.22.29a20,20,0,0,1-1.6-7.38,12.25,12.25,0,0,1,1.26-5.64,11.05,11.05,0,0,1,2.22-3c.32-.29.58-.48.75-.62A1.44,1.44,0,0,1,238.22,339.06Z" style="fill:#fff"></path><path d="M192.63,342.32c0-.14,9.75,2.78,21.67,6.53s21.56,6.88,21.52,7-9.75-2.78-21.67-6.53S192.59,342.46,192.63,342.32Z" style="fill:#fff"></path><path d="M221.86,339.78a20.57,20.57,0,0,0-.42,3.5,14.62,14.62,0,0,0,2.72,8.75l.23.31-.38,0a15.91,15.91,0,0,0-13.29,9.48,15.61,15.61,0,0,0-.55,11.64l.14.37-.4-.05a14.12,14.12,0,0,0-7.11,1,15.08,15.08,0,0,0-4.75,3.09,19,19,0,0,0-3.09,4,1,1,0,0,1,.13-.32,9.3,9.3,0,0,1,.45-.89,14.7,14.7,0,0,1,2.3-3,15.37,15.37,0,0,1,4.8-3.26,14.45,14.45,0,0,1,7.33-1.1l-.25.32a16.51,16.51,0,0,1,6.54-19.12,16.18,16.18,0,0,1,7.72-2.6l-.16.34a14.54,14.54,0,0,1-2.63-9,13.5,13.5,0,0,1,.38-2.61A4.54,4.54,0,0,1,221.86,339.78Z" style="fill:#fff"></path><path d="M209.77,341.09a6.46,6.46,0,0,0-.72,1.71,5.77,5.77,0,0,0,1.1,4.62l.2.25-.31.08a10,10,0,0,0-3.79,2.11,9.15,9.15,0,0,0-2.87,4.05,10,10,0,0,0-.24,6.62l.11.31h-.32a14.13,14.13,0,0,0-6.57,1.76,25,25,0,0,0-2.16,1.56s.13-.21.45-.55a9.8,9.8,0,0,1,1.56-1.25,13.74,13.74,0,0,1,6.69-2l-.2.32a10.35,10.35,0,0,1,.18-7,9.63,9.63,0,0,1,3.05-4.25,10.14,10.14,0,0,1,4-2.14l-.12.34a5.86,5.86,0,0,1-1-4.94,4,4,0,0,1,.61-1.28A1.64,1.64,0,0,1,209.77,341.09Z" style="fill:#fff"></path><rect x="149.35" y="452.27" width="472.58" height="28.54" style="fill:#FF725E"></rect><rect x="168.78" y="424.42" width="433.72" height="28.54" style="fill:#FF725E"></rect><g style="opacity:0.30000000000000004"><rect x="149.35" y="452.27" width="472.58" height="28.54"></rect></g><g style="opacity:0.30000000000000004"><rect x="168.78" y="424.42" width="433.72" height="28.54"></rect></g><path d="M621.93,452.27c0,.15-105.8.26-236.28.26s-236.3-.11-236.3-.26,105.77-.26,236.3-.26S621.93,452.13,621.93,452.27Z" style="fill:#263238"></path><path d="M192.63,341.79s.12.14.3.43.46.77.76,1.28l2.73,4.74c2.29,4,5.44,9.57,8.86,15.73s6.46,11.78,8.6,15.88c1.06,2,1.92,3.72,2.49,4.88.26.53.47,1,.64,1.34a2.13,2.13,0,0,1,.2.48s-.12-.14-.29-.43l-.73-1.3L213.55,380c-2.27-4.11-5.33-9.67-8.73-15.81s-6.45-11.69-8.72-15.8l-2.59-4.82-.67-1.33A2.35,2.35,0,0,1,192.63,341.79Z" style="fill:#fff"></path></g><g id="freepik--Bricks--inject-215"><path d="M675.53,109.07s0-.09,0-.24l0-.66c0-.6,0-1.45,0-2.53,0-2.22-.05-5.42-.09-9.44l.15.15-48.65.09c.11-.11-.25.25.25-.24h0v6.52c0,2.14,0,4.26,0,6.33l-.24-.25,34.67.11,10.24.07,2.76,0h.73l.25,0h-.22l-.69,0-2.72,0-10.18.07-34.84.11h-.24v-6.57c0-1.08,0-2.16,0-3.25V96.22h0l.25-.25,48.65.1h.16v.15c0,4.06-.07,7.29-.09,9.53,0,1.07,0,1.9,0,2.5l0,.63A.85.85,0,0,1,675.53,109.07Z" style="fill:#263238"></path><path d="M119.06,61.57a1,1,0,0,1,0-.23c0-.17,0-.39,0-.66,0-.61,0-1.45,0-2.54,0-2.22,0-5.41-.09-9.44l.16.15L70.41,49c.11-.11-.25.25.24-.25h0v6.52q0,3.23,0,6.33l-.24-.24,34.67.11,10.24.07,2.76,0,.73,0h.26l-.23,0h-.69l-2.72,0-10.18.07-34.84.11h-.24V55.24c0-1.07,0-2.16,0-3.25V48.72h0c.5-.5.14-.14.26-.25l48.65.1h.15v.15c0,4.07-.07,7.29-.09,9.53,0,1.07,0,1.91,0,2.5,0,.26,0,.47,0,.64A1.23,1.23,0,0,1,119.06,61.57Z" style="fill:#263238"></path><path d="M288.18,283.08s0-.09,0-.24l0-.66c0-.6,0-1.45,0-2.53,0-2.22-.05-5.42-.09-9.44l.15.15-48.65.09.25-.24h0v6.52c0,2.15,0,4.26,0,6.33l-.24-.24,34.67.11,10.24.06,2.76,0h.73l.25,0H288l-.7,0-2.71,0-10.18.07-34.84.11h-.24v-.24q0-3.1,0-6.33v-6.52h0l.25-.25,48.65.1h.16v.15c0,4.06-.06,7.29-.08,9.53,0,1.07,0,1.9,0,2.5v.63A.85.85,0,0,1,288.18,283.08Z" style="fill:#263238"></path><path d="M294.78,270.21a1.41,1.41,0,0,1,0-.25c0-.18,0-.41,0-.68,0-.63,0-1.49,0-2.58,0-2.26-.06-5.44-.1-9.36l.18.17-29.23.07c-.22.23.3-.3.25-.24h0V264c0,2.15,0,4.24,0,6.24l-.23-.24,20.91.11,6.09.07,1.64,0,.59,0a3.28,3.28,0,0,1-.53,0l-1.59,0-6,.06-21.07.11h-.24v-.23c0-2,0-4.09,0-6.24v-6.61h0l.25-.25,29.23.07H295v.18c0,4-.07,7.18-.1,9.47,0,1.07,0,1.91,0,2.54S294.79,270.22,294.78,270.21Z" style="fill:#263238"></path></g><g id="freepik--Floor--inject-215"><path d="M718.68,480.72c0,.14-154.67.26-345.43.26s-345.46-.12-345.46-.26,154.64-.26,345.46-.26S718.68,480.57,718.68,480.72Z" style="fill:#263238"></path></g><g id="freepik--Vase--inject-215"><path d="M119.08,419s29.5-30,17.56-77.73l-34.49,9.41s2.45-31.55,9-40.78H73.9s6.55,12.88,8.66,40.5c0,0-33.48-9.6-34.18-9.6S32.46,386,65.47,418l-8.19,9.36s6.55,29.5,17.79,43.31c0,0,2.57,7.5-3.75,9.84h42.84a7.09,7.09,0,0,1-5.15-7.26s14.52-22.94,18-44.72Zm-49.38-4c-23.38-26.49-15.59-64.68-15.59-64.68l29.21,6.67,2.74,46.32Zm28.75-11.69,2.74-46.32,29.21-6.67s7.79,38.19-15.59,64.68Z" style="fill:#455a64"></path><polygon points="82.19 346.17 102.57 346.17 102.92 343.06 81.87 343.06 82.19 346.17" style="fill:#263238"></polygon><path d="M62,444h61a140.67,140.67,0,0,1-5.67,13.79H67.39S62,447.05,62,444Z" style="fill:#263238"></path><path d="M127.59,428.81c0,.15-15.81.26-35.3.26S57,429,57,428.81s15.8-.26,35.3-.26S127.59,428.67,127.59,428.81Z" style="fill:#263238"></path><path d="M103,339.73c0,.14-4.88.26-10.9.26s-10.9-.12-10.9-.26,4.88-.26,10.9-.26S103,339.59,103,339.73Z" style="fill:#263238"></path></g></svg>