<svg xmlns="http://www.w3.org/2000/svg" viewBox="0 0 500 500"><g id="freepik--background-complete--inject-41"><path d="M373.65,79.39h-121s12-32.76,30.45-32.76,24.24,22.61,24.24,22.61S319.83,57,330.06,57s19.12,16.23,19.12,16.23S363.64,64.46,373.65,79.39Z" style="fill:#ebebeb"></path><path d="M267.47,159.22H210.93s12.64-18.3,22.59-18.3,12.89,12.2,12.89,12.2,7-5.69,13.53-4.67S267.47,159.22,267.47,159.22Z" style="fill:#ebebeb;opacity:0.5"></path><path d="M445.23,134.82H388.7s12.63-18.3,22.58-18.3,12.9,12.2,12.9,12.2,7-5.7,13.53-4.68S445.23,134.82,445.23,134.82Z" style="fill:#ebebeb;opacity:0.5"></path><path d="M208,223.85H97.9s15.07-33.67,31.21-35.77,23.84,25,23.84,25,10.41-9.59,18.59-9.59S186,216.14,186,216.14,202.4,207.48,208,223.85Z" style="fill:#ebebeb"></path><path d="M129.15,111.91H54.77S67.55,87.52,81.41,87.16s21.15,18.46,21.15,18.46S124.12,88.32,129.15,111.91Z" style="fill:#ebebeb;opacity:0.5"></path><path d="M414.93,191.81a38.11,38.11,0,0,1-6.15-.14c-2-.19-4-.47-6-.84s-4-.83-5.92-1.38a38.59,38.59,0,0,1-5.79-2.08,39.3,39.3,0,0,1,6.15.13c2,.19,4,.48,6,.85s4,.83,5.92,1.38A38.59,38.59,0,0,1,414.93,191.81Z" style="fill:#c7c7c7"></path><path d="M429.4,194.5a16,16,0,0,1-2.86,0c-.94-.08-1.87-.21-2.79-.38s-1.84-.38-2.75-.64a17,17,0,0,1-2.67-1,17,17,0,0,1,2.86,0c.94.08,1.87.21,2.79.38s1.84.39,2.74.65A18.09,18.09,0,0,1,429.4,194.5Z" style="fill:#c7c7c7"></path><path d="M409.84,167.24a39.37,39.37,0,0,1-4.44,4.24q-2.36,2-4.85,3.66t-5.16,3.22a37.8,37.8,0,0,1-5.57,2.61,38.72,38.72,0,0,1,4.45-4.25c1.56-1.3,3.18-2.51,4.85-3.65s3.39-2.22,5.16-3.21A38.22,38.22,0,0,1,409.84,167.24Z" style="fill:#c7c7c7"></path><path d="M422,158.91a17.5,17.5,0,0,1-2,2c-.72.6-1.47,1.17-2.24,1.7s-1.58,1-2.4,1.48a17.54,17.54,0,0,1-2.6,1.19,16,16,0,0,1,2-2c.72-.61,1.47-1.18,2.24-1.71s1.58-1,2.4-1.48A16.53,16.53,0,0,1,422,158.91Z" style="fill:#c7c7c7"></path><path d="M388.87,153.45a38.11,38.11,0,0,1-.14,6.15q-.28,3-.84,6c-.37,2-.82,4-1.37,5.92a39.25,39.25,0,0,1-2.09,5.78,38,38,0,0,1,.14-6.14c.18-2,.47-4,.84-6s.83-4,1.38-5.92A38.59,38.59,0,0,1,388.87,153.45Z" style="fill:#c7c7c7"></path><path d="M391.57,139a18.17,18.17,0,0,1,0,2.86c-.08.94-.21,1.87-.38,2.79s-.39,1.84-.65,2.74a16.67,16.67,0,0,1-1,2.68,17,17,0,0,1,0-2.86,30,30,0,0,1,1-5.53A15.77,15.77,0,0,1,391.57,139Z" style="fill:#c7c7c7"></path><path d="M364.3,158.54a38.64,38.64,0,0,1,4.25,4.44c1.3,1.57,2.51,3.18,3.66,4.85s2.22,3.39,3.21,5.16a38.9,38.9,0,0,1,2.62,5.57,38.81,38.81,0,0,1-4.26-4.45q-1.93-2.34-3.65-4.85t-3.21-5.16A39.29,39.29,0,0,1,364.3,158.54Z" style="fill:#c7c7c7"></path><path d="M356,146.4a16.74,16.74,0,0,1,2,2,28.07,28.07,0,0,1,1.7,2.24,26.72,26.72,0,0,1,1.49,2.4,16.53,16.53,0,0,1,1.18,2.6,16,16,0,0,1-2-2c-.61-.72-1.17-1.47-1.71-2.25s-1-1.57-1.48-2.39A16.53,16.53,0,0,1,356,146.4Z" style="fill:#c7c7c7"></path><path d="M350.52,179.51a39.2,39.2,0,0,1,6.14.13c2,.19,4,.48,6,.85s4,.82,5.92,1.37a39.36,39.36,0,0,1,5.79,2.09,38.11,38.11,0,0,1-6.15-.14q-3-.28-6-.84c-2-.38-4-.83-5.92-1.38A40.37,40.37,0,0,1,350.52,179.51Z" style="fill:#c7c7c7"></path><path d="M336,176.81a17,17,0,0,1,2.86,0c.94.08,1.87.21,2.79.38s1.84.39,2.75.65a16.93,16.93,0,0,1,2.67,1,16.05,16.05,0,0,1-2.86,0c-.93-.08-1.87-.21-2.79-.38s-1.84-.39-2.74-.65A17,17,0,0,1,336,176.81Z" style="fill:#c7c7c7"></path><path d="M355.6,204.08a39.47,39.47,0,0,1,4.44-4.25c1.57-1.3,3.19-2.51,4.86-3.66s3.38-2.22,5.15-3.21a38.9,38.9,0,0,1,5.57-2.62,38.6,38.6,0,0,1-4.44,4.25q-2.35,1.95-4.86,3.66c-1.67,1.14-3.38,2.22-5.16,3.21A39.29,39.29,0,0,1,355.6,204.08Z" style="fill:#c7c7c7"></path><path d="M343.46,212.41a16,16,0,0,1,2-2c.72-.61,1.47-1.17,2.24-1.71s1.58-1,2.4-1.48a16.53,16.53,0,0,1,2.6-1.18,16.74,16.74,0,0,1-2,2,29.16,29.16,0,0,1-4.64,3.18A17.54,17.54,0,0,1,343.46,212.41Z" style="fill:#c7c7c7"></path><path d="M376.57,217.86a38.16,38.16,0,0,1,.14-6.15c.19-2,.47-4,.84-6s.82-4,1.38-5.92A37.81,37.81,0,0,1,381,194a39.33,39.33,0,0,1-.13,6.15c-.19,2-.48,4-.85,6s-.83,4-1.38,5.91A37.81,37.81,0,0,1,376.57,217.86Z" style="fill:#c7c7c7"></path><path d="M373.87,232.34a18.17,18.17,0,0,1,0-2.86,26,26,0,0,1,.39-2.79c.17-.93.38-1.84.64-2.75a16.49,16.49,0,0,1,1-2.68,18.17,18.17,0,0,1,0,2.86,26.55,26.55,0,0,1-.39,2.8c-.17.92-.38,1.83-.64,2.74A17.47,17.47,0,0,1,373.87,232.34Z" style="fill:#c7c7c7"></path><path d="M401.14,212.78a38.72,38.72,0,0,1-4.25-4.45q-1.93-2.34-3.66-4.85c-1.14-1.67-2.22-3.38-3.21-5.16a38.78,38.78,0,0,1-2.62-5.56,38.69,38.69,0,0,1,4.26,4.44q1.93,2.36,3.65,4.86t3.21,5.16A38.78,38.78,0,0,1,401.14,212.78Z" style="fill:#c7c7c7"></path><path d="M409.47,224.92a17.49,17.49,0,0,1-2-2,26.53,26.53,0,0,1-1.7-2.25,28,28,0,0,1-1.49-2.39,16.24,16.24,0,0,1-1.18-2.61,17.47,17.47,0,0,1,2,2q.91,1.1,1.71,2.25c.53.77,1,1.57,1.48,2.4A16.53,16.53,0,0,1,409.47,224.92Z" style="fill:#c7c7c7"></path><path d="M402,181.65a23.75,23.75,0,0,1-3.44,1.34c-1.17.36-2.34.66-3.53.92s-2.39.45-3.6.6a23.83,23.83,0,0,1-3.69.18,22.3,22.3,0,0,1,3.44-1.35c1.16-.36,2.34-.66,3.53-.91s2.39-.46,3.6-.6A22.65,22.65,0,0,1,402,181.65Z" style="fill:#c7c7c7"></path><path d="M410.65,179.81a9.79,9.79,0,0,1-1.59.64,15.83,15.83,0,0,1-1.64.43c-.55.12-1.11.21-1.67.28a10.87,10.87,0,0,1-1.72.06,11,11,0,0,1,1.6-.65c.54-.17,1.08-.31,1.63-.43s1.11-.21,1.68-.27A9.72,9.72,0,0,1,410.65,179.81Z" style="fill:#c7c7c7"></path><path d="M393.52,169.19a22.79,22.79,0,0,1-1.49,3.38c-.57,1.08-1.18,2.13-1.84,3.15s-1.37,2-2.13,3a22.73,22.73,0,0,1-2.48,2.73,21.79,21.79,0,0,1,1.49-3.38,35.54,35.54,0,0,1,1.85-3.15c.66-1,1.36-2,2.12-3A22.82,22.82,0,0,1,393.52,169.19Z" style="fill:#c7c7c7"></path><path d="M398.34,161.77a10.16,10.16,0,0,1-.68,1.58,16.7,16.7,0,0,1-1.84,2.84,9.88,9.88,0,0,1-1.17,1.26,11.19,11.19,0,0,1,.67-1.58,16.59,16.59,0,0,1,.86-1.47,14.4,14.4,0,0,1,1-1.37A9.88,9.88,0,0,1,398.34,161.77Z" style="fill:#c7c7c7"></path><path d="M378.71,166.38a22.65,22.65,0,0,1,1.34,3.44c.36,1.16.67,2.34.92,3.53s.46,2.39.6,3.6a22.59,22.59,0,0,1,.18,3.69,22.65,22.65,0,0,1-1.34-3.44c-.36-1.17-.67-2.34-.92-3.53s-.45-2.39-.6-3.6A23.83,23.83,0,0,1,378.71,166.38Z" style="fill:#c7c7c7"></path><path d="M376.87,157.73a9.79,9.79,0,0,1,.64,1.59A15.23,15.23,0,0,1,378,161c.11.55.21,1.1.27,1.67a9.72,9.72,0,0,1,.06,1.71,9.79,9.79,0,0,1-.64-1.59,15.19,15.19,0,0,1-.43-1.64c-.12-.55-.21-1.1-.28-1.67A10.78,10.78,0,0,1,376.87,157.73Z" style="fill:#c7c7c7"></path><path d="M366.25,174.86a22.75,22.75,0,0,1,3.38,1.48c1.08.57,2.13,1.19,3.15,1.85s2,1.37,3,2.12a22.91,22.91,0,0,1,2.74,2.49,24,24,0,0,1-3.39-1.49c-1.08-.57-2.12-1.18-3.14-1.85s-2-1.36-3-2.12A23.69,23.69,0,0,1,366.25,174.86Z" style="fill:#c7c7c7"></path><path d="M358.84,170a12.28,12.28,0,0,1,1.58.67c.5.27,1,.55,1.46.86a14.4,14.4,0,0,1,1.37,1,9.88,9.88,0,0,1,1.26,1.17,10.16,10.16,0,0,1-1.58-.68,16.33,16.33,0,0,1-1.46-.85,15,15,0,0,1-1.38-1A9.18,9.18,0,0,1,358.84,170Z" style="fill:#c7c7c7"></path><path d="M363.44,189.66a22.6,22.6,0,0,1,3.44-1.33c1.17-.37,2.35-.67,3.53-.92s2.39-.46,3.6-.6a22.65,22.65,0,0,1,3.69-.18,23.31,23.31,0,0,1-3.44,1.34c-1.16.36-2.34.67-3.53.92s-2.39.45-3.6.6A23.77,23.77,0,0,1,363.44,189.66Z" style="fill:#c7c7c7"></path><path d="M354.79,191.51a9.84,9.84,0,0,1,1.59-.65c.54-.17,1.09-.31,1.64-.43a15.69,15.69,0,0,1,1.67-.27,9.79,9.79,0,0,1,1.72-.06,9.89,9.89,0,0,1-1.6.64,17.3,17.3,0,0,1-3.3.7A11,11,0,0,1,354.79,191.51Z" style="fill:#c7c7c7"></path><path d="M371.92,202.12a24.39,24.39,0,0,1,1.49-3.38c.57-1.08,1.18-2.12,1.85-3.14a36.39,36.39,0,0,1,2.12-3,22.82,22.82,0,0,1,2.48-2.74,22.75,22.75,0,0,1-1.48,3.38c-.57,1.08-1.19,2.13-1.85,3.15s-1.37,2-2.13,3A22.73,22.73,0,0,1,371.92,202.12Z" style="fill:#c7c7c7"></path><path d="M367.11,209.54a9.61,9.61,0,0,1,.67-1.58,16.33,16.33,0,0,1,.85-1.46c.31-.47.63-.93,1-1.38a9.8,9.8,0,0,1,1.17-1.25,10.55,10.55,0,0,1-.67,1.58,16.43,16.43,0,0,1-.86,1.46c-.3.47-.63.93-1,1.38A10.63,10.63,0,0,1,367.11,209.54Z" style="fill:#c7c7c7"></path><path d="M386.73,204.94a23.75,23.75,0,0,1-1.34-3.44c-.36-1.17-.67-2.35-.92-3.54s-.46-2.38-.6-3.6a22.54,22.54,0,0,1-.18-3.69,21.76,21.76,0,0,1,1.34,3.45,35.89,35.89,0,0,1,.92,3.53c.25,1.19.46,2.39.6,3.6A23.7,23.7,0,0,1,386.73,204.94Z" style="fill:#c7c7c7"></path><path d="M388.57,213.59a10.16,10.16,0,0,1-.64-1.59,15.89,15.89,0,0,1-.44-1.64c-.11-.55-.21-1.11-.27-1.67a9.83,9.83,0,0,1-.06-1.72,9.79,9.79,0,0,1,.64,1.59,15.89,15.89,0,0,1,.44,1.64c.11.55.2,1.11.27,1.67A10.91,10.91,0,0,1,388.57,213.59Z" style="fill:#c7c7c7"></path><path d="M399.19,196.46a23.87,23.87,0,0,1-3.38-1.49c-1.08-.57-2.13-1.19-3.15-1.85s-2-1.36-3-2.12a22.82,22.82,0,0,1-2.74-2.48,22.86,22.86,0,0,1,3.39,1.48c1.08.57,2.12,1.19,3.14,1.85s2,1.37,3,2.12A23.79,23.79,0,0,1,399.19,196.46Z" style="fill:#c7c7c7"></path><path d="M406.61,201.27a9.26,9.26,0,0,1-1.58-.67c-.51-.26-1-.55-1.47-.85s-.93-.64-1.37-1a10.65,10.65,0,0,1-1.26-1.17,9.26,9.26,0,0,1,1.58.67c.51.26,1,.55,1.46.85s.94.64,1.38,1A10.65,10.65,0,0,1,406.61,201.27Z" style="fill:#c7c7c7"></path><path d="M355.4,197.16a64.6,64.6,0,0,0-10.89,6.9,82.23,82.23,0,0,0-9.55,8.62,85.89,85.89,0,0,0-14.67,21A96.3,96.3,0,0,0,312.07,258a130.49,130.49,0,0,0-2.44,25.66c-.05-2.15-.12-4.31-.12-6.47s.08-4.31.22-6.47.29-4.31.62-6.45l.41-3.22c.16-1.07.37-2.13.56-3.19a93.82,93.82,0,0,1,8.08-24.62,84.11,84.11,0,0,1,15-21.11A69.77,69.77,0,0,1,355.4,197.16Z" style="fill:#c7c7c7"></path><path d="M200.88,232.13a24,24,0,0,0,3.73.51c1.24.08,2.47.11,3.71.08s2.47-.11,3.71-.26a23.93,23.93,0,0,0,3.69-.69,23.78,23.78,0,0,0-3.72-.52c-1.24-.08-2.48-.1-3.72-.07s-2.47.11-3.7.25A23.86,23.86,0,0,0,200.88,232.13Z" style="fill:#c7c7c7"></path><path d="M191.88,232.34a9.53,9.53,0,0,0,1.73.26,16.55,16.55,0,0,0,1.72.05c.58,0,1.15-.06,1.72-.13a10.26,10.26,0,0,0,1.72-.34,9.53,9.53,0,0,0-1.73-.26,14.16,14.16,0,0,0-1.72,0,16.38,16.38,0,0,0-1.72.12A10.46,10.46,0,0,0,191.88,232.34Z" style="fill:#c7c7c7"></path><path d="M206.34,217.79a24.33,24.33,0,0,0,2.27,3c.82.93,1.68,1.82,2.57,2.68s1.83,1.67,2.8,2.44a23.32,23.32,0,0,0,3.11,2.12,23.37,23.37,0,0,0-2.27-3c-.82-.93-1.68-1.83-2.57-2.68s-1.83-1.67-2.8-2.44A24.31,24.31,0,0,0,206.34,217.79Z" style="fill:#c7c7c7"></path><path d="M199.83,211.58a10.41,10.41,0,0,0,1,1.41c.38.43.78.85,1.19,1.24s.85.78,1.3,1.13a9.74,9.74,0,0,0,1.46,1,9.68,9.68,0,0,0-1-1.41,19,19,0,0,0-2.49-2.37A11.1,11.1,0,0,0,199.83,211.58Z" style="fill:#c7c7c7"></path><path d="M220.34,211.51a24,24,0,0,0-.51,3.73c-.09,1.24-.11,2.47-.08,3.71s.11,2.47.25,3.71a22.83,22.83,0,0,0,.7,3.69,23.75,23.75,0,0,0,.51-3.72c.09-1.24.11-2.48.08-3.72s-.11-2.47-.26-3.7A23.83,23.83,0,0,0,220.34,211.51Z" style="fill:#c7c7c7"></path><path d="M220.12,202.51a11.67,11.67,0,0,0-.26,1.73c0,.58-.05,1.15,0,1.72a16.38,16.38,0,0,0,.12,1.72,10.29,10.29,0,0,0,.35,1.72,9.53,9.53,0,0,0,.26-1.73,18.54,18.54,0,0,0-.08-3.44A10.5,10.5,0,0,0,220.12,202.51Z" style="fill:#c7c7c7"></path><path d="M234.68,217a24.33,24.33,0,0,0-3,2.27c-.94.82-1.83,1.68-2.68,2.57s-1.67,1.83-2.44,2.8a23.32,23.32,0,0,0-2.12,3.11,24.09,24.09,0,0,0,3-2.27c.93-.82,1.82-1.68,2.67-2.57s1.67-1.83,2.44-2.8A23.38,23.38,0,0,0,234.68,217Z" style="fill:#c7c7c7"></path><path d="M240.89,210.46a10.41,10.41,0,0,0-1.41,1c-.44.38-.85.78-1.25,1.19s-.77.85-1.13,1.3a10.52,10.52,0,0,0-1,1.46,9.59,9.59,0,0,0,1.4-1,14.06,14.06,0,0,0,1.25-1.19c.4-.41.77-.85,1.13-1.3A11.1,11.1,0,0,0,240.89,210.46Z" style="fill:#c7c7c7"></path><path d="M241,231a24,24,0,0,0-3.73-.51c-1.24-.09-2.48-.11-3.71-.08s-2.48.11-3.71.25a22.94,22.94,0,0,0-3.7.7,24,24,0,0,0,3.73.51c1.24.09,2.48.11,3.71.08s2.48-.11,3.71-.26A24.05,24.05,0,0,0,241,231Z" style="fill:#c7c7c7"></path><path d="M250,230.75a11.35,11.35,0,0,0-1.72-.26c-.58,0-1.15-.05-1.73,0a16.76,16.76,0,0,0-1.72.12,10.38,10.38,0,0,0-1.71.35,9.4,9.4,0,0,0,1.73.26,18.54,18.54,0,0,0,3.44-.08A10.38,10.38,0,0,0,250,230.75Z" style="fill:#c7c7c7"></path><path d="M235.5,245.31a24.33,24.33,0,0,0-2.27-3c-.82-.94-1.68-1.83-2.58-2.68a36.23,36.23,0,0,0-2.8-2.44,23.21,23.21,0,0,0-3.1-2.12,23.15,23.15,0,0,0,2.27,3c.81.93,1.67,1.82,2.57,2.67s1.83,1.67,2.8,2.44A23.38,23.38,0,0,0,235.5,245.31Z" style="fill:#c7c7c7"></path><path d="M242,251.52a9.68,9.68,0,0,0-1-1.41c-.37-.44-.77-.85-1.18-1.25s-.85-.77-1.31-1.13a10.41,10.41,0,0,0-1.45-1,10.31,10.31,0,0,0,1,1.4c.38.44.78.86,1.19,1.25s.85.77,1.31,1.13A10.46,10.46,0,0,0,242,251.52Z" style="fill:#c7c7c7"></path><path d="M221.5,251.58a23.75,23.75,0,0,0,.51-3.72c.08-1.24.11-2.48.08-3.71s-.11-2.48-.26-3.71a24.05,24.05,0,0,0-.69-3.7,24.07,24.07,0,0,0-.52,3.73c-.08,1.24-.1,2.48-.07,3.71s.11,2.48.25,3.71A23.74,23.74,0,0,0,221.5,251.58Z" style="fill:#c7c7c7"></path><path d="M221.71,260.58a9.29,9.29,0,0,0,.26-1.72,16.66,16.66,0,0,0,.05-1.73c0-.57-.06-1.14-.13-1.72a10.35,10.35,0,0,0-.34-1.71,9.4,9.4,0,0,0-.26,1.73,14.11,14.11,0,0,0,0,1.72,16.57,16.57,0,0,0,.12,1.72A10.35,10.35,0,0,0,221.71,260.58Z" style="fill:#c7c7c7"></path><path d="M207.16,246.13a24.33,24.33,0,0,0,3-2.27c.93-.82,1.82-1.68,2.68-2.58s1.67-1.82,2.44-2.8a23.21,23.21,0,0,0,2.12-3.1,22.49,22.49,0,0,0-3,2.27c-.93.81-1.83,1.67-2.68,2.57s-1.67,1.83-2.44,2.8A24.31,24.31,0,0,0,207.16,246.13Z" style="fill:#c7c7c7"></path><path d="M201,252.64a9.68,9.68,0,0,0,1.41-1c.43-.37.85-.77,1.24-1.18a15.6,15.6,0,0,0,1.13-1.31,9.64,9.64,0,0,0,1-1.45,10.41,10.41,0,0,0-1.41,1c-.43.38-.85.78-1.24,1.19a15.6,15.6,0,0,0-1.13,1.31A10.46,10.46,0,0,0,201,252.64Z" style="fill:#c7c7c7"></path><path d="M209.67,227.25a14.24,14.24,0,0,0,2,1.15q1,.49,2,.9c.69.26,1.4.5,2.12.71a13.12,13.12,0,0,0,2.21.46,13.76,13.76,0,0,0-2-1.14q-1-.5-2-.9c-.7-.27-1.4-.51-2.12-.71A14.7,14.7,0,0,0,209.67,227.25Z" style="fill:#c7c7c7"></path><path d="M204.63,225.3a6.92,6.92,0,0,0,.9.54,8.71,8.71,0,0,0,.94.42,8.84,8.84,0,0,0,1,.33,5.69,5.69,0,0,0,1,.2,6.92,6.92,0,0,0-.9-.54c-.31-.16-.63-.29-1-.42s-.65-.23-1-.33A6.71,6.71,0,0,0,204.63,225.3Z" style="fill:#c7c7c7"></path><path d="M216,220.56a15.49,15.49,0,0,0,.57,2.18c.24.71.51,1.4.81,2.08s.63,1.35,1,2a15.28,15.28,0,0,0,1.23,1.89,14.52,14.52,0,0,0-.56-2.18c-.24-.71-.51-1.4-.81-2.08s-.63-1.35-1-2A14.29,14.29,0,0,0,216,220.56Z" style="fill:#c7c7c7"></path><path d="M213.82,215.61a5.63,5.63,0,0,0,.25,1c.11.33.23.65.37,1s.3.62.47.92a6.07,6.07,0,0,0,.58.88,5.63,5.63,0,0,0-.25-1c-.11-.33-.23-.65-.37-1s-.3-.62-.47-.93A6,6,0,0,0,213.82,215.61Z" style="fill:#c7c7c7"></path><path d="M225.21,220.3a15.26,15.26,0,0,0-1.14,1.95q-.49,1-.9,2a22,22,0,0,0-.71,2.12,14.19,14.19,0,0,0-.47,2.21,14.87,14.87,0,0,0,1.15-2q.5-1,.9-2c.26-.7.5-1.4.71-2.12A13.54,13.54,0,0,0,225.21,220.3Z" style="fill:#c7c7c7"></path><path d="M227.17,215.26a6,6,0,0,0-.55.9c-.15.31-.29.62-.42.94s-.23.65-.32,1a6.71,6.71,0,0,0-.21,1,6,6,0,0,0,.55-.9c.15-.31.29-.63.42-.95s.23-.65.32-1A6.71,6.71,0,0,0,227.17,215.26Z" style="fill:#c7c7c7"></path><path d="M231.91,226.63a15.63,15.63,0,0,0-2.19.57c-.7.24-1.4.51-2.08.81s-1.34.63-2,1a15.28,15.28,0,0,0-1.89,1.23,14.34,14.34,0,0,0,2.19-.56c.71-.24,1.4-.51,2.08-.81s1.34-.63,2-1A14.29,14.29,0,0,0,231.91,226.63Z" style="fill:#c7c7c7"></path><path d="M236.85,224.45a5.74,5.74,0,0,0-1,.25c-.33.11-.65.23-1,.37s-.62.3-.93.47a6,6,0,0,0-.87.58,5.63,5.63,0,0,0,1-.25c.33-.11.65-.23,1-.37s.62-.3.92-.47A5.49,5.49,0,0,0,236.85,224.45Z" style="fill:#c7c7c7"></path><path d="M232.17,235.84a16,16,0,0,0-1.95-1.14q-1-.49-2-.9c-.7-.27-1.4-.51-2.12-.71a14.7,14.7,0,0,0-2.21-.47,14.24,14.24,0,0,0,2,1.15q1,.49,2,.9c.69.26,1.4.5,2.12.71A13.33,13.33,0,0,0,232.17,235.84Z" style="fill:#c7c7c7"></path><path d="M237.21,237.8a6,6,0,0,0-.9-.55c-.31-.15-.63-.29-.95-.42s-.65-.23-1-.32a6.71,6.71,0,0,0-1-.21,6,6,0,0,0,.9.55c.31.15.62.29.95.42a10.21,10.21,0,0,0,1,.32A6.71,6.71,0,0,0,237.21,237.8Z" style="fill:#c7c7c7"></path><path d="M225.83,242.54a14.34,14.34,0,0,0-.56-2.19c-.24-.7-.51-1.4-.81-2.08s-.63-1.34-1-2a14.29,14.29,0,0,0-1.24-1.89,14.36,14.36,0,0,0,.57,2.19c.24.71.51,1.4.81,2.08s.63,1.34,1,2A15.28,15.28,0,0,0,225.83,242.54Z" style="fill:#c7c7c7"></path><path d="M228,247.48a6.78,6.78,0,0,0-.25-1,10.28,10.28,0,0,0-.38-1,8.91,8.91,0,0,0-.46-.93,6.93,6.93,0,0,0-.58-.87,5.63,5.63,0,0,0,.25,1c.11.33.23.65.37,1s.29.62.46.92A6.34,6.34,0,0,0,228,247.48Z" style="fill:#c7c7c7"></path><path d="M216.62,242.8a15.55,15.55,0,0,0,1.15-2q.49-1,.9-2c.26-.7.5-1.4.71-2.12a13.54,13.54,0,0,0,.46-2.21,13.22,13.22,0,0,0-1.14,2q-.49,1-.9,2c-.27.69-.5,1.4-.71,2.12A14.44,14.44,0,0,0,216.62,242.8Z" style="fill:#c7c7c7"></path><path d="M214.67,247.84a6,6,0,0,0,.54-.9,8.86,8.86,0,0,0,.42-.95,8.68,8.68,0,0,0,.33-1,5.69,5.69,0,0,0,.2-1,6.92,6.92,0,0,0-.54.9,10.13,10.13,0,0,0-.42,1c-.12.32-.23.64-.33,1A6.71,6.71,0,0,0,214.67,247.84Z" style="fill:#c7c7c7"></path><path d="M209.93,236.46a14.21,14.21,0,0,0,2.18-.56c.71-.24,1.4-.51,2.08-.81s1.35-.63,2-1a15.07,15.07,0,0,0,1.9-1.24,14.36,14.36,0,0,0-2.19.57c-.71.24-1.4.51-2.08.81s-1.35.63-2,1A15.28,15.28,0,0,0,209.93,236.46Z" style="fill:#c7c7c7"></path><path d="M205,238.65a6.61,6.61,0,0,0,1-.25c.33-.11.65-.24,1-.38a8.77,8.77,0,0,0,.92-.46,7,7,0,0,0,.88-.58,5.63,5.63,0,0,0-1,.25c-.33.11-.65.23-1,.37s-.62.29-.92.46A6.44,6.44,0,0,0,205,238.65Z" style="fill:#c7c7c7"></path><path d="M236.29,241.15a41.64,41.64,0,0,1,11.33,11,50.9,50.9,0,0,1,7.07,14.23,56.51,56.51,0,0,1,2.44,15.69,65.58,65.58,0,0,1-.35,7.93c-.13,1.32-.36,2.62-.53,3.93s-.5,2.6-.76,3.89a83.73,83.73,0,0,0,.88-15.72,59.75,59.75,0,0,0-2.63-15.43A52.56,52.56,0,0,0,247,252.59a50.39,50.39,0,0,0-4.87-6.15A40.66,40.66,0,0,0,236.29,241.15Z" style="fill:#c7c7c7"></path><g style="opacity:0.30000000000000004"><path d="M250.69,105.38a63.74,63.74,0,0,1-7.8,6.14c-2.72,1.85-5.51,3.55-8.36,5.14s-5.78,3-8.79,4.37a63.12,63.12,0,0,1-9.34,3.35,62.05,62.05,0,0,1,7.79-6.15c2.72-1.85,5.51-3.55,8.36-5.13s5.79-3,8.79-4.37A63.24,63.24,0,0,1,250.69,105.38Z" style="fill:#dbdbdb"></path><path d="M271.48,93.86a27.29,27.29,0,0,1-3.59,2.9c-1.25.86-2.55,1.66-3.87,2.39s-2.68,1.41-4.08,2a27.44,27.44,0,0,1-4.37,1.5,26.5,26.5,0,0,1,3.59-2.9c1.25-.87,2.55-1.66,3.87-2.4s2.69-1.4,4.09-2A27.33,27.33,0,0,1,271.48,93.86Z" style="fill:#dbdbdb"></path><path d="M219.1,80a61.63,61.63,0,0,1-1.17,9.86c-.61,3.22-1.38,6.4-2.28,9.54s-1.93,6.25-3.12,9.3a61.14,61.14,0,0,1-4.24,9,61.77,61.77,0,0,1,1.17-9.86c.61-3.22,1.38-6.4,2.28-9.54s1.94-6.24,3.13-9.3A63.13,63.13,0,0,1,219.1,80Z" style="fill:#dbdbdb"></path><path d="M225.66,57.15a26.65,26.65,0,0,1-.49,4.59,43.86,43.86,0,0,1-1,4.43c-.42,1.46-.9,2.9-1.46,4.31a26.53,26.53,0,0,1-2,4.15,26.75,26.75,0,0,1,.49-4.59,44.51,44.51,0,0,1,1-4.43c.42-1.46.91-2.89,1.47-4.31A27.85,27.85,0,0,1,225.66,57.15Z" style="fill:#dbdbdb"></path><path d="M178.83,84.39a63.74,63.74,0,0,1,6.14,7.8c1.85,2.71,3.55,5.5,5.14,8.36s3,5.78,4.37,8.78a63.24,63.24,0,0,1,3.35,9.35,61.43,61.43,0,0,1-6.15-7.8c-1.85-2.71-3.55-5.5-5.13-8.36s-3.05-5.78-4.37-8.78A63.65,63.65,0,0,1,178.83,84.39Z" style="fill:#dbdbdb"></path><path d="M167.31,63.6a27.29,27.29,0,0,1,2.9,3.59,48.68,48.68,0,0,1,4.41,8,27.33,27.33,0,0,1,1.5,4.36,26.5,26.5,0,0,1-2.9-3.59,45.31,45.31,0,0,1-2.4-3.87q-1.09-2-2-4.08A27.33,27.33,0,0,1,167.31,63.6Z" style="fill:#dbdbdb"></path><path d="M153.45,116a64,64,0,0,1,9.86,1.17q4.83.93,9.54,2.28t9.3,3.12a62.18,62.18,0,0,1,9,4.24,60.64,60.64,0,0,1-9.86-1.16c-3.22-.61-6.4-1.38-9.54-2.28s-6.24-1.94-9.3-3.13A63.2,63.2,0,0,1,153.45,116Z" style="fill:#dbdbdb"></path><path d="M130.6,109.42a27.67,27.67,0,0,1,4.59.48c1.5.28,3,.63,4.43,1a43.69,43.69,0,0,1,4.31,1.46,27.38,27.38,0,0,1,4.15,2,27.79,27.79,0,0,1-4.59-.48c-1.5-.28-3-.63-4.43-1s-2.89-.9-4.31-1.46A27.85,27.85,0,0,1,130.6,109.42Z" style="fill:#dbdbdb"></path><path d="M157.84,156.25a63.83,63.83,0,0,1,7.8-6.15q4.06-2.76,8.36-5.13t8.78-4.37a61,61,0,0,1,9.35-3.35,61.43,61.43,0,0,1-7.8,6.15q-4.07,2.76-8.36,5.13t-8.78,4.36A62.55,62.55,0,0,1,157.84,156.25Z" style="fill:#dbdbdb"></path><path d="M137.05,167.77a27.29,27.29,0,0,1,3.59-2.9,46.76,46.76,0,0,1,8-4.41A26.37,26.37,0,0,1,153,159a27.29,27.29,0,0,1-3.59,2.9,47.65,47.65,0,0,1-8,4.4A27.35,27.35,0,0,1,137.05,167.77Z" style="fill:#dbdbdb"></path><path d="M189.42,181.62a64.15,64.15,0,0,1,1.17-9.86q.93-4.83,2.28-9.54t3.12-9.3a62.18,62.18,0,0,1,4.25-9,61.5,61.5,0,0,1-1.17,9.86c-.61,3.23-1.38,6.41-2.28,9.54s-1.94,6.25-3.13,9.3A62.18,62.18,0,0,1,189.42,181.62Z" style="fill:#dbdbdb"></path><path d="M182.87,204.47a27.79,27.79,0,0,1,.48-4.59c.28-1.49.63-3,1.05-4.43s.9-2.89,1.46-4.31a27.28,27.28,0,0,1,2-4.14,26.75,26.75,0,0,1-.48,4.59c-.28,1.49-.63,3-1.05,4.43s-.9,2.89-1.46,4.3A27.38,27.38,0,0,1,182.87,204.47Z" style="fill:#dbdbdb"></path><path d="M229.7,177.24a63.83,63.83,0,0,1-6.15-7.8q-2.76-4.08-5.13-8.36c-1.59-2.86-3-5.78-4.37-8.79A60.92,60.92,0,0,1,210.7,143a62.05,62.05,0,0,1,6.15,7.79q2.76,4.08,5.13,8.36t4.36,8.79A62.15,62.15,0,0,1,229.7,177.24Z" style="fill:#dbdbdb"></path><path d="M241.22,198a27.29,27.29,0,0,1-2.9-3.59c-.87-1.25-1.66-2.55-2.4-3.87s-1.41-2.68-2-4.08a26.48,26.48,0,0,1-1.5-4.37,27.29,27.29,0,0,1,2.9,3.59,47.22,47.22,0,0,1,4.4,8A27.35,27.35,0,0,1,241.22,198Z" style="fill:#dbdbdb"></path><path d="M255.08,145.65a61.76,61.76,0,0,1-9.87-1.17c-3.22-.61-6.4-1.38-9.54-2.28s-6.24-1.93-9.3-3.12a62.12,62.12,0,0,1-9-4.24,61.5,61.5,0,0,1,9.86,1.17c3.23.61,6.41,1.38,9.55,2.28s6.24,1.94,9.29,3.13A62.73,62.73,0,0,1,255.08,145.65Z" style="fill:#dbdbdb"></path><path d="M277.92,152.21a26.75,26.75,0,0,1-4.59-.49,45.17,45.17,0,0,1-4.43-1c-1.45-.42-2.89-.9-4.31-1.46a26.43,26.43,0,0,1-4.14-2,26.75,26.75,0,0,1,4.59.49,45.17,45.17,0,0,1,4.43,1c1.45.42,2.89.91,4.3,1.47A27.38,27.38,0,0,1,277.92,152.21Z" style="fill:#dbdbdb"></path><path d="M224.15,106a37.53,37.53,0,0,1-2.91,5.2q-1.62,2.48-3.45,4.78t-3.87,4.45a38.41,38.41,0,0,1-4.41,4,37.65,37.65,0,0,1,2.91-5.21q1.62-2.47,3.45-4.77c1.23-1.54,2.51-3,3.87-4.45A37.52,37.52,0,0,1,224.15,106Z" style="fill:#dbdbdb"></path><path d="M233,94.83a16.67,16.67,0,0,1-1.32,2.43,27.19,27.19,0,0,1-1.6,2.22,25,25,0,0,1-1.8,2.06,15.2,15.2,0,0,1-2.07,1.84,16.78,16.78,0,0,1,1.32-2.44c.5-.77,1-1.5,1.6-2.22a24.9,24.9,0,0,1,1.8-2A15.82,15.82,0,0,1,233,94.83Z" style="fill:#dbdbdb"></path><path d="M200.79,99.21a37.25,37.25,0,0,1,1.62,5.74q.6,2.89.93,5.82c.23,2,.37,3.9.42,5.87a37.36,37.36,0,0,1-.29,6,37.25,37.25,0,0,1-1.62-5.74c-.41-1.93-.71-3.87-.93-5.81s-.37-3.91-.41-5.88A36.27,36.27,0,0,1,200.79,99.21Z" style="fill:#dbdbdb"></path><path d="M199.16,85a16.46,16.46,0,0,1,.79,2.66c.19.9.34,1.8.44,2.7s.17,1.81.18,2.73a16.29,16.29,0,0,1-.17,2.77,16.41,16.41,0,0,1-.78-2.66,25.29,25.29,0,0,1-.44-2.7c-.11-.9-.17-1.81-.19-2.73A17.39,17.39,0,0,1,199.16,85Z" style="fill:#dbdbdb"></path><path d="M179.46,110.92a37.53,37.53,0,0,1,5.2,2.91c1.65,1.08,3.24,2.24,4.78,3.46s3,2.5,4.45,3.86a37.7,37.7,0,0,1,4,4.42,37.65,37.65,0,0,1-5.21-2.91c-1.65-1.08-3.24-2.24-4.77-3.46s-3-2.5-4.45-3.87A37.52,37.52,0,0,1,179.46,110.92Z" style="fill:#dbdbdb"></path><path d="M168.28,102a16.72,16.72,0,0,1,2.43,1.33,27.08,27.08,0,0,1,2.22,1.59c.72.57,1.4,1.17,2.06,1.8a15.28,15.28,0,0,1,1.84,2.08,16.78,16.78,0,0,1-2.44-1.32c-.77-.5-1.5-1-2.22-1.6s-1.4-1.17-2-1.8A15.28,15.28,0,0,1,168.28,102Z" style="fill:#dbdbdb"></path><path d="M172.66,134.29a37.25,37.25,0,0,1,5.74-1.62c1.93-.41,3.87-.71,5.82-.94s3.9-.36,5.87-.41a38.55,38.55,0,0,1,6,.28,36.2,36.2,0,0,1-5.74,1.63c-1.92.4-3.87.71-5.81.93s-3.91.36-5.88.41A38.61,38.61,0,0,1,172.66,134.29Z" style="fill:#dbdbdb"></path><path d="M158.48,135.92a16.06,16.06,0,0,1,2.65-.79c.9-.19,1.8-.34,2.7-.44a24.7,24.7,0,0,1,2.73-.18,15.31,15.31,0,0,1,2.77.16,16.46,16.46,0,0,1-2.66.79c-.9.19-1.8.34-2.7.44s-1.81.17-2.73.18A17.17,17.17,0,0,1,158.48,135.92Z" style="fill:#dbdbdb"></path><path d="M184.37,155.62a37.65,37.65,0,0,1,2.91-5.21c1.08-1.65,2.24-3.23,3.46-4.77s2.5-3,3.86-4.45a36.83,36.83,0,0,1,4.42-4,38.24,38.24,0,0,1-2.91,5.21c-1.08,1.64-2.24,3.23-3.46,4.77s-2.5,3-3.87,4.44A37.59,37.59,0,0,1,184.37,155.62Z" style="fill:#dbdbdb"></path><path d="M175.49,166.8a16.83,16.83,0,0,1,1.33-2.44c.49-.77,1-1.5,1.59-2.22s1.17-1.4,1.8-2a15.28,15.28,0,0,1,2.08-1.84,16.67,16.67,0,0,1-1.32,2.43,27.19,27.19,0,0,1-1.6,2.22c-.57.72-1.17,1.4-1.8,2.06A16.77,16.77,0,0,1,175.49,166.8Z" style="fill:#dbdbdb"></path><path d="M207.74,162.42a37.25,37.25,0,0,1-1.62-5.74c-.41-1.93-.71-3.87-.94-5.82s-.36-3.91-.41-5.88a38.61,38.61,0,0,1,.28-6,36.2,36.2,0,0,1,1.63,5.74q.6,2.9.93,5.82t.41,5.88A38.61,38.61,0,0,1,207.74,162.42Z" style="fill:#dbdbdb"></path><path d="M209.37,176.6a15.88,15.88,0,0,1-.79-2.66c-.19-.89-.34-1.79-.44-2.69a25,25,0,0,1-.18-2.73,16.15,16.15,0,0,1,.16-2.77,16.46,16.46,0,0,1,.79,2.66,27.12,27.12,0,0,1,.44,2.7c.1.9.17,1.81.18,2.72A17.23,17.23,0,0,1,209.37,176.6Z" style="fill:#dbdbdb"></path><path d="M229.07,150.7a37.65,37.65,0,0,1-5.21-2.91c-1.65-1.08-3.23-2.23-4.77-3.45s-3-2.51-4.45-3.87a37.52,37.52,0,0,1-4-4.41,38.24,38.24,0,0,1,5.21,2.91q2.46,1.62,4.77,3.45c1.53,1.23,3,2.51,4.44,3.87A37.59,37.59,0,0,1,229.07,150.7Z" style="fill:#dbdbdb"></path><path d="M240.25,159.58a16.78,16.78,0,0,1-2.44-1.32c-.77-.5-1.5-1-2.22-1.6a24.9,24.9,0,0,1-2.05-1.8,15.2,15.2,0,0,1-1.84-2.07,16.67,16.67,0,0,1,2.43,1.32,27.19,27.19,0,0,1,2.22,1.6,25,25,0,0,1,2.06,1.8A17.42,17.42,0,0,1,240.25,159.58Z" style="fill:#dbdbdb"></path><path d="M235.87,127.34a37.25,37.25,0,0,1-5.74,1.62q-2.9.6-5.82.93t-5.88.42a37.42,37.42,0,0,1-6-.29,37.57,37.57,0,0,1,5.74-1.62c1.93-.41,3.87-.71,5.82-.93s3.91-.37,5.88-.41A36.27,36.27,0,0,1,235.87,127.34Z" style="fill:#dbdbdb"></path><path d="M250.05,125.71a16.88,16.88,0,0,1-2.66.79c-.89.19-1.79.34-2.69.44s-1.82.17-2.73.18a16.17,16.17,0,0,1-2.77-.17,16.41,16.41,0,0,1,2.66-.78,27.15,27.15,0,0,1,2.7-.45c.9-.1,1.81-.16,2.72-.18A16.17,16.17,0,0,1,250.05,125.71Z" style="fill:#dbdbdb"></path></g><path d="M224.15,154.42c10.16,7.72,18.54,17.61,25.65,28.19A150.59,150.59,0,0,1,266.56,217a166.71,166.71,0,0,1,7.88,37.41l.42,4.76.24,4.78c.21,3.19.15,6.38.19,9.57,0,1.59-.06,3.18-.12,4.78L275,283c-.2,3.18-.49,6.36-.73,9.53.16-3.18.37-6.36.49-9.54l.06-4.77c0-1.59.07-3.18,0-4.77-.1-3.18-.07-6.36-.33-9.53l-.3-4.76-.49-4.75a171.62,171.62,0,0,0-8.06-37.16A153.49,153.49,0,0,0,249.15,183a137.6,137.6,0,0,0-11.4-15.26A98.06,98.06,0,0,0,224.15,154.42Z" style="fill:#dbdbdb;opacity:0.30000000000000004"></path><g style="opacity:0.30000000000000004"><path d="M373,98.9a27.37,27.37,0,0,1-4,2c-1.35.57-2.73,1.06-4.13,1.5s-2.81.82-4.25,1.13a27.72,27.72,0,0,1-4.41.62,28.42,28.42,0,0,1,4-2c1.36-.57,2.74-1.06,4.14-1.5s2.81-.81,4.25-1.12A27.76,27.76,0,0,1,373,98.9Z" style="fill:#dbdbdb"></path><path d="M383.15,95.72a12.33,12.33,0,0,1-1.84,1,19,19,0,0,1-1.91.7c-.65.2-1.31.38-2,.52a12.49,12.49,0,0,1-2.05.26,12.33,12.33,0,0,1,1.84-1,19.18,19.18,0,0,1,1.92-.7c.64-.2,1.3-.37,2-.51A11.62,11.62,0,0,1,383.15,95.72Z" style="fill:#dbdbdb"></path><path d="M361.41,84.91a28.21,28.21,0,0,1-1.4,4.22c-.56,1.36-1.19,2.69-1.87,4a43.68,43.68,0,0,1-2.21,3.8,26.66,26.66,0,0,1-2.67,3.56,28.21,28.21,0,0,1,1.4-4.22c.56-1.36,1.19-2.69,1.87-4s1.41-2.57,2.21-3.8A27.32,27.32,0,0,1,361.41,84.91Z" style="fill:#dbdbdb"></path><path d="M366.35,75.47a11.61,11.61,0,0,1-.63,2c-.25.63-.54,1.25-.85,1.85s-.66,1.19-1,1.76a11.54,11.54,0,0,1-1.26,1.64,12.58,12.58,0,0,1,.63-2,18.24,18.24,0,0,1,.86-1.85c.31-.6.66-1.19,1-1.76A12.33,12.33,0,0,1,366.35,75.47Z" style="fill:#dbdbdb"></path><path d="M343.33,83.2a28.49,28.49,0,0,1,2,4c.56,1.35,1.06,2.73,1.5,4.13s.81,2.81,1.12,4.25a27.72,27.72,0,0,1,.63,4.41,27.44,27.44,0,0,1-2-4q-.84-2-1.5-4.14c-.43-1.39-.81-2.81-1.12-4.25A29,29,0,0,1,343.33,83.2Z" style="fill:#dbdbdb"></path><path d="M340.15,73a11.46,11.46,0,0,1,1,1.84,19,19,0,0,1,.7,1.91,19.21,19.21,0,0,1,.52,2,12.35,12.35,0,0,1,.27,2,11.52,11.52,0,0,1-1-1.84c-.26-.63-.49-1.27-.7-1.92s-.37-1.3-.51-2A12.64,12.64,0,0,1,340.15,73Z" style="fill:#dbdbdb"></path><path d="M329.34,94.77a27.83,27.83,0,0,1,4.22,1.4c1.36.56,2.69,1.19,4,1.87s2.56,1.41,3.8,2.21a27.32,27.32,0,0,1,3.56,2.67,28.33,28.33,0,0,1-4.23-1.4c-1.36-.56-2.68-1.19-4-1.87s-2.56-1.41-3.8-2.21A28.25,28.25,0,0,1,329.34,94.77Z" style="fill:#dbdbdb"></path><path d="M319.9,89.83a11.61,11.61,0,0,1,2,.63,19.81,19.81,0,0,1,3.61,1.89,11.54,11.54,0,0,1,1.64,1.26,12.93,12.93,0,0,1-2-.63,18.24,18.24,0,0,1-1.85-.86c-.6-.31-1.19-.66-1.76-1A13,13,0,0,1,319.9,89.83Z" style="fill:#dbdbdb"></path><path d="M327.63,112.85a28.49,28.49,0,0,1,4-2c1.36-.56,2.74-1.06,4.13-1.5s2.82-.81,4.25-1.12a27.89,27.89,0,0,1,4.41-.63,26.46,26.46,0,0,1-4,2c-1.36.56-2.73,1.06-4.13,1.5s-2.82.81-4.25,1.12A29.09,29.09,0,0,1,327.63,112.85Z" style="fill:#dbdbdb"></path><path d="M317.46,116a11.46,11.46,0,0,1,1.84-1,19.18,19.18,0,0,1,1.92-.7,18.38,18.38,0,0,1,2-.52,12.64,12.64,0,0,1,2.05-.27,11.46,11.46,0,0,1-1.84,1c-.63.27-1.26.5-1.91.71s-1.31.37-2,.51A12.49,12.49,0,0,1,317.46,116Z" style="fill:#dbdbdb"></path><path d="M339.2,126.84a26.79,26.79,0,0,1,1.41-4.22q.84-2,1.86-4c.68-1.3,1.41-2.56,2.21-3.8a28.25,28.25,0,0,1,2.67-3.56,28.33,28.33,0,0,1-1.4,4.23c-.56,1.36-1.18,2.68-1.86,4s-1.42,2.56-2.22,3.8A27.32,27.32,0,0,1,339.2,126.84Z" style="fill:#dbdbdb"></path><path d="M334.26,136.28a12.58,12.58,0,0,1,.63-2,19.48,19.48,0,0,1,.86-1.85,19.27,19.27,0,0,1,1-1.76,12.33,12.33,0,0,1,1.26-1.64,11,11,0,0,1-.63,2c-.25.63-.54,1.25-.85,1.85s-.66,1.19-1,1.76A12.14,12.14,0,0,1,334.26,136.28Z" style="fill:#dbdbdb"></path><path d="M357.28,128.55a27.37,27.37,0,0,1-2-4c-.57-1.36-1.06-2.74-1.5-4.13s-.82-2.82-1.13-4.25a27.88,27.88,0,0,1-.62-4.41,27.37,27.37,0,0,1,2,4c.57,1.36,1.06,2.73,1.5,4.13s.81,2.82,1.12,4.25A27.89,27.89,0,0,1,357.28,128.55Z" style="fill:#dbdbdb"></path><path d="M360.46,138.72a12.33,12.33,0,0,1-.95-1.84,19.18,19.18,0,0,1-.7-1.92c-.2-.64-.38-1.3-.52-2a12.63,12.63,0,0,1-.26-2.05,12.33,12.33,0,0,1,1,1.84c.26.62.5,1.26.7,1.91s.37,1.31.51,2A11.5,11.5,0,0,1,360.46,138.72Z" style="fill:#dbdbdb"></path><path d="M371.27,117a29.43,29.43,0,0,1-4.22-1.41c-1.36-.56-2.69-1.18-4-1.86s-2.57-1.41-3.81-2.21a28.16,28.16,0,0,1-3.55-2.67,28.21,28.21,0,0,1,4.22,1.4c1.36.56,2.69,1.18,4,1.86s2.57,1.42,3.8,2.22A27.32,27.32,0,0,1,371.27,117Z" style="fill:#dbdbdb"></path><path d="M380.71,121.92a12.58,12.58,0,0,1-2-.63c-.63-.26-1.25-.54-1.85-.86s-1.19-.66-1.76-1a12.33,12.33,0,0,1-1.64-1.26,11.59,11.59,0,0,1,2,.62c.63.26,1.25.55,1.85.86s1.19.66,1.76,1A11.54,11.54,0,0,1,380.71,121.92Z" style="fill:#dbdbdb"></path><path d="M361.28,96.78a17,17,0,0,1-1.75,2c-.62.63-1.27,1.22-1.95,1.79s-1.37,1.1-2.1,1.6a15.82,15.82,0,0,1-2.3,1.36,17,17,0,0,1,1.75-2,25.23,25.23,0,0,1,1.95-1.78c.67-.57,1.37-1.1,2.1-1.61A18.07,18.07,0,0,1,361.28,96.78Z" style="fill:#dbdbdb"></path><path d="M366.19,92.67a6.76,6.76,0,0,1-.81,1,8.85,8.85,0,0,1-.9.83,9.93,9.93,0,0,1-1,.74,6.73,6.73,0,0,1-1.08.62,9.13,9.13,0,0,1,.8-1c.29-.29.59-.56.9-.83s.64-.5,1-.74A7.59,7.59,0,0,1,366.19,92.67Z" style="fill:#dbdbdb"></path><path d="M351.63,91.69a17.11,17.11,0,0,1,.2,2.66q0,1.32-.12,2.64a25.74,25.74,0,0,1-.35,2.62,16.14,16.14,0,0,1-.66,2.59,16.14,16.14,0,0,1-.19-2.67,25.9,25.9,0,0,1,.11-2.64c.08-.87.2-1.75.35-2.61A18.21,18.21,0,0,1,351.63,91.69Z" style="fill:#dbdbdb"></path><path d="M352.2,85.31a7.52,7.52,0,0,1,.11,1.24c0,.41,0,.82-.05,1.22s-.09.81-.17,1.22a7.61,7.61,0,0,1-.32,1.2,7.52,7.52,0,0,1-.11-1.24c0-.41,0-.82,0-1.22s.09-.82.17-1.22A7.61,7.61,0,0,1,352.2,85.31Z" style="fill:#dbdbdb"></path><path d="M341.21,94.9a17.13,17.13,0,0,1,2,1.75c.62.62,1.22,1.27,1.78,1.95a25.26,25.26,0,0,1,1.6,2.1A16.31,16.31,0,0,1,348,103a16.18,16.18,0,0,1-2-1.74c-.62-.62-1.22-1.27-1.78-2s-1.1-1.37-1.6-2.1A17,17,0,0,1,341.21,94.9Z" style="fill:#dbdbdb"></path><path d="M337.11,90a7.38,7.38,0,0,1,.95.81,10.17,10.17,0,0,1,.83.9,11.81,11.81,0,0,1,.74,1,7.59,7.59,0,0,1,.62,1.08,7.44,7.44,0,0,1-.95-.8c-.29-.29-.57-.59-.83-.9s-.51-.64-.74-1A6.73,6.73,0,0,1,337.11,90Z" style="fill:#dbdbdb"></path><path d="M336.12,104.54a17.18,17.18,0,0,1,2.66-.19q1.34,0,2.64.12a25.74,25.74,0,0,1,2.62.35,15.87,15.87,0,0,1,2.59.66,16.07,16.07,0,0,1-2.67.19,25.58,25.58,0,0,1-2.63-.11c-.88-.08-1.75-.2-2.62-.35A17,17,0,0,1,336.12,104.54Z" style="fill:#dbdbdb"></path><path d="M329.75,104a7.3,7.3,0,0,1,1.23-.11c.41,0,.82,0,1.23,0s.81.09,1.21.17a7.61,7.61,0,0,1,1.2.32,7.52,7.52,0,0,1-1.24.11c-.41,0-.81,0-1.22,0a12.15,12.15,0,0,1-1.21-.17A7.08,7.08,0,0,1,329.75,104Z" style="fill:#dbdbdb"></path><path d="M339.34,115a16.18,16.18,0,0,1,1.74-2c.63-.62,1.28-1.22,1.95-1.78a25.26,25.26,0,0,1,2.1-1.6,17,17,0,0,1,2.3-1.37,17.13,17.13,0,0,1-1.75,2c-.62.62-1.27,1.22-1.95,1.78s-1.37,1.1-2.1,1.6A16.91,16.91,0,0,1,339.34,115Z" style="fill:#dbdbdb"></path><path d="M334.43,119.07a7.31,7.31,0,0,1,.8-.95c.29-.29.59-.57.9-.83a12,12,0,0,1,1-.74,7.47,7.47,0,0,1,1.07-.62,6.7,6.7,0,0,1-.8.95c-.29.29-.59.57-.9.83a12,12,0,0,1-1,.74A7.1,7.1,0,0,1,334.43,119.07Z" style="fill:#dbdbdb"></path><path d="M349,120.06a17.23,17.23,0,0,1-.2-2.67c0-.88,0-1.76.12-2.63s.19-1.75.35-2.62a15.87,15.87,0,0,1,.66-2.59,17.2,17.2,0,0,1,.2,2.66q0,1.33-.12,2.64c-.08.88-.19,1.75-.35,2.62A17.26,17.26,0,0,1,349,120.06Z" style="fill:#dbdbdb"></path><path d="M348.41,126.43a7.29,7.29,0,0,1-.1-1.23,10.12,10.12,0,0,1,.05-1.23c0-.4.09-.81.16-1.21a7.37,7.37,0,0,1,.33-1.2,7.49,7.49,0,0,1,.1,1.24,10,10,0,0,1-.05,1.22,9.79,9.79,0,0,1-.17,1.21A6.25,6.25,0,0,1,348.41,126.43Z" style="fill:#dbdbdb"></path><path d="M359.4,116.84a16.08,16.08,0,0,1-2-1.74c-.63-.63-1.22-1.28-1.79-1.95s-1.1-1.37-1.6-2.1a16,16,0,0,1-1.36-2.3,17,17,0,0,1,2,1.75,25.23,25.23,0,0,1,1.78,2c.57.67,1.1,1.37,1.61,2.1A18,18,0,0,1,359.4,116.84Z" style="fill:#dbdbdb"></path><path d="M363.51,121.75a6.7,6.7,0,0,1-.95-.8,11.64,11.64,0,0,1-.83-.9,10.06,10.06,0,0,1-.74-1,8.12,8.12,0,0,1-.63-1.07,7.4,7.4,0,0,1,1,.8c.29.29.56.59.83.9s.5.64.74,1A9.34,9.34,0,0,1,363.51,121.75Z" style="fill:#dbdbdb"></path><path d="M364.49,107.2a17.11,17.11,0,0,1-2.66.2q-1.32,0-2.64-.12c-.88-.08-1.75-.19-2.62-.35a17.26,17.26,0,0,1-2.59-.66,17.23,17.23,0,0,1,2.67-.2q1.32,0,2.64.12c.87.08,1.75.19,2.61.35A17,17,0,0,1,364.49,107.2Z" style="fill:#dbdbdb"></path><path d="M370.87,107.77a7.49,7.49,0,0,1-1.24.1,9.88,9.88,0,0,1-1.22-.05c-.41,0-.82-.09-1.22-.16a7.66,7.66,0,0,1-1.2-.33,7.49,7.49,0,0,1,1.24-.1,12.58,12.58,0,0,1,2.44.22A6.66,6.66,0,0,1,370.87,107.77Z" style="fill:#dbdbdb"></path></g><path d="M336.38,113.6c-2.85,2.26-5.58,4.67-8.2,7.19s-5.18,5.1-7.61,7.79a126.77,126.77,0,0,0-13.24,17.23,95.54,95.54,0,0,0-5.42,9.41c-.85,1.61-1.57,3.27-2.33,4.91s-1.43,3.33-2,5a82.87,82.87,0,0,0-4.86,21.17c.14-1.81.16-3.65.44-5.45.11-.9.21-1.81.34-2.71l.48-2.7a77.9,77.9,0,0,1,2.87-10.57,80.57,80.57,0,0,1,4.26-10.1,99.36,99.36,0,0,1,5.39-9.54A120.31,120.31,0,0,1,320,128.06,114.1,114.1,0,0,1,336.38,113.6Z" style="fill:#dbdbdb;opacity:0.30000000000000004"></path></g><g id="freepik--Shadow--inject-41"><ellipse cx="250" cy="439.37" rx="199.07" ry="19.56" style="fill:#ebebeb"></ellipse></g><g id="freepik--Temple--inject-41"><path d="M329.51,289.72v84.72h-10V328.19c0-14-17.24-19.9-24.43-22.55-7.2,2.65-24.43,8.53-24.43,22.55v46.25h-10V289.72Z" style="fill:#a6a6a6"></path><path d="M323.64,297.11v77.33h-4.16V328.19c0-14-17.24-19.9-24.43-22.55-7.2,2.65-24.43,8.53-24.43,22.55v46.25h-4.16V297.11Z" style="fill:#dbdbdb"></path><polygon points="335.95 284.31 335.95 374.44 329.51 374.44 329.51 289.72 260.58 289.72 260.58 374.44 254.15 374.44 254.15 284.31 335.95 284.31" style="fill:#dbdbdb"></polygon><path d="M323.64,297.11v77.33h-4.16V328.19c0-14-17.24-19.9-24.43-22.55-7.2,2.65-24.43,8.53-24.43,22.55v46.25h-4.16V297.11Z" style="fill:#a6a6a6"></path><path d="M323.64,297.11v77.33h-4.16V328.19c0-14-17.24-19.9-24.43-22.55-7.2,2.65-24.43,8.53-24.43,22.55v46.25h-4.16V297.11Z" style="fill:#dbdbdb"></path><rect x="254.15" y="275.02" width="81.8" height="6.25" style="fill:#dbdbdb"></rect><path d="M336,271.46h-81.8s-25.06-20.91,7.38-44.63c10.83-7.92,25.73-15.85,33.52-21.75,7.79,5.9,22.68,13.83,33.52,21.75C361,250.55,336,271.46,336,271.46Z" style="fill:#dbdbdb"></path><rect x="294.8" y="184.18" width="0.5" height="21.05" style="fill:#a6a6a6"></rect><path d="M293.26,202.7a1.79,1.79,0,1,1,1.79,1.79,1.79,1.79,0,0,1-1.79-1.79Z" style="fill:#a6a6a6"></path><path d="M316,218.49H274.09c7.94-5,15.94-9.6,21-13.41C300.08,208.89,308.06,213.54,316,218.49Z" style="fill:#a6a6a6"></path><path d="M219.55,279.1H194.83c-.37-5.33,3-9.2,6.58-12.22,2.06-1.72,4.19-3.16,5.79-4.42,1.59,1.26,3.72,2.7,5.77,4.42C216.59,269.88,220,273.77,219.55,279.1Z" style="fill:#dbdbdb"></path><path d="M212,287.85v11.22H210v-6c0-1.81-2-2.57-2.83-2.92-.83.35-2.83,1.11-2.83,2.92v6h-2V287.85Z" style="fill:#dbdbdb"></path><path d="M219.58,287.85v11.22H218v-6c0-1.81-1.6-2.57-2.27-2.92-.66.35-2.26,1.11-2.26,2.92v6H212V287.85Z" style="fill:#dbdbdb"></path><path d="M202.41,287.85v11.22h-1.55v-6c0-1.81-1.59-2.57-2.25-2.92-.67.35-2.27,1.11-2.27,2.92v6H194.8V287.85Z" style="fill:#dbdbdb"></path><rect x="194.8" y="282.44" width="24.78" height="3.66" style="fill:#dbdbdb"></rect><path d="M213,266.88H201.41c2.06-1.72,4.2-3.15,5.79-4.42,1.59,1.27,3.72,2.7,5.77,4.42Z" style="fill:#a6a6a6"></path><rect x="206.98" y="250.6" width="0.42" height="11.86" style="fill:#a6a6a6"></rect><path d="M206.23,261a1,1,0,1,1,1,1,1,1,0,0,1-1-1Z" style="fill:#a6a6a6"></path><path d="M206.22,253.16a1,1,0,1,1,1,1,1,1,0,0,1-1-1Z" style="fill:#a6a6a6"></path><path d="M205.83,258a1.35,1.35,0,1,1,1.35,1.42,1.4,1.4,0,0,1-1.35-1.42Z" style="fill:#a6a6a6"></path><rect x="194.83" y="279.1" width="24.75" height="1.99" style="fill:#a6a6a6"></rect><path d="M194.13,301v73.49h5.75V356c0-5.59,5.13-7.94,7.28-9,2.14,1.05,7.27,3.4,7.27,9v18.44h5.75V301ZM214.43,340H199.88V321.6c0-5.59,5.13-7.94,7.28-9,2.14,1.06,7.27,3.41,7.27,9Z" style="fill:#dbdbdb"></path><path d="M220.18,301v73.49h6.87V356c0-5.59,6.14-7.94,8.7-9,2.57,1.05,8.71,3.4,8.71,9v18.44h6.87V301ZM244.46,340H227.05V321.6c0-5.59,6.14-7.94,8.7-9,2.57,1.06,8.71,3.41,8.71,9Z" style="fill:#dbdbdb"></path><path d="M160.67,232.42V245h-1.25v-8.6c0-1.38-1.29-2-1.83-2.22-.53.26-1.82.84-1.82,2.22V245H153v-8.6c0-1.38-1.61-2-2.29-2.22-.67.26-2.29.84-2.29,2.22V245h-2.82v-8.6c0-1.38-1.27-2-1.81-2.22-.54.26-1.82.84-1.82,2.22V245h-1.25V232.42Z" style="fill:#dbdbdb"></path><rect x="140.65" y="245.37" width="18.75" height="129.08" style="fill:#dbdbdb"></rect><rect x="150.42" y="202.71" width="0.5" height="9.98" style="fill:#a6a6a6"></rect><path d="M161.17,225.16a14,14,0,0,1-.57,3.14H140.72a14,14,0,0,1-.57-3.14c-.32-4.85,2.32-8.43,5.25-11.24,1.85-1.76,3.82-3.21,5.26-4.49,1.44,1.28,3.41,2.73,5.27,4.49,2.93,2.81,5.56,6.39,5.24,11.24Z" style="fill:#dbdbdb"></path><rect x="140.68" y="228.3" width="19.99" height="2.79" style="fill:#a6a6a6"></rect><path d="M155.93,213.92H145.4c1.85-1.76,3.82-3.21,5.26-4.49,1.44,1.28,3.41,2.73,5.27,4.49Z" style="fill:#a6a6a6"></path><rect x="135.25" y="245.37" width="29.54" height="4.03" style="fill:#dbdbdb"></rect><polygon points="135.25 249.39 140.68 252.25 159.4 252.25 164.79 249.39 136.08 249.39 135.25 249.39" style="fill:#a6a6a6"></polygon><rect x="135.25" y="288.01" width="29.54" height="4.03" style="fill:#dbdbdb"></rect><polygon points="135.25 292.04 140.68 294.9 159.4 294.9 164.79 292.04 136.08 292.04 135.25 292.04" style="fill:#a6a6a6"></polygon><rect x="135.25" y="333.76" width="29.54" height="4.03" style="fill:#dbdbdb"></rect><polygon points="135.25 337.79 140.68 340.65 159.4 340.65 164.79 337.79 136.08 337.79 135.25 337.79" style="fill:#a6a6a6"></polygon><path d="M187.44,258.45v10.29h-1v-7c0-1.12-1.05-1.6-1.49-1.81-.44.21-1.49.69-1.49,1.81v7h-2.3v-7c0-1.12-1.32-1.6-1.87-1.81-.55.21-1.87.69-1.87,1.81v7h-2.29v-7c0-1.12-1.05-1.6-1.49-1.81-.44.21-1.49.69-1.49,1.81v7h-1V258.45Z" style="fill:#dbdbdb"></path><rect x="171.1" y="269.03" width="15.31" height="105.41" style="fill:#dbdbdb"></rect><rect x="179.03" y="234.19" width="0.5" height="8.15" style="fill:#a6a6a6"></rect><path d="M187.86,252.52a11.49,11.49,0,0,1-.47,2.57H171.16a11.49,11.49,0,0,1-.47-2.57c-.26-4,1.89-6.88,4.29-9.17,1.51-1.44,3.12-2.63,4.29-3.67,1.18,1,2.79,2.23,4.31,3.67,2.39,2.29,4.54,5.21,4.28,9.17Z" style="fill:#dbdbdb"></path><polygon points="187.44 257.37 171.09 257.37 171.12 255.09 187.44 255.09 187.44 257.37" style="fill:#a6a6a6"></polygon><path d="M183.58,243.35H175c1.51-1.44,3.12-2.63,4.29-3.67,1.18,1,2.79,2.23,4.31,3.67Z" style="fill:#a6a6a6"></path><rect x="166.69" y="269.03" width="24.13" height="3.29" style="fill:#dbdbdb"></rect><polygon points="166.69 272.32 171.12 274.65 186.41 274.65 190.81 272.32 167.36 272.32 166.69 272.32" style="fill:#a6a6a6"></polygon><rect x="166.69" y="303.86" width="24.13" height="3.29" style="fill:#dbdbdb"></rect><polygon points="166.69 307.14 171.12 309.48 186.41 309.48 190.81 307.14 167.36 307.14 166.69 307.14" style="fill:#a6a6a6"></polygon><rect x="166.69" y="341.22" width="24.13" height="3.29" style="fill:#dbdbdb"></rect><polygon points="166.69 344.51 171.12 346.84 186.41 346.84 190.81 344.51 167.36 344.51 166.69 344.51" style="fill:#a6a6a6"></polygon><path d="M370.56,279.1h24.71c.38-5.33-3-9.2-6.58-12.22-2.06-1.72-4.19-3.16-5.79-4.42-1.59,1.26-3.72,2.7-5.77,4.42C373.51,269.88,370.16,273.77,370.56,279.1Z" style="fill:#dbdbdb"></path><path d="M378.13,287.85v11.22h1.95v-6c0-1.81,2-2.57,2.83-2.92.83.35,2.83,1.11,2.83,2.92v6h1.95V287.85Z" style="fill:#dbdbdb"></path><path d="M370.52,287.85v11.22h1.55v-6c0-1.81,1.59-2.57,2.26-2.92.66.35,2.26,1.11,2.26,2.92v6h1.54V287.85Z" style="fill:#dbdbdb"></path><path d="M387.69,287.85v11.22h1.55v-6c0-1.81,1.59-2.57,2.26-2.92.66.35,2.26,1.11,2.26,2.92v6h1.54V287.85Z" style="fill:#dbdbdb"></path><rect x="370.52" y="282.44" width="24.78" height="3.66" style="fill:#dbdbdb"></rect><path d="M377.13,266.88h11.56c-2.05-1.72-4.2-3.15-5.79-4.42-1.58,1.27-3.71,2.7-5.77,4.42Z" style="fill:#a6a6a6"></path><rect x="382.71" y="250.6" width="0.42" height="11.86" style="fill:#a6a6a6"></rect><path d="M383.87,261a1,1,0,1,0-.95,1,1,1,0,0,0,.95-1Z" style="fill:#a6a6a6"></path><path d="M383.88,253.16a1,1,0,1,0-1,1,1,1,0,0,0,1-1Z" style="fill:#a6a6a6"></path><path d="M384.27,258a1.35,1.35,0,1,0-1.35,1.42,1.4,1.4,0,0,0,1.35-1.42Z" style="fill:#a6a6a6"></path><rect x="370.52" y="279.1" width="24.75" height="1.99" transform="translate(765.79 560.19) rotate(180)" style="fill:#a6a6a6"></rect><path d="M369.93,301v73.49h5.74V356c0-5.59,5.14-7.94,7.27-9,2.15,1.05,7.29,3.4,7.29,9v18.44H396V301Zm5.74,20.65c0-5.59,5.14-7.94,7.27-9,2.15,1.06,7.29,3.41,7.29,9V340H375.67Z" style="fill:#dbdbdb"></path><path d="M338.77,301v73.49h6.87V356c0-5.59,6.14-7.94,8.71-9,2.56,1.05,8.71,3.4,8.71,9v18.44h6.87V301Zm6.87,20.65c0-5.59,6.14-7.94,8.71-9,2.56,1.06,8.71,3.41,8.71,9V340H345.64Z" style="fill:#dbdbdb"></path><path d="M429.43,232.42V245h1.25v-8.6c0-1.38,1.29-2,1.83-2.22.53.26,1.82.84,1.82,2.22V245h2.81v-8.6c0-1.38,1.61-2,2.29-2.22.67.26,2.29.84,2.29,2.22V245h2.82v-8.6c0-1.38,1.28-2,1.82-2.22.54.26,1.81.84,1.81,2.22V245h1.25V232.42Z" style="fill:#dbdbdb"></path><rect x="430.71" y="245.37" width="18.75" height="129.08" style="fill:#dbdbdb"></rect><rect x="439.18" y="202.71" width="0.5" height="9.98" style="fill:#a6a6a6"></rect><path d="M428.93,225.16a14,14,0,0,0,.57,3.14h19.88a14,14,0,0,0,.57-3.14c.32-4.85-2.31-8.43-5.25-11.24-1.85-1.76-3.82-3.21-5.26-4.49-1.44,1.28-3.41,2.73-5.27,4.49-2.92,2.81-5.56,6.39-5.24,11.24Z" style="fill:#dbdbdb"></path><rect x="429.43" y="228.3" width="19.99" height="2.79" style="fill:#a6a6a6"></rect><path d="M434.17,213.92H444.7c-1.85-1.76-3.82-3.21-5.26-4.49-1.44,1.28-3.41,2.73-5.27,4.49Z" style="fill:#a6a6a6"></path><rect x="425.31" y="245.37" width="29.54" height="4.03" style="fill:#dbdbdb"></rect><polygon points="454.85 249.39 449.43 252.25 430.71 252.25 425.31 249.39 454.02 249.39 454.85 249.39" style="fill:#a6a6a6"></polygon><rect x="425.31" y="288.01" width="29.54" height="4.03" style="fill:#dbdbdb"></rect><polygon points="454.85 292.04 449.43 294.9 430.71 294.9 425.31 292.04 454.02 292.04 454.85 292.04" style="fill:#a6a6a6"></polygon><rect x="425.31" y="333.76" width="29.54" height="4.03" style="fill:#dbdbdb"></rect><polygon points="454.85 337.79 449.43 340.65 430.71 340.65 425.31 337.79 454.02 337.79 454.85 337.79" style="fill:#a6a6a6"></polygon><path d="M402.66,258.45v10.29h1v-7c0-1.12,1.05-1.6,1.48-1.81.44.21,1.49.69,1.49,1.81v7H409v-7c0-1.12,1.32-1.6,1.87-1.81.55.21,1.87.69,1.87,1.81v7H415v-7c0-1.12,1-1.6,1.48-1.81.44.21,1.49.69,1.49,1.81v7h1V258.45Z" style="fill:#dbdbdb"></path><rect x="403.7" y="269.03" width="15.31" height="105.41" style="fill:#dbdbdb"></rect><rect x="410.57" y="234.19" width="0.5" height="8.15" style="fill:#a6a6a6"></rect><path d="M402.24,252.52a11.49,11.49,0,0,0,.47,2.57h16.23a10.46,10.46,0,0,0,.47-2.57c.26-4-1.89-6.88-4.29-9.17-1.51-1.44-3.12-2.63-4.29-3.67-1.18,1-2.78,2.23-4.31,3.67-2.38,2.29-4.54,5.21-4.28,9.17Z" style="fill:#dbdbdb"></path><polygon points="402.66 257.37 419.01 257.37 418.98 255.09 402.66 255.09 402.66 257.37" style="fill:#a6a6a6"></polygon><path d="M406.52,243.35h8.6c-1.51-1.44-3.12-2.63-4.29-3.67-1.18,1-2.79,2.23-4.31,3.67Z" style="fill:#a6a6a6"></path><rect x="399.29" y="269.03" width="24.13" height="3.29" style="fill:#dbdbdb"></rect><polygon points="423.41 272.32 418.98 274.65 403.7 274.65 399.29 272.32 422.74 272.32 423.41 272.32" style="fill:#a6a6a6"></polygon><rect x="399.29" y="303.86" width="24.13" height="3.29" style="fill:#dbdbdb"></rect><polygon points="423.41 307.14 418.98 309.48 403.7 309.48 399.29 307.14 422.74 307.14 423.41 307.14" style="fill:#a6a6a6"></polygon><rect x="399.29" y="341.22" width="24.13" height="3.29" style="fill:#dbdbdb"></rect><polygon points="423.41 344.51 418.98 346.84 403.7 346.84 399.29 344.51 422.74 344.51 423.41 344.51" style="fill:#a6a6a6"></polygon></g><g id="freepik--Floor--inject-41"><polygon points="40.02 374.44 92.46 374.2 144.91 374.11 249.8 373.94 354.69 374.11 407.14 374.2 459.58 374.44 407.14 374.69 354.69 374.77 249.8 374.94 144.91 374.77 92.46 374.68 40.02 374.44" style="fill:#263238"></polygon></g><g id="freepik--Plants--inject-41"><path d="M259.1,374.76H211.46s.11-7.09,4.8-9a6.39,6.39,0,0,1,7.47,1.79s1.91-13,10.63-13,12.91,11.24,12.91,11.24,1.95-3.4,6.8-2.76S259.1,374.76,259.1,374.76Z" style="fill:#37474f"></path><path d="M459.64,374.76s-1.46-6.81-4.38-7.86-4.69,2-4.69,2-.69-6.51-4.82-8.46-7.24,2-7.24,2-3.18-8.26-8.85-8.26-8.53,12.09-8.53,12.09-3.34-3.61-6.77-1.57-3.43,10-3.43,10Z" style="fill:#37474f"></path><path d="M84.29,374.76H40.36s1.45-6.19,4.36-6.63S49,370.57,49,370.57s-.13-8.64,5.31-10.11,10,6.16,10,6.16,3.41-4.35,8.06-4.08S78.19,370,78.19,370,82.42,367.52,84.29,374.76Z" style="fill:#455a64"></path><path d="M414.08,374.76h-27s.06-4,2.71-5.08a3.61,3.61,0,0,1,4.23,1s1.09-7.39,6-7.39,7.31,6.37,7.31,6.37a3.81,3.81,0,0,1,3.85-1.57C414,368.47,414.08,374.76,414.08,374.76Z" style="fill:#455a64"></path><path d="M189.69,374.76h27s-.06-4-2.71-5.08a3.62,3.62,0,0,0-4.23,1s-1.08-7.39-6-7.39-7.31,6.37-7.31,6.37a3.81,3.81,0,0,0-3.85-1.57C189.8,368.47,189.69,374.76,189.69,374.76Z" style="fill:#455a64"></path></g><g id="freepik--Candles--inject-41"><circle cx="361.41" cy="409.86" r="12.3" style="fill:#FFC727;opacity:0.2"></circle><circle cx="361.41" cy="413.8" r="8.2" style="fill:#FFC727;opacity:0.2"></circle><path d="M365.17,416.19c-.44,4.78-3.76,5.56-3.76,5.56s-3.33-.78-3.76-5.56,3.76-10.35,3.76-10.35S365.6,411.41,365.17,416.19Z" style="fill:#FFC727"></path><path d="M365.17,416.19c-.44,4.78-3.76,5.56-3.76,5.56s-3.33-.78-3.76-5.56,3.76-10.35,3.76-10.35S365.6,411.41,365.17,416.19Z" style="opacity:0.1"></path><path d="M364,417.92c-.3,3.29-2.59,3.83-2.59,3.83s-2.3-.54-2.6-3.83,2.6-7.14,2.6-7.14S364.3,414.62,364,417.92Z" style="fill:#FFC727"></path><rect x="361.02" y="421.5" width="0.77" height="4.19" style="fill:#a6a6a6"></rect><path d="M383.41,425.54c0,3.94-7.13,11.06-11,11.06H350.45c-3.9,0-11.05-7.12-11.05-11.06Z" style="fill:#FFC727"></path><g style="opacity:0.2"><path d="M344.64,432.87h-.85a21.8,21.8,0,0,1-2.56-2.95l1-2.13Z"></path><polygon points="344.64 427.79 349.44 427.79 347.04 432.88 344.64 427.79"></polygon><polygon points="354.24 432.88 349.44 432.88 351.84 427.79 354.24 432.88"></polygon><polygon points="354.24 427.79 359.04 427.79 356.64 432.88 354.24 427.79"></polygon><polygon points="363.84 432.88 359.04 432.88 361.44 427.79 363.84 432.88"></polygon><polygon points="363.84 427.79 368.65 427.79 366.25 432.88 363.84 427.79"></polygon><polygon points="373.45 432.88 368.65 432.88 371.05 427.79 373.45 432.88"></polygon><polygon points="373.45 427.79 378.25 427.79 375.85 432.88 373.45 427.79"></polygon><path d="M381.63,429.85a20.74,20.74,0,0,1-2.6,3h-.78l2.41-5.08Z"></path></g><path d="M329.59,394.4a12.3,12.3,0,1,1-12.29-12.3A12.3,12.3,0,0,1,329.59,394.4Z" style="fill:#FFC727;opacity:0.2"></path><path d="M325.49,398.33a8.2,8.2,0,1,1-8.19-8.19A8.2,8.2,0,0,1,325.49,398.33Z" style="fill:#FFC727;opacity:0.2"></path><path d="M321.05,400.73c-.43,4.78-3.75,5.56-3.75,5.56s-3.33-.78-3.76-5.56,3.76-10.35,3.76-10.35S321.49,396,321.05,400.73Z" style="fill:#FFC727"></path><path d="M321.05,400.73c-.43,4.78-3.75,5.56-3.75,5.56s-3.33-.78-3.76-5.56,3.76-10.35,3.76-10.35S321.49,396,321.05,400.73Z" style="opacity:0.1"></path><path d="M319.89,402.45c-.3,3.3-2.59,3.84-2.59,3.84s-2.3-.54-2.6-3.84,2.6-7.14,2.6-7.14S320.19,399.16,319.89,402.45Z" style="fill:#FFC727"></path><rect x="316.91" y="406.04" width="0.77" height="4.19" style="fill:#a6a6a6"></rect><path d="M339.3,410.08c0,3.93-7.13,11.06-11,11.06H306.34c-3.9,0-11-7.13-11-11.06Z" style="fill:#dbdbdb"></path><path d="M300.53,417.4h-.85a22,22,0,0,1-2.57-2.95l1-2.13Z" style="fill:#c7c7c7"></path><polygon points="300.52 412.33 305.33 412.33 302.93 417.41 300.52 412.33" style="fill:#c7c7c7"></polygon><polygon points="310.13 417.41 305.33 417.41 307.73 412.33 310.13 417.41" style="fill:#c7c7c7"></polygon><polygon points="310.13 412.33 314.93 412.33 312.53 417.41 310.13 412.33" style="fill:#c7c7c7"></polygon><polygon points="319.73 417.41 314.93 417.41 317.33 412.33 319.73 417.41" style="fill:#c7c7c7"></polygon><polygon points="319.73 412.33 324.54 412.33 322.13 417.41 319.73 412.33" style="fill:#c7c7c7"></polygon><polygon points="329.34 417.41 324.54 417.41 326.94 412.33 329.34 417.41" style="fill:#c7c7c7"></polygon><polygon points="329.34 412.33 334.14 412.33 331.74 417.41 329.34 412.33" style="fill:#c7c7c7"></polygon><path d="M337.52,414.38a19.74,19.74,0,0,1-2.6,3h-.78l2.4-5.08Z" style="fill:#c7c7c7"></path><path d="M297.92,410.68a12.3,12.3,0,1,1-12.29-12.29A12.29,12.29,0,0,1,297.92,410.68Z" style="fill:#FFC727;opacity:0.2"></path><path d="M293.82,414.62a8.2,8.2,0,1,1-8.19-8.2A8.19,8.19,0,0,1,293.82,414.62Z" style="fill:#FFC727;opacity:0.2"></path><path d="M289.39,417c-.43,4.78-3.76,5.56-3.76,5.56s-3.32-.78-3.76-5.56,3.76-10.35,3.76-10.35S289.82,412.23,289.39,417Z" style="fill:#FFC727"></path><path d="M289.39,417c-.43,4.78-3.76,5.56-3.76,5.56s-3.32-.78-3.76-5.56,3.76-10.35,3.76-10.35S289.82,412.23,289.39,417Z" style="opacity:0.1"></path><path d="M288.22,418.74c-.29,3.29-2.59,3.83-2.59,3.83s-2.29-.54-2.59-3.83,2.59-7.14,2.59-7.14S288.52,415.44,288.22,418.74Z" style="fill:#FFC727"></path><rect x="285.24" y="422.32" width="0.77" height="4.19" style="fill:#a6a6a6"></rect><path d="M307.63,426.36c0,3.94-7.12,11.06-11,11.06H274.68c-3.9,0-11.05-7.12-11.05-11.06Z" style="fill:#455a64"></path><path d="M268.86,433.69H268a21.89,21.89,0,0,1-2.57-2.95l1-2.13Z" style="fill:#37474f"></path><polygon points="268.86 428.61 273.66 428.61 271.26 433.69 268.86 428.61" style="fill:#37474f"></polygon><polygon points="278.46 433.69 273.66 433.69 276.06 428.61 278.46 433.69" style="fill:#37474f"></polygon><polygon points="278.46 428.61 283.27 428.61 280.87 433.69 278.46 428.61" style="fill:#37474f"></polygon><polygon points="288.07 433.69 283.27 433.69 285.67 428.61 288.07 433.69" style="fill:#37474f"></polygon><polygon points="288.07 428.61 292.87 428.61 290.47 433.69 288.07 428.61" style="fill:#37474f"></polygon><polygon points="297.67 433.69 292.87 433.69 295.27 428.61 297.67 433.69" style="fill:#37474f"></polygon><polygon points="297.67 428.61 302.48 428.61 300.07 433.69 297.67 428.61" style="fill:#37474f"></polygon><path d="M305.86,430.67a21.37,21.37,0,0,1-2.6,3h-.78l2.4-5.08Z" style="fill:#37474f"></path></g><g id="freepik--Smoke--inject-41"><g style="opacity:0.8"><path d="M359.7,232.37c14.3-12.8,25.84-32.29,14.06-59.1s-69.25-27.05-72.64-33.18,3.49-13.1-.27-20.8-15.49-6-15.94-11.14,4.51-8.09,5.84-14.71c1.91-9.51-2.55-30.74-24.05-43.35-33-19.33-43.18,19.2-22.82,29.35,10.91,5.43,23.64,12.31,26.63,23.91s-13.77,28.8-10.33,40.88,32.25,8.3,40.4,23.7S296,195,297.08,209.05s11.51,16.44,11.51,28.17c0,14.2-17.06,23.9-19.25,32.31-3.32,12.79,2.12,13.73,3.12,28.22s-9.62,23.64-7.65,30.77c3.63,13,23.37,8.27,27.66,19s-2.07,24.94.19,33.09S328,393.49,330.08,394.4c0,0-12.2-5.29-13.71-14-1.86-10.76,11.74-24.91,5.61-38.08s-22.05-8.49-24.83-15.37,8.05-11.68,8.53-28.83-3.12-19.32,1.66-27.41C316.36,255.47,340.42,249.63,359.7,232.37Z" style="fill:#FFC727"></path><path d="M377.26,222.69s23.58-3.12,30.4-15.73c6.12-11.3-3.3-14.63-7.48-30s6.6-39.6,33.88-42.46,32.42,25.52,16.73,36.08c-12.82,8.62-24.27,8.29-24,19.36S424.82,225.11,377.26,222.69Z" style="fill:#FFC727"></path><path d="M234.58,46.63A17.51,17.51,0,0,1,241.93,41a21.46,21.46,0,0,1,9.27-1.65,26.72,26.72,0,0,1,9.1,2.27,46,46,0,0,1,4.1,2.2c1.25.9,2.49,1.82,3.67,2.79-1.42-.6-2.78-1.28-4.14-1.93l-2.1-.82c-.71-.24-1.36-.62-2.09-.79A34.32,34.32,0,0,0,255.45,42a17.83,17.83,0,0,0-2.16-.4l-2.18-.2a25.31,25.31,0,0,0-8.64,1.12A24.83,24.83,0,0,0,234.58,46.63Z" style="fill:#FFC727"></path><path d="M431.09,193.74a21.76,21.76,0,0,1-.56,11.28,22.56,22.56,0,0,1-2.42,5.26,24.75,24.75,0,0,1-3.67,4.49,28.89,28.89,0,0,1-4.63,3.48c-.84.46-1.67.94-2.55,1.33a25.34,25.34,0,0,1-2.64,1.1,37.13,37.13,0,0,1-11.08,2.18A69.06,69.06,0,0,0,414,219.23a32.79,32.79,0,0,0,9-5.91,25,25,0,0,0,6-8.82A28.66,28.66,0,0,0,431.09,193.74Z" style="fill:#FFC727"></path><path d="M361.79,155.21a29,29,0,0,1,7.17,3.7,34.37,34.37,0,0,1,6.12,5.38A36.11,36.11,0,0,1,383,178.55a43.34,43.34,0,0,1,1.4,16.21,42.13,42.13,0,0,1-1.58,8,33.55,33.55,0,0,1-3.16,7.42,45.46,45.46,0,0,0,2.21-7.66,49.67,49.67,0,0,0,1-7.85,18.51,18.51,0,0,0,0-2c0-.66,0-1.31,0-2-.09-1.31-.11-2.62-.31-3.91a45.65,45.65,0,0,0-1.5-7.69c-.39-1.24-.78-2.49-1.24-3.7s-1-2.42-1.63-3.55a37.53,37.53,0,0,0-4.26-6.55,39.09,39.09,0,0,0-5.53-5.61A36.7,36.7,0,0,0,361.79,155.21Z" style="fill:#FFC727"></path><path d="M309.49,290.5a26.68,26.68,0,0,1-1.76-8.41,16,16,0,0,1,2-8.59,28.63,28.63,0,0,1,5.68-6.59,28.06,28.06,0,0,1,7.19-4.66A72.93,72.93,0,0,0,316.5,268c-.92,1-1.86,2-2.7,3.14a27.9,27.9,0,0,0-2.33,3.34,13.55,13.55,0,0,0-1.52,3.63,21.05,21.05,0,0,0-.67,4A62.1,62.1,0,0,0,309.49,290.5Z" style="fill:#FFC727"></path><path d="M308.49,329.28a21.08,21.08,0,0,1,5.31.94,20.44,20.44,0,0,1,5,2.23,16.94,16.94,0,0,1,7.16,8.39c.24.9.58,1.81.74,2.71a24.65,24.65,0,0,1,.43,2.71,23.53,23.53,0,0,1,0,5.5,16,16,0,0,1-4.49,9.75,19.31,19.31,0,0,0,2.93-9.88,26,26,0,0,0-.3-5.13c-.09-.85-.29-1.7-.46-2.54s-.48-1.61-.71-2.42a15.45,15.45,0,0,0-2.48-4.31,15.77,15.77,0,0,0-1.69-1.88c-.65-.53-1.26-1.13-2-1.61a25.22,25.22,0,0,0-4.48-2.61A32.37,32.37,0,0,0,308.49,329.28Z" style="fill:#FFC727"></path></g><path d="M312.08,369s1.62-13.19-2.85-20c-6.53-9.95-32-7-34.38-17.65-1.88-8.25,3-15.09,1.81-21.43-1.51-7.79-5.44-8.54-6.55-18.18-1.61-14.14,9.2-21.67,10.51-35.56,1.16-12.31,0-16-7.4-27.84s-1.18-19.87-9.15-31.46-21.06-2.67-25.53-8.95-.95-14.1-6.49-20.75c-5-5.94-17.82-1.65-20.89-9.39s2.64-15.8,11.1-20.51,31-20.26,32.66-32.85-11.59-25-11.59-25,21.68,8.45,25.54,21.73-13.21,33.83-9.24,43.06c7,16.18,28.92,4.12,38.05,20.33,11.23,19.94-3.15,35.86-.91,46.8,2.9,14.13,8.39,14.94,10.42,27.51,2.61,16.1-15.88,22.44-17.87,35.48-1,6.81,6.88,16,1.08,33.56-2.14,6.46-8,18.54-6.19,23,3.35,8.24,21.45,3.32,28.13,14.76C318.13,355.53,312.08,369,312.08,369Z" style="fill:#ebebeb;opacity:0.8"></path><path d="M276.48,150.26a44.08,44.08,0,0,1,15.41,2.66,27.84,27.84,0,0,1,7.05,3.76,20.52,20.52,0,0,1,3,2.76,17.94,17.94,0,0,1,2.31,3.41,26.86,26.86,0,0,1,2.31,7.71,39.09,39.09,0,0,1,.2,7.94,52.77,52.77,0,0,1-3.46,15.24,80.55,80.55,0,0,0,1.91-15.31,45.48,45.48,0,0,0-.52-7.58,25.86,25.86,0,0,0-2.22-7.1,15.89,15.89,0,0,0-2-3,20.79,20.79,0,0,0-2.67-2.55,29.35,29.35,0,0,0-6.48-3.81A61,61,0,0,0,276.48,150.26Z" style="fill:#ebebeb;opacity:0.8"></path><path d="M237.17,79.44a51,51,0,0,1,8.42,7.61,32.17,32.17,0,0,1,6.23,9.71,14.2,14.2,0,0,1,.74,2.92,9,9,0,0,1-.05,3.11,10.49,10.49,0,0,1-.39,1.45c-.15.47-.28.93-.46,1.38a25,25,0,0,1-1.14,2.66,25.67,25.67,0,0,1-3.08,4.87,20,20,0,0,1-4.11,3.95,29.34,29.34,0,0,0,3.31-4.51,32.48,32.48,0,0,0,2.46-4.94,32,32,0,0,0,1.55-5.19,9.93,9.93,0,0,0-.71-5,24.83,24.83,0,0,0-2.41-4.84c-.95-1.57-2-3.07-3.14-4.56C242.14,85.09,239.69,82.25,237.17,79.44Z" style="fill:#ebebeb"></path><path d="M293.67,282a23.74,23.74,0,0,1,3.52,7.8c.16.7.34,1.4.47,2.11l.32,2.15a31.56,31.56,0,0,1,.1,4.35l-.05,1.09-.15,1.08c-.12.71-.17,1.44-.34,2.15a26.16,26.16,0,0,1-1.27,4.15,16.46,16.46,0,0,1-.84,2l-1,1.89a14.33,14.33,0,0,1-1.2,1.79c-.42.57-.85,1.14-1.3,1.69.27-.67.54-1.32.82-2a17.14,17.14,0,0,0,.79-1.94,36.93,36.93,0,0,0,1.28-3.94,35.29,35.29,0,0,0,1.3-8.08,38.81,38.81,0,0,0-.42-8.19A49.1,49.1,0,0,0,293.67,282Z" style="fill:#ebebeb;opacity:0.8"></path><g style="opacity:0.8"><path d="M204.13,201.82a45.2,45.2,0,0,0-1.16,6.85,19.69,19.69,0,0,0,0,3.35,10.54,10.54,0,0,0,.68,3.14,8.54,8.54,0,0,0,4.12,4.61,20.3,20.3,0,0,0,6.52,2,12.84,12.84,0,0,1-7.18-.63,9.34,9.34,0,0,1-3.22-2.05,9,9,0,0,1-2.11-3.27,13.57,13.57,0,0,1-.37-7.4A18.8,18.8,0,0,1,204.13,201.82Z" style="fill:#455a64"></path><path d="M260.54,318.92a37.41,37.41,0,0,0-.45,11.54,19.29,19.29,0,0,0,4.17,10.19,16,16,0,0,0,4.25,3.52,8.59,8.59,0,0,0,1.22.7c.42.21.83.44,1.26.64.88.37,1.74.77,2.65,1.09a58.18,58.18,0,0,0,11.29,2.75,35.09,35.09,0,0,1-11.77-1.27,24.91,24.91,0,0,1-5.61-2.27,17.67,17.67,0,0,1-4.81-3.86,19,19,0,0,1-4.2-11.35A26.76,26.76,0,0,1,260.54,318.92Z" style="fill:#455a64"></path><path d="M268.75,349.35a13.42,13.42,0,0,0,4.87,1.41,40.77,40.77,0,0,0,5.08.24,81.42,81.42,0,0,1,10.43.28,19.27,19.27,0,0,1,5.23,1.42,11.13,11.13,0,0,1,4.34,3.4,21,21,0,0,1,3.87,9.75,29.75,29.75,0,0,0-5.06-8.74c-2.17-2.41-5.36-3.44-8.65-3.85s-6.76-.41-10.23-.71a28.88,28.88,0,0,1-5.2-.83A11.24,11.24,0,0,1,268.75,349.35Z" style="fill:#455a64"></path><path d="M275.58,228a29.7,29.7,0,0,1,7.68,9,23.31,23.31,0,0,1,3.21,11.74A36.51,36.51,0,0,1,284,260.48a35.18,35.18,0,0,1-5.89,10.25,87.52,87.52,0,0,0,3.66-11c.43-1.85.87-3.69,1.15-5.55.12-.93.3-1.86.37-2.79l.15-1.4,0-1.35a20.23,20.23,0,0,0-.1-2.69c-.16-.9-.25-1.8-.5-2.69a31.34,31.34,0,0,0-1.71-5.29A59.15,59.15,0,0,0,275.58,228Z" style="fill:#455a64"></path><path d="M319.66,392.58s-9.8-4.71-12-13.76-1.72-20.11-5.53-24.94c-7.05-9-30.66-5.34-37.43-20.11-3.6-7.83,1-16.36-1.09-23s-9.78-6.52-13.62-19.84c-2.29-8-.57-9.08-1.9-15.24s-10.41-6-16.27-20.26,1.16-30.22,1.53-36.32-3.13-9.12-8-6.58-10.11,8.31-16.23,4.4-2-10.57-2-14.91-11.11-4.22-10.14-11.35S217,191.73,217,178.43c0-4.57-11.18-11.29-12-16.46-1.36-8.93,7.34-15.6,7.34-15.6s-4.81,8.48.46,13.77c3,3,10.83,3.13,16.57,8.3,6,5.39,2,12.44,7.43,18.24,6.75,7.2,17.39-1.25,26.64,9.43,8.14,9.41,2.93,22.94,7.48,30.18,5.31,8.45,8.93,13.77,8.79,23.61-.26,17.4-11.78,24.82-10.87,41.84.42,8.05,6.64,11.72,7,20.17s-.26,15.29,1.9,21.14c2.87,7.78,26.33,6.19,31,16.3,4.1,8.82,1.08,22.95,2.41,30.43S319.66,392.58,319.66,392.58Z" style="fill:#455a64"></path></g></g><g id="freepik--Sparkles--inject-41"><polygon points="302.51 350.57 297.09 351.58 295.88 357.29 294.67 351.58 289.25 350.57 294.64 349.25 295.88 343.86 297.11 349.25 302.51 350.57" style="fill:#FFC727"></polygon><polygon points="271.63 74.97 266.21 75.97 265 81.68 263.79 75.97 258.37 74.96 263.77 73.64 265 68.25 266.24 73.64 271.63 74.97" style="fill:#FFC727"></polygon><polygon points="243.96 264.81 238.54 265.81 237.33 271.52 236.12 265.81 230.7 264.8 236.1 263.48 237.33 258.09 238.57 263.48 243.96 264.81" style="fill:#FFC727"></polygon><polygon points="335.97 217.51 330.55 218.51 329.34 224.22 328.13 218.51 322.71 217.5 328.1 216.18 329.34 210.79 330.57 216.18 335.97 217.51" style="fill:#FFC727"></polygon><polygon points="428.73 153.54 423.31 154.54 422.1 160.25 420.88 154.54 415.46 153.53 420.86 152.22 422.1 146.82 423.33 152.22 428.73 153.54" style="fill:#FFC727"></polygon><polygon points="406.6 216.48 403.57 217.04 402.89 220.24 402.21 217.04 399.18 216.48 402.2 215.75 402.89 212.73 403.58 215.75 406.6 216.48" style="fill:#FFC727"></polygon><polygon points="271.78 211.82 268.75 212.38 268.07 215.57 267.4 212.38 264.37 211.82 267.38 211.08 268.07 208.06 268.76 211.08 271.78 211.82" style="fill:#FFC727"></polygon><polygon points="442.1 147.92 439.07 148.48 438.39 151.67 437.72 148.48 434.69 147.92 437.7 147.18 438.39 144.16 439.08 147.18 442.1 147.92" style="fill:#FFC727"></polygon><polygon points="351.58 233.21 348.55 233.76 347.88 236.96 347.2 233.76 344.17 233.2 347.19 232.47 347.88 229.45 348.57 232.47 351.58 233.21" style="fill:#FFC727"></polygon><polygon points="313.83 292.17 310.81 292.73 310.13 295.92 309.45 292.73 306.42 292.17 309.44 291.43 310.13 288.41 310.82 291.43 313.83 292.17" style="fill:#FFC727"></polygon><polygon points="350.81 154.75 347.78 155.31 347.11 158.5 346.43 155.31 343.4 154.75 346.42 154.01 347.11 151 347.8 154.01 350.81 154.75" style="fill:#FFC727"></polygon><polygon points="290.61 160.98 287.58 161.54 286.9 164.73 286.23 161.54 283.2 160.98 286.21 160.24 286.9 157.23 287.6 160.24 290.61 160.98" style="fill:#FFC727"></polygon><polygon points="215.99 157.68 212.96 158.24 212.28 161.44 211.6 158.24 208.57 157.68 211.59 156.94 212.28 153.93 212.97 156.94 215.99 157.68" style="fill:#FFC727"></polygon><polygon points="254.64 292.17 251.62 292.73 250.94 295.92 250.26 292.73 247.23 292.17 250.25 291.43 250.94 288.41 251.63 291.43 254.64 292.17" style="fill:#FFC727"></polygon><path d="M308.72,305.57a.88.88,0,0,0,0,1.75A.88.88,0,0,0,308.72,305.57Z" style="fill:#FFC727"></path><path d="M359.54,165.4a.88.88,0,0,0,0,1.76A.88.88,0,0,0,359.54,165.4Z" style="fill:#FFC727"></path><path d="M452.67,160.1a.88.88,0,0,0,0,1.76A.88.88,0,0,0,452.67,160.1Z" style="fill:#FFC727"></path><path d="M201.41,163.8a.88.88,0,0,0,0,1.76A.88.88,0,0,0,201.41,163.8Z" style="fill:#FFC727"></path><path d="M250.94,235.07a.88.88,0,0,0,0,1.76A.88.88,0,0,0,250.94,235.07Z" style="fill:#FFC727"></path><path d="M224.94,219a.62.62,0,0,0,0,1.24A.62.62,0,0,0,224.94,219Z" style="fill:#FFC727"></path><path d="M250.72,138.65a.62.62,0,0,0,0,1.24A.62.62,0,0,0,250.72,138.65Z" style="fill:#FFC727"></path><path d="M334.14,175.36a.62.62,0,0,0,0,1.24A.62.62,0,0,0,334.14,175.36Z" style="fill:#FFC727"></path><path d="M234.38,314a.62.62,0,0,0,0,1.24A.62.62,0,0,0,234.38,314Z" style="fill:#FFC727"></path><path d="M290,314.21a1.69,1.69,0,0,0,0,3.37A1.69,1.69,0,0,0,290,314.21Z" style="fill:#FFC727"></path><path d="M428.73,200.25a1.69,1.69,0,0,0,0,3.37A1.69,1.69,0,0,0,428.73,200.25Z" style="fill:#FFC727"></path><path d="M282.8,63.09a1.68,1.68,0,0,0,0,3.36A1.68,1.68,0,0,0,282.8,63.09Z" style="fill:#FFC727"></path><path d="M300.17,152.29a1.69,1.69,0,0,0,0,3.37A1.69,1.69,0,0,0,300.17,152.29Z" style="fill:#FFC727"></path><path d="M242.34,308.3a1.68,1.68,0,0,0,0,3.36A1.68,1.68,0,0,0,242.34,308.3Z" style="fill:#FFC727"></path><g style="opacity:0.6"><polygon points="302.51 350.57 297.09 351.58 295.88 357.29 294.67 351.58 289.25 350.57 294.64 349.25 295.88 343.86 297.11 349.25 302.51 350.57" style="fill:#fff"></polygon><polygon points="271.63 74.97 266.21 75.97 265 81.68 263.79 75.97 258.37 74.96 263.77 73.64 265 68.25 266.24 73.64 271.63 74.97" style="fill:#fff"></polygon><polygon points="243.96 264.81 238.54 265.81 237.33 271.52 236.12 265.81 230.7 264.8 236.1 263.48 237.33 258.09 238.57 263.48 243.96 264.81" style="fill:#fff"></polygon><polygon points="335.97 217.51 330.55 218.51 329.34 224.22 328.13 218.51 322.71 217.5 328.1 216.18 329.34 210.79 330.57 216.18 335.97 217.51" style="fill:#fff"></polygon><polygon points="428.73 153.54 423.31 154.54 422.1 160.25 420.88 154.54 415.46 153.53 420.86 152.22 422.1 146.82 423.33 152.22 428.73 153.54" style="fill:#fff"></polygon><polygon points="406.6 216.48 403.57 217.04 402.89 220.24 402.21 217.04 399.18 216.48 402.2 215.75 402.89 212.73 403.58 215.75 406.6 216.48" style="fill:#fff"></polygon><polygon points="271.78 211.82 268.75 212.38 268.07 215.57 267.4 212.38 264.37 211.82 267.38 211.08 268.07 208.06 268.76 211.08 271.78 211.82" style="fill:#fff"></polygon><polygon points="442.1 147.92 439.07 148.48 438.39 151.67 437.72 148.48 434.69 147.92 437.7 147.18 438.39 144.16 439.08 147.18 442.1 147.92" style="fill:#fff"></polygon><polygon points="351.58 233.21 348.55 233.76 347.88 236.96 347.2 233.76 344.17 233.2 347.19 232.47 347.88 229.45 348.57 232.47 351.58 233.21" style="fill:#fff"></polygon><polygon points="313.83 292.17 310.81 292.73 310.13 295.92 309.45 292.73 306.42 292.17 309.44 291.43 310.13 288.41 310.82 291.43 313.83 292.17" style="fill:#fff"></polygon><polygon points="350.81 154.75 347.78 155.31 347.11 158.5 346.43 155.31 343.4 154.75 346.42 154.01 347.11 151 347.8 154.01 350.81 154.75" style="fill:#fff"></polygon><polygon points="290.61 160.98 287.58 161.54 286.9 164.73 286.23 161.54 283.2 160.98 286.21 160.24 286.9 157.23 287.6 160.24 290.61 160.98" style="fill:#fff"></polygon><polygon points="215.99 157.68 212.96 158.24 212.28 161.44 211.6 158.24 208.57 157.68 211.59 156.94 212.28 153.93 212.97 156.94 215.99 157.68" style="fill:#fff"></polygon><polygon points="254.64 292.17 251.62 292.73 250.94 295.92 250.26 292.73 247.23 292.17 250.25 291.43 250.94 288.41 251.63 291.43 254.64 292.17" style="fill:#fff"></polygon><path d="M308.72,305.57a.88.88,0,0,0,0,1.75A.88.88,0,0,0,308.72,305.57Z" style="fill:#fff"></path><path d="M359.54,165.4a.88.88,0,0,0,0,1.76A.88.88,0,0,0,359.54,165.4Z" style="fill:#fff"></path><path d="M452.67,160.1a.88.88,0,0,0,0,1.76A.88.88,0,0,0,452.67,160.1Z" style="fill:#fff"></path><path d="M201.41,163.8a.88.88,0,0,0,0,1.76A.88.88,0,0,0,201.41,163.8Z" style="fill:#fff"></path><path d="M250.94,235.07a.88.88,0,0,0,0,1.76A.88.88,0,0,0,250.94,235.07Z" style="fill:#fff"></path><path d="M224.94,219a.62.62,0,0,0,0,1.24A.62.62,0,0,0,224.94,219Z" style="fill:#fff"></path><path d="M250.72,138.65a.62.62,0,0,0,0,1.24A.62.62,0,0,0,250.72,138.65Z" style="fill:#fff"></path><path d="M334.14,175.36a.62.62,0,0,0,0,1.24A.62.62,0,0,0,334.14,175.36Z" style="fill:#fff"></path><path d="M234.38,314a.62.62,0,0,0,0,1.24A.62.62,0,0,0,234.38,314Z" style="fill:#fff"></path><path d="M290,314.21a1.69,1.69,0,0,0,0,3.37A1.69,1.69,0,0,0,290,314.21Z" style="fill:#fff"></path><path d="M428.73,200.25a1.69,1.69,0,0,0,0,3.37A1.69,1.69,0,0,0,428.73,200.25Z" style="fill:#fff"></path><path d="M282.8,63.09a1.68,1.68,0,0,0,0,3.36A1.68,1.68,0,0,0,282.8,63.09Z" style="fill:#fff"></path><path d="M300.17,152.29a1.69,1.69,0,0,0,0,3.37A1.69,1.69,0,0,0,300.17,152.29Z" style="fill:#fff"></path><path d="M242.34,308.3a1.68,1.68,0,0,0,0,3.36A1.68,1.68,0,0,0,242.34,308.3Z" style="fill:#fff"></path></g></g><g id="freepik--Character--inject-41"><path d="M169.63,447.06c-2.46.51-70-7.4-72.39-9.33-.9-.72-.32-10.63.72-22.58.22-2.58,9.67-42.77,9.67-42.77l43.58,4.86-9.69,42.89s24.5,14.6,26.89,17S172.07,446.55,169.63,447.06Z" style="fill:#d3766a"></path><path d="M97.52,420.39c-.74,9.49-1,16.73-.28,17.35,2.38,1.92,69.93,9.83,72.39,9.32s1.15-7.54-1.22-9.93c-1.32-1.32-9.31-6.33-16.24-10.56,2.37,1.87,5.38,4.5,4.93,5.8C156.23,434.93,122.39,432.79,97.52,420.39Z" style="fill:#263238"></path><path d="M107.49,171.86s16.09,127.87,16.37,129.37c0,.14-22.88,100.09-22.88,100.09L143.21,406S170.32,311.15,169,298.57c-2.33-22.4-24-126.47-24-126.47Z" style="fill:#d3766a"></path><g style="opacity:0.7000000000000001"><path d="M107.49,171.86s15.09,127.87,15.37,129.37c0,.14-28.25,45.3-28.65,73.74-.16,11.71,6.38,27.81,6.38,27.81l43.92,4.11s9.68-13.11,12-22.72c5.15-21.45,14.82-73,13.5-85.6-2.33-22.4-25-126.47-25-126.47Z" style="fill:#FFC727"></path></g><path d="M169.14,431.39c2.23-1.16,50.15-51.29,50.77-54.29.1-.48-49.4-45-49.4-45l-32,33.65,34.61,28.89s-9,25-9.32,28.33S166.93,432.55,169.14,431.39Z" style="fill:#d3766a"></path><path d="M219.9,377.09c-.61,3-48.54,53.14-50.76,54.31s-5.69-5.11-5.36-8.46c.18-1.95,3.27-11.11,5.83-18.5-.61,3-1.33,7.42-.08,8.17,2.32,1.39,26.71-22.37,37.46-48C214.41,371.42,220,376.71,219.9,377.09Z" style="fill:#263238"></path><path d="M145,172.1s-10.16,36.09-12.79,38c0,0-13.54,69.2-12.3,73.86,1,3.91,77.29,72.64,77.29,72.64l-35.31,28.24S80.76,318.55,73.2,301.25C66.07,285,93.69,171.78,93.69,171.78Z" style="fill:#d3766a"></path><g style="opacity:0.7000000000000001"><path d="M145,172.1s-10.16,36.09-12.79,38c0,0-12.54,69.2-11.3,73.86,1,3.91,45.27,26.15,61.73,43.85,5.89,6.33,11.75,23.88,11.75,23.88l-32.5,33.15s-18.06-3.1-30.18-13.74C117.93,359,78.76,318.55,71.2,301.25,64.07,285,93.69,171.78,93.69,171.78Z" style="fill:#FFC727"></path></g><path d="M93.69,171.78H145s13.81,36.46,18.8,58.32,8,64.06,8,64.06c.25,2.22-19,.23-26.52,6.08-6.36,4.91-19.12,16.08-36.19,17.85a111.14,111.14,0,0,1-32.46-1.76s-6.75-9.79-8.33-18.84C66,284.85,78.93,209.84,93.69,171.78Z" style="fill:#455a64"></path><path d="M74.91,267.77a139.76,139.76,0,0,0-1.1,15.16,56.92,56.92,0,0,0,.48,7.6c.34,2.5,1.08,4.93,1.55,7.4a.08.08,0,1,1-.15,0,49.28,49.28,0,0,1-2.51-8.24c-1-5.08-.52-10.19.07-15.28s1.5-10.26,2.51-15.35c0-.25.42-.15.38.1Q75.41,263.46,74.91,267.77Z" style="fill:#37474f"></path><path d="M137.87,294.85c0,.09-.08.17-.13.08a42.27,42.27,0,0,0-4.3-6.14c-1.57-2-3.33-3.78-4.79-5.83a26,26,0,0,1-3.25-5.67,24.47,24.47,0,0,1-1.5-7.53c-.15-2.68-.08-5.38-.06-8.07s.06-5.47.12-8.21c.23-11.22,1-22.41,1.23-33.63,0,0,.07,0,.07,0,0,6.21.11,12.45.37,18.65.12,2.74.11,5.48.16,8.21s.08,5.56.07,8.34,0,5.47-.06,8.21-.06,5.23.16,7.84a23.46,23.46,0,0,0,1.61,7.06,38.73,38.73,0,0,0,3.14,5.72C133.07,287.57,135.93,290.9,137.87,294.85Z" style="fill:#37474f"></path><path d="M92,318.37c-1.47-.09-2.86-.21-4.17-.34l-.62-.9a56.91,56.91,0,0,1-7.62-17.35A60.89,60.89,0,0,1,78,290.29a41.1,41.1,0,0,1-.12-4.71,27.79,27.79,0,0,1,.36-4.82c.09-.49.81-.37.83.09a21.51,21.51,0,0,0,.57,3.17c.19,1,.38,1.92.58,2.87q.61,3,1.32,5.94a86.33,86.33,0,0,0,7.11,20q1.23,2.32,2.68,4.51Z" style="fill:#37474f"></path><path d="M163.12,295.69c-.79.06-1.62.13-2.46.22-.13-.62-.21-1.26-.28-1.89-.26-2.48-.22-5-.38-7.48s-.33-4.81-.46-7.21-.29-4.81-.44-7.22c-.29-4.84-.71-9.68-1.13-14.52s-1-9.56-1.56-14.32c-.29-2.38-.55-4.76-.92-7.13s-.85-5-1.27-7.44c0-.1.13-.15.15,0,.65,2.65,1.18,5.34,1.73,8s1.13,5.24,1.63,7.87c.77,4.06,1.41,8.16,1.93,12.27.15.82.32,1.63.45,2.45,1.14,6.74,2,13.5,2.58,20.32C163.11,284.94,163.17,290.31,163.12,295.69Z" style="fill:#37474f"></path><path d="M130.16,243.88c-.32-7.47-.46-14.95-.37-22.43s.41-15.13.57-22.69c0-.11.17-.11.17,0q0,6.36.18,12.71c.2,7.47.36,14.95.27,22.43s-.19,15.12-.18,22.69a.08.08,0,0,1-.15,0C130.49,252.35,130.34,248.11,130.16,243.88Z" style="fill:#37474f"></path><path d="M93.33,244c-.44,12.18,1.17,24.58,6.39,35.7,0,0,0,0,0,0a73.09,73.09,0,0,1-6-19.34A124,124,0,0,1,92,242.23a147.45,147.45,0,0,1,1-18.67c1.4-13.87,3.26-27.7,4.67-41.59,0-.1.16-.09.15,0-.74,7.94-1.31,15.9-1.91,23.86-.5,6.57-1.14,13.14-1.59,19.71Q93.66,234.77,93.33,244Z" style="fill:#37474f"></path><path d="M102,92.07c-4.51,0-14.9,5.43-17.37,12s-.15,15.76,2,16.25,10.14-2,15.1-6.28S104.25,92.08,102,92.07Z" style="fill:#263238"></path><path d="M102.05,92.09c.13-.06.1-.3-.07-.27-3.78.72-7.54,2.86-10.9,4.66-2.72,1.46-5.48,3.09-7.39,5.57a10.33,10.33,0,0,0-2,8.41c.6,3.35,1.93,7.26,4.2,9.85.07.07.23,0,.17-.1-3.09-5.89-6.25-13.23-1-18.84C89.59,96.6,96.27,94.72,102.05,92.09Z" style="fill:#263238"></path><path d="M97.88,88.84C96.36,87.58,94.44,90,96,91.23S99.41,90.1,97.88,88.84Z" style="fill:#FFC727"></path><path d="M99.59,91.13c-1.52-1.26-3.44,1.12-1.92,2.39S101.12,92.39,99.59,91.13Z" style="fill:#FFC727"></path><path d="M101.69,93.1c-1.52-1.26-3.45,1.13-1.92,2.39S103.21,94.36,101.69,93.1Z" style="fill:#FFC727"></path><path d="M104,94.74c-1.52-1.26-3.45,1.13-1.93,2.39S105.49,96,104,94.74Z" style="fill:#FFC727"></path><path d="M106.55,96a1.54,1.54,0,0,0-1.93,2.39C106.14,99.64,108.07,97.25,106.55,96Z" style="fill:#FFC727"></path><path d="M109.21,96.72c-1.53-1.26-3.45,1.13-1.93,2.39S110.73,98,109.21,96.72Z" style="fill:#FFC727"></path><path d="M117.77,125.46c12,18.56,33.24,42.9,39.31,44.91,5.72,1.89,21.5,4.82,39.2,4.78,3.88,0,5.73-26.8-.44-28.23-11.66-2.7-35.35-4.3-36.4-4.94-1.38-.84-21.56-17.28-33.4-26.1C111.76,105.24,111.27,115.38,117.77,125.46Z" style="fill:#d3766a"></path><path d="M186.35,145.72c10.42,0,23.4-.62,33.54,5.35a5.78,5.78,0,0,1,2.54,2.84c4.59,2.59,4.75,5.54,4.75,5.54,3.53,3.73,3.28,6.76,3.28,6.76s5.35,3.11,4,6.66c-1.49,4-8.72-1.16-14.42-1.56-13.08-.9-31.91,1.47-35.71,1.58Z" style="fill:#d3766a"></path><path d="M207,160.74a83.78,83.78,0,0,1,11.4,1.44,84.48,84.48,0,0,1,11.91,4.08.1.1,0,0,0,.09-.18A44.52,44.52,0,0,0,207,160.56C206.84,160.57,206.82,160.72,207,160.74Z" style="fill:#263238"></path><path d="M206.41,152.77c3.72.54,10.26,1.53,20.71,6.79a0,0,0,0,0,0-.06,39.93,39.93,0,0,0-20.72-6.91C206.21,152.58,206.17,152.73,206.41,152.77Z" style="fill:#263238"></path><path d="M206.17,148.48c6.29,1.16,10.11,2.69,16.23,5.44,0,0,.07,0,0-.06-6.62-3.86-9.46-4.51-16.25-5.6C206,148.22,205.93,148.43,206.17,148.48Z" style="fill:#263238"></path><path d="M204.23,171.22c-1.75.55-1.47,1.48,1.58,2.62s16.12,3.08,15.06,7.58-19.45,1.5-24.39-.79-12.14-7.74-12.14-7.74C188,172.76,197,171.57,204.23,171.22Z" style="fill:#d3766a"></path><path d="M148.22,131.6l-20.6,9.85s-10.33-14.75-13.52-22.31c-3.06-7.24-1.08-12.34,10.74-4.53A285.88,285.88,0,0,1,148.22,131.6Z" style="fill:#FFC727"></path><path d="M142.3,129.31a35.84,35.84,0,0,0-4.17,1.66c-1.37.6-2.73,1.21-4.09,1.83s-2.73,1.26-4.08,1.92-2.72,1.42-4.09,2.13a.08.08,0,0,0,.07.15c1.39-.56,2.8-1.08,4.17-1.67s2.73-1.22,4.08-1.84,2.74-1.26,4.09-1.92a35.2,35.2,0,0,0,4.08-2.14A.07.07,0,0,0,142.3,129.31Z" style="fill:#263238"></path><path d="M145.49,132.91l-17.87,8.54s-10.33-14.75-13.52-22.31c-2.15-5.08-1.81-9.11,2.67-8.36C124.39,116.71,139.35,128.2,145.49,132.91Z" style="fill:#263238"></path><path d="M140,149.38l5.16,22.88-51.5-.48a52.65,52.65,0,0,0,1.47-13.39c-.69-11.32-4.72-27.67,2-40.95,5.66-11.11,14.14-11.32,20.86-6.6,1.7,1.19,20.29,15.67,23.67,24C144.69,142.17,140,149.38,140,149.38Z" style="fill:#FFC727"></path><path d="M131.58,146.92a52.73,52.73,0,0,0-7.76,2.77c-1.24.58-2.45,1.22-3.65,1.88-.6.34-1.21.64-1.82,1a7.89,7.89,0,0,1-2,.77c-.06,0,0,.11,0,.1a13.31,13.31,0,0,0,2-.38,14,14,0,0,0,1.83-.7c1.26-.57,2.5-1.21,3.76-1.8,2.55-1.18,5.09-2.37,7.71-3.36C131.78,147.11,131.71,146.89,131.58,146.92Z" style="fill:#263238"></path><path d="M138.68,148.35a54.73,54.73,0,0,0-6.75.79c-1.11.2-2.21.47-3.3.78-.52.14-1,.3-1.56.46s-1.11.44-1.68.61c-.06,0,0,.12,0,.1.54-.14,1.11-.19,1.66-.3s1.11-.22,1.66-.33c1.11-.21,2.22-.42,3.33-.65,2.21-.46,4.42-.89,6.65-1.27C138.83,148.52,138.79,148.34,138.68,148.35Z" style="fill:#263238"></path><path d="M118.06,110.84a16.3,16.3,0,0,1,4.46,1.24,33.9,33.9,0,0,1,5.56,3.66c.91.89,11.4,24,9.43,52.62s-29.66,59.45-44.64,75.19-23.51,28.71-24.18,34.14a34.66,34.66,0,0,0-.32,7.88s-4.48-15.64-2.63-20.63,6.67-17,7-20.45,2.9-20.21,6.44-27.23,36.72-32.92,42.31-51.32C129.34,140.09,118.06,110.84,118.06,110.84Z" style="fill:#ebebeb"></path><path d="M82.5,221.34A82.45,82.45,0,0,1,91.2,209c5.89-7.06,12.49-13.47,18.56-20.36a106.3,106.3,0,0,0,8.45-10.8,59.77,59.77,0,0,0,6.6-13.27c0-.09.18-.06.15,0a77.91,77.91,0,0,1-3.25,8.11,63.64,63.64,0,0,1-3.78,6.68c-5,7.66-11.52,14.16-17.87,20.66S87.2,213.35,82.54,221.36C82.52,221.39,82.48,221.37,82.5,221.34Z" style="fill:#dbdbdb"></path><path d="M102.1,211.47a57,57,0,0,1-7,10.19c-4.88,5.73-10.63,10.56-16.23,15.55-2,1.76-4,3.52-5.87,5.35.18-1.31.44-3,.78-5,1.21-.93,2.43-1.86,3.6-2.82,2.92-2.39,5.76-4.87,8.58-7.37a141.1,141.1,0,0,0,15.82-16.15C101.91,211,102.22,211.26,102.1,211.47Z" style="fill:#dbdbdb"></path><path d="M126.66,194.14a96,96,0,0,1-7.51,13.1,130.92,130.92,0,0,1-8,10.59c-2.9,3.45-6,6.74-9.07,10s-6.24,6.55-9.32,9.86-6.12,6.63-8.92,10.15c-.06.08-.18,0-.11-.11,3.17-3.95,6.4-7.83,9.78-11.62,6-6.68,12.08-13.22,17.91-20s11.27-13.94,15.18-22C126.6,194,126.68,194.08,126.66,194.14Z" style="fill:#dbdbdb"></path><path d="M126,129.48a72.34,72.34,0,0,0-4.66-15.77c0-.09.11-.14.15,0a86,86,0,0,1,3.18,8.92,76.24,76.24,0,0,1,1.88,32.91s0,0,0,0a74.36,74.36,0,0,0,.81-9.43A81.73,81.73,0,0,0,126,129.48Z" style="fill:#dbdbdb"></path><path d="M130.7,175.43c-.28.87-.56,1.73-.86,2.59a106.17,106.17,0,0,1-9.16,19.33A156.25,156.25,0,0,1,108.3,215C103.75,220.69,99,226.26,94,231.59c-5.37,5.74-11.13,11.1-16.42,16.92a126.07,126.07,0,0,0-10.8,13.79l1.63-4.25a91.44,91.44,0,0,1,9.45-12.6c5.18-5.78,10.81-11.15,16.25-16.68,5.12-5.19,10.15-10.42,14.8-16a141.81,141.81,0,0,0,12.61-17.68,101.56,101.56,0,0,0,9.1-19.65C130.6,175.32,130.72,175.35,130.7,175.43Z" style="fill:#dbdbdb"></path><path d="M130.84,145.67A80.06,80.06,0,0,1,127.28,173a90.75,90.75,0,0,1-5.22,12.77,89.71,89.71,0,0,1-7.06,12s-.09,0-.06,0a83.06,83.06,0,0,0,7.42-13.45,98.63,98.63,0,0,0,6.91-26.5,97.25,97.25,0,0,0,.79-13.64,69.56,69.56,0,0,0-1.38-13.81c0-.09.13-.14.15,0A102.09,102.09,0,0,1,130.84,145.67Z" style="fill:#dbdbdb"></path><path d="M133.42,158.62s-.08,0-.08,0a90.57,90.57,0,0,0,0-10.55,92.09,92.09,0,0,0-3.24-18.71,102.05,102.05,0,0,0-5.66-16.21l.31.19c1.25,2.51,2.44,5.07,3.46,7.67A86.93,86.93,0,0,1,133.42,158.62Z" style="fill:#dbdbdb"></path><path d="M109,113.42c-.83,6.13-28.13,58.6-28.28,60.85,0,0-27.21,12.33-29-2.31s28.39-40.58,41.89-53.71C99.16,112.89,110,106,109,113.42Z" style="fill:#d3766a"></path><path d="M76.27,133.54,97.86,141s8.58-15.83,10.88-23.71c2.21-7.54-.33-12.38-11.18-3.27A284.72,284.72,0,0,0,76.27,133.54Z" style="fill:#FFC727"></path><path d="M81.89,130.59a38.62,38.62,0,0,1,4.34,1.17c1.42.44,2.84.89,4.26,1.36s2.86.93,4.28,1.43,2.87,1.11,4.3,1.66c.08,0,0,.17,0,.14-1.44-.39-2.9-.74-4.34-1.18s-2.84-.89-4.26-1.35-2.86-.94-4.27-1.44a38,38,0,0,1-4.31-1.66A.07.07,0,0,1,81.89,130.59Z" style="fill:#263238"></path><path d="M106.38,126.45a0,0,0,1,0-.06,0c-.49.74-1,1.47-1.46,2.23l-.38.63c.62-1.56,1.21-3.14,1.8-4.73,0,0-.06-.07-.08,0-1.29,2.79-2.74,5.52-4.1,8.28s-2.72,5.45-4,8.21L97,140.76a.08.08,0,1,0,0,.15l1.24.47a.2.2,0,0,0,.21-.09,67.44,67.44,0,0,0,4.49-8.22c.42-.89.8-1.79,1.17-2.7.36-.53.72-1.06,1.06-1.61C105.55,128,106,127.23,106.38,126.45Z" style="fill:#263238"></path><path d="M93.39,166.17s8.6-1.81,16.2-3c4.23-.69,13-.45,16.34.47,5,1.37,25,10.29,23,15.2-1.86,4.44-18.11-5.42-18.11-5.42s17.27,8.5,14.05,13.43-20.11-8.64-20.11-8.64,17.56,9.13,13.42,13.69c-3.12,3.45-19.1-8-19.1-8s15,7.94,12,11.63c-3.38,4.07-18.79-5.56-18.79-5.56-5.18,3.78-15,5-22,2.16C89,191.6,93.39,166.17,93.39,166.17Z" style="fill:#d3766a"></path><path d="M125,170.05c2.07.93,4.17,1.85,6.14,2.95s3.92,2.28,5.78,3.57a39.31,39.31,0,0,1,6.78,5.68c-3.89-3.55-10.9-7.61-12.88-8.71s-3.89-2.31-5.86-3.41C124.93,170.1,125,170,125,170.05Z" style="fill:#263238"></path><path d="M120.91,177.12c2.58,1.29,5.2,2.48,7.73,3.89s4.78,3,7.19,4.52c.19.12.06.19-.13.07-2.47-1.47-4.88-2.65-7.37-4.09s-4.93-3-7.46-4.34C120.83,177.15,120.87,177.1,120.91,177.12Z" style="fill:#263238"></path><path d="M116.28,182.54a67.46,67.46,0,0,1,11.63,6.82c.17.13,0,.19-.19.07-3.73-2.35-6.91-4.19-11.5-6.75C116.15,182.64,116.2,182.5,116.28,182.54Z" style="fill:#263238"></path><path d="M94.63,166.26c3,1.72,9.15,27.66,4,27.35-24.09-1.43-41.4-13.17-44.65-16.67-4.26-4.59-2-12.07,1.37-14.41C60.25,159.15,91.62,164.56,94.63,166.26Z" style="fill:#d3766a"></path><path d="M67.69,161.52c12.34-.4,26.12,4.31,26.15,4.31.23,0,.39.52.26.5-2.39-.31-17.38-3.85-26.37-4.48C67.65,161.85,67.61,161.52,67.69,161.52Z" style="fill:#263238"></path><path d="M86.91,119.42c3.25,2.13,9,13.09,7.33,20.4s-11.78,14.43-13.81,14.31-6.61-10.15-6.85-16c-.15-3.91,2.92-6.88,5.42-10.09C82.7,123.29,86.41,119.09,86.91,119.42Z" style="fill:#263238"></path><path d="M71.91,136.3c2.24-7.2,9.27-12,14.5-16.93.06-.05.15,0,.11.09-4.1,5.19-10.14,8.7-13.2,14.73-1.81,3.58-2.28,7.73-.39,11.39,1.64,3.17,4.45,5.62,6.92,8.13.16.17-.11.39-.27.23C74.57,149.1,69.6,143.73,71.91,136.3Z" style="fill:#263238"></path><path d="M87.36,120.4c-.13-.17.12-.39.25-.22,3.79,4.73,8,11,8.26,17.28.22,6.78-5.4,11-10.31,14.67a.06.06,0,1,1-.07-.09c4.91-3.72,10.54-8.57,9.86-15.41C94.77,130.75,90.89,124.94,87.36,120.4Z" style="fill:#263238"></path><path d="M80.3,153.27c5.5,3,12.49,7.84,12.15,13.59s-5.69,15-6.32,15.06-11.5-4.64-14.52-11S79.59,152.87,80.3,153.27Z" style="fill:#263238"></path><path d="M85.72,182.43c3.69-4.22,7.9-9.89,7.31-15.85-.57-5.74-7.31-10.23-11.89-12.79-.06,0,0-.12,0-.1,4.9,2.23,11.44,6.68,12.26,12.48S90.07,179,85.86,182.58C85.77,182.66,85.65,182.52,85.72,182.43Z" style="fill:#263238"></path><path d="M86.15,180.43c-1.41,2.52-2.1,8.26,0,13,3.67,8.17-.07,8.56-6.8,15.85-5.69,6.16-2.08,14.72,4,16.06,0,0-5.21-3.28-2.16-8.62,3.64-6.37,20-8.93,21.06-20.8C103.75,180.6,86.15,180.43,86.15,180.43Z" style="fill:#263238"></path><path d="M85.52,185.74c0-.16-.25-.2-.28,0a12.86,12.86,0,0,0-.09,4.67c.35,2,1.44,3.72,1.92,5.68,1.21,5-3.75,8.1-7.11,10.7-4.51,3.48-6.4,8.9-3.38,14.07,0,.08.16,0,.12-.06A10.12,10.12,0,0,1,77,210.27c2-3,5.52-4.46,7.93-7.06,1.65-1.78,3-3.91,2.69-6.43a20.12,20.12,0,0,0-1.35-4A14.09,14.09,0,0,1,85.52,185.74Z" style="fill:#263238"></path><path d="M88,180.49c-.06,0-.08.11,0,.12,4.43.87,9,1.64,12.38,5,3.6,3.62,4.22,9.22,2.62,13.91-1.79,5.25-6.62,6.51-11.24,8.43-3.35,1.39-6.6,3.05-8.84,6-.07.09.08.21.16.12,4-4.19,9.17-5.64,14.26-8,4.16-1.88,6.25-5.15,6.73-9.68C105.1,186.44,97,181.26,88,180.49Z" style="fill:#263238"></path><path d="M106.05,110.46c.44,1,6.73,7,11.53,5.88,1.56-.36,0-9,0-9l0-.67.39-9.27-11.69-4.84L104.61,92s.06,2.55.17,5.72c0,.14,0,.29,0,.45s0,.35,0,.51c0,.48,0,1,0,1.44s0,.73.06,1.11,0,.76.07,1.15A59.19,59.19,0,0,0,106.05,110.46Z" style="fill:#d3766a"></path><path d="M104.78,97.69a18.59,18.59,0,0,0,12.8,9l.39-9.27-11.69-4.84L104.61,92S104.67,94.52,104.78,97.69Z" style="fill:#263238"></path><path d="M128.37,102.84a7.91,7.91,0,0,1-1.06,3.31,1.88,1.88,0,0,1-3.25,0c-1.21-1.58-1.46-3.91-1.53-5.85a21.32,21.32,0,0,1,1.21-7.92,2.27,2.27,0,0,0,.49.25,20.92,20.92,0,0,0-1.16,7.48,10.78,10.78,0,0,0,1.24,5.42,1.91,1.91,0,0,0,1.35,1c.83.05,1.33-.84,1.59-1.5a14,14,0,0,0,.48-7.37,15,15,0,0,0-1-3.66,7.88,7.88,0,0,0-.62-1.23,1.54,1.54,0,0,0-.69-.59c-.34-.11-.2-.64.14-.53a2.07,2.07,0,0,1,1.06,1,8.1,8.1,0,0,1,.58,1.13,16.18,16.18,0,0,1,1.23,4.58A18,18,0,0,1,128.37,102.84Z" style="fill:#FFC727"></path><path d="M129.29,83.6c2.16,16.16-7.28,19.27-10.76,19.73-3.16.42-14,1.44-17.8-14.4s3-22,10.2-23.3S127.14,67.44,129.29,83.6Z" style="fill:#d3766a"></path><path d="M123.4,79.25c-.38,0-.74,0-1.13,0a1.82,1.82,0,0,1-1.15-.18.57.57,0,0,1-.17-.69,1.43,1.43,0,0,1,1.29-.67,2.14,2.14,0,0,1,1.47.4A.62.62,0,0,1,123.4,79.25Z" style="fill:#263238"></path><path d="M112.49,82.19a9.4,9.4,0,0,0,1-.49,1.84,1.84,0,0,0,.94-.7.58.58,0,0,0-.18-.69,1.45,1.45,0,0,0-1.45,0,2.15,2.15,0,0,0-1.11,1A.62.62,0,0,0,112.49,82.19Z" style="fill:#263238"></path><path d="M116.13,85.44s-.07.08,0,.12c.32,1.06.52,2.33-.35,3,0,0,0,.07,0,.06C116.89,88.08,116.61,86.39,116.13,85.44Z" style="fill:#263238"></path><path d="M114.87,84.59c-1.76.34-.94,3.83.69,3.51S116.34,84.3,114.87,84.59Z" style="fill:#263238"></path><path d="M114.23,84.93c-.26.27-.48.69-.84.81s-.82-.14-1.18-.43c0,0-.06,0,0,0,.15.67.57,1.3,1.31,1.23s1-.76,1-1.48C114.48,85,114.33,84.83,114.23,84.93Z" style="fill:#263238"></path><path d="M122.3,83.72s.1,0,.11.07c.21,1.09.64,2.31,1.7,2.44a0,0,0,0,1,0,.07C122.88,86.4,122.33,84.78,122.3,83.72Z" style="fill:#263238"></path><path d="M123,82.37c1.72-.53,2.64,2.93,1.06,3.42S121.58,82.81,123,82.37Z" style="fill:#263238"></path><path d="M123.8,82.4c.32.11.68.37,1,.31s.57-.53.71-.95c0-.05,0,0,.07,0,.19.66.16,1.4-.44,1.7s-1.13-.18-1.46-.8C123.62,82.57,123.67,82.36,123.8,82.4Z" style="fill:#263238"></path><path d="M118.76,94.38c.31.21.63.51,1,.47a3,3,0,0,0,1.12-.5,0,0,0,0,1,0,.05,1.48,1.48,0,0,1-1.27.85,1.18,1.18,0,0,1-1-.8C118.63,94.39,118.71,94.35,118.76,94.38Z" style="fill:#263238"></path><path d="M122.3,89.37s.62,1.56.81,2.31c0,.08-.16.15-.41.23,0,0,0,0,0,0a3.73,3.73,0,0,1-3.84-.48c-.07-.06,0-.16.09-.13a5.66,5.66,0,0,0,3.52.13c0-.23-1.15-2.63-1-2.67a6.44,6.44,0,0,1,1.82,0c-1.2-3.28-2.91-6.33-4-9.61,0-.12.12-.2.18-.1a56.12,56.12,0,0,1,4.81,10.16C124.34,89.61,122.64,89.43,122.3,89.37Z" style="fill:#263238"></path><path d="M122.16,91.84a4.15,4.15,0,0,1-1.33,1.64,1.86,1.86,0,0,1-1.09.32c-.85,0-1-.75-1-1.41a4.71,4.71,0,0,1,.13-1A5.42,5.42,0,0,0,122.16,91.84Z" style="fill:#263238"></path><path d="M120.83,93.48a1.86,1.86,0,0,1-1.09.32c-.85,0-1-.75-1-1.41A1.93,1.93,0,0,1,120.83,93.48Z" style="fill:#ff97b8"></path><path d="M121.66,88a.2.2,0,0,1-.17.24.21.21,0,1,1-.07-.42A.21.21,0,0,1,121.66,88Z" style="fill:#FFC727"></path><path d="M118.84,77a.48.48,0,1,1-.94.15.47.47,0,0,1,.39-.55A.48.48,0,0,1,118.84,77Z" style="fill:#774442"></path><path d="M100.63,89.91c3.64-1.47,4-5.69,4-5.69,13.71-2.9,11.32-12.28,11.32-12.28A14.51,14.51,0,0,0,128.08,77a32.7,32.7,0,0,0-4.05-7.9c-2.62-3.87-7.49-6.92-14.76-4.57a12.84,12.84,0,0,0-6.34,4.89s-6.05,2.73-7.36,7.69C93.41,85.28,100.63,89.91,100.63,89.91Z" style="fill:#263238"></path><path d="M116.34,72.53l0,0c-.06-.1-.13-.18-.18-.27s0,0,0,0S116,72,115.93,72h0a2.11,2.11,0,0,0-.17-.22l0,0,0,0s0,0,.06-.06,0,0,.06-.07a.62.62,0,0,0,0-.61.76.76,0,0,0-.73-.53s0,0,.06,0a.23.23,0,0,0,.07-.07,1,1,0,0,0-.4-1.24.47.47,0,0,0-.25,0l0,0,.05-.07,0-.1a.22.22,0,0,0,0-.08s0,0,0-.06,0,0,0,0a.92.92,0,0,0-.58-.89.44.44,0,0,0-.23,0,.82.82,0,0,0,.17-.38c0-.44-.47-.86-.84-.66a.47.47,0,0,0,.16-.21.6.6,0,0,0-.4-.76.43.43,0,0,0-.53.53.71.71,0,0,0,.28.38l.13.08a.3.3,0,0,0,.29,0,.47.47,0,0,0-.11.13.68.68,0,0,0,.61,1,.68.68,0,0,0-.17.21.8.8,0,0,0,.08.69.74.74,0,0,0,.55.42h.12a.87.87,0,0,0-.18.83.8.8,0,0,0,.68.56.75.75,0,0,0-.16.68.79.79,0,0,0,.51.58.82.82,0,0,0,.22,0h0c0,.11,0,.23,0,.35a.37.37,0,0,0,0,.11,8.8,8.8,0,0,0,.12.93c.39,2.45,1.53,6,2.71,5.46S117.56,74.41,116.34,72.53Zm1.7,5.62c-1,.44-2.53-5.66-2.24-5.82S119,77.72,118,78.15Z" style="fill:#FFC727"></path><path d="M114.42,70.57a.13.13,0,1,1,.14.22A.13.13,0,0,1,114.42,70.57Z" style="fill:#FFC727"></path><path d="M114.26,71a.13.13,0,0,1,.14.22A.13.13,0,1,1,114.26,71Z" style="fill:#FFC727"></path><path d="M114.46,71.54a.13.13,0,0,1,.14.23C114.46,71.86,114.32,71.63,114.46,71.54Z" style="fill:#FFC727"></path><path d="M116.21,71a.13.13,0,0,1,.14.22A.13.13,0,0,1,116.21,71Z" style="fill:#FFC727"></path><path d="M116,70.51a.13.13,0,0,1,.14.22A.13.13,0,0,1,116,70.51Z" style="fill:#FFC727"></path><path d="M115.56,70.15c.14-.09.28.14.13.22A.13.13,0,1,1,115.56,70.15Z" style="fill:#FFC727"></path><path d="M116.44,71.79c.18-.12.32.1.13.22S116.26,71.9,116.44,71.79Z" style="fill:#FFC727"></path><path d="M116.63,71.1a.13.13,0,0,1,.14.22A.13.13,0,1,1,116.63,71.1Z" style="fill:#FFC727"></path><path d="M116,71.77c-.05-.08.1-.18.15-.1,2.11,3.06,7.18,5.17,11.65,4.86.17,0,.16.22,0,.24C123.35,77.33,117.71,75,116,71.77Z" style="fill:#FFC727"></path><path d="M115.9,71.67c2.95,2.19,7.13,4.23,11.71,3.31.15,0,.17.19,0,.23-4.25,1.12-9.66-.81-11.85-3.45C115.74,71.71,115.85,71.64,115.9,71.67Z" style="fill:#FFC727"></path><path d="M99.16,86.68a16.79,16.79,0,0,0,10.83-5,16.83,16.83,0,0,0,5.45-9.93.1.1,0,1,1,.2,0c-.09,4-2.34,7.16-5,9.78a17.85,17.85,0,0,1-11.4,5.37C99.08,86.89,99,86.69,99.16,86.68Z" style="fill:#FFC727"></path><path d="M99,86.82a19.46,19.46,0,0,0,11.49-4c3.42-2.67,4.58-6.29,5.11-10.58a0,0,0,0,1,.06,0c.75,9.28-8.55,14.87-16.61,14.75C99,87,98.89,86.82,99,86.82Z" style="fill:#FFC727"></path><path d="M103.46,89.83s-3.78-4.92-6-3.55.76,8.62,3.52,9.5a2.76,2.76,0,0,0,3.62-1.65Z" style="fill:#d3766a"></path><path d="M98.34,88.34s0,0,0,.07c1.94.68,3,2.39,3.8,4.19a1.51,1.51,0,0,0-2.29-.31s0,.11,0,.1a1.68,1.68,0,0,1,1.89.5,7.63,7.63,0,0,1,1,1.47c.09.16.4.06.32-.13l0,0C103,91.76,101,88.46,98.34,88.34Z" style="fill:#263238"></path><path d="M105,105.89a8,8,0,0,1-1,3.31,1.88,1.88,0,0,1-3.25,0c-1.22-1.59-1.47-3.92-1.54-5.86a21.35,21.35,0,0,1,1.21-7.92,1.89,1.89,0,0,0,.49.25,21.19,21.19,0,0,0-1.16,7.49,10.88,10.88,0,0,0,1.24,5.41,1.91,1.91,0,0,0,1.35,1c.83.06,1.33-.84,1.59-1.5a14,14,0,0,0,.48-7.37,14.6,14.6,0,0,0-1-3.66,7.4,7.4,0,0,0-.62-1.22,1.42,1.42,0,0,0-.69-.59c-.34-.11-.2-.65.14-.54a2.12,2.12,0,0,1,1.06,1,8.1,8.1,0,0,1,.58,1.13,16.18,16.18,0,0,1,1.23,4.58A18,18,0,0,1,105,105.89Z" style="fill:#FFC727"></path></g></svg>